<?xml version="1.0" encoding="UTF-8" standalone="no"?>
<svg
   xmlns:dc="http://purl.org/dc/elements/1.1/"
   xmlns:cc="http://creativecommons.org/ns#"
   xmlns:rdf="http://www.w3.org/1999/02/22-rdf-syntax-ns#"
   xmlns:svg="http://www.w3.org/2000/svg"
   xmlns="http://www.w3.org/2000/svg"
   xmlns:sodipodi="http://sodipodi.sourceforge.net/DTD/sodipodi-0.dtd"
   xmlns:inkscape="http://www.inkscape.org/namespaces/inkscape"
   height="200"
   width="250"
   sodipodi:docname="between.svg"
   inkscape:version="1.0beta2 (2b71d25, 2019-12-03)"
   xml:space="preserve"
   viewBox="0 0 250 200"
   y="0px"
   x="0px"
   id="Layer_1"
   version="1.1"><metadata
   id="metadata11"><rdf:RDF><cc:Work
       rdf:about=""><dc:format>image/svg+xml</dc:format><dc:type
         rdf:resource="http://purl.org/dc/dcmitype/StillImage" /><dc:title></dc:title></cc:Work></rdf:RDF></metadata><defs
   id="defs9" /><sodipodi:namedview
   inkscape:document-rotation="0"
   inkscape:current-layer="Layer_1"
   inkscape:window-maximized="0"
   inkscape:window-y="23"
   inkscape:window-x="597"
   inkscape:cy="130.52607"
   inkscape:cx="133.88596"
   inkscape:zoom="2.2024394"
   showgrid="false"
   id="namedview7"
   inkscape:window-height="797"
   inkscape:window-width="843"
   inkscape:pageshadow="2"
   inkscape:pageopacity="0"
   guidetolerance="10"
   gridtolerance="10"
   objecttolerance="10"
   borderopacity="1"
   bordercolor="#666666"
   pagecolor="#ffffff" /><style
   id="style3"
   type="text/css">
	.st0{font-family:&quot;Arial Black&quot;, &quot;Arial Bold&quot;, Gadget, sans-serif;}
	.st1{font-size:75px;}
</style><text
   id="text3386"
   style="font-size:97.2459px;font-family:'Arial Black', 'Arial Bold', Gadget, sans-serif"
   y="96.020195"
   x="5.0010576"
   class="st0 st1"
   transform="scale(0.79983082,1.2502644)" />


<path
   inkscape:connector-curvature="0"
   id="path3345-6"
   style="font-size:131.791px;font-family:'Arial Black', 'Arial Bold', Gadget, sans-serif"
   d="m 15.637954,32.62457 h 38.393841 q 9.598472,0 14.714636,8.594824 5.161438,8.594813 5.161438,21.282401 0,10.641195 -3.667339,18.253753 -2.444892,5.07503 -7.15357,8.02182 7.15357,3.110508 10.503963,10.723054 3.395693,7.530698 3.395693,18.990458 0,9.33152 -2.399618,16.78035 -2.399617,7.44884 -6.56498,11.78718 -2.580723,2.70123 -7.787444,3.92906 -6.927191,1.6371 -9.190978,1.6371 H 15.637954 Z m 20.691024,47.066851 h 8.919324 q 4.799227,0 6.655547,-2.946789 1.901576,-3.028649 1.901576,-8.676672 0,-5.23875 -1.901576,-8.185539 -1.85632,-2.946801 -6.519724,-2.946801 h -9.055147 z m 0,47.148709 h 10.458698 q 5.297269,0 7.470508,-3.35607 2.173229,-3.43792 2.173229,-9.1678 0,-5.3206 -2.173229,-8.51297 -2.127964,-3.27421 -7.515791,-3.27421 H 36.328978 Z" /><path
   d="M 80.410139,33.532659 H 152.05937 V 63.164307 H 128.02019 V 153.53265 H 104.44931 V 63.164307 H 80.410139 Z"
   style="font-size:141.351px;font-family:'Arial Black', 'Arial Bold', Gadget, sans-serif"
   id="path4991"
   inkscape:connector-curvature="0" /><path
   inkscape:connector-curvature="0"
   id="path3400"
   style="font-size:126.367px;font-family:'Arial Black', 'Arial Bold', Gadget, sans-serif"
   d="m 159.34736,34.894775 h 17.15181 l 6.18264,67.039555 9.01469,-67.039555 h 17.11193 l 9.05457,67.039555 6.18264,-67.039555 h 17.07205 L 228.23388,154.89479 H 210.52362 L 200.2724,79.342252 190.06108,154.89479 h -17.71025 z" /></svg>
