<?xml version="1.0" encoding="UTF-8" standalone="no"?>
<svg
   xmlns:dc="http://purl.org/dc/elements/1.1/"
   xmlns:cc="http://creativecommons.org/ns#"
   xmlns:rdf="http://www.w3.org/1999/02/22-rdf-syntax-ns#"
   xmlns:svg="http://www.w3.org/2000/svg"
   xmlns="http://www.w3.org/2000/svg"
   xmlns:sodipodi="http://sodipodi.sourceforge.net/DTD/sodipodi-0.dtd"
   xmlns:inkscape="http://www.inkscape.org/namespaces/inkscape"
   sodipodi:docname="big-bowl-in-dunes.svg"
   inkscape:version="1.0beta2 (2b71d25, 2019-12-03)"
   xml:space="preserve"
   style="enable-background:new 0 0 250 250;"
   viewBox="0 0 250 250"
   y="0px"
   x="0px"
   id="Layer_1"
   version="1.1"><metadata
     id="metadata4205"><rdf:RDF><cc:Work
         rdf:about=""><dc:format>image/svg+xml</dc:format><dc:type
           rdf:resource="http://purl.org/dc/dcmitype/StillImage" /><dc:title></dc:title></cc:Work></rdf:RDF></metadata><defs
     id="defs4203" /><sodipodi:namedview
     inkscape:document-rotation="0"
     inkscape:window-maximized="0"
     inkscape:window-y="23"
     inkscape:window-x="116"
     inkscape:current-layer="Layer_1"
     inkscape:cy="138.05376"
     inkscape:cx="142.96684"
     inkscape:zoom="3.2317819"
     showgrid="false"
     id="namedview4201"
     inkscape:window-height="797"
     inkscape:window-width="1324"
     inkscape:pageshadow="2"
     inkscape:pageopacity="0"
     guidetolerance="10"
     gridtolerance="10"
     objecttolerance="10"
     borderopacity="1"
     bordercolor="#666666"
     pagecolor="#ffffff" /><style
     id="style4196"
     type="text/css">
	.st0{fill-rule:evenodd;clip-rule:evenodd;}
</style><g
     transform="translate(-9.1068289,11.058292)"
     id="g4440"><g
       id="g4398"
       transform="matrix(1.4133134,0,0,0.86922463,25.761731,36.431591)"><path
         sodipodi:nodetypes="cc"
         inkscape:connector-curvature="0"
         id="path4209"
         d="M 25.74506,152.54808 C 12.547743,21.556075 126.59065,46.480705 126.59065,46.480705"
         style="fill:none;fill-rule:evenodd;stroke:#000000;stroke-width:1.80742;stroke-linecap:butt;stroke-linejoin:miter;stroke-miterlimit:4;stroke-dasharray:none;stroke-opacity:1" /><path
         sodipodi:nodetypes="ccc"
         inkscape:connector-curvature="0"
         id="path4211"
         d="m 112.77639,44.273987 c 2.21445,12.574294 8.85779,14.204296 8.85779,14.204296 h 0.40263"
         style="fill:none;fill-rule:evenodd;stroke:#000000;stroke-width:0.998536;stroke-linecap:butt;stroke-linejoin:miter;stroke-miterlimit:4;stroke-dasharray:none;stroke-opacity:1" /><path
         sodipodi:nodetypes="ccc"
         inkscape:connector-curvature="0"
         id="path4211-1"
         d="m 76.255972,48.123423 c 2.735941,14.620058 10.943784,16.51525 10.943784,16.51525 h 0.497447"
         style="fill:none;fill-rule:evenodd;stroke:#000000;stroke-width:1.19679;stroke-linecap:butt;stroke-linejoin:miter;stroke-miterlimit:4;stroke-dasharray:none;stroke-opacity:1" /><path
         sodipodi:nodetypes="ccc"
         inkscape:connector-curvature="0"
         id="path4211-0"
         d="m 95.125999,44.094072 c 1.569731,12.85036 8.111671,14.953456 8.111671,14.953456 l 0.4015,0.0277"
         style="fill:none;fill-rule:evenodd;stroke:#000000;stroke-width:1.00376;stroke-linecap:butt;stroke-linejoin:miter;stroke-miterlimit:4;stroke-dasharray:none;stroke-opacity:1" /><path
         sodipodi:nodetypes="ccc"
         inkscape:connector-curvature="0"
         id="path4211-7"
         d="m 44.75829,69.115598 c 2.999426,15.117713 11.997708,17.07742 11.997708,17.07742 h 0.545351"
         style="fill:none;fill-rule:evenodd;stroke:#000000;stroke-width:1.27424;stroke-linecap:butt;stroke-linejoin:miter;stroke-miterlimit:4;stroke-dasharray:none;stroke-opacity:1" /><path
         inkscape:transform-center-y="-1.159667"
         inkscape:transform-center-x="-0.32121722"
         sodipodi:nodetypes="ccc"
         inkscape:connector-curvature="0"
         id="path4211-72"
         d="m 27.000431,108.41161 c 5.133655,15.99079 15.925631,17.18011 15.925631,17.18011 l 0.641444,-0.056"
         style="fill:none;fill-rule:evenodd;stroke:#000000;stroke-width:1.44106;stroke-linecap:butt;stroke-linejoin:miter;stroke-miterlimit:4;stroke-dasharray:none;stroke-opacity:1" /><path
         sodipodi:nodetypes="ccc"
         inkscape:connector-curvature="0"
         id="path4211-8"
         d="m 25.040264,133.56808 c 6.212509,16.76618 16.961888,17.30155 16.961888,17.30155 l 0.62989,-0.10375"
         style="fill:none;fill-rule:evenodd;stroke:#000000;stroke-width:1.48554;stroke-linecap:butt;stroke-linejoin:miter;stroke-miterlimit:4;stroke-dasharray:none;stroke-opacity:1" /><path
         sodipodi:nodetypes="ccc"
         inkscape:connector-curvature="0"
         id="path4211-13"
         d="m 33.757418,85.860584 c 3.458665,16.383316 13.834676,18.507086 13.834676,18.507086 h 0.62885"
         style="fill:none;fill-rule:evenodd;stroke:#000000;stroke-width:1.42444;stroke-linecap:butt;stroke-linejoin:miter;stroke-miterlimit:4;stroke-dasharray:none;stroke-opacity:1" /><path
         sodipodi:nodetypes="ccc"
         inkscape:connector-curvature="0"
         id="path4211-6"
         d="m 58.917268,56.32603 c 2.666863,15.152958 10.667457,17.117231 10.667457,17.117231 h 0.484887"
         style="fill:none;fill-rule:evenodd;stroke:#000000;stroke-width:1.20292;stroke-linecap:butt;stroke-linejoin:miter;stroke-miterlimit:4;stroke-dasharray:none;stroke-opacity:1" /></g><g
       id="g4418"
       transform="matrix(-1.4133134,0,0,-0.86922463,241.05983,209.43231)"><path
         style="fill:none;fill-rule:evenodd;stroke:#000000;stroke-width:1.80742;stroke-linecap:butt;stroke-linejoin:miter;stroke-miterlimit:4;stroke-dasharray:none;stroke-opacity:1"
         d="M 25.74506,152.54808 C 12.547743,21.556075 126.59065,46.480705 126.59065,46.480705"
         id="path4400"
         inkscape:connector-curvature="0"
         sodipodi:nodetypes="cc" /><path
         style="fill:none;fill-rule:evenodd;stroke:#000000;stroke-width:0.998536;stroke-linecap:butt;stroke-linejoin:miter;stroke-miterlimit:4;stroke-dasharray:none;stroke-opacity:1"
         d="m 112.77639,44.273987 c 2.21445,12.574294 8.85779,14.204296 8.85779,14.204296 h 0.40263"
         id="path4402"
         inkscape:connector-curvature="0"
         sodipodi:nodetypes="ccc" /><path
         style="fill:none;fill-rule:evenodd;stroke:#000000;stroke-width:1.19679;stroke-linecap:butt;stroke-linejoin:miter;stroke-miterlimit:4;stroke-dasharray:none;stroke-opacity:1"
         d="m 76.255972,48.123423 c 2.735941,14.620058 10.943784,16.51525 10.943784,16.51525 h 0.497447"
         id="path4404"
         inkscape:connector-curvature="0"
         sodipodi:nodetypes="ccc" /><path
         style="fill:none;fill-rule:evenodd;stroke:#000000;stroke-width:1.00376;stroke-linecap:butt;stroke-linejoin:miter;stroke-miterlimit:4;stroke-dasharray:none;stroke-opacity:1"
         d="m 95.125999,44.094072 c 1.569731,12.85036 8.111671,14.953456 8.111671,14.953456 l 0.4015,0.0277"
         id="path4406"
         inkscape:connector-curvature="0"
         sodipodi:nodetypes="ccc" /><path
         style="fill:none;fill-rule:evenodd;stroke:#000000;stroke-width:1.27424;stroke-linecap:butt;stroke-linejoin:miter;stroke-miterlimit:4;stroke-dasharray:none;stroke-opacity:1"
         d="m 44.75829,69.115598 c 2.999426,15.117713 11.997708,17.07742 11.997708,17.07742 h 0.545351"
         id="path4408"
         inkscape:connector-curvature="0"
         sodipodi:nodetypes="ccc" /><path
         style="fill:none;fill-rule:evenodd;stroke:#000000;stroke-width:1.44106;stroke-linecap:butt;stroke-linejoin:miter;stroke-miterlimit:4;stroke-dasharray:none;stroke-opacity:1"
         d="m 27.000431,108.41161 c 5.133655,15.99079 15.925631,17.18011 15.925631,17.18011 l 0.641444,-0.056"
         id="path4410"
         inkscape:connector-curvature="0"
         sodipodi:nodetypes="ccc"
         inkscape:transform-center-x="-0.32121722"
         inkscape:transform-center-y="-1.159667" /><path
         style="fill:none;fill-rule:evenodd;stroke:#000000;stroke-width:1.48554;stroke-linecap:butt;stroke-linejoin:miter;stroke-miterlimit:4;stroke-dasharray:none;stroke-opacity:1"
         d="m 25.040264,133.56808 c 6.212509,16.76618 16.961888,17.30155 16.961888,17.30155 l 0.62989,-0.10375"
         id="path4412"
         inkscape:connector-curvature="0"
         sodipodi:nodetypes="ccc" /><path
         style="fill:none;fill-rule:evenodd;stroke:#000000;stroke-width:1.42444;stroke-linecap:butt;stroke-linejoin:miter;stroke-miterlimit:4;stroke-dasharray:none;stroke-opacity:1"
         d="m 33.757418,85.860584 c 3.458665,16.383316 13.834676,18.507086 13.834676,18.507086 h 0.62885"
         id="path4414"
         inkscape:connector-curvature="0"
         sodipodi:nodetypes="ccc" /><path
         style="fill:none;fill-rule:evenodd;stroke:#000000;stroke-width:1.20292;stroke-linecap:butt;stroke-linejoin:miter;stroke-miterlimit:4;stroke-dasharray:none;stroke-opacity:1"
         d="m 58.917268,56.32603 c 2.666863,15.152958 10.667457,17.117231 10.667457,17.117231 h 0.484887"
         id="path4416"
         inkscape:connector-curvature="0"
         sodipodi:nodetypes="ccc" /></g></g><path
     inkscape:connector-curvature="0"
     id="path4442"
     d="m 73.103159,180.06616 c -0.239252,-0.38712 0.535318,-0.65049 1.913073,-0.65049 1.624206,0 2.315097,-0.29118 2.315097,-0.97573 0,-0.68394 -0.690039,-0.97573 -2.307428,-0.97573 -1.874389,0 -2.881532,-0.56831 -5.366524,-3.02821 -3.323846,-3.29027 -7.987614,-5.73693 -9.954939,-5.22247 -0.885361,0.23153 -1.976654,-0.53854 -3.834185,-2.70559 -2.403654,-2.80416 -2.596519,-3.3192 -2.595858,-6.93215 6.73e-4,-3.67773 0.945305,-11.28406 1.646052,-13.25429 0.216451,-0.60857 1.39204,0.17869 3.673229,2.45988 4.202601,4.2026 11.251676,7.79261 16.330155,8.31676 2.534477,0.26158 3.710474,0.15187 3.710474,-0.34615 0,-0.401 -0.804979,-0.90181 -1.788842,-1.1129 -8.895924,-1.9087 -14.89246,-5.69025 -19.487535,-12.28928 -1.302327,-1.87029 -1.306956,-1.99281 -0.197148,-5.21852 1.163511,-3.38181 3.990451,-9.27531 5.706931,-11.89761 l 0.961049,-1.46822 1.764378,2.76919 c 3.610641,5.6669 10.468762,10.27597 16.781471,11.27816 2.299961,0.36513 2.764573,0.26094 2.764573,-0.61998 0,-0.66427 -0.545417,-1.05906 -1.463597,-1.05938 -2.263232,-7.8e-4 -9.165305,-3.51787 -12.09133,-6.16136 -1.448051,-1.30823 -3.36984,-3.8576 -4.270642,-5.66527 l -1.637822,-3.28669 2.738952,-3.26598 c 1.506424,-1.79629 4.489534,-4.68793 6.629135,-6.42588 l 3.890181,-3.15989 1.095399,2.11139 c 2.060597,3.97181 5.755639,7.55697 9.853064,9.56004 5.229519,2.55651 8.266416,3.19556 8.266416,1.73949 0,-0.58137 -0.512259,-1.0599 -1.138354,-1.0634 -1.721925,-0.01 -7.367492,-2.81141 -9.795563,-4.86137 -1.869486,-1.57836 -5.955197,-7.66535 -5.972661,-8.89821 -0.01257,-0.88701 17.389008,-10.123989 17.893991,-9.498362 0.07635,0.09459 0.635954,1.238884 1.243559,2.542872 2.40142,5.15368 8.2104,9.9657 13.54336,11.21899 3.20775,0.75385 1.98387,-1.13657 -1.79483,-2.77233 -3.87045,-1.67548 -7.29449,-5.01305 -9.42277,-9.18483 l -1.354,-2.654064 2.40968,-1.006831 c 2.28221,-0.953568 19.94,-5.607649 20.03644,-5.281023 0.54183,1.835204 3.22009,5.880246 5.1239,7.738751 4.0034,3.908147 12.15944,7.213677 12.15944,4.928057 0,-0.60034 -0.84378,-1.14295 -2.16186,-1.39022 -3.47214,-0.65138 -7.97104,-3.935754 -10.46605,-7.640628 -1.27277,-1.889947 -2.0989,-3.626816 -1.83585,-3.85971 0.82039,-0.72634 23.51451,-3.615464 23.88831,-3.041153 0.0595,0.09146 0.51072,1.174923 1.00264,2.407688 1.70047,4.261412 7.40636,9.142146 10.68775,9.142146 1.8121,0 1.03273,-0.948249 -2.28216,-2.776663 -2.15292,-1.187502 -3.92227,-2.837248 -5.19453,-4.84339 -1.0612,-1.673351 -1.92947,-3.236595 -1.92947,-3.473874 0,-0.692907 16.27402,-1.235694 19.83988,-0.661719 3.12043,0.502278 3.15123,0.527054 0.7589,0.61044 -3.33365,0.116196 -2.83228,1.519237 0.79956,2.237466 2.00207,0.395929 3.40239,1.258641 5.10884,3.147471 2.81321,3.113895 6.90505,5.340421 9.05807,4.928845 1.24371,-0.23775 2.15559,0.378851 4.48256,3.031051 l 2.92122,3.32952 -0.37863,4.55341 c -0.20825,2.50438 -0.68841,6.5669 -1.06703,9.02782 l -0.68839,4.4744 -2.36645,-2.66886 c -4.52598,-5.10436 -14.00226,-9.85763 -19.65249,-9.85763 -2.91112,0 -1.66195,1.74241 1.59985,2.23154 6.26642,0.93971 14.71616,6.50063 18.03347,11.86815 1.34992,2.18421 1.35527,2.30009 0.2441,5.28765 -0.62484,1.67997 -2.32437,5.36779 -3.77676,8.19515 -2.59962,5.06071 -2.65646,5.11776 -3.65485,3.66803 -2.30574,-3.34805 -6.85347,-7.8909 -9.37694,-9.36685 -2.5865,-1.51282 -8.82849,-3.67001 -10.61944,-3.67001 -1.85525,0 -0.74641,1.82755 1.34714,2.2203 3.64584,0.68397 9.89706,4.16723 12.34862,6.88082 3.23733,3.58333 5.15987,7.52589 4.38026,8.98259 -0.75388,1.40866 -11.5481,11.83873 -12.25204,11.83873 -0.27733,0 -1.20577,-1.3224 -2.0632,-2.93866 -2.77343,-5.22797 -10.52817,-10.69867 -15.18887,-10.71523 -2.89537,-0.0103 -2.06447,1.01981 2.02551,2.51109 4.63958,1.69167 9.07528,5.46251 11.19492,9.51695 l 1.57817,3.01867 -1.95147,1.57359 c -2.00547,1.61714 -14.56319,8.09188 -15.69416,8.09188 -0.34756,0 -0.99032,-0.9911 -1.42834,-2.20245 -1.7909,-4.95264 -9.86919,-11.45779 -14.22863,-11.45779 -2.3563,0 -1.75799,1.02512 1.27415,2.18311 1.52496,0.58239 3.90854,1.99519 5.29685,3.13954 2.54908,2.10117 6.24123,7.26984 6.24123,8.73715 0,0.43744 -1.8295,1.39598 -4.06555,2.1301 -3.76563,1.23628 -16.53214,4.60627 -17.50107,4.61978 -0.23418,0.003 -1.32151,-1.58122 -2.41629,-3.52107 -2.71415,-4.80922 -9.31544,-9.48276 -13.39422,-9.48276 -2.49408,0 -1.98405,0.9832 1.02523,1.97635 3.77722,1.2466 8.0479,4.70433 10.06816,8.15163 0.9478,1.6173 1.5991,3.06472 1.44732,3.21649 -0.41152,0.41153 -12.4486,2.11979 -18.54135,2.63132 l -5.324245,0.44702 -0.936642,-2.2417 c -1.365237,-3.26747 -4.932438,-7.05554 -7.923931,-8.41455 -5.040027,-2.28963 -5.850209,-0.99119 -0.981311,1.5727 2.875496,1.5142 7.155366,6.25256 7.155366,7.92191 0,0.46711 -0.658619,1.0258 -1.463598,1.24152 -2.499317,0.66979 -20.543489,0.46293 -20.97823,-0.24049 z"
     style="fill:#ffd42a;stroke-width:0.191894" /><path
     inkscape:connector-curvature="0"
     id="path4446"
     d="m 67.250096,180.34324 c -2.042217,-0.11497 -5.760399,-0.38242 -8.262628,-0.59434 -4.524384,-0.3832 -4.550445,-0.38977 -4.719351,-1.1905 -0.284526,-1.34886 -1.096941,-8.7699 -1.096941,-10.02006 v -1.17356 l 1.857557,1.98573 c 3.409062,3.6443 7.843907,6.53291 12.692835,8.26742 2.322636,0.83083 2.703491,1.0722 3.021606,1.91498 0.200198,0.53039 0.331607,0.97672 0.29202,0.99185 -0.03959,0.0151 -1.742881,-0.0666 -3.785098,-0.18152 z"
     style="fill:#ffd42a;stroke-width:0.0912809" /><path
     inkscape:connector-curvature="0"
     id="path4448"
     d=""
     style="fill:#ffd42a;stroke-width:0.0912809" /><path
     inkscape:connector-curvature="0"
     id="path4450"
     d=""
     style="fill:#ffd42a;stroke-width:0.0912809" /><path
     inkscape:connector-curvature="0"
     id="path4452"
     d="m 65.815981,174.87044 c -1.292892,-0.64951 -3.239652,-1.8189 -4.326134,-2.59864 -2.194496,-1.57492 -4.20819,-3.56709 -3.265178,-3.23027 0.311742,0.11135 0.694658,0.20245 0.850924,0.20245 0.156266,0 0.28412,0.18682 0.28412,0.41516 0,0.22834 0.591778,0.58988 1.315064,0.80342 2.259203,0.66701 4.705769,2.15056 6.436274,3.90283 0.915772,0.92729 1.527925,1.68598 1.360341,1.68598 -0.167585,0 -1.362519,-0.53142 -2.655411,-1.18093 z"
     style="fill:#ffd42a;stroke-width:0.0912809" /><path
     inkscape:connector-curvature="0"
     id="path4454"
     d="m 193.01304,98.090885 c -3.4736,-3.605144 -9.64932,-7.34811 -13.53058,-8.200578 -0.88858,-0.195166 -1.9217,-1.384716 -1.9217,-2.212681 0,-0.406453 15.64826,0.651012 16.38665,1.107363 0.44483,0.274919 1.93218,11.811121 1.51495,11.750251 -0.0603,-0.009 -1.16245,-1.108752 -2.44932,-2.444355 z"
     style="fill:#ffd42a;stroke-width:0.0912809" /><path
     inkscape:connector-curvature="0"
     id="path4458"
     d=""
     style="fill:#ffd42a;stroke-width:0.0912809" /><path
     inkscape:connector-curvature="0"
     id="path4460"
     d="m 189.85121,98.575954 c -0.43772,-0.405659 -1.58159,-0.98471 -2.54195,-1.28678 -2.70381,-0.850452 -7.76492,-4.670674 -6.67092,-5.03534 0.92262,-0.307541 8.62924,4.640843 10.1883,6.541866 0.64034,0.780792 -0.068,0.62121 -0.97543,-0.219746 z"
     style="fill:#ffd42a;stroke-width:0.0912809" /></svg>
