<?xml version="1.0" encoding="UTF-8" standalone="no"?>
<svg
   xmlns:dc="http://purl.org/dc/elements/1.1/"
   xmlns:cc="http://creativecommons.org/ns#"
   xmlns:rdf="http://www.w3.org/1999/02/22-rdf-syntax-ns#"
   xmlns:svg="http://www.w3.org/2000/svg"
   xmlns="http://www.w3.org/2000/svg"
   xmlns:sodipodi="http://sodipodi.sourceforge.net/DTD/sodipodi-0.dtd"
   xmlns:inkscape="http://www.inkscape.org/namespaces/inkscape"
   version="1.1"
   id="Layer_1"
   x="0px"
   y="0px"
   viewBox="0 0 180 200"
   xml:space="preserve"
   inkscape:version="1.0beta2 (2b71d25, 2019-12-03)"
   sodipodi:docname="big-track.svg"
   width="180"
   height="200"><metadata
     id="metadata15"><rdf:RDF><cc:Work
         rdf:about=""><dc:format>image/svg+xml</dc:format><dc:type
           rdf:resource="http://purl.org/dc/dcmitype/StillImage" /><dc:title /></cc:Work></rdf:RDF></metadata><defs
     id="defs13" /><sodipodi:namedview
     pagecolor="#ffffff"
     bordercolor="#666666"
     borderopacity="1"
     objecttolerance="10"
     gridtolerance="10"
     guidetolerance="10"
     inkscape:pageopacity="0"
     inkscape:pageshadow="2"
     inkscape:window-width="892"
     inkscape:window-height="786"
     id="namedview11"
     showgrid="false"
     inkscape:zoom="2.498444"
     inkscape:cx="114.80029"
     inkscape:cy="113.3312"
     inkscape:window-x="52"
     inkscape:window-y="23"
     inkscape:window-maximized="0"
     inkscape:current-layer="text3344"
     inkscape:document-rotation="0" /><style
     type="text/css"
     id="style3">
	.st0{font-family:&quot;Arial Black&quot;, &quot;Arial Bold&quot;, Gadget, sans-serif;}
	.st1{font-size:118.4014px;}
	
		.st2{fill-rule:evenodd;clip-rule:evenodd;fill:none;stroke:#000000;stroke-width:18.9859;stroke-linecap:round;stroke-miterlimit:10;}
</style><flowRoot
     xml:space="preserve"
     id="flowRoot3336"
     style="fill:black;stroke:none;stroke-opacity:1;stroke-width:1px;stroke-linejoin:miter;stroke-linecap:butt;fill-opacity:1;font-family:Arial;font-style:normal;font-weight:900;font-size:40px;line-height:125%;letter-spacing:0px;word-spacing:0px;-inkscape-font-specification:'Arial, Heavy';font-stretch:normal;font-variant:normal;text-anchor:middle;text-align:center;writing-mode:lr"><flowRegion
       id="flowRegion3338"><rect
         id="rect3340"
         width="142.58875"
         height="86.720642"
         x="17.510899"
         y="69.919037" /></flowRegion><flowPara
       id="flowPara3342" /></flowRoot><g
     transform="scale(0.8393384,1.1914146)"
     style="font-style:normal;font-variant:normal;font-weight:900;font-stretch:normal;font-size:140.70654297px;line-height:125%;font-family:Arial;-inkscape-font-specification:'Arial, Heavy';text-align:center;letter-spacing:0px;word-spacing:0px;writing-mode:lr-tb;text-anchor:middle;fill:#000000;fill-opacity:1;stroke:none;stroke-width:1px;stroke-linecap:butt;stroke-linejoin:miter;stroke-opacity:1"
     id="text3344"><path
       d="M 66.19557,87.818544 V 78.547696 H 84.300377 V 97.54534 q -5.198667,4.16428 -9.207586,5.68409 -3.983059,1.48942 -9.466229,1.48942 -6.750507,0 -11.018068,-2.70527 -4.241697,-2.705262 -6.595323,-8.054996 -2.327761,-5.349738 -2.327761,-12.280077 0,-7.295093 2.560537,-12.675225 2.560537,-5.410528 7.500563,-8.20698 3.853738,-2.158133 10.371468,-2.158133 6.284954,0 9.388635,1.337434 3.129546,1.337434 5.172801,4.164283 2.069121,2.796453 3.103684,7.112716 l -11.302573,2.370906 q -0.698329,-2.522887 -2.37949,-3.860321 -1.655297,-1.337434 -4.241697,-1.337434 -3.853737,0 -6.155634,3.161208 -2.276033,3.130811 -2.276033,9.939566 0,7.234301 2.301897,10.334716 2.32776,3.100417 6.466002,3.100417 1.965665,0 3.750281,-0.668716 1.784617,-0.66872 4.086515,-2.27972 v -4.19468 z"
       style="font-size:125.513px;font-family:'Arial Black', 'Arial Bold', Gadget, sans-serif;stroke-width:0.45751"
       id="path4135"
       inkscape:connector-curvature="0" /><path
       d="m 89.189253,58.735141 h 11.657227 q 3.44692,0 5.56012,0.70724 2.13051,0.707242 3.51621,2.030044 1.38571,1.322803 2.00927,3.077808 0.62357,1.755005 0.62357,3.719564 0,3.077808 -0.93535,4.780425 -0.91803,1.68952 -2.56355,2.842062 -1.64552,1.139443 -3.53354,1.519258 -2.58087,0.52388 -4.67673,0.52388 H 89.189253 Z m 7.846539,4.348222 v 10.490742 h 1.922657 q 2.459621,0 3.498901,-0.40601 1.03928,-0.419105 1.6282,-1.440676 0.58893,-1.034667 0.58893,-3.339748 0,-3.051615 -1.31643,-4.177961 -1.31641,-1.126347 -4.364951,-1.126347 z"
       style="font-size:125.513px;font-family:'Arial Black', 'Arial Bold', Gadget, sans-serif;stroke-width:0.45751"
       id="path4137"
       inkscape:connector-curvature="0" /><path
       d="m 128.22581,57.878261 h 19.4756 q 6.36255,0 9.51795,3.677654 3.18128,3.677652 3.18128,10.467166 0,6.978111 -3.46578,10.907226 -3.43992,3.929118 -10.52665,3.929118 h -6.41428 v 17.099515 h -11.76812 z m 11.76812,19.645583 h 2.87091 q 3.38818,0 4.75897,-1.414482 1.3708,-1.445915 1.3708,-3.677653 0,-2.168872 -1.18975,-3.677653 -1.18974,-1.508781 -4.47447,-1.508781 h -3.33646 z"
       style="font-size:125.513px;font-family:'Arial Black', 'Arial Bold', Gadget, sans-serif;stroke-width:0.45751"
       id="path4139"
       inkscape:connector-curvature="0" /></g></svg>
