<?xml version="1.0" encoding="UTF-8" standalone="no"?>
<svg
   xmlns:dc="http://purl.org/dc/elements/1.1/"
   xmlns:cc="http://creativecommons.org/ns#"
   xmlns:rdf="http://www.w3.org/1999/02/22-rdf-syntax-ns#"
   xmlns:svg="http://www.w3.org/2000/svg"
   xmlns="http://www.w3.org/2000/svg"
   xmlns:sodipodi="http://sodipodi.sourceforge.net/DTD/sodipodi-0.dtd"
   xmlns:inkscape="http://www.inkscape.org/namespaces/inkscape"
   height="200"
   width="180"
   sodipodi:docname="Big.svg"
   inkscape:version="1.0beta2 (2b71d25, 2019-12-03)"
   xml:space="preserve"
   viewBox="0 0 180 200"
   y="0px"
   x="0px"
   id="Layer_1"
   version="1.1"><metadata
     id="metadata15"><rdf:RDF><cc:Work
         rdf:about=""><dc:format>image/svg+xml</dc:format><dc:type
           rdf:resource="http://purl.org/dc/dcmitype/StillImage" /><dc:title></dc:title></cc:Work></rdf:RDF></metadata><defs
     id="defs13" /><sodipodi:namedview
     inkscape:document-rotation="0"
     inkscape:current-layer="Layer_1"
     inkscape:window-maximized="0"
     inkscape:window-y="23"
     inkscape:window-x="423"
     inkscape:cy="97.536054"
     inkscape:cx="89.49415"
     inkscape:zoom="2.0744243"
     showgrid="false"
     id="namedview11"
     inkscape:window-height="797"
     inkscape:window-width="1017"
     inkscape:pageshadow="2"
     inkscape:pageopacity="0"
     guidetolerance="10"
     gridtolerance="10"
     objecttolerance="10"
     borderopacity="1"
     bordercolor="#666666"
     pagecolor="#ffffff" /><style
     id="style3"
     type="text/css">
	.st0{font-family:&quot;Arial Black&quot;, &quot;Arial Bold&quot;, Gadget, sans-serif;}
	.st1{font-size:118.4014px;}
	
		.st2{fill-rule:evenodd;clip-rule:evenodd;fill:none;stroke:#000000;stroke-width:18.9859;stroke-linecap:round;stroke-miterlimit:10;}
</style><path
     inkscape:connector-curvature="0"
     id="path3345-6"
     style="font-size:131.791px;font-family:'Arial Black', 'Arial Bold', Gadget, sans-serif;stroke-width:1.16613"
     d="m 14.157383,29.663429 h 45.936056 q 11.484028,0 17.605229,9.768731 6.175367,9.76873 6.175367,24.189238 0,12.094617 -4.387762,20.746927 -2.925175,5.7682 -8.558842,9.117473 8.558842,3.535354 12.567397,12.187652 4.062754,8.55927 4.062754,21.58425 0,10.60606 -2.871007,19.07228 -2.871007,8.46623 -7.854626,13.39712 -3.087689,3.07019 -9.317236,4.46572 -8.287991,1.8607 -10.996484,1.8607 H 14.157383 Z m 24.75564,53.495428 h 10.671465 q 5.742003,0 7.962985,-3.349277 2.275128,-3.442316 2.275128,-9.861767 0,-5.954273 -2.275128,-9.303551 -2.220982,-3.349281 -7.800481,-3.349281 H 38.913023 Z m 0,53.588453 h 12.513239 q 6.337882,0 8.938039,-3.81444 2.600145,-3.90749 2.600145,-10.41999 0,-6.0473 -2.600145,-9.67569 -2.545988,-3.72141 -8.992218,-3.72141 h -12.45906 z" /><path
     style="font-style:normal;font-variant:normal;font-weight:900;font-stretch:normal;font-size:134.048px;line-height:125%;font-family:Arial;-inkscape-font-specification:'Arial, Heavy';text-align:center;letter-spacing:0px;word-spacing:0px;writing-mode:lr-tb;text-anchor:middle;fill:#000000;fill-opacity:1;stroke:none;stroke-width:0.586767px;stroke-linecap:butt;stroke-linejoin:miter;stroke-opacity:1"
     d="M 116.7159,56.921427 V 44.126148 h 22.62915 v 26.219824 q -6.4978,5.747388 -11.50853,7.844976 -4.97842,2.05563 -11.83182,2.05563 -8.43743,0 -13.77145,-3.733699 -5.301669,-3.733706 -8.243469,-11.11721 -2.909459,-7.3835 -2.909459,-16.948491 0,-10.068413 3.200409,-17.493871 3.20041,-7.467406 9.374929,-11.32696 4.81678,-2.978577 12.96326,-2.978577 7.85555,0 11.73482,1.845875 3.91162,1.845875 6.46548,5.747389 2.58618,3.859555 3.87928,9.816702 l -14.12705,3.272234 q -0.87284,-3.481993 -2.97411,-5.327868 -2.06896,-1.845874 -5.30169,-1.845874 -4.81678,0 -7.6939,4.362976 -2.84481,4.32103 -2.84481,13.718216 0,9.984507 2.87714,14.263584 2.90946,4.279071 8.08182,4.279071 2.45688,0 4.68746,-0.922931 2.2306,-0.922938 5.10772,-3.146382 v -5.789335 z"
     id="path4784"
     inkscape:connector-curvature="0" /></svg>
