<?xml version="1.0" encoding="UTF-8" standalone="no"?>
<svg
   xmlns:dc="http://purl.org/dc/elements/1.1/"
   xmlns:cc="http://creativecommons.org/ns#"
   xmlns:rdf="http://www.w3.org/1999/02/22-rdf-syntax-ns#"
   xmlns:svg="http://www.w3.org/2000/svg"
   xmlns="http://www.w3.org/2000/svg"
   xmlns:sodipodi="http://sodipodi.sourceforge.net/DTD/sodipodi-0.dtd"
   xmlns:inkscape="http://www.inkscape.org/namespaces/inkscape"
   sodipodi:docname="bivouac.svg"
   inkscape:version="1.0beta2 (2b71d25, 2019-12-03)"
   xml:space="preserve"
   style="enable-background:new 0 0 250 250;"
   viewBox="0 0 250 250"
   y="0px"
   x="0px"
   id="Layer_1"
   version="1.1"><metadata
     id="metadata12"><rdf:RDF><cc:Work
         rdf:about=""><dc:format>image/svg+xml</dc:format><dc:type
           rdf:resource="http://purl.org/dc/dcmitype/StillImage" /><dc:title></dc:title></cc:Work></rdf:RDF></metadata><defs
     id="defs10" /><sodipodi:namedview
     inkscape:document-rotation="0"
     inkscape:current-layer="XMLID_14_"
     inkscape:window-maximized="0"
     inkscape:window-y="23"
     inkscape:window-x="559"
     inkscape:cy="140.14236"
     inkscape:cx="115.11498"
     inkscape:zoom="2.0395461"
     showgrid="false"
     id="namedview8"
     inkscape:window-height="797"
     inkscape:window-width="881"
     inkscape:pageshadow="2"
     inkscape:pageopacity="0"
     guidetolerance="10"
     gridtolerance="10"
     objecttolerance="10"
     borderopacity="1"
     bordercolor="#666666"
     pagecolor="#ffffff" /><style
     id="style3"
     type="text/css">
	.st0{fill-rule:evenodd;clip-rule:evenodd;}
</style><g
     id="XMLID_14_"><path
       style="clip-rule:evenodd;fill-rule:evenodd"
       inkscape:connector-curvature="0"
       d="m 211.9,113.5177 -0.3,-4.08257 -0.5,-4.08257 -0.7,-3.97224 -1,-3.972228 -1.2,-3.861892 -1.4,-3.751552 -1.6,-3.641212 -1.8,-3.530873 -2,-3.530873 -2.1,-3.420532 -2.3,-3.310193 -2.4,-3.199854 -2.6,-3.089513 -2.8,-2.979174 -2.9,-2.868834 -3.1,-2.648154 -3.2,-2.537815 -3.3,-2.427475 -3.5,-2.206795 -3.5,-2.096456 -3.7,-1.986116 -3.8,-1.765436 -3.9,-1.655097 -4,-1.434417 -4.1,-1.213737 -4.2,-1.103398 -4.2,-0.882718 -4.3,-0.772378 -4.3,-0.551699 -4.5,-0.33102 -4.5,-0.110339 -4.5,0.110339 -4.5,0.33102 -4.3,0.551699 -4.3,0.772378 -4.2,0.882718 -4.2,1.103398 -4.1,1.213737 -4,1.434417 -3.9,1.655097 -3.8,1.765436 -3.7,1.986116 -3.5,2.096456 -3.5,2.206795 -3.3,2.427475 -3.2,2.537815 -3.1,2.648154 -2.9,2.868834 -2.8,2.979174 -2.6,3.089513 -2.4,3.199854 -2.3,3.310193 -2.1,3.420532 -2,3.530873 -1.8,3.530873 -1.6,3.641212 -1.4,3.751552 -1.2,3.861892 -1,3.972228 -0.7,3.97224 -0.5,4.08257 -0.3,4.08257 -0.1,4.08257 0.1,4.08257 0.3,4.08257 0.5,4.08257 0.7,3.97224 1,3.97223 1.2,3.86189 1.4,3.75155 1.6,3.64121 1.8,3.53088 2,3.53087 2.1,3.42053 2.3,3.3102 2.4,3.19985 2.6,3.08951 2.8,2.97918 2.9,2.86883 3.1,2.64815 3.2,2.53782 3.3,2.42747 3.5,2.2068 3.5,2.09645 3.7,1.98612 3.8,1.76544 3.9,1.65509 4,1.43442 4.1,1.21374 4.2,1.1034 4.2,0.88271 4.3,0.77238 4.3,0.5517 4.5,0.33102 4.5,0.11034 4.5,-0.11034 4.5,-0.33102 4.3,-0.5517 4.3,-0.77238 4.2,-0.88271 4.2,-1.1034 4.1,-1.21374 4,-1.43442 3.9,-1.65509 3.8,-1.76544 3.7,-1.98612 3.5,-2.09645 3.5,-2.2068 3.3,-2.42747 3.2,-2.53782 3.1,-2.64815 2.9,-2.86883 2.8,-2.97918 2.6,-3.08951 2.4,-3.19985 2.3,-3.3102 2.1,-3.42053 2,-3.53087 1.8,-3.53088 1.6,-3.64121 1.4,-3.75155 1.2,-3.86189 1,-3.97223 0.7,-3.97224 0.5,-4.08257 0.3,-4.08257 0.1,-4.08257 -0.1,-4.08257 z m -16.6,7.5031 -0.3,3.3102 -0.5,3.31019 -0.6,3.31019 -0.8,3.19986 -1,3.08951 -1.2,3.08951 -1.3,2.97918 -1.4,2.86883 -1.6,2.86883 -1.7,2.7585 -1.8,2.64815 -2,2.53782 -2.1,2.42747 -2.2,2.42748 -2.4,2.20679 -2.4,2.2068 -2.6,2.09645 -2.7,1.98612 -2.8,1.76544 -2.8,1.76543 -3,1.54476 -3.1,1.43442 -3.1,1.32407 -3.3,1.21374 -3.3,0.99306 -3.4,0.99306 -3.5,0.66203 -3.5,0.66204 -3.6,0.33102 -3.6,0.22068 -3.6,0.11034 -3.7,-0.11034 -3.6,-0.22068 -3.6,-0.33102 -3.5,-0.66204 -3.5,-0.66203 -3.4,-0.99306 -3.3,-0.99306 -3.3,-1.21374 -3.1,-1.32407 -3.1,-1.43442 -3,-1.54476 -2.8,-1.76543 -2.8,-1.76544 -2.7,-1.98612 -2.6,-2.09645 -2.4,-2.2068 -2.4,-2.20679 -2.2,-2.42748 -2.1,-2.42747 -2,-2.53782 -1.8,-2.64815 -1.7,-2.7585 -1.6,-2.86883 -1.4,-2.86883 -1.3,-2.97918 -1.2,-3.08951 -1,-3.08951 -0.8,-3.19986 -0.6,-3.31019 -0.5,-3.31019 -0.3,-3.3102 -0.1,-3.42053 0.1,-3.42053 0.3,-3.3102 0.5,-3.31019 0.6,-3.31019 0.8,-3.19986 1,-3.089509 1.2,-3.089514 1.3,-2.979173 1.4,-2.868834 1.6,-2.868834 1.7,-2.758495 1.8,-2.648154 2,-2.537815 2.1,-2.427475 2.2,-2.427475 2.4,-2.206795 2.4,-2.206795 2.6,-2.096456 2.7,-1.986116 2.8,-1.765436 2.8,-1.765436 3,-1.544757 3.1,-1.434417 3.1,-1.324077 3.3,-1.213738 3.3,-0.993058 3.4,-0.993058 3.5,-0.662038 3.5,-0.662039 3.8,-0.220679 3.6,-0.22068 3.7,-0.11034 3.6,0.11034 3.6,0.22068 3.6,0.331019 3.5,0.662039 3.5,0.662038 3.4,0.993058 3.3,0.993058 3.3,1.213737 3.1,1.324078 3.1,1.434417 3,1.544756 2.8,1.765437 2.8,1.765436 2.7,1.986116 2.6,2.096456 2.4,2.206795 2.4,2.206795 2.2,2.427475 2.1,2.427475 2,2.537815 1.8,2.648154 1.7,2.758494 1.6,2.868834 1.4,2.868834 1.3,2.979174 1.2,3.089514 1,3.089509 0.8,3.19986 0.6,3.31019 0.5,3.31019 0.3,3.3102 0.1,3.42053 -0.3,3.31019 z"
       class="st0"
       id="XMLID_13_" /><path
       inkscape:connector-curvature="0"
       id="path3345-6"
       style="font-size:131.791px;font-family:'Arial Black', 'Arial Bold', Gadget, sans-serif;stroke-width:0.841879"
       d="m 96.314708,72.872701 h 36.245902 q 9.06149,0 13.89143,6.452664 4.87268,6.452655 4.87268,15.978003 0,7.989002 -3.46217,13.704222 -2.30811,3.81014 -6.75337,6.02248 6.75337,2.33524 9.91633,8.05045 3.20572,5.65376 3.20572,14.2573 0,7.00575 -2.26537,12.59805 -2.26538,5.5923 -6.19771,8.84936 -2.43634,2.02798 -7.35177,2.94979 -6.53965,1.22907 -8.67679,1.22907 H 96.314708 Z m 19.533462,35.335989 h 8.42034 q 4.53073,0 6.2832,-2.21234 1.7952,-2.27379 1.7952,-6.514112 0,-3.93305 -1.7952,-6.14539 -1.75247,-2.212345 -6.15498,-2.212345 h -8.54856 z m 0,35.39743 h 9.87359 q 5.00092,0 7.05258,-2.5196 2.05165,-2.58107 2.05165,-6.88284 0,-3.99451 -2.05165,-6.39121 -2.00892,-2.45815 -7.09532,-2.45815 h -9.83085 z" /></g></svg>
