<?xml version="1.0" encoding="UTF-8" standalone="no"?>
<svg
   xmlns:dc="http://purl.org/dc/elements/1.1/"
   xmlns:cc="http://creativecommons.org/ns#"
   xmlns:rdf="http://www.w3.org/1999/02/22-rdf-syntax-ns#"
   xmlns:svg="http://www.w3.org/2000/svg"
   xmlns="http://www.w3.org/2000/svg"
   xmlns:sodipodi="http://sodipodi.sourceforge.net/DTD/sodipodi-0.dtd"
   xmlns:inkscape="http://www.inkscape.org/namespaces/inkscape"
   inkscape:version="1.0beta2 (2b71d25, 2019-12-03)"
   sodipodi:docname="bump.svg"
   xml:space="preserve"
   style="enable-background:new 0 0 250 250;"
   viewBox="0 0 250 250"
   y="0px"
   x="0px"
   id="Layer_1"
   version="1.1"><metadata
   id="metadata138"><rdf:RDF><cc:Work
       rdf:about=""><dc:format>image/svg+xml</dc:format><dc:type
         rdf:resource="http://purl.org/dc/dcmitype/StillImage" /></cc:Work></rdf:RDF></metadata><defs
   id="defs136" /><sodipodi:namedview
   inkscape:current-layer="Layer_1"
   inkscape:window-maximized="0"
   inkscape:window-y="23"
   inkscape:window-x="0"
   inkscape:cy="125"
   inkscape:cx="125"
   inkscape:zoom="2.356"
   showgrid="false"
   id="namedview134"
   inkscape:window-height="480"
   inkscape:window-width="661"
   inkscape:pageshadow="2"
   inkscape:pageopacity="0"
   guidetolerance="10"
   gridtolerance="10"
   objecttolerance="10"
   borderopacity="1"
   inkscape:document-rotation="0"
   bordercolor="#666666"
   pagecolor="#ffffff" />
<path
   d="M231.9,146.2h-71.7l-0.1-5.8c-0.1-2.3-1.8-22.9-34.7-22.9c-12.5,0-21.7,2.9-27.3,8.8  c-6,6.2-5.9,13.8-5.9,13.8l0.2,6.2H17.9c-3.3,0-5.9-2.7-5.9-5.9c0-3.3,2.7-5.9,5.9-5.9H81c0.9-4.5,3.2-10.8,8.6-16.3  c7.9-8.2,20-12.4,35.8-12.4c33.7,0,43,18.9,45.6,28.7h60.9c3.3,0,5.9,2.7,5.9,5.9C237.8,143.5,235.2,146.2,231.9,146.2z"
   id="XMLID_1_" />
<path
   inkscape:connector-curvature="0"
   id="path140"
   d="m 15.916808,145.66905 c -1.207883,-0.43951 -2.952883,-2.39216 -3.430164,-3.83834 -0.69463,-2.10475 0.423023,-4.84506 2.503801,-6.13892 l 1.563035,-0.97193 32.293401,-0.11871 32.293399,-0.11871 0.998608,-3.18417 c 1.452122,-4.63026 3.884444,-8.72652 7.346295,-12.37185 8.841107,-9.30969 21.213617,-13.35509 38.910407,-12.72241 15.19455,0.54322 24.86875,4.21034 33.10696,12.54959 4.18319,4.2345 6.72245,8.23291 8.44226,13.29349 l 0.76408,2.24833 31.38787,0.21222 c 29.33104,0.19832 31.46444,0.26241 32.55631,0.97807 2.69883,1.76893 3.56541,5.23131 1.96593,7.85477 -1.66447,2.73005 -0.0961,2.62726 -40.08584,2.62726 H 160.2292 v -3.74299 c 0,-14.18075 -11.15156,-23.43006 -29.71137,-24.64317 -14.6911,-0.96025 -25.75309,1.86693 -32.099553,8.20388 -4.542381,4.53557 -6.835459,10.61585 -6.370845,16.89281 l 0.243485,3.28947 -37.868718,-0.0335 c -20.827796,-0.0184 -38.155221,-0.13776 -38.505391,-0.26518 z"
   style="fill:#ff0000;stroke-width:0.424448" /></svg>
