<?xml version="1.0" encoding="UTF-8" standalone="no"?>
<svg
   xmlns:dc="http://purl.org/dc/elements/1.1/"
   xmlns:cc="http://creativecommons.org/ns#"
   xmlns:rdf="http://www.w3.org/1999/02/22-rdf-syntax-ns#"
   xmlns:svg="http://www.w3.org/2000/svg"
   xmlns="http://www.w3.org/2000/svg"
   xmlns:sodipodi="http://sodipodi.sourceforge.net/DTD/sodipodi-0.dtd"
   xmlns:inkscape="http://www.inkscape.org/namespaces/inkscape"
   sodipodi:docname="camel-grass.svg"
   inkscape:version="1.0beta2 (2b71d25, 2019-12-03)"
   xml:space="preserve"
   style="enable-background:new 0 0 250 250;"
   viewBox="0 0 250 250"
   y="0px"
   x="0px"
   id="Layer_1"
   version="1.1"><metadata
     id="metadata4205"><rdf:RDF><cc:Work
         rdf:about=""><dc:format>image/svg+xml</dc:format><dc:type
           rdf:resource="http://purl.org/dc/dcmitype/StillImage" /><dc:title></dc:title></cc:Work></rdf:RDF></metadata><defs
     id="defs4203" /><sodipodi:namedview
     inkscape:document-rotation="0"
     inkscape:window-maximized="0"
     inkscape:window-y="23"
     inkscape:window-x="116"
     inkscape:current-layer="Layer_1"
     inkscape:cy="96.332406"
     inkscape:cx="24.638551"
     inkscape:zoom="1.5373079"
     showgrid="false"
     id="namedview4201"
     inkscape:window-height="797"
     inkscape:window-width="1324"
     inkscape:pageshadow="2"
     inkscape:pageopacity="0"
     guidetolerance="10"
     gridtolerance="10"
     objecttolerance="10"
     borderopacity="1"
     bordercolor="#666666"
     pagecolor="#ffffff" /><style
     id="style4196"
     type="text/css">
	.st0{fill-rule:evenodd;clip-rule:evenodd;}
</style><g
     transform="translate(5.85439,-6.5048778)"
     id="g2075"><path
       style="fill:none;fill-rule:evenodd;stroke:#000000;stroke-width:2.48492;stroke-linecap:butt;stroke-linejoin:miter;stroke-miterlimit:4;stroke-dasharray:none;stroke-opacity:1"
       d="M 60.036966,218.02895 C 143.02696,47.698837 231.65311,198.55392 231.65311,198.55392"
       id="path4209"
       inkscape:connector-curvature="0"
       sodipodi:nodetypes="cc" /><path
       style="fill:none;stroke:#000000;stroke-width:2;stroke-linecap:butt;stroke-linejoin:miter;stroke-miterlimit:4;stroke-dasharray:none;stroke-opacity:1"
       d="m 117.96472,120.65183 c 5.98719,3.29976 8.17536,10.67964 12.96995,15.2753 1.00231,0.96072 2.39283,1.43373 3.44983,2.33393 0.36911,0.31437 0.35623,0.96523 0.75229,1.24488 2.60102,1.83656 5.82234,3.45094 6.09541,2.77457 0.46574,-1.1536 0.64721,-5.87527 0.77739,-6.58799 0.36962,-2.02355 0.98517,-3.99435 1.47775,-5.99152 0.7344,-4.40932 1.43049,-8.82517 2.2032,-13.22794 0.27288,-1.55477 0.64082,-3.09153 0.93323,-4.64275 0.16561,-0.87854 0.33587,-1.75773 0.44064,-2.64558 0.0254,-0.21534 -0.0693,-0.86456 -0.0519,-0.64842 0.72838,9.09253 6.46384,23.77242 11.02647,31.74528 1.13334,1.98044 4.06466,5.86841 4.35794,5.52404 0.2892,-0.33955 0.92426,-4.61381 0.93322,-4.64276 1.12113,-3.61698 2.61724,-7.11184 3.70779,-10.73816 3.05496,-10.15832 6.24083,-19.84874 5.39158,-30.450225"
       id="path1504"
       inkscape:connector-curvature="0" /><path
       inkscape:connector-curvature="0"
       id="path1506"
       d="m 71.20261,168.94403 c 6.379602,-2.45673 13.435258,0.62031 20.038627,-0.0895 1.38042,-0.14839 2.63761,-0.90784 4.00683,-1.13745 0.4782,-0.08 0.96791,0.34886 1.43689,0.22586 3.07989,-0.80781 6.389143,-2.23327 6.047423,-2.87767 -0.58285,-1.0991 -4.078893,-4.2779 -4.540433,-4.83639 -1.31038,-1.58563 -2.42207,-3.3255 -3.63311,-4.98824 -2.90105,-3.40079 -5.831761,-6.77646 -8.703129,-10.20234 -1.013977,-1.20981 -1.952967,-2.48076 -2.951657,-3.70322 -0.56561,-0.69235 -1.128718,-1.38868 -1.740621,-2.04047 -0.148423,-0.15806 -0.706116,-0.50362 -0.529589,-0.37772 7.426282,5.2967 22.351539,10.35943 31.389689,12.00141 2.24505,0.40786 7.10727,0.66809 7.03259,0.22196 -0.0737,-0.43988 -2.93529,-3.67772 -2.95166,-3.70321 -2.0458,-3.18658 -3.75672,-6.58144 -5.82933,-9.75063 -5.80585,-8.87737 -11.169523,-17.55408 -19.828223,-23.72978"
       style="fill:none;stroke:#000000;stroke-width:2;stroke-linecap:butt;stroke-linejoin:miter;stroke-miterlimit:4;stroke-dasharray:none;stroke-opacity:1" /><path
       inkscape:connector-curvature="0"
       id="path1508"
       d="m 183.36179,129.86699 c 3.26703,6.00511 1.13552,13.40154 2.69972,19.85612 0.327,1.34933 1.24376,2.49684 1.64944,3.82464 0.14165,0.46369 -0.21977,1.00513 -0.0367,1.45408 1.20219,2.94837 3.04669,6.04369 3.64108,5.6209 1.01378,-0.72107 3.70997,-4.60149 4.20355,-5.13186 1.40138,-1.50583 2.98156,-2.83473 4.47235,-4.25209 2.9938,-3.31942 5.95884,-6.66499 8.98139,-9.95824 1.06737,-1.16298 2.20514,-2.25957 3.28707,-3.40902 0.61274,-0.65099 1.22976,-1.30004 1.79626,-1.99164 0.1374,-0.16775 0.40731,-0.76575 0.30553,-0.57427 -4.28392,8.05311 -7.3588,23.51078 -7.80915,32.68581 -0.11187,2.27905 0.26364,7.13374 0.6962,7.00158 0.42656,-0.13033 3.26391,-3.38946 3.28706,-3.40902 2.89285,-2.44355 6.03586,-4.58222 8.90797,-7.0501 8.0456,-6.91321 15.94949,-13.36167 20.94435,-22.75122"
       style="fill:none;stroke:#000000;stroke-width:2;stroke-linecap:butt;stroke-linejoin:miter;stroke-miterlimit:4;stroke-dasharray:none;stroke-opacity:1" /></g><g
     transform="matrix(0.64683652,0,0,0.64922141,-26.026051,-23.50366)"
     id="g2085"><path
       sodipodi:nodetypes="cc"
       inkscape:connector-curvature="0"
       id="path2077"
       d="M 60.036966,218.02895 C 143.02696,47.698837 231.65311,198.55392 231.65311,198.55392"
       style="fill:none;fill-rule:evenodd;stroke:#000000;stroke-width:2.48492;stroke-linecap:butt;stroke-linejoin:miter;stroke-miterlimit:4;stroke-dasharray:none;stroke-opacity:1" /><path
       inkscape:connector-curvature="0"
       id="path2079"
       d="m 117.96472,120.65183 c 5.98719,3.29976 8.17536,10.67964 12.96995,15.2753 1.00231,0.96072 2.39283,1.43373 3.44983,2.33393 0.36911,0.31437 0.35623,0.96523 0.75229,1.24488 2.60102,1.83656 5.82234,3.45094 6.09541,2.77457 0.46574,-1.1536 0.64721,-5.87527 0.77739,-6.58799 0.36962,-2.02355 0.98517,-3.99435 1.47775,-5.99152 0.7344,-4.40932 1.43049,-8.82517 2.2032,-13.22794 0.27288,-1.55477 0.64082,-3.09153 0.93323,-4.64275 0.16561,-0.87854 0.33587,-1.75773 0.44064,-2.64558 0.0254,-0.21534 -0.0693,-0.86456 -0.0519,-0.64842 0.72838,9.09253 6.46384,23.77242 11.02647,31.74528 1.13334,1.98044 4.06466,5.86841 4.35794,5.52404 0.2892,-0.33955 0.92426,-4.61381 0.93322,-4.64276 1.12113,-3.61698 2.61724,-7.11184 3.70779,-10.73816 3.05496,-10.15832 6.24083,-19.84874 5.39158,-30.450225"
       style="fill:none;stroke:#000000;stroke-width:2;stroke-linecap:butt;stroke-linejoin:miter;stroke-miterlimit:4;stroke-dasharray:none;stroke-opacity:1" /><path
       style="fill:none;stroke:#000000;stroke-width:2;stroke-linecap:butt;stroke-linejoin:miter;stroke-miterlimit:4;stroke-dasharray:none;stroke-opacity:1"
       d="m 71.20261,168.94403 c 6.379602,-2.45673 13.435258,0.62031 20.038627,-0.0895 1.38042,-0.14839 2.63761,-0.90784 4.00683,-1.13745 0.4782,-0.08 0.96791,0.34886 1.43689,0.22586 3.07989,-0.80781 6.389143,-2.23327 6.047423,-2.87767 -0.58285,-1.0991 -4.078893,-4.2779 -4.540433,-4.83639 -1.31038,-1.58563 -2.42207,-3.3255 -3.63311,-4.98824 -2.90105,-3.40079 -5.831761,-6.77646 -8.703129,-10.20234 -1.013977,-1.20981 -1.952967,-2.48076 -2.951657,-3.70322 -0.56561,-0.69235 -1.128718,-1.38868 -1.740621,-2.04047 -0.148423,-0.15806 -0.706116,-0.50362 -0.529589,-0.37772 7.426282,5.2967 22.351539,10.35943 31.389689,12.00141 2.24505,0.40786 7.10727,0.66809 7.03259,0.22196 -0.0737,-0.43988 -2.93529,-3.67772 -2.95166,-3.70321 -2.0458,-3.18658 -3.75672,-6.58144 -5.82933,-9.75063 -5.80585,-8.87737 -11.169523,-17.55408 -19.828223,-23.72978"
       id="path2081"
       inkscape:connector-curvature="0" /><path
       style="fill:none;stroke:#000000;stroke-width:2;stroke-linecap:butt;stroke-linejoin:miter;stroke-miterlimit:4;stroke-dasharray:none;stroke-opacity:1"
       d="m 183.36179,129.86699 c 3.26703,6.00511 1.13552,13.40154 2.69972,19.85612 0.327,1.34933 1.24376,2.49684 1.64944,3.82464 0.14165,0.46369 -0.21977,1.00513 -0.0367,1.45408 1.20219,2.94837 3.04669,6.04369 3.64108,5.6209 1.01378,-0.72107 3.70997,-4.60149 4.20355,-5.13186 1.40138,-1.50583 2.98156,-2.83473 4.47235,-4.25209 2.9938,-3.31942 5.95884,-6.66499 8.98139,-9.95824 1.06737,-1.16298 2.20514,-2.25957 3.28707,-3.40902 0.61274,-0.65099 1.22976,-1.30004 1.79626,-1.99164 0.1374,-0.16775 0.40731,-0.76575 0.30553,-0.57427 -4.28392,8.05311 -7.3588,23.51078 -7.80915,32.68581 -0.11187,2.27905 0.26364,7.13374 0.6962,7.00158 0.42656,-0.13033 3.26391,-3.38946 3.28706,-3.40902 2.89285,-2.44355 6.03586,-4.58222 8.90797,-7.0501 8.0456,-6.91321 15.94949,-13.36167 20.94435,-22.75122"
       id="path2083"
       inkscape:connector-curvature="0" /></g></svg>
