<?xml version="1.0" encoding="UTF-8" standalone="no"?>
<svg
   xmlns:dc="http://purl.org/dc/elements/1.1/"
   xmlns:cc="http://creativecommons.org/ns#"
   xmlns:rdf="http://www.w3.org/1999/02/22-rdf-syntax-ns#"
   xmlns:svg="http://www.w3.org/2000/svg"
   xmlns="http://www.w3.org/2000/svg"
   xmlns:sodipodi="http://sodipodi.sourceforge.net/DTD/sodipodi-0.dtd"
   xmlns:inkscape="http://www.inkscape.org/namespaces/inkscape"
   height="200"
   width="250"
   sodipodi:docname="collapsed.svg"
   inkscape:version="1.0beta2 (2b71d25, 2019-12-03)"
   xml:space="preserve"
   viewBox="0 0 250 200"
   y="0px"
   x="0px"
   id="Layer_1"
   version="1.1"><metadata
   id="metadata11"><rdf:RDF><cc:Work
       rdf:about=""><dc:format>image/svg+xml</dc:format><dc:type
         rdf:resource="http://purl.org/dc/dcmitype/StillImage" /><dc:title></dc:title></cc:Work></rdf:RDF></metadata><defs
   id="defs9" /><sodipodi:namedview
   inkscape:document-rotation="0"
   inkscape:current-layer="text5"
   inkscape:window-maximized="0"
   inkscape:window-y="23"
   inkscape:window-x="597"
   inkscape:cy="106.46184"
   inkscape:cx="125.02206"
   inkscape:zoom="2.2024394"
   showgrid="false"
   id="namedview7"
   inkscape:window-height="797"
   inkscape:window-width="843"
   inkscape:pageshadow="2"
   inkscape:pageopacity="0"
   guidetolerance="10"
   gridtolerance="10"
   objecttolerance="10"
   borderopacity="1"
   bordercolor="#666666"
   pagecolor="#ffffff" /><style
   id="style3"
   type="text/css">
	.st0{font-family:&quot;Arial Black&quot;, &quot;Arial Bold&quot;, Gadget, sans-serif;}
	.st1{font-size:75px;}
</style><g
   id="text5"
   style="font-size:144.04867554px;font-family:'Arial Black', 'Arial Bold', Gadget, sans-serif"
   transform="scale(0.8592747,1.1637722)"><path
     inkscape:connector-curvature="0"
     id="path3374"
     style="font-size:152.53399999999999181px;font-family:'Arial Black', 'Arial Bold', Gadget, sans-serif;stroke-width:0.941049;fill:#ff0000"
     d="m 74.29686,98.096355 25.629022,8.218325 q -2.582273,11.43716 -8.134162,19.10759 -5.551873,7.67043 -13.815128,11.57414 -8.198703,3.9037 -20.916376,3.9037 -15.429046,0 -25.241666,-4.72554 -9.748062,-4.79402 -16.849302,-16.77907 -7.1012308,-11.98505 -7.1012308,-30.681722 0,-24.928905 12.4594408,-38.28368 12.523993,-13.423257 35.377072,-13.423257 17.882203,0 28.082159,7.670438 10.264516,7.670429 15.235397,23.559184 L 73.199389,74.33171 q -1.355685,-4.588558 -2.840492,-6.711619 -2.453158,-3.561274 -6.00377,-5.478884 -3.550619,-1.917609 -7.940479,-1.917609 -9.941732,0 -15.235382,8.492261 -4.002515,6.300718 -4.002515,19.792459 0,16.710592 4.777194,22.942812 4.777203,6.16375 13.427801,6.16375 8.392365,0 12.653113,-4.99949 4.3253,-4.99948 6.262001,-14.519035 z" /><path
     d="m 112.82395,40.908288 h 28.67465 v 73.604572 h 44.75269 v 24.04638 h -73.42734 z"
     style="font-size:141.35099999999999909px;font-family:'Arial Black', 'Arial Bold', Gadget, sans-serif;stroke-width:0.973154;fill:#ff0000"
     id="path4989"
     inkscape:connector-curvature="0" /><path
     inkscape:connector-curvature="0"
     id="path4920"
     style="font-size:131.80500000000000682px;font-family:'Arial Black', 'Arial Bold', Gadget, sans-serif;fill:#ff0000"
     d="m 206.39939,36.226547 h 39.26989 q 12.82919,0 19.19164,8.229342 6.41461,8.229343 6.41461,23.421972 0,15.614648 -6.98828,24.406688 -6.93611,8.792031 -21.22553,8.792031 h -12.93351 v 38.26294 h -23.72882 z m 23.72882,43.960162 h 5.78878 q 6.83181,0 9.59582,-3.165128 2.76403,-3.23547 2.76403,-8.229343 0,-4.853204 -2.39896,-8.229353 -2.39897,-3.376138 -9.02217,-3.376138 h -6.7275 z" /></g><text
   id="text3386"
   style="font-size:97.2459px;font-family:'Arial Black', 'Arial Bold', Gadget, sans-serif"
   y="96.020195"
   x="5.0010576"
   class="st0 st1"
   transform="scale(0.79983082,1.2502644)" />


</svg>
