<?xml version="1.0" encoding="UTF-8" standalone="no"?>
<svg
   xmlns:dc="http://purl.org/dc/elements/1.1/"
   xmlns:cc="http://creativecommons.org/ns#"
   xmlns:rdf="http://www.w3.org/1999/02/22-rdf-syntax-ns#"
   xmlns:svg="http://www.w3.org/2000/svg"
   xmlns="http://www.w3.org/2000/svg"
   xmlns:sodipodi="http://sodipodi.sourceforge.net/DTD/sodipodi-0.dtd"
   xmlns:inkscape="http://www.inkscape.org/namespaces/inkscape"
   height="200"
   width="180"
   sodipodi:docname="danger-3.svg"
   inkscape:version="1.0beta2 (2b71d25, 2019-12-03)"
   xml:space="preserve"
   viewBox="0 0 180 200"
   y="0px"
   x="0px"
   id="Layer_1"
   version="1.1"><metadata
     id="metadata15"><rdf:RDF><cc:Work
         rdf:about=""><dc:format>image/svg+xml</dc:format><dc:type
           rdf:resource="http://purl.org/dc/dcmitype/StillImage" /><dc:title /></cc:Work></rdf:RDF></metadata><defs
     id="defs13" /><sodipodi:namedview
     inkscape:document-rotation="0"
     inkscape:current-layer="text3344"
     inkscape:window-maximized="0"
     inkscape:window-y="23"
     inkscape:window-x="0"
     inkscape:cy="79.967744"
     inkscape:cx="175.00641"
     inkscape:zoom="2.4984439"
     showgrid="false"
     id="namedview11"
     inkscape:window-height="797"
     inkscape:window-width="1440"
     inkscape:pageshadow="2"
     inkscape:pageopacity="0"
     guidetolerance="10"
     gridtolerance="10"
     objecttolerance="10"
     borderopacity="1"
     bordercolor="#666666"
     pagecolor="#ffffff" /><style
     id="style3"
     type="text/css">
	.st0{font-family:&quot;Arial Black&quot;, &quot;Arial Bold&quot;, Gadget, sans-serif;}
	.st1{font-size:118.4014px;}
	
		.st2{fill-rule:evenodd;clip-rule:evenodd;fill:none;stroke:#000000;stroke-width:18.9859;stroke-linecap:round;stroke-miterlimit:10;}
</style><flowRoot
     style="font-style:normal;font-variant:normal;font-weight:900;font-stretch:normal;line-height:0.01%;font-family:Arial;-inkscape-font-specification:'Arial, Heavy';text-align:center;letter-spacing:0px;word-spacing:0px;writing-mode:lr-tb;text-anchor:middle;fill:#000000;fill-opacity:1;stroke:none;stroke-width:1px;stroke-linecap:butt;stroke-linejoin:miter;stroke-opacity:1"
     id="flowRoot3336"
     xml:space="preserve"><flowRegion
       id="flowRegion3338"><rect
         y="69.919037"
         x="17.510899"
         height="86.720642"
         width="142.58875"
         id="rect3340" /></flowRegion><flowPara
       style="font-size:40px;line-height:1.25"
       id="flowPara3342"> </flowPara></flowRoot><g
     id="text3344"
     style="font-style:normal;font-variant:normal;font-weight:900;font-stretch:normal;font-size:151.16329956px;line-height:125%;font-family:Arial;-inkscape-font-specification:'Arial, Heavy';text-align:center;letter-spacing:0px;word-spacing:0px;writing-mode:lr-tb;text-anchor:middle;fill:#000000;fill-opacity:1;stroke:none;stroke-width:1px;stroke-linecap:butt;stroke-linejoin:miter;stroke-opacity:1"
     transform="scale(0.90171464,1.1089983)"><path
       inkscape:connector-curvature="0"
       id="path3500"
       d="m 31.051954,36.068577 32.107439,0 0,24.652609 -6.200057,49.526644 -19.854945,0 -6.052437,-49.526644 0,-24.652609 z m 1.107153,81.707893 29.966943,0 0,26.49787 -29.966943,0 0,-26.49787 z" /><path
       id="path3502"
       style=""
       d="m 83.756131,36.068577 32.107439,0 0,24.652609 -6.20006,49.526644 -19.854943,0 -6.052436,-49.526644 0,-24.652609 z m 1.107153,81.707893 29.966946,0 0,26.49787 -29.966946,0 0,-26.49787 z" /><path
       inkscape:connector-curvature="0"
       id="path3504"
       d="m 136.46031,36.068577 32.10744,0 0,24.652609 -6.20006,49.526644 -19.85494,0 -6.05244,-49.526644 0,-24.652609 z m 1.10715,81.707893 29.96695,0 0,26.49787 -29.96695,0 0,-26.49787 z" /><path
       transform="scale(1.1089983,0.90171464)"
       inkscape:connector-curvature="0"
       id="path86"
       d="M 33.537264,120.61304 C 33.417651,119.8976 32.148705,107.41468 30.717383,92.873221 L 28.114979,66.434205 V 53.348618 40.26303 h 14.408969 14.408968 l -0.0029,12.70791 -0.0029,12.70791 -2.798867,27.416505 c -1.539368,15.079075 -2.798858,27.731955 -2.798858,28.117505 0,0.64654 -0.682599,0.70099 -8.787344,0.70099 H 33.75474 Z"
       style="fill:#ff0000;stroke-width:0.400249px" /><path
       transform="scale(1.1089983,0.90171464)"
       inkscape:connector-curvature="0"
       id="path88"
       d="m 78.418565,94.204013 -2.713656,-27.724665 0.01986,-13.108159 0.01986,-13.108159 h 14.208845 14.208836 l -0.0232,14.509031 -0.0233,14.509031 -2.68896,26.216318 -2.688956,26.21632 -8.802839,0.10747 -8.80284,0.10747 z"
       style="fill:#ff0000;stroke-width:0.400249px" /><path
       transform="scale(1.1089983,0.90171464)"
       inkscape:connector-curvature="0"
       id="path90"
       d="m 128.57751,121.27976 c 0,-0.34875 -1.17073,-12.31103 -2.60162,-26.582848 L 123.37427,68.74816 V 54.505595 40.26303 h 14.20885 14.20884 v 13.585724 13.585724 l -2.58967,25.538629 c -1.42432,14.046243 -2.69614,26.304103 -2.82627,27.239683 l -0.2366,1.70106 h -8.78095 c -7.74601,0 -8.78096,-0.0747 -8.78096,-0.63409 z"
       style="fill:#ff0000;stroke-width:0.400249px" /><path
       transform="scale(1.1089983,0.90171464)"
       inkscape:connector-curvature="0"
       id="path92"
       d="m 124.17477,145.32843 v -14.6091 h 13.40835 13.40834 v 14.6091 14.60909 h -13.40834 -13.40835 z"
       style="fill:#ff0000;stroke-width:0.400249px" /><path
       transform="scale(1.1089983,0.90171464)"
       inkscape:connector-curvature="0"
       id="path94"
       d="m 76.545124,145.32843 v -14.6091 h 13.408346 13.40835 v 14.6091 14.60909 H 89.95347 76.545124 Z"
       style="fill:#ff0000;stroke-width:0.400249px" /><path
       transform="scale(1.1089983,0.90171464)"
       inkscape:connector-curvature="0"
       id="path96"
       d="m 29.315726,145.32843 v -14.6091 h 13.208222 13.208221 v 14.6091 14.60909 H 42.523948 29.315726 Z"
       style="fill:#ff0000;stroke-width:0.400249px" /></g></svg>
