<?xml version="1.0" encoding="UTF-8" standalone="no"?>
<svg
   xmlns:dc="http://purl.org/dc/elements/1.1/"
   xmlns:cc="http://creativecommons.org/ns#"
   xmlns:rdf="http://www.w3.org/1999/02/22-rdf-syntax-ns#"
   xmlns:svg="http://www.w3.org/2000/svg"
   xmlns="http://www.w3.org/2000/svg"
   xmlns:sodipodi="http://sodipodi.sourceforge.net/DTD/sodipodi-0.dtd"
   xmlns:inkscape="http://www.inkscape.org/namespaces/inkscape"
   height="200"
   width="180"
   sodipodi:docname="dunes.svg"
   inkscape:version="1.0beta2 (2b71d25, 2019-12-03)"
   xml:space="preserve"
   viewBox="0 0 180 200"
   y="0px"
   x="0px"
   id="Layer_1"
   version="1.1"><metadata
     id="metadata15"><rdf:RDF><cc:Work
         rdf:about=""><dc:format>image/svg+xml</dc:format><dc:type
           rdf:resource="http://purl.org/dc/dcmitype/StillImage" /><dc:title></dc:title></cc:Work></rdf:RDF></metadata><defs
     id="defs13" /><sodipodi:namedview
     inkscape:document-rotation="0"
     inkscape:current-layer="Layer_1"
     inkscape:window-maximized="0"
     inkscape:window-y="23"
     inkscape:window-x="588"
     inkscape:cy="87.550544"
     inkscape:cx="113.75154"
     inkscape:zoom="2.0889957"
     showgrid="false"
     id="namedview11"
     inkscape:window-height="797"
     inkscape:window-width="852"
     inkscape:pageshadow="2"
     inkscape:pageopacity="0"
     guidetolerance="10"
     gridtolerance="10"
     objecttolerance="10"
     borderopacity="1"
     bordercolor="#666666"
     pagecolor="#ffffff" /><style
     id="style3"
     type="text/css">
	.st0{font-family:&quot;Arial Black&quot;, &quot;Arial Bold&quot;, Gadget, sans-serif;}
	.st1{font-size:118.4014px;}
	
		.st2{fill-rule:evenodd;clip-rule:evenodd;fill:none;stroke:#000000;stroke-width:18.9859;stroke-linecap:round;stroke-miterlimit:10;}
</style><flowRoot
     transform="matrix(0.78495738,0,0,0.87633611,2.7955535,19.786224)"
     style="font-style:normal;font-variant:normal;font-weight:900;font-stretch:normal;line-height:0.01%;font-family:Arial;-inkscape-font-specification:'Arial, Heavy';text-align:center;letter-spacing:0px;word-spacing:0px;writing-mode:lr-tb;text-anchor:middle;fill:#000000;fill-opacity:1;stroke:none;stroke-width:1px;stroke-linecap:butt;stroke-linejoin:miter;stroke-opacity:1"
     id="flowRoot3336"
     xml:space="preserve"><flowRegion
       id="flowRegion3338"><rect
         y="69.919037"
         x="17.510899"
         height="86.720642"
         width="142.58875"
         id="rect3340" /></flowRegion><flowPara
       style="font-size:40px;line-height:1.25"
       id="flowPara3342"> </flowPara></flowRoot><g
     id="text3344"
     style="font-style:normal;font-variant:normal;font-weight:900;font-stretch:normal;font-size:139.691px;line-height:125%;font-family:Arial;-inkscape-font-specification:'Arial, Heavy';text-align:center;letter-spacing:0px;word-spacing:0px;writing-mode:lr-tb;text-anchor:middle;fill:#000000;fill-opacity:1;stroke:none;stroke-width:1px;stroke-linecap:butt;stroke-linejoin:miter;stroke-opacity:1"
     transform="matrix(0.65409179,0,0,1.0516666,-4.863629,19.786224)"><path
       inkscape:connector-curvature="0"
       id="path3361"
       d="m 15.600936,33.331339 h 44.945947 q 13.290109,0 21.437814,3.68327 8.214489,3.683271 13.557247,10.572351 5.342756,6.889081 7.746996,16.029049 2.40424,9.139968 2.40424,19.371275 0,16.029049 -3.60636,24.896186 -3.539575,8.79892 -9.884099,14.80129 -6.344524,5.93416 -13.624032,7.91221 -9.950885,2.72835 -18.031806,2.72835 H 15.600936 Z m 30.253363,22.645294 v 54.635177 h 7.413077 q 9.483395,0 13.490463,-2.11447 4.007068,-2.18267 6.277739,-7.50295 2.270672,-5.388493 2.270672,-17.393227 0,-15.892631 -5.075619,-21.758581 -5.07562,-5.865949 -16.829687,-5.865949 z" /><path
       inkscape:connector-curvature="0"
       id="path3363"
       d="m 112.4672,33.331339 h 26.38864 l 34.43623,55.317269 V 33.331339 h 26.63817 V 133.32532 H 173.29207 L 139.04299,78.4173 v 54.90802 H 112.4672 Z" /></g><path
     inkscape:connector-curvature="0"
     id="path3347-7"
     style="font-size:131.791px;font-family:'Arial Black', 'Arial Bold', Gadget, sans-serif;stroke-width:0.462271"
     d="m 132.1817,22.814913 h 14.74986 l 7.68531,12.617748 7.44881,-12.617748 h 14.60206 l -13.47882,19.863863 14.74986,21.150815 h -15.04544 l -8.54251,-13.177294 -8.57206,13.177294 h -14.95676 l 14.95676,-21.374632 z" /></svg>
