<?xml version="1.0" encoding="UTF-8" standalone="no"?>
<svg
   xmlns:dc="http://purl.org/dc/elements/1.1/"
   xmlns:cc="http://creativecommons.org/ns#"
   xmlns:rdf="http://www.w3.org/1999/02/22-rdf-syntax-ns#"
   xmlns:svg="http://www.w3.org/2000/svg"
   xmlns="http://www.w3.org/2000/svg"
   xmlns:sodipodi="http://sodipodi.sourceforge.net/DTD/sodipodi-0.dtd"
   xmlns:inkscape="http://www.inkscape.org/namespaces/inkscape"
   version="1.1"
   id="Layer_1"
   x="0px"
   y="0px"
   viewBox="0 0 250 250"
   style="enable-background:new 0 0 250 250;"
   xml:space="preserve"
   inkscape:version="1.0beta2 (2b71d25, 2019-12-03)"
   sodipodi:docname="finish-of-service-area.svg"><metadata
     id="metadata12"><rdf:RDF><cc:Work
         rdf:about=""><dc:format>image/svg+xml</dc:format><dc:type
           rdf:resource="http://purl.org/dc/dcmitype/StillImage" /><dc:title></dc:title></cc:Work></rdf:RDF></metadata><defs
     id="defs10" /><sodipodi:namedview
     pagecolor="#ffffff"
     bordercolor="#666666"
     borderopacity="1"
     objecttolerance="10"
     gridtolerance="10"
     guidetolerance="10"
     inkscape:pageopacity="0"
     inkscape:pageshadow="2"
     inkscape:window-width="963"
     inkscape:window-height="797"
     id="namedview8"
     showgrid="false"
     inkscape:zoom="2.3656238"
     inkscape:cx="121.17122"
     inkscape:cy="127.8054"
     inkscape:window-x="477"
     inkscape:window-y="23"
     inkscape:window-maximized="0"
     inkscape:current-layer="XMLID_14_"
     inkscape:document-rotation="0" /><style
     type="text/css"
     id="style3">
	.st0{fill-rule:evenodd;clip-rule:evenodd;}
</style><g
     id="XMLID_14_"><path
       id="XMLID_13_"
       class="st0"
       d="m 211.9,113.5177 -0.3,-4.08257 -0.5,-4.08257 -0.7,-3.97224 -1,-3.972228 -1.2,-3.861892 -1.4,-3.751552 -1.6,-3.641212 -1.8,-3.530873 -2,-3.530873 -2.1,-3.420532 -2.3,-3.310193 -2.4,-3.199854 -2.6,-3.089513 -2.8,-2.979174 -2.9,-2.868834 -3.1,-2.648154 -3.2,-2.537815 -3.3,-2.427475 -3.5,-2.206795 -3.5,-2.096456 -3.7,-1.986116 -3.8,-1.765436 -3.9,-1.655097 -4,-1.434417 -4.1,-1.213737 -4.2,-1.103398 -4.2,-0.882718 -4.3,-0.772378 -4.3,-0.551699 -4.5,-0.33102 -4.5,-0.110339 -4.5,0.110339 -4.5,0.33102 -4.3,0.551699 -4.3,0.772378 -4.2,0.882718 -4.2,1.103398 -4.1,1.213737 -4,1.434417 -3.9,1.655097 -3.8,1.765436 -3.7,1.986116 -3.5,2.096456 -3.5,2.206795 -3.3,2.427475 -3.2,2.537815 -3.1,2.648154 -2.9,2.868834 -2.8,2.979174 -2.6,3.089513 -2.4,3.199854 -2.3,3.310193 -2.1,3.420532 -2,3.530873 -1.8,3.530873 -1.6,3.641212 -1.4,3.751552 -1.2,3.861892 -1,3.972228 -0.7,3.97224 -0.5,4.08257 -0.3,4.08257 -0.1,4.08257 0.1,4.08257 0.3,4.08257 0.5,4.08257 0.7,3.97224 1,3.97223 1.2,3.86189 1.4,3.75155 1.6,3.64121 1.8,3.53088 2,3.53087 2.1,3.42053 2.3,3.3102 2.4,3.19985 2.6,3.08951 2.8,2.97918 2.9,2.86883 3.1,2.64815 3.2,2.53782 3.3,2.42747 3.5,2.2068 3.5,2.09645 3.7,1.98612 3.8,1.76544 3.9,1.65509 4,1.43442 4.1,1.21374 4.2,1.1034 4.2,0.88271 4.3,0.77238 4.3,0.5517 4.5,0.33102 4.5,0.11034 4.5,-0.11034 4.5,-0.33102 4.3,-0.5517 4.3,-0.77238 4.2,-0.88271 4.2,-1.1034 4.1,-1.21374 4,-1.43442 3.9,-1.65509 3.8,-1.76544 3.7,-1.98612 3.5,-2.09645 3.5,-2.2068 3.3,-2.42747 3.2,-2.53782 3.1,-2.64815 2.9,-2.86883 2.8,-2.97918 2.6,-3.08951 2.4,-3.19985 2.3,-3.3102 2.1,-3.42053 2,-3.53087 1.8,-3.53088 1.6,-3.64121 1.4,-3.75155 1.2,-3.86189 1,-3.97223 0.7,-3.97224 0.5,-4.08257 0.3,-4.08257 0.1,-4.08257 -0.1,-4.08257 z m -16.6,7.5031 -0.3,3.3102 -0.5,3.31019 -0.6,3.31019 -0.8,3.19986 -1,3.08951 -1.2,3.08951 -1.3,2.97918 -1.4,2.86883 -1.6,2.86883 -1.7,2.7585 -1.8,2.64815 -2,2.53782 -2.1,2.42747 -2.2,2.42748 -2.4,2.20679 -2.4,2.2068 -2.6,2.09645 -2.7,1.98612 -2.8,1.76544 -2.8,1.76543 -3,1.54476 -3.1,1.43442 -3.1,1.32407 -3.3,1.21374 -3.3,0.99306 -3.4,0.99306 -3.5,0.66203 -3.5,0.66204 -3.6,0.33102 -3.6,0.22068 -3.6,0.11034 -3.7,-0.11034 -3.6,-0.22068 -3.6,-0.33102 -3.5,-0.66204 -3.5,-0.66203 -3.4,-0.99306 -3.3,-0.99306 -3.3,-1.21374 -3.1,-1.32407 -3.1,-1.43442 -3,-1.54476 -2.8,-1.76543 -2.8,-1.76544 -2.7,-1.98612 -2.6,-2.09645 -2.4,-2.2068 -2.4,-2.20679 -2.2,-2.42748 -2.1,-2.42747 -2,-2.53782 -1.8,-2.64815 -1.7,-2.7585 -1.6,-2.86883 -1.4,-2.86883 -1.3,-2.97918 -1.2,-3.08951 -1,-3.08951 -0.8,-3.19986 -0.6,-3.31019 -0.5,-3.31019 -0.3,-3.3102 -0.1,-3.42053 0.1,-3.42053 0.3,-3.3102 0.5,-3.31019 0.6,-3.31019 0.8,-3.19986 1,-3.089509 1.2,-3.089514 1.3,-2.979173 1.4,-2.868834 1.6,-2.868834 1.7,-2.758495 1.8,-2.648154 2,-2.537815 2.1,-2.427475 2.2,-2.427475 2.4,-2.206795 2.4,-2.206795 2.6,-2.096456 2.7,-1.986116 2.8,-1.765436 2.8,-1.765436 3,-1.544757 3.1,-1.434417 3.1,-1.324077 3.3,-1.213738 3.3,-0.993058 3.4,-0.993058 3.5,-0.662038 3.5,-0.662039 3.8,-0.220679 3.6,-0.22068 3.7,-0.11034 3.6,0.11034 3.6,0.22068 3.6,0.331019 3.5,0.662039 3.5,0.662038 3.4,0.993058 3.3,0.993058 3.3,1.213737 3.1,1.324078 3.1,1.434417 3,1.544756 2.8,1.765437 2.8,1.765436 2.7,1.986116 2.6,2.096456 2.4,2.206795 2.4,2.206795 2.2,2.427475 2.1,2.427475 2,2.537815 1.8,2.648154 1.7,2.758494 1.6,2.868834 1.4,2.868834 1.3,2.979174 1.2,3.089514 1,3.089509 0.8,3.19986 0.6,3.31019 0.5,3.31019 0.3,3.3102 0.1,3.42053 -0.3,3.31019 z"
       inkscape:connector-curvature="0"
       style="clip-rule:evenodd;fill-rule:evenodd" /><path
       style="fill:#0000ff;stroke:#0000ff;stroke-width:1.47092"
       d="m 115.39355,182.68856 c -6.0808,-0.63951 -15.10201,-3.10413 -21.496823,-5.87299 C 85.075231,172.996 78.592975,168.52088 71.52685,161.3722 59.591907,149.29781 53.137473,133.91253 53.141973,117.54861 c 0.0076,-27.796479 19.255298,-52.667199 47.847807,-61.826194 8.43624,-2.702369 11.68355,-3.149875 22.99972,-3.169553 11.25202,-0.01957 14.2829,0.405535 23.2895,3.26652 14.09455,4.477192 27.13893,13.663839 35.70148,25.143143 2.81971,3.780228 7.84874,13.540487 9.3474,18.141291 3.70806,11.383533 3.65273,25.731813 -0.14224,36.889493 -3.42867,10.08071 -8.47393,18.14541 -16.20677,25.90602 -10.22348,10.2602 -22.46183,16.77191 -37.23445,19.81149 -5.52863,1.13756 -17.18886,1.62579 -23.35087,0.97774 z"
       id="path5679"
       inkscape:connector-curvature="0" /><line
       y2="167.35661"
       x2="61.874733"
       y1="53.590759"
       x1="136.08063"
       class="st0"
       id="XMLID_1_"
       style="font-size:142.209px;font-family:'Arial Black', 'Arial Bold', Gadget, sans-serif;fill:none;stroke:#000000;stroke-width:5.50647;stroke-linecap:round;stroke-miterlimit:10" /><line
       style="font-size:142.209px;font-family:'Arial Black', 'Arial Bold', Gadget, sans-serif;fill:none;stroke:#000000;stroke-width:5.50647;stroke-linecap:round;stroke-miterlimit:10"
       id="line5702"
       class="st0"
       x1="158.05743"
       y1="58.538063"
       x2="83.851517"
       y2="172.30392" /><line
       y2="185.75848"
       x2="100.93594"
       y1="71.992592"
       x1="175.14186"
       class="st0"
       id="line5704"
       style="font-size:142.209px;font-family:'Arial Black', 'Arial Bold', Gadget, sans-serif;fill:none;stroke:#000000;stroke-width:5.50647;stroke-linecap:round;stroke-miterlimit:10" /><path
       style="fill:#000000;stroke:#000000;stroke-width:0.119879px;stroke-linecap:butt;stroke-linejoin:miter;stroke-opacity:1"
       d="m 75.688828,102.37582 v 0 l 2.344351,4.43065 3.666799,3.32701 5.690541,2.3478 4.909093,0.87091 5.59785,-0.67972 4.465758,-2.21879 33.68998,28.39249 -1.43263,5.09885 -0.44831,5.60803 1.57543,4.62879 3.53155,3.97215 5.05687,1.90081 8.34796,1.81556 5.32736,0.61055 -11.08054,-11.3335 1.32741,-9.80139 9.73802,0.38934 12.13249,11.52013 1.14962,-5.48359 -0.53601,-6.11723 -2.63993,-6.49046 -3.59917,-3.64956 -4.57096,-2.48375 -4.90909,-0.8709 -7.00047,0.43088 -36.42753,-29.212731 1.59293,-2.393903 0.94674,-4.515917 -1.37256,-5.596507 -3.39631,-4.617273 -5.48766,-3.315482 -6.108818,-2.087435 -9.036734,-0.264938 10.459414,12.561569 0.5736,11.142317 L 87.776179,98.498075 76.61547,85.812095 c -1.299407,4.341809 -2.307505,11.746393 -0.926642,16.563725 z"
       id="path52"
       inkscape:connector-curvature="0"
       sodipodi:nodetypes="cccccccccccccccccccccccccccccccccccccccc" /></g></svg>
