<?xml version="1.0" encoding="UTF-8" standalone="no"?>
<svg
   xmlns:dc="http://purl.org/dc/elements/1.1/"
   xmlns:cc="http://creativecommons.org/ns#"
   xmlns:rdf="http://www.w3.org/1999/02/22-rdf-syntax-ns#"
   xmlns:svg="http://www.w3.org/2000/svg"
   xmlns="http://www.w3.org/2000/svg"
   xmlns:sodipodi="http://sodipodi.sourceforge.net/DTD/sodipodi-0.dtd"
   xmlns:inkscape="http://www.inkscape.org/namespaces/inkscape"
   height="200"
   width="180"
   sodipodi:docname="follow-road.svg"
   inkscape:version="1.0beta2 (2b71d25, 2019-12-03)"
   xml:space="preserve"
   viewBox="0 0 180 200"
   y="0px"
   x="0px"
   id="Layer_1"
   version="1.1"><metadata
     id="metadata15"><rdf:RDF><cc:Work
         rdf:about=""><dc:format>image/svg+xml</dc:format><dc:type
           rdf:resource="http://purl.org/dc/dcmitype/StillImage" /><dc:title></dc:title></cc:Work></rdf:RDF></metadata><defs
     id="defs13" /><sodipodi:namedview
     inkscape:document-rotation="0"
     inkscape:current-layer="text3344"
     inkscape:window-maximized="0"
     inkscape:window-y="23"
     inkscape:window-x="0"
     inkscape:cy="102.7563"
     inkscape:cx="82.447555"
     inkscape:zoom="3.5333333"
     showgrid="false"
     id="namedview11"
     inkscape:window-height="797"
     inkscape:window-width="1440"
     inkscape:pageshadow="2"
     inkscape:pageopacity="0"
     guidetolerance="10"
     gridtolerance="10"
     objecttolerance="10"
     borderopacity="1"
     bordercolor="#666666"
     pagecolor="#ffffff" /><style
     id="style3"
     type="text/css">
	.st0{font-family:&quot;Arial Black&quot;, &quot;Arial Bold&quot;, Gadget, sans-serif;}
	.st1{font-size:118.4014px;}
	
		.st2{fill-rule:evenodd;clip-rule:evenodd;fill:none;stroke:#000000;stroke-width:18.9859;stroke-linecap:round;stroke-miterlimit:10;}
</style><flowRoot
     transform="matrix(0.70007244,0,0,0.62264151,47.766983,39.433961)"
     style="font-style:normal;font-variant:normal;font-weight:900;font-stretch:normal;line-height:0.01%;font-family:Arial;-inkscape-font-specification:'Arial, Heavy';text-align:center;letter-spacing:0px;word-spacing:0px;writing-mode:lr-tb;text-anchor:middle;fill:#000000;fill-opacity:1;stroke:none;stroke-width:1px;stroke-linecap:butt;stroke-linejoin:miter;stroke-opacity:1"
     id="flowRoot3336"
     xml:space="preserve"><flowRegion
       id="flowRegion3338"><rect
         y="69.919037"
         x="17.510899"
         height="86.720642"
         width="142.58875"
         id="rect3340" /></flowRegion><flowPara
       style="font-size:40px;line-height:1.25"
       id="flowPara3342"> </flowPara></flowRoot><g
     id="text3344"
     style="font-style:normal;font-variant:normal;font-weight:900;font-stretch:normal;font-size:136.8888092px;line-height:125%;font-family:Arial;-inkscape-font-specification:'Arial, Heavy';text-align:center;letter-spacing:0px;word-spacing:0px;writing-mode:lr-tb;text-anchor:middle;fill:#000000;fill-opacity:1;stroke:none;stroke-width:1px;stroke-linecap:butt;stroke-linejoin:miter;stroke-opacity:1"
     transform="scale(0.84441501,1.1842518)"><path
       style="stroke-width:0.660223px"
       inkscape:connector-curvature="0"
       id="path4905"
       d="M 67.345945,116.38104 V 55.369778 h 33.938805 q 9.43993,0 14.42961,1.498231 4.98968,1.49823 8.04642,5.576746 3.05674,4.036898 3.05674,9.863349 0,5.077335 -2.33751,8.781294 -2.3375,3.662341 -6.42814,5.951303 -2.60722,1.456613 -7.14738,2.413816 3.64112,1.123672 5.30434,2.247345 1.12381,0.749115 3.23655,3.204548 2.1577,2.455436 2.87693,3.787192 l 9.8445,17.687438 H 109.15136 L 98.272962,97.736402 q -2.067795,-3.620725 -3.686069,-4.70278 -2.20265,-1.414995 -4.989679,-1.414995 H 87.799133 V 116.38104 Z M 87.799133,80.090578 h 8.585842 q 1.393515,0 5.394245,-0.832351 2.02285,-0.374557 3.2815,-1.914405 1.30361,-1.539848 1.30361,-3.537488 0,-2.954843 -2.02284,-4.536308 -2.02284,-1.581465 -7.596898,-1.581465 h -8.945459 z" /><path
       style="stroke-width:0.660223px"
       inkscape:connector-curvature="0"
       id="path4907"
       d="m 127.92076,85.917028 q 0,-14.940684 8.71119,-23.264186 8.7112,-8.323501 24.26068,-8.323501 15.94147,0 24.56556,8.198649 8.62408,8.157031 8.62408,22.889629 0,10.6957 -3.78937,17.562591 -3.74582,6.82527 -10.88899,10.65408 -7.09962,3.78719 -17.72728,3.78719 -10.80188,0 -17.9015,-3.28778 -7.05607,-3.28779 -11.45522,-10.40438 -4.39915,-7.116593 -4.39915,-17.812292 z m 19.73085,0.08324 q 0,9.239086 3.57158,13.275987 3.61515,4.036895 9.80011,4.036895 6.35916,0 9.84364,-3.95366 3.48447,-3.953666 3.48447,-14.191573 0,-8.614823 -3.65869,-12.568487 -3.61515,-3.99528 -9.84365,-3.99528 -5.96716,0 -9.58231,4.036898 -3.61515,4.036898 -3.61515,13.35922 z" /><path
       d="M 17.238683,56.161559 H 62.530727 V 69.101982 H 35.638577 V 79.618648 H 58.608109 V 91.778534 H 35.638577 V 116.38589 H 17.238683 Z"
       style="font-size:144.049px;font-family:'Arial Black', 'Arial Bold', Gadget, sans-serif;stroke-width:0.59596"
       id="path3434"
       inkscape:connector-curvature="0" /></g></svg>
