<?xml version="1.0" encoding="UTF-8" standalone="no"?>
<svg
   xmlns:dc="http://purl.org/dc/elements/1.1/"
   xmlns:cc="http://creativecommons.org/ns#"
   xmlns:rdf="http://www.w3.org/1999/02/22-rdf-syntax-ns#"
   xmlns:svg="http://www.w3.org/2000/svg"
   xmlns="http://www.w3.org/2000/svg"
   xmlns:sodipodi="http://sodipodi.sourceforge.net/DTD/sodipodi-0.dtd"
   xmlns:inkscape="http://www.inkscape.org/namespaces/inkscape"
   height="200"
   width="250"
   sodipodi:docname="get-around.svg"
   inkscape:version="1.0beta2 (2b71d25, 2019-12-03)"
   xml:space="preserve"
   viewBox="0 0 250 200"
   y="0px"
   x="0px"
   id="Layer_1"
   version="1.1"><metadata
   id="metadata11"><rdf:RDF><cc:Work
       rdf:about=""><dc:format>image/svg+xml</dc:format><dc:type
         rdf:resource="http://purl.org/dc/dcmitype/StillImage" /><dc:title></dc:title></cc:Work></rdf:RDF></metadata><defs
   id="defs9" /><sodipodi:namedview
   inkscape:document-rotation="0"
   inkscape:current-layer="Layer_1"
   inkscape:window-maximized="0"
   inkscape:window-y="23"
   inkscape:window-x="597"
   inkscape:cy="130.52607"
   inkscape:cx="133.88596"
   inkscape:zoom="2.2024394"
   showgrid="false"
   id="namedview7"
   inkscape:window-height="797"
   inkscape:window-width="843"
   inkscape:pageshadow="2"
   inkscape:pageopacity="0"
   guidetolerance="10"
   gridtolerance="10"
   objecttolerance="10"
   borderopacity="1"
   bordercolor="#666666"
   pagecolor="#ffffff" /><style
   id="style3"
   type="text/css">
	.st0{font-family:&quot;Arial Black&quot;, &quot;Arial Bold&quot;, Gadget, sans-serif;}
	.st1{font-size:75px;}
</style><path
   d="M 163.00551,153.82396 V 37.781753 h 44.2125 q 12.29751,0 18.79763,2.849605 6.50011,2.849603 10.48217,10.606858 3.98205,7.6781 3.98205,18.7599 0,9.656993 -3.0451,16.701842 -3.0451,6.9657 -8.37402,11.319267 -3.39646,2.770445 -9.31098,4.591025 4.74332,2.13721 6.91004,4.27441 1.46398,1.42481 4.21628,6.09499 2.81087,4.67017 3.74782,7.20315 l 12.82456,33.64116 h -29.98252 l -14.17143,-35.46174 q -2.69374,-6.88654 -4.80188,-8.94458 -2.86942,-2.69129 -6.50012,-2.69129 h -2.34238 v 47.09761 z m 26.64462,-69.023733 h 11.18488 q 1.81535,0 7.02715,-1.583114 2.63518,-0.712403 4.27485,-3.641164 1.69823,-2.92876 1.69823,-6.728232 0,-5.620054 -2.63518,-8.627975 -2.63518,-3.007911 -9.89657,-3.007911 h -11.65336 z"
   style="font-size:142.209px;font-family:'Arial Black', 'Arial Bold', Gadget, sans-serif;fill:#ff0000"
   id="path3343"
   inkscape:connector-curvature="0" /><path
   inkscape:connector-curvature="0"
   id="path4784"
   d="M 42.269668,113.15445 V 89.011959 h 34.83405 v 49.472301 q -10.00235,10.84432 -17.71559,14.80212 -7.66351,3.87862 -18.21324,3.87862 -12.98812,0 -21.19901,-7.04485 -8.161103,-7.04486 -12.689541,-20.97626 -4.478663,-13.9314 -4.478663,-31.978893 0,-18.99736 4.926543,-33.007921 4.926522,-14.089709 14.431231,-21.372024 7.41468,-5.620061 19.95492,-5.620061 12.0924,0 18.06395,3.482849 6.02132,3.482848 9.95259,10.844332 3.98102,7.282316 5.97155,18.522426 l -21.7464,6.174142 q -1.3436,-6.56992 -4.57819,-10.052768 -3.18482,-3.482847 -8.16112,-3.482847 -7.41468,0 -11.84356,8.232185 -4.37914,8.153039 -4.37914,25.883911 0,18.839049 4.42891,26.912929 4.47865,8.07387 12.44071,8.07387 3.78198,0 7.21561,-1.74141 3.43367,-1.74142 7.86255,-5.93668 v -10.92348 z"
   style="font-style:normal;font-variant:normal;font-weight:900;font-stretch:normal;font-size:134.048px;line-height:125%;font-family:Arial;-inkscape-font-specification:'Arial, Heavy';text-align:center;letter-spacing:0px;word-spacing:0px;writing-mode:lr-tb;text-anchor:middle;fill:#ff0000;fill-opacity:1;stroke:none;stroke-width:1px;stroke-linecap:butt;stroke-linejoin:miter;stroke-opacity:1" /><text
   id="text3386"
   style="font-size:97.2459px;font-family:'Arial Black', 'Arial Bold', Gadget, sans-serif"
   y="96.020195"
   x="5.0010576"
   class="st0 st1"
   transform="scale(0.79983082,1.2502644)" />


<path
   style="font-style:normal;font-variant:normal;font-weight:900;font-stretch:normal;font-size:134.04800000000000182px;line-height:125%;font-family:Arial;-inkscape-font-specification:'Arial, Heavy';text-align:center;letter-spacing:0px;word-spacing:0px;writing-mode:lr-tb;text-anchor:middle;fill:#ff0000;fill-opacity:1;stroke:none;stroke-width:1px;stroke-linecap:butt;stroke-linejoin:miter;stroke-opacity:1"
   d="m 130.57987,133.76021 h -24.72482 l -3.40206,19.15568 H 80.267731 L 106.66962,36.87367 h 23.67067 l 26.40191,116.04222 h -22.71235 z m -4.55204,-25.09234 -7.76245,-41.715045 -7.71453,41.715045 z"
   id="path4782"
   inkscape:connector-curvature="0" /></svg>
