<?xml version="1.0" encoding="UTF-8" standalone="no"?>
<svg
   xmlns:dc="http://purl.org/dc/elements/1.1/"
   xmlns:cc="http://creativecommons.org/ns#"
   xmlns:rdf="http://www.w3.org/1999/02/22-rdf-syntax-ns#"
   xmlns:svg="http://www.w3.org/2000/svg"
   xmlns="http://www.w3.org/2000/svg"
   xmlns:sodipodi="http://sodipodi.sourceforge.net/DTD/sodipodi-0.dtd"
   xmlns:inkscape="http://www.inkscape.org/namespaces/inkscape"
   height="200"
   width="250"
   sodipodi:docname="gravel.svg"
   inkscape:version="1.0beta2 (2b71d25, 2019-12-03)"
   xml:space="preserve"
   viewBox="0 0 250 200"
   y="0px"
   x="0px"
   id="Layer_1"
   version="1.1"><metadata
   id="metadata11"><rdf:RDF><cc:Work
       rdf:about=""><dc:format>image/svg+xml</dc:format><dc:type
         rdf:resource="http://purl.org/dc/dcmitype/StillImage" /><dc:title></dc:title></cc:Work></rdf:RDF></metadata><defs
   id="defs9" /><sodipodi:namedview
   inkscape:document-rotation="0"
   inkscape:current-layer="Layer_1"
   inkscape:window-maximized="0"
   inkscape:window-y="23"
   inkscape:window-x="597"
   inkscape:cy="130.52607"
   inkscape:cx="133.88596"
   inkscape:zoom="2.2024394"
   showgrid="false"
   id="namedview7"
   inkscape:window-height="797"
   inkscape:window-width="843"
   inkscape:pageshadow="2"
   inkscape:pageopacity="0"
   guidetolerance="10"
   gridtolerance="10"
   objecttolerance="10"
   borderopacity="1"
   bordercolor="#666666"
   pagecolor="#ffffff" /><style
   id="style3"
   type="text/css">
	.st0{font-family:&quot;Arial Black&quot;, &quot;Arial Bold&quot;, Gadget, sans-serif;}
	.st1{font-size:75px;}
</style><text
   id="text3386"
   style="font-size:97.2459px;font-family:'Arial Black', 'Arial Bold', Gadget, sans-serif"
   y="96.020195"
   x="5.0010576"
   class="st0 st1"
   transform="scale(0.79983082,1.2502644)" />


<path
   inkscape:connector-curvature="0"
   id="path3363"
   style="font-size:129.111px;font-family:'Arial Black', 'Arial Bold', Gadget, sans-serif"
   d="m 125.94443,43.230253 h 23.1916 l 16.14605,83.509237 15.90141,-83.509237 H 203.6901 L 177.07358,159.27249 h -24.02335 z" /><path
   style="font-style:normal;font-variant:normal;font-weight:900;font-stretch:normal;font-size:134.048px;line-height:125%;font-family:Arial;-inkscape-font-specification:'Arial, Heavy';text-align:center;letter-spacing:0px;word-spacing:0px;writing-mode:lr-tb;text-anchor:middle;fill:#000000;fill-opacity:1;stroke:none;stroke-width:1px;stroke-linecap:butt;stroke-linejoin:miter;stroke-opacity:1"
   d="M 79.955153,116.78678 V 92.644293 h 34.834057 v 49.472297 q -10.00235,10.84433 -17.715601,14.80212 -7.6635,3.87862 -18.213238,3.87862 -12.98812,0 -21.199006,-7.04485 -8.161103,-7.04486 -12.689545,-20.97626 -4.478658,-13.93139 -4.478658,-31.97889 0,-18.997358 4.92654,-33.00792 4.926523,-14.089708 14.431236,-21.372023 7.41468,-5.620061 19.954919,-5.620061 12.092401,0 18.063949,3.482848 6.021314,3.482848 9.952594,10.844333 3.98102,7.282316 5.97155,18.522426 l -21.746404,6.174142 q -1.343601,-6.56992 -4.57819,-10.052768 -3.184823,-3.482848 -8.16112,-3.482848 -7.41468,0 -11.843565,8.232186 -4.379136,8.153039 -4.379136,25.883915 0,18.83904 4.428902,26.91293 4.478659,8.07387 12.440716,8.07387 3.781984,0 7.215618,-1.74142 3.43366,-1.74142 7.862545,-5.93668 v -10.92348 z"
   id="path4784"
   inkscape:connector-curvature="0" /></svg>
