<?xml version="1.0" encoding="UTF-8" standalone="no"?>
<svg
   xmlns:dc="http://purl.org/dc/elements/1.1/"
   xmlns:cc="http://creativecommons.org/ns#"
   xmlns:rdf="http://www.w3.org/1999/02/22-rdf-syntax-ns#"
   xmlns:svg="http://www.w3.org/2000/svg"
   xmlns="http://www.w3.org/2000/svg"
   xmlns:sodipodi="http://sodipodi.sourceforge.net/DTD/sodipodi-0.dtd"
   xmlns:inkscape="http://www.inkscape.org/namespaces/inkscape"
   sodipodi:docname="hole.svg"
   inkscape:version="1.0beta2 (2b71d25, 2019-12-03)"
   xml:space="preserve"
   style="enable-background:new 0 0 250 250;"
   viewBox="0 0 250 250"
   y="0px"
   x="0px"
   id="Layer_1"
   version="1.1"><metadata
     id="metadata4205"><rdf:RDF><cc:Work
         rdf:about=""><dc:format>image/svg+xml</dc:format><dc:type
           rdf:resource="http://purl.org/dc/dcmitype/StillImage" /><dc:title /></cc:Work></rdf:RDF></metadata><defs
     id="defs4203" /><sodipodi:namedview
     inkscape:document-rotation="0"
     inkscape:window-maximized="0"
     inkscape:window-y="23"
     inkscape:window-x="20"
     inkscape:current-layer="Layer_1"
     inkscape:cy="145.85085"
     inkscape:cx="150.953"
     inkscape:zoom="2.2257037"
     showgrid="false"
     id="namedview4201"
     inkscape:window-height="766"
     inkscape:window-width="1313"
     inkscape:pageshadow="2"
     inkscape:pageopacity="0"
     guidetolerance="10"
     gridtolerance="10"
     objecttolerance="10"
     borderopacity="1"
     bordercolor="#666666"
     pagecolor="#ffffff" /><style
     id="style4196"
     type="text/css">
	.st0{fill-rule:evenodd;clip-rule:evenodd;}
</style><path
     id="XMLID_13_"
     class="st0"
     d="m 212.40034,120.59524 -0.29897,-4.40475 -0.49829,-4.40477 -0.69761,-4.28571 -0.99659,-4.28572 -1.1959,-4.16667 -1.39521,-4.047622 -1.59454,-3.928568 -1.79385,-3.809524 -1.99316,-3.809523 -2.09283,-3.690477 -2.29214,-3.571429 -2.3918,-3.45238 -2.59111,-3.333333 -2.79044,-3.214286 -2.89009,-3.095238 -3.0894,-2.857142 -3.18907,-2.738097 -3.28872,-2.619046 -3.48805,-2.380955 -3.48804,-2.261904 -3.68735,-2.142858 -3.78702,-1.904761 -3.88667,-1.785714 -3.98634,-1.54762 -4.08599,-1.309523 -4.18565,-1.190476 -4.18565,-0.952382 -4.2853,-0.833333 -4.28531,-0.595237 -4.48463,-0.357144 L 125,37.5 l -4.48462,0.119048 -4.48463,0.357144 -4.28531,0.595237 -4.2853,0.833333 -4.18565,0.952382 -4.18565,1.190476 -4.085991,1.309523 -3.986332,1.54762 -3.886674,1.785714 -3.787016,1.904761 -3.687358,2.142858 -3.488041,2.261904 -3.488041,2.380955 -3.288724,2.619046 -3.189066,2.738097 -3.089408,2.857142 -2.890091,3.095238 -2.790433,3.214286 -2.591116,3.333333 -2.3918,3.45238 -2.292141,3.571429 -2.092825,3.690477 -1.993166,3.809523 -1.79385,3.809524 -1.594533,3.928568 -1.395216,4.047622 -1.1959,4.16667 -0.996583,4.28572 -0.697608,4.28571 -0.498292,4.40477 -0.298975,4.40475 -0.09966,4.40477 0.09966,4.40476 0.298975,4.40476 0.498292,4.40476 0.697608,4.28572 0.996583,4.28571 1.1959,4.16667 1.395216,4.04762 1.594533,3.92856 1.79385,3.80953 1.993166,3.80951 2.092825,3.69048 2.292141,3.57144 2.3918,3.45237 2.591116,3.33334 2.790433,3.21429 2.890091,3.09524 3.089408,2.85715 3.189066,2.73809 3.288724,2.61905 3.488041,2.38095 3.488041,2.2619 3.687358,2.14286 3.787016,1.90476 3.886674,1.78571 3.986332,1.54762 4.085991,1.30952 4.18565,1.19049 4.18565,0.95237 4.2853,0.83333 4.28531,0.59524 4.48463,0.35715 L 125,212.5 l 4.48462,-0.11904 4.48463,-0.35715 4.28531,-0.59524 4.2853,-0.83333 4.18565,-0.95237 4.18565,-1.19049 4.08599,-1.30952 3.98634,-1.54762 3.88667,-1.78571 3.78702,-1.90476 3.68735,-2.14286 3.48804,-2.2619 3.48805,-2.38095 3.28872,-2.61905 3.18907,-2.73809 3.0894,-2.85715 2.89009,-3.09524 2.79044,-3.21429 2.59111,-3.33334 2.3918,-3.45237 2.29214,-3.57144 2.09283,-3.69048 1.99316,-3.80951 1.79385,-3.80953 1.59454,-3.92856 1.39521,-4.04762 1.1959,-4.16667 0.99659,-4.28571 0.69761,-4.28572 0.49829,-4.40476 0.29897,-4.40476 0.0997,-4.40476 -0.0997,-4.40477 z m -16.54328,8.09525 -0.29897,3.57142 -0.4983,3.57143 -0.59794,3.57144 -0.79727,3.45236 -0.99658,3.33334 -1.1959,3.33333 -1.29556,3.21429 -1.39522,3.09523 -1.59453,3.09524 -1.69419,2.97621 -1.79385,2.85713 -1.99317,2.73809 -2.09282,2.61906 -2.19249,2.61904 -2.3918,2.38096 -2.3918,2.38096 -2.59111,2.2619 -2.69078,2.14285 -2.79043,1.90476 -2.79043,1.90476 -2.98975,1.66668 -3.08941,1.54761 -3.08941,1.42856 -3.28872,1.30953 -3.28873,1.07144 -3.38838,1.07142 -3.48804,0.71428 -3.48804,0.71429 -3.5877,0.35714 -3.5877,0.2381 -3.5877,0.11904 -3.68736,-0.11904 -3.5877,-0.2381 -3.58769,-0.35714 -3.48805,-0.71429 -3.48804,-0.71428 -3.38838,-1.07142 -3.28872,-1.07144 -3.288726,-1.30953 -3.089408,-1.42856 -3.089408,-1.54761 -2.989749,-1.66668 -2.790433,-1.90476 -2.790433,-1.90476 -2.690774,-2.14285 -2.591116,-2.2619 -2.3918,-2.38096 -2.391799,-2.38096 -2.192483,-2.61904 -2.092825,-2.61906 -1.993166,-2.73809 -1.79385,-2.85713 -1.694191,-2.97621 -1.594533,-3.09524 -1.395217,-3.09523 -1.295558,-3.21429 -1.195899,-3.33333 -0.996584,-3.33334 -0.797266,-3.45236 -0.59795,-3.57144 -0.498292,-3.57143 -0.298974,-3.57142 -0.09966,-3.69048 0.09966,-3.69048 0.298974,-3.57143 0.498292,-3.57143 0.59795,-3.57142 0.797266,-3.4524 0.996584,-3.33332 1.195899,-3.33333 1.295558,-3.214291 1.395217,-3.095243 1.594533,-3.095236 1.694191,-2.976189 1.79385,-2.857144 1.993166,-2.738096 2.092825,-2.619047 2.192483,-2.619048 2.391799,-2.380952 2.3918,-2.380953 2.591116,-2.261905 2.690774,-2.142857 2.790433,-1.904761 2.790433,-1.904762 2.989749,-1.666667 3.089408,-1.547619 3.089408,-1.428572 3.288726,-1.309523 3.28872,-1.071429 3.38838,-1.071428 3.48804,-0.714286 3.48805,-0.714286 3.78701,-0.238095 3.5877,-0.238096 3.68736,-0.119047 3.5877,0.119047 3.5877,0.238096 3.5877,0.357144 3.48804,0.714285 3.48804,0.714285 3.38838,1.071428 3.28873,1.071429 3.28872,1.309524 3.08941,1.428571 3.08941,1.547619 2.98974,1.666667 2.79044,1.904762 2.79043,1.904762 2.69077,2.142857 2.59112,2.261905 2.3918,2.380952 2.3918,2.380954 2.19248,2.619046 2.09283,2.619048 1.99316,2.738095 1.79385,2.857145 1.69419,2.976194 1.59454,3.095237 1.39521,3.095236 1.29556,3.214284 1.1959,3.33332 0.99659,3.33336 0.79726,3.45236 0.59795,3.57145 0.49829,3.57141 0.29898,3.57143 0.0997,3.69048 -0.29898,3.57144 z"
     inkscape:connector-curvature="0"
     style="clip-rule:evenodd;fill-rule:evenodd" /><path
     inkscape:connector-curvature="0"
     id="path5243"
     d="M 69.552256,182.76036 177.80779,74.221082"
     style="fill:none;fill-rule:evenodd;stroke:#000000;stroke-width:10.09473705;stroke-linecap:butt;stroke-linejoin:miter;stroke-miterlimit:4;stroke-dasharray:none;stroke-opacity:1" /><path
     inkscape:connector-curvature="0"
     id="path5245"
     d="M 69.056097,72.105773 179.39811,179.52568"
     style="fill:none;fill-rule:evenodd;stroke:#000000;stroke-width:9.8589344;stroke-linecap:butt;stroke-linejoin:miter;stroke-miterlimit:4;stroke-dasharray:none;stroke-opacity:1" /><path
     inkscape:connector-curvature="0"
     id="path275"
     d="M 115.27888,211.67871 C 106.14582,210.50814 95.421407,207.40919 87.677551,203.70295 69.522245,195.01376 55.479524,181.0304 46.361207,162.56129 41.507228,152.72957 38.831488,142.71719 38.035166,131.40598 36.656651,111.82513 41.269439,94.040386 52.003648,77.550073 60.9509,63.804953 72.289044,53.831567 87.197878,46.592129 111.37944,34.850034 138.97687,34.930948 163.12892,46.814753 c 18.00706,8.860217 30.81527,21.586264 40.13292,39.875463 7.00939,13.758424 9.96206,29.103354 8.69064,45.165064 -0.92736,11.71533 -3.33411,20.56128 -8.36422,30.7425 -9.14366,18.50723 -22.20577,31.61298 -40.45934,40.59449 -8.80601,4.33293 -17.07265,6.85076 -27.23496,8.29517 -4.98934,0.70915 -15.79238,0.80938 -20.61508,0.19127 z m 23.58805,-16.77873 c 5.83812,-1.23932 13.01171,-3.78234 18.36057,-6.5088 4.92497,-2.51038 11.80302,-7.08532 13.51507,-8.98954 l 0.87421,-0.97234 -2.89604,-2.85447 c -1.59282,-1.56995 -11.9794,-11.68418 -23.08128,-22.47604 l -20.18524,-19.62157 -23.04348,23.04022 c -21.654238,21.65118 -22.999822,23.08847 -22.319284,23.84046 1.553144,1.7162 8.9407,6.37739 13.742764,8.671 6.8424,3.26815 15.39233,5.87509 21.89396,6.67563 3.92832,0.4837 19.64436,-0.0628 23.13875,-0.80455 z m -20.55489,-68.19043 c -0.062,-0.17504 -10.92521,-10.83027 -24.140462,-23.67828 C 71.1382,80.637964 70.109035,79.70275 69.302621,80.432544 c -1.571322,1.422028 -6.205794,8.776403 -8.409022,13.344154 -9.665463,20.038512 -9.668054,42.456962 -0.0072,62.424862 2.532604,5.23461 5.619638,10.06687 9.012528,14.10766 l 2.390698,2.84722 23.067585,-23.06432 c 12.68717,-12.68537 23.01686,-23.20753 22.95485,-23.38257 z m 61.3123,43.7852 c 4.40562,-4.68122 10.39013,-15.5997 13.11351,-23.92502 2.11123,-6.45398 2.99431,-11.95997 3.27876,-20.44298 0.28717,-8.5641 -0.66818,-15.3346 -3.25685,-23.08092 -2.6276,-7.862862 -7.62641,-17.194922 -11.82377,-22.073334 l -1.353,-1.572536 -23.61543,23.58644 c -12.98848,12.97254 -23.61542,23.72496 -23.61542,23.89426 0,0.35336 45.47245,44.813 45.85647,44.8351 0.1391,0.008 0.77618,-0.54145 1.41573,-1.22101 z m -30.42201,-74.266544 23.8111,-23.833054 -2.02183,-1.763814 c -5.76888,-5.032682 -15.19295,-10.308883 -23.21173,-12.99542 -8.45781,-2.833626 -11.92906,-3.335956 -23.06577,-3.337883 -10.9145,-0.0019 -14.0693,0.436382 -22.24015,3.089629 -7.870509,2.555718 -17.982268,8.244992 -23.807259,13.394898 l -2.241042,1.981317 9.879078,9.63546 c 29.015053,28.299541 38.655903,37.640271 38.860263,37.650551 0.12443,0.006 10.94123,-10.71351 24.03734,-23.821684 z"
     style="fill:#ff0000;stroke-width:0.449296" /></svg>
