<?xml version="1.0" encoding="UTF-8" standalone="no"?>
<svg
   xmlns:dc="http://purl.org/dc/elements/1.1/"
   xmlns:cc="http://creativecommons.org/ns#"
   xmlns:rdf="http://www.w3.org/1999/02/22-rdf-syntax-ns#"
   xmlns:svg="http://www.w3.org/2000/svg"
   xmlns="http://www.w3.org/2000/svg"
   xmlns:sodipodi="http://sodipodi.sourceforge.net/DTD/sodipodi-0.dtd"
   xmlns:inkscape="http://www.inkscape.org/namespaces/inkscape"
   height="200"
   width="250"
   sodipodi:docname="imperative.svg"
   inkscape:version="1.0beta2 (2b71d25, 2019-12-03)"
   xml:space="preserve"
   viewBox="0 0 250 200"
   y="0px"
   x="0px"
   id="Layer_1"
   version="1.1"><metadata
   id="metadata11"><rdf:RDF><cc:Work
       rdf:about=""><dc:format>image/svg+xml</dc:format><dc:type
         rdf:resource="http://purl.org/dc/dcmitype/StillImage" /><dc:title /></cc:Work></rdf:RDF></metadata><defs
   id="defs9" /><sodipodi:namedview
   inkscape:document-rotation="0"
   inkscape:current-layer="text5"
   inkscape:window-maximized="0"
   inkscape:window-y="23"
   inkscape:window-x="20"
   inkscape:cy="94.438036"
   inkscape:cx="117.59734"
   inkscape:zoom="2.9458333"
   showgrid="false"
   id="namedview7"
   inkscape:window-height="766"
   inkscape:window-width="1313"
   inkscape:pageshadow="2"
   inkscape:pageopacity="0"
   guidetolerance="10"
   gridtolerance="10"
   objecttolerance="10"
   borderopacity="1"
   bordercolor="#666666"
   pagecolor="#ffffff" /><style
   id="style3"
   type="text/css">
	.st0{font-family:&quot;Arial Black&quot;, &quot;Arial Bold&quot;, Gadget, sans-serif;}
	.st1{font-size:75px;}
</style><g
   id="text5"
   style="font-size:144.39453125px;font-family:'Arial Black', 'Arial Bold', Gadget, sans-serif"
   transform="scale(0.86133777,1.1609847)"><path
     inkscape:connector-curvature="0"
     id="path3424"
     style="font-size:144.39453125px;font-family:'Arial Black', 'Arial Bold', Gadget, sans-serif"
     d="m 17.414769,34.453503 32.009334,0 0,103.360537 -32.009334,0 0,-103.360537 z" /><path
     inkscape:connector-curvature="0"
     id="path3426"
     style="font-size:144.39453125px;font-family:'Arial Black', 'Arial Bold', Gadget, sans-serif"
     d="m 65.428838,34.453503 40.169292,0 15.50158,62.890587 15.43417,-62.890587 40.0345,0 0,103.360537 -24.93732,0 0,-78.824748 -19.34326,78.824748 -22.57838,0 -19.27587,-78.824748 0,78.824748 -25.004712,0 0,-103.360537 z" /><path
     inkscape:connector-curvature="0"
     id="path3428"
     style="font-size:144.39453125px;font-family:'Arial Black', 'Arial Bold', Gadget, sans-serif"
     d="m 187.44498,34.453503 53.09038,0 q 17.34426,0 25.94589,8.249101 8.67213,8.249102 8.67213,23.478213 0,15.652141 -9.44769,24.465284 -9.37718,8.813143 -28.69559,8.813143 l -17.48528,0 0,38.354796 -32.07984,0 0,-103.360537 z m 32.07984,44.065714 7.82607,0 q 9.23618,0 12.97295,-3.172732 3.73677,-3.243236 3.73677,-8.249102 0,-4.864854 -3.24323,-8.249101 -3.24324,-3.384247 -12.19739,-3.384247 l -9.09517,0 0,23.055182 z" /><path
     transform="scale(1.1609847,0.86133779)"
     inkscape:connector-curvature="0"
     id="path505"
     d="m 15.283336,100.07311 v -59.7454 h 13.578501 13.578501 v 59.7454 59.74541 H 28.861837 15.283336 Z"
     style="fill:#ff0000;stroke-width:0.339463" /><path
     transform="scale(1.1609847,0.86133779)"
     inkscape:connector-curvature="0"
     id="path507"
     d="m 56.358301,100.07311 v -59.7454 h 17.238941 17.23894 l 6.573237,36.067893 c 3.615281,19.837341 6.703581,36.213017 6.862901,36.390387 0.15931,0.17736 0.28966,0.20559 0.28966,0.0627 0,-0.42336 12.91058,-71.278555 13.10587,-71.926951 0.16732,-0.555552 1.28862,-0.594059 17.2989,-0.594059 h 17.11998 v 59.7454 59.74541 H 141.39366 130.70059 V 114.1042 c 0,-25.142855 -0.0686,-45.645675 -0.15246,-45.561819 -0.0839,0.08386 -3.82416,20.311579 -8.31179,44.950499 -4.48763,24.63891 -8.24088,45.14173 -8.34057,45.56182 l -0.18124,0.76379 h -9.4756 c -8.730525,0 -9.48956,-0.0467 -9.65296,-0.59406 -0.09754,-0.32673 -3.780951,-20.529 -8.185355,-44.89392 C 81.996211,89.965617 78.25883,69.648785 78.095324,69.182024 77.922284,68.688049 77.786839,87.450672 77.77124,114.07594 l -0.0268,45.74258 H 67.051371 56.358301 Z"
     style="fill:#ff0000;stroke-width:0.339463" /><path
     transform="scale(1.1609847,0.86133779)"
     inkscape:connector-curvature="0"
     id="path509"
     d="m 161.59168,100.07311 v -59.7454 h 25.13454 c 27.33887,0 27.70911,0.02211 32.57409,1.945675 9.08803,3.593308 14.86356,12.044887 16.76463,24.532402 1.41856,9.3181 0.76764,19.853757 -1.69308,27.403808 -2.99403,9.186395 -8.73832,15.749325 -16.4294,18.770855 -4.50747,1.77081 -7.30164,2.12383 -18.50071,2.33747 l -10.52333,0.20074 -0.0873,22.14993 -0.0873,22.14993 h -13.57604 -13.57605 z m 41.44137,-9.790598 c 2.63457,-1.026809 4.50353,-2.739798 5.72241,-5.244862 3.5067,-7.206973 1.11532,-17.042343 -4.75802,-19.568986 -2.15315,-0.92626 -6.55401,-1.431691 -11.36983,-1.305805 l -3.70919,0.09696 -0.089,13.068367 c -0.0489,7.187603 -0.009,13.276735 0.0887,13.531407 0.14391,0.375007 1.32254,0.434339 6.19931,0.312068 5.14387,-0.128969 6.29769,-0.258576 7.9156,-0.889148 z"
     style="fill:#ff0000;stroke-width:0.339463" /></g><text
   id="text3386"
   style="font-size:97.2459px;font-family:'Arial Black', 'Arial Bold', Gadget, sans-serif"
   y="96.020195"
   x="5.0010576"
   class="st0 st1"
   transform="scale(0.79983082,1.2502644)" />
<text
   id="text3370"
   y="71.75708"
   x="83.726418"
   style="font-style:normal;font-weight:normal;line-height:0%;font-family:sans-serif;letter-spacing:0px;word-spacing:0px;fill:#000000;fill-opacity:1;stroke:none;stroke-width:1px;stroke-linecap:butt;stroke-linejoin:miter;stroke-opacity:1"
   xml:space="preserve"><tspan
     style="font-size:40px;line-height:1.25"
     y="71.75708"
     x="83.726418"
     id="tspan3372"
     sodipodi:role="line"> </tspan></text>
<text
   id="text3374"
   y="93.86792"
   x="30.365566"
   style="font-style:normal;font-weight:normal;line-height:0%;font-family:sans-serif;letter-spacing:0px;word-spacing:0px;fill:#000000;fill-opacity:1;stroke:none;stroke-width:1px;stroke-linecap:butt;stroke-linejoin:miter;stroke-opacity:1"
   xml:space="preserve"><tspan
     style="font-size:40px;line-height:1.25"
     y="93.86792"
     x="30.365566"
     id="tspan3376"
     sodipodi:role="line"> </tspan></text>
<flowRoot
   transform="translate(0,-50)"
   style="font-style:normal;font-weight:normal;line-height:0.01%;font-family:sans-serif;letter-spacing:0px;word-spacing:0px;fill:#000000;fill-opacity:1;stroke:none;stroke-width:1px;stroke-linecap:butt;stroke-linejoin:miter;stroke-opacity:1"
   id="flowRoot3378"
   xml:space="preserve"><flowRegion
     id="flowRegion3380"><rect
       y="38.915092"
       x="53.066036"
       height="155.66037"
       width="115.27122"
       id="rect3382" /></flowRegion><flowPara
     style="font-size:40px;line-height:1.25"
     id="flowPara3384"> </flowPara></flowRoot></svg>
