<?xml version="1.0" encoding="UTF-8" standalone="no"?>
<svg
   xmlns:dc="http://purl.org/dc/elements/1.1/"
   xmlns:cc="http://creativecommons.org/ns#"
   xmlns:rdf="http://www.w3.org/1999/02/22-rdf-syntax-ns#"
   xmlns:svg="http://www.w3.org/2000/svg"
   xmlns="http://www.w3.org/2000/svg"
   xmlns:sodipodi="http://sodipodi.sourceforge.net/DTD/sodipodi-0.dtd"
   xmlns:inkscape="http://www.inkscape.org/namespaces/inkscape"
   height="200"
   width="180"
   sodipodi:docname="more-visible.svg"
   inkscape:version="1.0beta2 (2b71d25, 2019-12-03)"
   xml:space="preserve"
   viewBox="0 0 180 200"
   y="0px"
   x="0px"
   id="Layer_1"
   version="1.1"><metadata
     id="metadata15"><rdf:RDF><cc:Work
         rdf:about=""><dc:format>image/svg+xml</dc:format><dc:type
           rdf:resource="http://purl.org/dc/dcmitype/StillImage" /><dc:title></dc:title></cc:Work></rdf:RDF></metadata><defs
     id="defs13"><clipPath
       id="clipPath231"
       clipPathUnits="userSpaceOnUse"><path
         inkscape:connector-curvature="0"
         d="m 14,119.0625 v 18.20508 h 48.078125 c -4.137254,-1.61327 -7.252802,-2.8353 -12.755859,-5.16797 -3.671055,-1.55611 -7.362323,-3.07267 -10.966797,-4.77734 -3.280249,-1.55133 -3.699889,-2.15591 -6.306641,-4.01172 -0.506584,-0.36065 -1.031495,-0.69695 -1.546875,-1.04493 -1.74168,-1.1759 -1.475301,-2.87826 -0.246094,-3.00585 0.409736,-0.0425 0.926964,0.0889 1.511719,0.47461 0.61679,0.4068 1.244971,0.79604 1.84961,1.2207 2.657738,1.86666 2.887389,2.38351 6.146484,3.91211 3.515172,1.64871 7.111381,3.12475 10.6875,4.63672 7.12308,3.0116 9.309177,3.82307 15.90625,6.40039 2.875711,0.91814 3.625653,0.62322 2.689453,1.36328 h 0.669922 c 0.615698,-0.33858 1.0152,-0.47319 0.701172,0 h 7.582032 V 119.0625 Z"
         style="fill:#ff0000;fill-opacity:1;fill-rule:nonzero;stroke:none"
         id="path233" /></clipPath></defs><sodipodi:namedview
     inkscape:document-rotation="0"
     inkscape:current-layer="Layer_1"
     inkscape:window-maximized="0"
     inkscape:window-y="23"
     inkscape:window-x="20"
     inkscape:cy="99.063736"
     inkscape:cx="70.944418"
     inkscape:zoom="3.5330394"
     showgrid="false"
     id="namedview11"
     inkscape:window-height="766"
     inkscape:window-width="1313"
     inkscape:pageshadow="2"
     inkscape:pageopacity="0"
     guidetolerance="10"
     gridtolerance="10"
     objecttolerance="10"
     borderopacity="1"
     bordercolor="#666666"
     pagecolor="#ffffff" /><style
     id="style3"
     type="text/css">
	.st0{font-family:&quot;Arial Black&quot;, &quot;Arial Bold&quot;, Gadget, sans-serif;}
	.st1{font-size:118.4014px;}
	
		.st2{fill-rule:evenodd;clip-rule:evenodd;fill:none;stroke:#000000;stroke-width:18.9859;stroke-linecap:round;stroke-miterlimit:10;}
</style><g
     id="text5"
     style="font-size:120.08430481px;font-family:'Arial Black', 'Arial Bold', Gadget, sans-serif"
     transform="matrix(1.0004582,0,0,0.999542,0,-20)"><path
       inkscape:connector-curvature="0"
       id="path3375"
       style="font-size:120.08430481px;font-family:'Arial Black', 'Arial Bold', Gadget, sans-serif"
       d="m 13.993584,77.741687 22.457172,0 0,-22.574442 18.939078,0 0,22.574442 22.574442,0 0,18.997712 -22.574442,0 0,22.457171 -18.939078,0 0,-22.457171 -22.457172,0 0,-18.997712 z" /></g><g
     id="text7"
     style="font-size:213.80773926px;font-family:'Arial Black', 'Arial Bold', Gadget, sans-serif"
     transform="matrix(0.58495873,0,0,1.7095223,0,-8)" /><path
     sodipodi:nodetypes="cccccc"
     inkscape:connector-curvature="0"
     id="polyline9"
     d="m 90.044098,38.26842 0.003,1.873455 18.448592,95.474185 12.82473,0.0581 17.3636,-97.259886 16.89846,-0.145834"
     style="clip-rule:evenodd;fill:none;fill-rule:evenodd;stroke:#000000;stroke-width:22.46506119;stroke-linecap:square;stroke-miterlimit:5;stroke-dasharray:none" /><path
     inkscape:connector-curvature="0"
     id="path237"
     d="M 36.583069,87.770344 V 76.590169 H 25.402894 14.222718 v -9.3404 -9.3404 H 25.402894 36.583069 V 46.587673 35.265976 h 9.3404 9.340399 v 11.321697 11.321696 h 11.321697 11.321696 v 9.3404 9.3404 H 66.585565 55.263868 v 11.180175 11.180175 h -9.340399 -9.3404 z"
     style="fill:#ff0000;stroke-width:0.283042" /></svg>
