<?xml version="1.0" encoding="UTF-8" standalone="no"?>
<svg
   xmlns:dc="http://purl.org/dc/elements/1.1/"
   xmlns:cc="http://creativecommons.org/ns#"
   xmlns:rdf="http://www.w3.org/1999/02/22-rdf-syntax-ns#"
   xmlns:svg="http://www.w3.org/2000/svg"
   xmlns="http://www.w3.org/2000/svg"
   xmlns:sodipodi="http://sodipodi.sourceforge.net/DTD/sodipodi-0.dtd"
   xmlns:inkscape="http://www.inkscape.org/namespaces/inkscape"
   height="200"
   width="250"
   sodipodi:docname="narrow.svg"
   inkscape:version="1.0beta2 (2b71d25, 2019-12-03)"
   xml:space="preserve"
   viewBox="0 0 250 200"
   y="0px"
   x="0px"
   id="Layer_1"
   version="1.1"><metadata
   id="metadata11"><rdf:RDF><cc:Work
       rdf:about=""><dc:format>image/svg+xml</dc:format><dc:type
         rdf:resource="http://purl.org/dc/dcmitype/StillImage" /><dc:title></dc:title></cc:Work></rdf:RDF></metadata><defs
   id="defs9" /><sodipodi:namedview
   inkscape:document-rotation="0"
   inkscape:current-layer="Layer_1"
   inkscape:window-maximized="0"
   inkscape:window-y="23"
   inkscape:window-x="597"
   inkscape:cy="130.52607"
   inkscape:cx="133.88596"
   inkscape:zoom="2.2024394"
   showgrid="false"
   id="namedview7"
   inkscape:window-height="797"
   inkscape:window-width="843"
   inkscape:pageshadow="2"
   inkscape:pageopacity="0"
   guidetolerance="10"
   gridtolerance="10"
   objecttolerance="10"
   borderopacity="1"
   bordercolor="#666666"
   pagecolor="#ffffff" /><style
   id="style3"
   type="text/css">
	.st0{font-family:&quot;Arial Black&quot;, &quot;Arial Bold&quot;, Gadget, sans-serif;}
	.st1{font-size:75px;}
</style><path
   d="M 109.42856,157.91033 V 37.327711 h 44.2125 q 12.29751,0 18.79763,2.961102 6.50011,2.961101 10.48217,11.021876 3.98205,7.978524 3.98205,19.493925 0,10.034845 -3.0451,17.35534 -3.0451,7.238249 -8.37402,11.762161 -3.39646,2.878835 -9.31098,4.770645 4.74332,2.22084 6.91004,4.44166 1.46398,1.48056 4.21628,6.33347 2.81087,4.8529 3.74782,7.48499 l 12.82456,34.95745 h -29.98252 l -14.17143,-36.84926 q -2.69374,-7.15599 -4.80188,-9.29456 -2.86942,-2.79659 -6.50012,-2.79659 h -2.34238 v 48.94041 z m 26.64462,-71.724438 h 11.18488 q 1.81535,0 7.02715,-1.645057 2.63518,-0.740278 4.27485,-3.783633 1.69823,-3.043355 1.69823,-6.99149 0,-5.839952 -2.63518,-8.965565 -2.63518,-3.125602 -9.89657,-3.125602 h -11.65336 z"
   style="font-size:142.209px;font-family:'Arial Black', 'Arial Bold', Gadget, sans-serif;fill:#ff0000;stroke-width:1.01938"
   id="path3343"
   inkscape:connector-curvature="0" /><text
   id="text3386"
   style="font-size:97.2459px;font-family:'Arial Black', 'Arial Bold', Gadget, sans-serif"
   y="96.020195"
   x="5.0010576"
   class="st0 st1"
   transform="scale(0.79983082,1.2502644)" />


<path
   inkscape:connector-curvature="0"
   id="path3343-5"
   style="font-size:131.79099999999999682px;font-family:'Arial Black', 'Arial Bold', Gadget, sans-serif;fill:#ff0000"
   d="M 28.712364,38.073074 H 48.373909 L 74.03152,104.45779 V 38.073074 H 93.878978 V 158.07307 H 74.03152 L 48.513354,92.17949 v 65.89358 h -19.80099 z" /></svg>
