<?xml version="1.0" encoding="UTF-8" standalone="no"?>
<svg
   xmlns:dc="http://purl.org/dc/elements/1.1/"
   xmlns:cc="http://creativecommons.org/ns#"
   xmlns:rdf="http://www.w3.org/1999/02/22-rdf-syntax-ns#"
   xmlns:svg="http://www.w3.org/2000/svg"
   xmlns="http://www.w3.org/2000/svg"
   xmlns:sodipodi="http://sodipodi.sourceforge.net/DTD/sodipodi-0.dtd"
   xmlns:inkscape="http://www.inkscape.org/namespaces/inkscape"
   height="200"
   width="180"
   sodipodi:docname="off-track.svg"
   inkscape:version="1.0beta2 (2b71d25, 2019-12-03)"
   xml:space="preserve"
   viewBox="0 0 180 200"
   y="0px"
   x="0px"
   id="Layer_1"
   version="1.1"><metadata
     id="metadata15"><rdf:RDF><cc:Work
         rdf:about=""><dc:format>image/svg+xml</dc:format><dc:type
           rdf:resource="http://purl.org/dc/dcmitype/StillImage" /><dc:title /></cc:Work></rdf:RDF></metadata><defs
     id="defs13" /><sodipodi:namedview
     inkscape:document-rotation="0"
     inkscape:current-layer="text3344"
     inkscape:window-maximized="0"
     inkscape:window-y="23"
     inkscape:window-x="20"
     inkscape:cy="113.3312"
     inkscape:cx="114.80029"
     inkscape:zoom="2.498444"
     showgrid="false"
     id="namedview11"
     inkscape:window-height="786"
     inkscape:window-width="1249"
     inkscape:pageshadow="2"
     inkscape:pageopacity="0"
     guidetolerance="10"
     gridtolerance="10"
     objecttolerance="10"
     borderopacity="1"
     bordercolor="#666666"
     pagecolor="#ffffff" /><style
     id="style3"
     type="text/css">
	.st0{font-family:&quot;Arial Black&quot;, &quot;Arial Bold&quot;, Gadget, sans-serif;}
	.st1{font-size:118.4014px;}
	
		.st2{fill-rule:evenodd;clip-rule:evenodd;fill:none;stroke:#000000;stroke-width:18.9859;stroke-linecap:round;stroke-miterlimit:10;}
</style><flowRoot
     style="fill:black;stroke:none;stroke-opacity:1;stroke-width:1px;stroke-linejoin:miter;stroke-linecap:butt;fill-opacity:1;font-family:Arial;font-style:normal;font-weight:900;font-size:40px;line-height:125%;letter-spacing:0px;word-spacing:0px;-inkscape-font-specification:'Arial, Heavy';font-stretch:normal;font-variant:normal;text-anchor:middle;text-align:center;writing-mode:lr"
     id="flowRoot3336"
     xml:space="preserve"><flowRegion
       id="flowRegion3338"><rect
         y="69.919037"
         x="17.510899"
         height="86.720642"
         width="142.58875"
         id="rect3340" /></flowRegion><flowPara
       id="flowPara3342" /></flowRoot><g
     id="text3344"
     style="font-style:normal;font-variant:normal;font-weight:900;font-stretch:normal;font-size:140.70654297px;line-height:125%;font-family:Arial;-inkscape-font-specification:'Arial, Heavy';text-align:center;letter-spacing:0px;word-spacing:0px;writing-mode:lr-tb;text-anchor:middle;fill:#000000;fill-opacity:1;stroke:none;stroke-width:1px;stroke-linecap:butt;stroke-linejoin:miter;stroke-opacity:1"
     transform="scale(0.8393384,1.1914146)"><path
       inkscape:connector-curvature="0"
       id="path4207"
       d="m 118.26366,33.573542 47.98197,0 q 15.67538,0 23.44935,8.038411 7.8377,8.038411 7.8377,22.878554 0,15.25237 -8.53863,23.840415 -8.47491,8.588046 -25.93447,8.588046 l -15.80284,0 0,37.375172 -28.99308,0 0,-100.720598 z m 28.99308,42.940229 7.07305,0 q 8.34746,0 11.72467,-3.091696 3.37722,-3.160401 3.37722,-8.038411 0,-4.740601 -2.93117,-8.038411 -2.93117,-3.29781 -11.02374,-3.29781 l -8.22003,0 0,22.466328 z" /><path
       inkscape:connector-curvature="0"
       id="path1726"
       style="font-size:126.849px;font-family:'Arial Black', 'Arial Bold', Gadget, sans-serif"
       d="m 17.977035,84.052546 q 0,-23.851383 10.96269,-37.139062 10.96268,-13.287678 30.531074,-13.287678 20.061711,0 30.914768,13.088364 10.853063,13.021924 10.853063,36.541114 0,17.074666 -4.768778,28.037016 -4.713955,10.89589 -13.70335,17.00821 -8.934587,6.0459 -22.309064,6.0459 -13.593735,0 -22.528323,-5.24863 -8.87978,-5.24864 -14.41592,-16.6096 -5.53616,-11.36096 -5.53616,-28.435634 z m 24.830479,0.132877 q 0,14.749324 4.494706,21.193847 4.549504,6.44453 12.333021,6.44453 8.002755,0 12.387828,-6.31165 4.385073,-6.311651 4.385073,-22.655495 0,-13.752748 -4.604322,-20.064394 -4.549524,-6.378087 -12.387838,-6.378087 -7.509441,0 -12.058955,6.444524 -4.549513,6.444524 -4.549513,21.326725 z" /></g></svg>
