<?xml version="1.0" encoding="UTF-8" standalone="no"?>
<svg
   xmlns:dc="http://purl.org/dc/elements/1.1/"
   xmlns:cc="http://creativecommons.org/ns#"
   xmlns:rdf="http://www.w3.org/1999/02/22-rdf-syntax-ns#"
   xmlns:svg="http://www.w3.org/2000/svg"
   xmlns="http://www.w3.org/2000/svg"
   xmlns:sodipodi="http://sodipodi.sourceforge.net/DTD/sodipodi-0.dtd"
   xmlns:inkscape="http://www.inkscape.org/namespaces/inkscape"
   height="200"
   width="180"
   sodipodi:docname="off-track-forbidden.svg"
   inkscape:version="1.0beta2 (2b71d25, 2019-12-03)"
   xml:space="preserve"
   viewBox="0 0 180 200"
   y="0px"
   x="0px"
   id="Layer_1"
   version="1.1"><metadata
     id="metadata15"><rdf:RDF><cc:Work
         rdf:about=""><dc:format>image/svg+xml</dc:format><dc:type
           rdf:resource="http://purl.org/dc/dcmitype/StillImage" /><dc:title /></cc:Work></rdf:RDF></metadata><defs
     id="defs13" /><sodipodi:namedview
     inkscape:document-rotation="0"
     inkscape:current-layer="Layer_1"
     inkscape:window-maximized="0"
     inkscape:window-y="23"
     inkscape:window-x="0"
     inkscape:cy="112.59024"
     inkscape:cx="58.241201"
     inkscape:zoom="2.4284065"
     showgrid="false"
     id="namedview11"
     inkscape:window-height="794"
     inkscape:window-width="1440"
     inkscape:pageshadow="2"
     inkscape:pageopacity="0"
     guidetolerance="10"
     gridtolerance="10"
     objecttolerance="10"
     borderopacity="1"
     bordercolor="#666666"
     pagecolor="#ffffff" /><style
     id="style3"
     type="text/css">
	.st0{font-family:&quot;Arial Black&quot;, &quot;Arial Bold&quot;, Gadget, sans-serif;}
	.st1{font-size:118.4014px;}
	
		.st2{fill-rule:evenodd;clip-rule:evenodd;fill:none;stroke:#000000;stroke-width:18.9859;stroke-linecap:round;stroke-miterlimit:10;}
</style><flowRoot
     style="font-style:normal;font-variant:normal;font-weight:900;font-stretch:normal;line-height:0.01%;font-family:Arial;-inkscape-font-specification:'Arial, Heavy';text-align:center;letter-spacing:0px;word-spacing:0px;writing-mode:lr-tb;text-anchor:middle;fill:#000000;fill-opacity:1;stroke:none;stroke-width:1px;stroke-linecap:butt;stroke-linejoin:miter;stroke-opacity:1"
     id="flowRoot3336"
     xml:space="preserve"><flowRegion
       id="flowRegion3338"><rect
         y="69.919037"
         x="17.510899"
         height="86.720642"
         width="142.58875"
         id="rect3340" /></flowRegion><flowPara
       style="font-size:40px;line-height:1.25"
       id="flowPara3342"> </flowPara></flowRoot><g
     id="text3344"
     style="font-style:normal;font-variant:normal;font-weight:900;font-stretch:normal;font-size:136.50540161px;line-height:125%;font-family:Arial;-inkscape-font-specification:'Arial, Heavy';text-align:center;letter-spacing:0px;word-spacing:0px;writing-mode:lr-tb;text-anchor:middle;fill:#000000;fill-opacity:1;stroke:none;stroke-width:1px;stroke-linecap:butt;stroke-linejoin:miter;stroke-opacity:1"
     transform="scale(0.81427786,1.228082)"><path
       inkscape:connector-curvature="0"
       id="path4224"
       d="m 125.85758,32.5711 47.74083,0 q 15.59661,0 23.33152,7.798404 7.7983,7.798404 7.7983,22.195459 0,14.796972 -8.49572,23.1286 -8.43231,8.331629 -25.80414,8.331629 l -15.72341,0 0,36.259248 -28.84738,0 0,-97.71334 z m 28.84738,41.658142 7.0375,0 q 8.30551,0 11.66575,-2.999386 3.36024,-3.066039 3.36024,-7.798404 0,-4.599059 -2.91643,-7.798404 -2.91644,-3.199346 -10.96835,-3.199346 l -8.17871,0 0,21.79554 z" /><path
       inkscape:connector-curvature="0"
       id="path1726"
       style="font-size:126.849px;font-family:'Arial Black', 'Arial Bold', Gadget, sans-serif"
       d="m 29.405227,82.886928 q 0,-23.139242 11.300083,-36.030184 11.300075,-12.890942 31.470714,-12.890942 20.679138,0 31.866216,12.697579 11.18707,12.633122 11.18707,35.450089 0,16.564858 -4.91553,27.1999 -4.85904,10.57058 -14.125095,16.5004 -9.209562,5.86538 -22.995657,5.86538 -14.012101,0 -23.221662,-5.09191 Q 40.818299,121.4953 35.111773,110.47355 29.405227,99.451791 29.405227,82.886928 Z m 25.594676,0.12891 q 0,14.308947 4.633036,20.561052 4.689523,6.25211 12.712587,6.25211 8.249052,0 12.769081,-6.1232 4.52003,-6.123198 4.52003,-21.979057 0,-13.342125 -4.746026,-19.465322 -4.689542,-6.187654 -12.769091,-6.187654 -7.740554,0 -12.430086,6.252107 -4.689531,6.252107 -4.689531,20.689964 z" /></g><rect
     ry="0"
     inkscape:transform-center-y="1.2429653"
     inkscape:transform-center-x="2.6914575"
     transform="matrix(0.89881888,-0.43832022,0.07841617,0.99692071,0,0)"
     y="129.51288"
     x="-1.0047418"
     height="14.043293"
     width="176.89536"
     id="rect3352"
     style="fill:#000000;stroke-width:0.916611" /></svg>
