<?xml version="1.0" encoding="UTF-8" standalone="no"?>
<svg
   xmlns:dc="http://purl.org/dc/elements/1.1/"
   xmlns:cc="http://creativecommons.org/ns#"
   xmlns:rdf="http://www.w3.org/1999/02/22-rdf-syntax-ns#"
   xmlns:svg="http://www.w3.org/2000/svg"
   xmlns="http://www.w3.org/2000/svg"
   xmlns:sodipodi="http://sodipodi.sourceforge.net/DTD/sodipodi-0.dtd"
   xmlns:inkscape="http://www.inkscape.org/namespaces/inkscape"
   height="200"
   width="180"
   sodipodi:docname="on-the-left.svg"
   inkscape:version="1.0beta2 (2b71d25, 2019-12-03)"
   xml:space="preserve"
   viewBox="0 0 180 200"
   y="0px"
   x="0px"
   id="Layer_1"
   version="1.1"><metadata
     id="metadata15"><rdf:RDF><cc:Work
         rdf:about=""><dc:format>image/svg+xml</dc:format><dc:type
           rdf:resource="http://purl.org/dc/dcmitype/StillImage" /><dc:title></dc:title></cc:Work></rdf:RDF></metadata><defs
     id="defs13" /><sodipodi:namedview
     inkscape:document-rotation="0"
     inkscape:current-layer="Layer_1"
     inkscape:window-maximized="0"
     inkscape:window-y="23"
     inkscape:window-x="423"
     inkscape:cy="97.536054"
     inkscape:cx="89.49415"
     inkscape:zoom="2.0744243"
     showgrid="false"
     id="namedview11"
     inkscape:window-height="797"
     inkscape:window-width="1017"
     inkscape:pageshadow="2"
     inkscape:pageopacity="0"
     guidetolerance="10"
     gridtolerance="10"
     objecttolerance="10"
     borderopacity="1"
     bordercolor="#666666"
     pagecolor="#ffffff" /><style
     id="style3"
     type="text/css">
	.st0{font-family:&quot;Arial Black&quot;, &quot;Arial Bold&quot;, Gadget, sans-serif;}
	.st1{font-size:118.4014px;}
	
		.st2{fill-rule:evenodd;clip-rule:evenodd;fill:none;stroke:#000000;stroke-width:18.9859;stroke-linecap:round;stroke-miterlimit:10;}
</style><flowRoot
     style="font-style:normal;font-variant:normal;font-weight:900;font-stretch:normal;line-height:0.01%;font-family:Arial;-inkscape-font-specification:'Arial, Heavy';text-align:center;letter-spacing:0px;word-spacing:0px;writing-mode:lr-tb;text-anchor:middle;fill:#000000;fill-opacity:1;stroke:none;stroke-width:1px;stroke-linecap:butt;stroke-linejoin:miter;stroke-opacity:1"
     id="flowRoot3336"
     xml:space="preserve"><flowRegion
       id="flowRegion3338"><rect
         y="69.919037"
         x="17.510899"
         height="86.720642"
         width="142.58875"
         id="rect3340" /></flowRegion><flowPara
       style="font-size:40px;line-height:1.25"
       id="flowPara3342"> </flowPara></flowRoot><path
     inkscape:connector-curvature="0"
     id="path3347"
     style="font-size:142.209px;font-family:'Arial Black', 'Arial Bold', Gadget, sans-serif;stroke-width:0.511247"
     d="m 7.3533892,139.11668 q 0,-15.06068 5.7436068,-23.45102 5.743599,-8.39034 15.995926,-8.39034 10.51079,0 16.196958,8.26449 5.686167,8.22254 5.686167,23.07344 0,10.78159 -2.498466,17.70363 -2.469751,6.88008 -7.179507,10.73963 -4.681029,3.81761 -11.688224,3.81761 -7.122068,0 -11.803107,-3.31418 -4.652316,-3.31419 -7.552835,-10.48794 -2.9005188,-7.17374 -2.9005188,-17.95532 z m 13.0092588,0.0839 q 0,9.31328 2.354878,13.38258 2.383595,4.06933 6.461549,4.06933 4.192828,0 6.490271,-3.98542 2.297443,-3.98541 2.297443,-14.30553 0,-8.68401 -2.412313,-12.66942 -2.383591,-4.02737 -6.490271,-4.02737 -3.934366,0 -6.317966,4.06932 -2.383591,4.06932 -2.383591,13.46651 z" /><path
     inkscape:connector-curvature="0"
     id="path3343-5"
     style="font-size:131.791px;font-family:'Arial Black', 'Arial Bold', Gadget, sans-serif;stroke-width:0.5508"
     d="m 55.633938,107.75738 h 11.516699 l 15.02888,34.3832 v -34.3832 h 11.62559 V 169.91 h -11.62559 l -14.9472,-34.12882 V 169.91 H 55.633938 Z" /><path
     d="m 102.94801,50.392042 h 24.63941 v 90.450248 h 38.45485 v 29.54981 h -63.09426 z"
     style="font-size:141.351px;font-family:'Arial Black', 'Arial Bold', Gadget, sans-serif"
     id="path4989"
     inkscape:connector-curvature="0" /></svg>
