<?xml version="1.0" encoding="UTF-8" standalone="no"?>
<svg
   xmlns:dc="http://purl.org/dc/elements/1.1/"
   xmlns:cc="http://creativecommons.org/ns#"
   xmlns:rdf="http://www.w3.org/1999/02/22-rdf-syntax-ns#"
   xmlns:svg="http://www.w3.org/2000/svg"
   xmlns="http://www.w3.org/2000/svg"
   xmlns:sodipodi="http://sodipodi.sourceforge.net/DTD/sodipodi-0.dtd"
   xmlns:inkscape="http://www.inkscape.org/namespaces/inkscape"
   sodipodi:docname="passage-control.svg"
   inkscape:version="1.0beta2 (2b71d25, 2019-12-03)"
   xml:space="preserve"
   style="enable-background:new 0 0 250 250;"
   viewBox="0 0 250 250"
   y="0px"
   x="0px"
   id="Layer_1"
   version="1.1"><metadata
     id="metadata4205"><rdf:RDF><cc:Work
         rdf:about=""><dc:format>image/svg+xml</dc:format><dc:type
           rdf:resource="http://purl.org/dc/dcmitype/StillImage" /><dc:title></dc:title></cc:Work></rdf:RDF></metadata><defs
     id="defs4203" /><sodipodi:namedview
     inkscape:document-rotation="0"
     inkscape:window-maximized="0"
     inkscape:window-y="23"
     inkscape:window-x="506"
     inkscape:current-layer="Layer_1"
     inkscape:cy="124.54414"
     inkscape:cx="137.75853"
     inkscape:zoom="2.3877123"
     showgrid="false"
     id="namedview4201"
     inkscape:window-height="797"
     inkscape:window-width="934"
     inkscape:pageshadow="2"
     inkscape:pageopacity="0"
     guidetolerance="10"
     gridtolerance="10"
     objecttolerance="10"
     borderopacity="1"
     bordercolor="#666666"
     pagecolor="#ffffff" /><style
     id="style4196"
     type="text/css">
	.st0{fill-rule:evenodd;clip-rule:evenodd;}
</style><path
     id="XMLID_13_"
     class="st0"
     d="m 123.64679,115.84302 -0.19594,-2.66541 -0.32657,-2.66542 -0.4572,-2.59337 -0.65314,-2.59338 -0.78377,-2.52134 -0.91439,-2.4493 -1.04503,-2.377261 -1.17565,-2.30523 -1.30627,-2.30522 -1.3716,-2.23318 -1.50222,-2.16115 -1.56753,-2.08911 -1.69816,-2.01707 -1.8288,-1.94503 -1.8941,-1.873 -2.02473,-1.72891 -2.09004,-1.65688 -2.15536,-1.58484 -2.285993,-1.44077 -2.28599,-1.36873 -2.41661,-1.29668 -2.48193,-1.15262 -2.54724,-1.08057 -2.61256,-0.9365 -2.67787,-0.79242 -2.74319,-0.72038 -2.74318,-0.57631 -2.8085,-0.50426 -2.8085,-0.36019 -2.939126,-0.21612 -2.939124,-0.072 -2.939123,0.072 -2.939131,0.21612 -2.8085,0.36019 -2.808493,0.50426 -2.743185,0.57631 -2.743185,0.72038 -2.677871,0.79242 -2.612556,0.9365 -2.547243,1.08057 -2.481929,1.15262 -2.416615,1.29668 -2.285987,1.36873 -2.285988,1.44077 -2.155359,1.58484 -2.090045,1.65688 -2.024732,1.72891 -1.894103,1.873 -1.82879,1.94503 -1.698162,2.01707 -1.567534,2.08911 -1.50222,2.16115 -1.371593,2.23318 -1.306278,2.30522 -1.17565,2.30523 -1.045023,2.377261 -0.914395,2.4493 -0.783767,2.52134 -0.653139,2.59338 -0.457197,2.59337 -0.32657,2.66542 -0.195942,2.66541 -0.06531,2.66542 0.06531,2.66541 0.195942,2.66541 0.32657,2.66542 0.457197,2.59338 0.653139,2.59337 0.783767,2.52134 0.914395,2.4493 1.045023,2.37726 1.17565,2.30522 1.306278,2.30522 1.371593,2.23319 1.50222,2.16115 1.567534,2.0891 1.698162,2.01708 1.82879,1.94503 1.894103,1.873 2.024732,1.72892 2.090045,1.65687 2.155359,1.58485 2.285988,1.44076 2.285987,1.36872 2.416615,1.29669 2.481929,1.15261 2.547243,1.08057 2.612556,0.9365 2.677871,0.79242 2.743185,0.72039 2.743185,0.5763 2.808493,0.50427 2.8085,0.36019 2.939131,0.21612 2.939123,0.072 2.939124,-0.072 2.939126,-0.21612 2.8085,-0.36019 2.8085,-0.50427 2.74318,-0.5763 2.74319,-0.72039 2.67787,-0.79242 2.61256,-0.9365 2.54724,-1.08057 2.48193,-1.15261 2.41661,-1.29669 2.28599,-1.36872 2.285993,-1.44076 2.15536,-1.58485 2.09004,-1.65687 2.02473,-1.72892 1.8941,-1.873 1.8288,-1.94503 1.69816,-2.01708 1.56753,-2.0891 1.50222,-2.16115 1.3716,-2.23319 1.30627,-2.30522 1.17565,-2.30522 1.04503,-2.37726 0.91439,-2.4493 0.78377,-2.52134 0.65314,-2.59337 0.4572,-2.59338 0.32657,-2.66542 0.19594,-2.66541 0.0653,-2.66541 z m -10.84211,4.8986 -0.19594,2.16115 -0.32658,2.16114 -0.39188,2.16116 -0.52251,2.08909 -0.65314,2.01708 -0.78376,2.01707 -0.84909,1.94503 -0.91439,1.87299 -1.04502,1.873 -1.11034,1.80096 -1.17565,1.72891 -1.30628,1.65688 -1.37159,1.58485 -1.43691,1.58483 -1.567543,1.44077 -1.56753,1.44077 -1.69816,1.36873 -1.76348,1.29668 -1.82878,1.15261 -1.82879,1.15261 -1.95942,1.00854 -2.02473,0.9365 -2.02474,0.86445 -2.15535,0.79242 -2.15537,0.64835 -2.22067,0.64834 -2.28598,0.43223 -2.28599,0.43223 -2.351302,0.21611 -2.351301,0.14408 -2.351302,0.072 -2.416616,-0.072 -2.351302,-0.14408 -2.351295,-0.21611 -2.285993,-0.43223 -2.285986,-0.43223 -2.220672,-0.64834 -2.155356,-0.64835 -2.155361,-0.79242 -2.024731,-0.86445 -2.024732,-0.9365 -1.959417,-1.00854 -1.82879,-1.15261 -1.82879,-1.15261 -1.763475,-1.29668 -1.698162,-1.36873 -1.567534,-1.44077 -1.567534,-1.44077 -1.436906,-1.58483 -1.371593,-1.58485 -1.306278,-1.65688 -1.175651,-1.72891 -1.110336,-1.80096 -1.045023,-1.873 -0.914395,-1.87299 -0.849081,-1.94503 -0.783766,-2.01707 -0.65314,-2.01708 -0.522511,-2.08909 -0.391884,-2.16116 -0.32657,-2.16114 -0.195941,-2.16115 -0.06531,-2.23318 0.06531,-2.23319 0.195941,-2.16115 0.32657,-2.16115 0.391884,-2.16114 0.522511,-2.08912 0.65314,-2.01706 0.783766,-2.01707 0.849081,-1.94503 0.914395,-1.873001 1.045023,-1.87299 1.110336,-1.80096 1.175651,-1.72892 1.306278,-1.65688 1.371593,-1.58484 1.436906,-1.58484 1.567534,-1.44076 1.567534,-1.44077 1.698162,-1.36872 1.763475,-1.29669 1.82879,-1.15261 1.82879,-1.15261 1.959417,-1.00854 2.024732,-0.9365 2.024731,-0.86446 2.155361,-0.79242 2.155356,-0.64834 2.220672,-0.64834 2.285986,-0.43223 2.285993,-0.43223 2.481925,-0.14408 2.351302,-0.14408 2.416616,-0.072 2.351302,0.072 2.351301,0.14408 2.351302,0.21612 2.28599,0.43222 2.28598,0.43223 2.22067,0.64835 2.15537,0.64834 2.15535,0.79242 2.02474,0.86446 2.02473,0.9365 1.95941,1.00853 1.8288,1.15262 1.82878,1.15261 1.76348,1.29668 1.69816,1.36873 1.56753,1.44077 1.567543,1.44076 1.4369,1.58484 1.3716,1.58484 1.30627,1.65688 1.17565,1.72892 1.11034,1.80096 1.04503,1.87299 0.91439,1.872991 0.84908,1.94504 0.78377,2.01706 0.65314,2.01708 0.52251,2.0891 0.39188,2.16116 0.32657,2.16114 0.19595,2.16114 0.0653,2.23319 -0.19595,2.16115 z"
     inkscape:connector-curvature="0"
     style="clip-rule:evenodd;fill:#800080;fill-rule:evenodd;stroke-width:0.629749" /><ellipse
     inkscape:transform-center-y="-10.378129"
     inkscape:transform-center-x="-6.0273877"
     transform="matrix(0.89292279,0.45020984,-0.50905942,0.86073138,0,0)"
     ry="20.692997"
     rx="12.002024"
     cy="62.839573"
     cx="118.52201"
     id="path4136"
     style="opacity:1;fill:#000000;fill-opacity:1;stroke:#000000;stroke-width:0.630458;stroke-miterlimit:4;stroke-dasharray:none;stroke-opacity:1" /><ellipse
     inkscape:transform-center-y="8.7533768"
     inkscape:transform-center-x="6.5371344"
     transform="matrix(0.91958065,0.39290129,-0.5723194,0.8200308,0,0)"
     ry="9.3090229"
     rx="22.334261"
     cy="96.567375"
     cx="126.94581"
     id="path4138"
     style="opacity:1;fill:#000000;fill-opacity:1;stroke:#000000;stroke-width:0.909147;stroke-miterlimit:4;stroke-dasharray:none;stroke-opacity:1" /><ellipse
     inkscape:transform-center-y="13.519422"
     inkscape:transform-center-x="10.756869"
     transform="matrix(0.91958065,0.39290129,-0.5723194,0.8200308,0,0)"
     ry="9.3090229"
     rx="22.334261"
     cy="102.2119"
     cx="127.29542"
     id="path4138-1"
     style="opacity:1;fill:none;fill-opacity:1;stroke:#000000;stroke-width:0.909147;stroke-miterlimit:4;stroke-dasharray:none;stroke-opacity:1" /><path
     inkscape:connector-curvature="0"
     id="path4157"
     d="m 37.642715,125.7584 3.437203,-5.71388"
     style="fill:none;fill-rule:evenodd;stroke:#000000;stroke-width:0.944623;stroke-linecap:butt;stroke-linejoin:miter;stroke-miterlimit:4;stroke-dasharray:none;stroke-opacity:1" /><path
     inkscape:connector-curvature="0"
     id="path4159"
     d="m 82.384457,137.20027 -3.62872,5.88116"
     style="fill:none;fill-rule:evenodd;stroke:#000000;stroke-width:0.944623;stroke-linecap:butt;stroke-linejoin:miter;stroke-miterlimit:4;stroke-dasharray:none;stroke-opacity:1" /><path
     inkscape:connector-curvature="0"
     id="path4920"
     style="font-size:131.80500000000000682px;font-family:'Arial Black', 'Arial Bold', Gadget, sans-serif;stroke-width:0.678199;fill:#800080"
     d="m 136.71948,77.369979 h 24.3638 q 7.95948,0 11.90687,6.100892 3.97975,6.100893 3.97975,17.364079 0,11.57605 -4.33567,18.0941 -4.3033,6.51804 -13.16873,6.51804 h -8.0242 v 28.36655 h -14.72182 z m 14.72182,32.590241 h 3.59148 q 4.23858,0 5.95343,-2.34649 1.71485,-2.39865 1.71485,-6.1009 0,-3.597962 -1.48836,-6.100898 -1.48837,-2.502929 -5.59753,-2.502929 h -4.17387 z" /><path
     inkscape:connector-curvature="0"
     id="path3374"
     style="font-size:152.534px;font-family:'Arial Black', 'Arial Bold', Gadget, sans-serif;fill:#800080;stroke-width:0.546575"
     d="m 211.95167,122.24535 11.8806,5.9807 q -1.19704,8.32314 -3.77068,13.90514 -2.57363,5.58198 -6.40414,8.42283 -3.80059,2.84083 -9.696,2.84083 -7.15229,0 -11.70104,-3.43891 -4.51881,-3.48875 -7.81066,-12.2106 -3.29185,-8.72185 -3.29185,-22.32796 0,-18.141464 5.7757,-27.860108 5.80563,-9.768483 16.3994,-9.768483 8.28949,0 13.01778,5.581994 4.75822,5.581987 7.06253,17.144677 l -11.97038,4.43569 q -0.62844,-3.33922 -1.31674,-4.88423 -1.13719,-2.591647 -2.78311,-3.987147 -1.64593,-1.395498 -3.68089,-1.395498 -4.6086,0 -7.06252,6.180055 -1.8554,4.58521 -1.8554,14.40354 0,12.16076 2.21451,16.69612 2.21452,4.48553 6.2246,4.48553 3.89036,0 5.86548,-3.63827 2.00503,-3.63826 2.90281,-10.5659 z" /></svg>
