<?xml version="1.0" encoding="UTF-8" standalone="no"?>
<svg
   xmlns:dc="http://purl.org/dc/elements/1.1/"
   xmlns:cc="http://creativecommons.org/ns#"
   xmlns:rdf="http://www.w3.org/1999/02/22-rdf-syntax-ns#"
   xmlns:svg="http://www.w3.org/2000/svg"
   xmlns="http://www.w3.org/2000/svg"
   xmlns:sodipodi="http://sodipodi.sourceforge.net/DTD/sodipodi-0.dtd"
   xmlns:inkscape="http://www.inkscape.org/namespaces/inkscape"
   version="1.1"
   id="Layer_1"
   x="0px"
   y="0px"
   viewBox="0 0 250 250"
   style="enable-background:new 0 0 250 250;"
   xml:space="preserve"
   sodipodi:docname="petrol-station.svg"
   inkscape:version="1.0beta2 (2b71d25, 2019-12-03)"><metadata
   id="metadata1191"><rdf:RDF><cc:Work
       rdf:about=""><dc:format>image/svg+xml</dc:format><dc:type
         rdf:resource="http://purl.org/dc/dcmitype/StillImage" /></cc:Work></rdf:RDF></metadata><defs
   id="defs1189">
	
	
	
	
</defs><sodipodi:namedview
   pagecolor="#ffffff"
   bordercolor="#666666"
   inkscape:document-rotation="0"
   borderopacity="1"
   objecttolerance="10"
   gridtolerance="10"
   guidetolerance="10"
   inkscape:pageopacity="0"
   inkscape:pageshadow="2"
   inkscape:window-width="1440"
   inkscape:window-height="797"
   id="namedview1187"
   showgrid="false"
   inkscape:zoom="2.356"
   inkscape:cx="125"
   inkscape:cy="125"
   inkscape:window-x="0"
   inkscape:window-y="23"
   inkscape:window-maximized="0"
   inkscape:current-layer="Layer_1" />
<style
   type="text/css"
   id="style1179">
	.st0{fill:#FFFFFF;}
	.st1{fill:#010101;}
</style>
<polygon
   points="125.3,54 126.2,54.3 126.9,54.3 127.5,54.3 128.2,54.3 129.1,54.3 129.7,54.3 130.4,54.3 131.3,54.5 132,54.5 132.6,54.5 133.5,54.7 134.2,54.7 134.8,54.7 135.5,54.9 136.4,54.9 137,55.1 137.7,55.3 138.4,55.3 139,55.6 139.7,55.6 140.1,55.8 140.8,55.8 141.5,56 141.9,56 142.6,56.2 143,56.4 144.1,56.6 145.2,56.9 146.1,57.1 147.2,57.5 148.1,57.7 149.2,58.2 150.1,58.4 151.2,58.8 152.1,59 153,59.4 154.1,59.9 154.9,60.3 155.8,60.7 156.7,61.2 157.6,61.4 158.5,61.8 159.1,62.3 159.8,62.5 160.5,62.9 161.1,63.1 161.8,63.6 162.5,63.8 163.1,64.2 163.8,64.4 164.4,64.9 165.1,65.3 165.8,65.7 166.2,66.2 166.9,66.6 167.5,67 168.2,67.4 168.9,67.9 169.3,68.1 169.8,68.5 170.4,69 170.9,69.2 171.3,69.6 171.7,69.8 172.4,70.3 172.8,70.7 173.3,71.1 173.9,71.6 174.6,72 175.1,72.6 175.7,73.1 176.4,73.7 177,74.2 177.5,74.8 178.1,75.4 178.8,75.9 179.3,76.5 179.9,77 180.4,77.6 181,78.3 181.5,78.7 182.1,79.3 182.6,80 183.2,80.6 183.7,81.1 184.1,81.7 184.8,82.4 185.2,82.8 185.7,83.4 186.1,83.9 186.5,84.5 186.8,85 187.2,85.6 187.7,86 188.1,86.7 188.5,87.3 189,88 189.4,88.6 189.9,89.3 190.3,89.9 190.7,90.6 191,91.2 191.4,92.1 191.9,92.7 192.1,93.4 192.5,94 193,94.7 193.2,95.3 193.6,96.2 193.8,96.9 194.1,97.3 194.3,97.7 194.5,97.9 194.7,98.4 194.9,98.8 195.2,99.2 195.2,99.7 195.4,100.1 195.6,100.5 195.8,101 196,101.4 196,101.8 196.3,102.3 196.5,102.7 196.7,103.1 196.7,103.6 196.9,104 197.2,104.4 197.2,104.9 197.4,105.3 197.6,105.7 197.6,106.2 197.8,106.6 197.8,107 198,107.5 198.3,107.9 198.3,108.3 198.5,108.7 198.5,109.2 198.7,109.6 198.7,110 198.9,110.5 198.9,110.9 199.1,111.3 199.1,111.8 199.4,112.2 199.4,112.6 199.4,113.1 199.6,113.5 199.6,114.2 199.6,114.6 199.8,115 199.8,115.5 199.8,115.9 200,116.3 200,116.7 200,117.2 200.2,117.6 200.2,118 200.2,118.5 200.2,118.9 200.5,119.3 200.5,119.8 200.5,120.2 200.5,120.6 200.5,121.1 200.5,121.5 200.7,121.9 200.7,122.4 200.7,123 200.7,123.5 200.7,123.9 200.7,124.3 200.7,124.8 200.7,125.4 200.7,126.3 200.7,126.9 200.7,127.6 200.7,128.4 200.7,129.1 200.7,129.9 200.7,130.6 200.7,131.2 200.5,132.1 200.5,132.8 200.5,133.6 200.2,134.3 200.2,134.9 200.2,135.8 200,136.4 200,137.1 199.8,137.9 199.8,138.6 199.6,139.5 199.4,140.1 199.4,140.8 199.1,141.6 198.9,142.3 198.9,142.9 198.7,143.8 198.5,144.4 198.3,145.1 198,145.9 197.8,146.6 197.6,147.2 197.4,148.1 197.2,149 196.7,149.8 196.5,150.7 196,151.6 195.8,152.4 195.4,153.3 194.9,154.2 194.5,155 194.1,155.9 193.6,156.8 193.2,157.6 192.7,158.5 192.3,159.3 191.9,160.2 191.4,161.1 191,161.9 190.5,162.6 190.1,163.2 189.9,163.9 189.4,164.5 189,165.2 188.5,165.8 188.1,166.5 187.7,167.1 187.2,167.6 186.8,168.2 186.3,168.6 185.9,169.3 185.4,169.7 185,170.4 184.6,171 184.1,171.5 183.7,172.1 183,172.8 182.6,173.2 182.1,173.8 181.5,174.5 181,174.9 180.4,175.6 179.9,176.2 179.3,176.6 178.8,177.3 178.1,177.7 177.5,178.4 177,178.8 176.4,179.5 175.7,179.9 175.1,180.5 174.6,181 173.9,181.6 173.3,182.1 172.8,182.5 172.2,182.9 171.7,183.3 171.1,183.8 170.6,184 170,184.4 169.3,184.9 168.9,185.3 168.2,185.7 167.8,185.9 167.1,186.4 166.7,186.8 166,187.2 165.6,187.5 164.9,187.9 164.2,188.3 163.8,188.5 163.3,188.8 162.9,189 162.5,189.4 162,189.6 161.6,189.8 161.1,190.1 160.7,190.3 160.2,190.5 159.6,190.7 159.1,190.9 158.7,191.1 158.3,191.3 157.8,191.6 157.4,191.8 156.9,192 156.5,192.2 155.8,192.4 155.4,192.6 154.9,192.9 154.5,193.1 154.1,193.3 153.4,193.5 153,193.5 152.5,193.7 152.1,193.9 151.4,194.2 151,194.4 150.5,194.6 150.1,194.6 149.4,194.8 149,195 148.5,195.2 147.9,195.5 147.2,195.7 146.5,195.9 145.9,196.1 145.2,196.3 144.6,196.3 143.9,196.5 143,196.8 142.6,197 141.9,197 141.2,197.2 140.8,197.4 140.1,197.4 139.5,197.6 139,197.6 138.4,197.8 137.7,197.8 137,198.1 136.2,198.1 135.5,198.3 134.8,198.3 134.4,198.5 133.7,198.5 133.1,198.5 132.4,198.5 131.7,198.7 131.1,198.7 130.4,198.7 129.5,198.7 128.9,198.9 128,198.9 127.1,198.9 126.4,198.9 125.6,198.9 124.7,198.9 124,199.1 123.1,199.1 122.2,198.9 121.6,198.9 120.7,198.9 119.8,198.9 118.9,198.9 118.3,198.7 117.4,198.7 116.7,198.7 116,198.7 115.4,198.5 114.7,198.5 114.1,198.5 113.4,198.5 113,198.3 112.3,198.3 111.6,198.1 110.7,198.1 110.1,197.8 109.4,197.8 108.8,197.6 108.3,197.6 107.7,197.4 107,197.4 106.5,197.2 105.9,197 105.2,197 104.8,196.8 103.9,196.5 103.2,196.3 102.6,196.3 101.9,196.1 101.2,195.9 100.6,195.7 99.9,195.5 99.3,195.2 98.8,195 98.4,194.8 97.7,194.6 97.3,194.6 96.8,194.4 96.4,194.2 95.7,193.9 95.3,193.7 94.8,193.5 94.4,193.5 93.7,193.3 93.3,193.1 92.8,192.9 92.4,192.6 92,192.4 91.3,192.2 90.9,192 90.4,191.8 90,191.6 89.5,191.3 89.1,191.1 88.6,190.9 88.2,190.7 87.5,190.5 87.1,190.3 86.7,190.1 86.2,189.8 85.8,189.6 85.3,189.4 84.9,189 84.4,188.8 84,188.5 83.6,188.3 82.9,187.9 82.2,187.5 81.8,187.2 81.1,186.8 80.7,186.4 80,185.9 79.6,185.7 78.9,185.3 78.5,184.9 77.8,184.4 77.2,184 76.7,183.8 76,183.3 75.6,182.9 74.9,182.5 74.5,182.1 73.8,181.6 73.2,181 72.7,180.5 72.1,179.9 71.4,179.5 70.7,178.8 70.3,178.4 69.6,177.7 69,177.3 68.5,176.6 67.9,176.2 67.4,175.6 66.8,174.9 66.3,174.5 65.7,173.8 65.2,173.2 64.8,172.8 64.1,172.1 63.7,171.5 63.2,171 62.8,170.4 62.3,169.7 61.9,169.3 61.5,168.6 61,168.2 60.6,167.6 60.1,167.1 59.7,166.5 59.3,165.8 58.8,165.2 58.4,164.5 57.9,163.9 57.7,163.2 57.3,162.6 56.8,161.9 56.4,161.1 55.9,160.2 55.5,159.3 55.1,158.5 54.6,157.6 54.2,156.8 53.7,155.9 53.3,155 52.8,154.2 52.4,153.3 52,152.4 51.7,151.6 51.3,150.7 51.1,149.8 50.6,149 50.4,148.1 50.2,147.2 50,146.6 49.7,145.9 49.5,145.1 49.3,144.4 49.1,143.8 48.9,142.9 48.9,142.3 48.6,141.6 48.4,140.8 48.4,140.1 48.2,139.5 48,138.6 48,137.9 47.8,137.1 47.8,136.4 47.5,135.8 47.5,134.9 47.5,134.3 47.3,133.6 47.3,132.8 47.3,132.1 47.1,131.2 47.1,130.6 47.1,129.9 47.1,129.1 47.1,128.4 47.1,127.6 47.1,126.9 47.1,126.3 47.1,125.4 47.1,124.8 47.1,124.3 47.1,123.9 47.1,123.5 47.1,123 47.1,122.4 47.1,121.9 47.3,121.5 47.3,121.1 47.3,120.6 47.3,120.2 47.3,119.8 47.3,119.3 47.5,118.9 47.5,118.5 47.5,118 47.5,117.6 47.8,117.2 47.8,116.7 47.8,116.3 48,115.9 48,115.5 48,115 48.2,114.6 48.2,114.2 48.2,113.5 48.4,113.1 48.4,112.6 48.4,112.2 48.6,111.8 48.6,111.3 48.9,110.9 48.9,110.5 49.1,110 49.1,109.6 49.3,109.2 49.3,108.7 49.5,108.3 49.5,107.9 49.7,107.5 50,107 50,106.6 50.2,106.2 50.2,105.7 50.4,105.3 50.6,104.9 50.6,104.4 50.9,104 51.1,103.6 51.1,103.1 51.3,102.7 51.5,102.3 51.7,101.8 51.7,101.4 52,101 52.2,100.5 52.4,100.1 52.6,99.7 52.6,99.2 52.8,98.8 53.1,98.4 53.3,97.9 53.5,97.7 53.7,97.3 53.9,96.9 54.2,96.2 54.6,95.3 54.8,94.7 55.3,94 55.7,93.4 55.9,92.7 56.4,92.1 56.8,91.2 57,90.6 57.5,89.9 57.9,89.3 58.4,88.6 58.8,88 59.3,87.3 59.7,86.7 60.1,86 60.6,85.6 61,85 61.2,84.5 61.7,83.9 62.1,83.4 62.6,82.8 63,82.4 63.7,81.7 64.1,81.1 64.6,80.6 65.2,80 65.7,79.3 66.3,78.7 66.8,78.3 67.4,77.6 67.9,77 68.5,76.5 69,75.9 69.6,75.4 70.3,74.8 70.7,74.2 71.4,73.7 72.1,73.1 72.7,72.6 73.2,72 73.8,71.6 74.5,71.1 74.9,70.7 75.4,70.3 76,69.8 76.5,69.6 76.9,69.2 77.4,69 78,68.5 78.5,68.1 78.9,67.9 79.6,67.4 80.2,67 80.9,66.6 81.6,66.2 82,65.7 82.7,65.3 83.3,64.9 84,64.4 84.7,64.2 85.3,63.8 86,63.6 86.7,63.1 87.3,62.9 88,62.5 88.6,62.3 89.3,61.8 90.2,61.4 91.1,61.2 92,60.7 92.8,60.3 93.7,59.9 94.8,59.4 95.7,59 96.6,58.8 97.7,58.4 98.6,58.2 99.7,57.7 100.6,57.5 101.7,57.1 102.6,56.9 103.7,56.6 104.8,56.4 105.2,56.2 105.9,56 106.3,56 107,55.8 107.7,55.8 108.1,55.6 108.8,55.6 109.4,55.3 110.1,55.3 110.7,55.1 111.4,54.9 112.3,54.9 113,54.7 113.6,54.7 114.5,54.7 115.2,54.5 115.8,54.5 116.5,54.5 117.4,54.3 118,54.3 118.7,54.3 119.6,54.3 120.2,54.3 120.9,54.3 121.8,54 122.5,54 123.1,54 124,54 124.7,54 "
   class="st0"
   id="XMLID_10_" /><polygon
   points="163.3,105.3 163.1,104.9 163.1,104.2 163.1,103.6 162.9,102.9 162.9,102.5 162.7,101.8 162.7,101.2 162.5,100.7 162.2,99.7 162,98.8 161.8,97.7 161.6,96.6 161.1,95.8 160.9,94.9 160.5,93.8 160,93 159.8,92.5 159.6,91.9 159.4,91.5 158.9,91 158.7,90.4 158.3,89.9 158,89.5 157.6,89.1 156.7,88.4 156,87.8 154.9,87.3 153.8,87.1 153.4,87.1 153,86.9 152.7,86.9 152.7,87.1 152.7,87.8 152.7,90.4 152.7,91 152.5,91.7 152.5,92.3 152.7,93.2 153,93.8 153.2,94.5 153.4,95.1 153.8,95.8 156.3,101.6 156.5,102.3 156.7,102.9 156.9,103.3 157.2,104 157.2,104.4 157.4,104.9 157.4,105.3 157.4,105.7 158,109 159.4,116.7 163.8,142.7 165.1,150.3 165.3,151.3 165.6,152.4 165.6,153.5 165.3,154.6 165.1,155 164.9,155.5 164.7,155.9 164.4,156.3 164,156.8 163.6,157.2 162.9,157.6 162.2,157.8 161.6,158 160.9,158.3 160,158.3 159.4,158.3 158.9,158 158.5,157.8 158.3,157.8 157.8,157.6 157.6,157.6 157.6,157.4 157.4,157.4 157.2,157.4 156.9,157.2 156.9,157 156.5,156.8 156.3,156.5 156.3,156.3 156,156.1 155.6,155.7 155.4,155.2 155.2,154.8 154.9,154.4 154.9,153.1 154.9,152 154.9,150.7 154.9,149.4 154.9,148.5 154.9,147.7 154.9,146.6 155.2,145.7 155.2,144.6 155.2,143.8 155.2,142.7 155.2,141.8 155.2,141 155.2,139.9 155.2,139 155.4,137.9 155.4,137.1 155.4,136 155.4,135.1 155.4,134.3 155.4,133.2 155.4,132.3 155.4,131.5 155.4,130.6 155.2,129.9 155.2,129.3 154.9,128.6 154.9,128 154.7,127.6 154.5,127.1 154.5,126.7 154.3,126.3 154.3,126 154.1,125.6 153.8,125.4 153.6,125.2 153.6,125 153.4,124.8 153.2,124.5 153,124.3 152.5,123.9 152.1,123.5 151.4,123 150.7,122.6 150.1,122.4 149.4,121.9 148.8,121.7 148.1,121.5 147.4,121.5 146.5,121.3 145.9,121.3 145.2,121.3 144.3,121.3 144.1,121.3 144.1,120.9 144.1,119.8 144.1,119.3 144.3,119.3 145.2,119.3 149,119.3 149.9,119.3 150.3,119.3 150.3,118.7 150.3,117.2 150.3,110.9 150.3,85.6 150.3,78.7 150.3,77 150.3,76.7 150.3,76.3 149.6,76.3 147.9,76.3 140.6,76.3 112.1,76.3 92.2,76.3 87.1,76.3 85.8,76.3 85.3,76.3 85.3,76.7 85.3,77.6 85.3,81.3 85.3,96 85.3,113.7 85.3,118 85.3,119.1 85.3,119.6 85.6,119.6 86.7,119.6 90.2,119.6 91.1,119.6 91.3,119.6 91.3,120 91.3,121.3 91.3,126.3 91.3,146.6 91.3,164.8 91.3,169.3 91.3,170.4 91.3,170.6 91.7,170.8 92,170.6 93.9,170.6 101.7,170.6 132.6,170.6 141.2,170.6 143.2,170.6 143.7,170.8 143.9,170.6 143.9,170.2 143.9,168.6 143.9,162.4 143.9,137.3 143.9,129.7 143.9,128.2 143.9,127.8 143.9,127.6 144.3,127.6 144.8,127.6 145.4,127.6 146.1,127.6 147,127.6 147.7,127.8 148.1,128.4 148.5,128.9 148.8,129.5 148.8,130.2 149,130.8 149,131.2 149,131.9 149,132.3 148.8,135.3 148.5,149.2 148.5,150.3 148.5,151.3 148.5,152.4 148.5,153.5 148.5,154.4 148.8,155.2 149,156.1 149.2,156.8 149.4,157.6 149.9,158.5 150.3,159.1 150.7,160 151.2,160.2 151.4,160.6 151.9,161.1 152.3,161.5 152.5,161.7 153,162.2 153.4,162.4 153.8,162.8 154.7,163.2 155.4,163.7 156.3,163.9 157.2,164.3 158,164.3 158.7,164.5 159.4,164.5 160.2,164.5 160.9,164.5 161.6,164.5 162.2,164.5 162.9,164.3 163.3,164.1 164,163.9 164.7,163.7 165.1,163.5 165.8,163.2 166.2,163 166.7,162.6 167.3,162.4 167.8,161.9 168.2,161.5 168.6,161.1 168.9,160.6 169.1,160.4 169.3,160.4 169.5,160.2 169.8,160 170.2,159.1 170.6,158.3 171.1,157.4 171.3,156.5 171.7,155.5 171.7,154.6 172,153.7 172,152.9 165.6,117.2 "
   class="st1"
   id="XMLID_7_" /><polygon
   style="fill:#ffffff"
   points="132.8,83.4 133.7,83.4 134.6,83.4 135.3,83.7 136.2,83.9 136.6,84.1 136.8,84.5 137,85 137.3,85.4 137.3,85.6 137.3,85.8 137.5,86.3 137.5,86.5 137.5,86.9 137.5,87.3 137.5,89.9 137.5,105.3 137.5,105.7 137.5,106.4 137.5,106.8 137.5,107.5 137.3,108.1 137.3,108.5 137,109.2 136.6,109.6 136.4,109.6 136.2,109.8 135.9,110 135.7,110.3 135.3,110.3 135.1,110.3 134.8,110.5 134.4,110.5 134,110.5 131.7,110.5 125.3,110.5 104.1,110.5 97.5,110.5 96.4,110.5 95.7,110.3 94.8,110 94.2,109.6 93.9,109.2 93.7,109 93.5,108.5 93.5,108.1 93.5,107.9 93.5,107.7 93.3,107.2 93.3,106.8 93.3,106.6 93.3,106.2 93.3,103.3 93.3,88.9 93.3,87.1 93.3,86.7 93.3,86.3 93.5,86 93.5,85.6 93.5,85.4 93.7,85 93.9,84.7 94.2,84.5 94.2,84.3 94.4,84.1 94.6,83.9 95.3,83.7 95.7,83.4 96.2,83.4 125.3,83.4 "
   class="st0"
   id="XMLID_2_" />
</svg>
