<?xml version="1.0" encoding="UTF-8" standalone="no"?>
<svg
   xmlns:dc="http://purl.org/dc/elements/1.1/"
   xmlns:cc="http://creativecommons.org/ns#"
   xmlns:rdf="http://www.w3.org/1999/02/22-rdf-syntax-ns#"
   xmlns:svg="http://www.w3.org/2000/svg"
   xmlns="http://www.w3.org/2000/svg"
   xmlns:sodipodi="http://sodipodi.sourceforge.net/DTD/sodipodi-0.dtd"
   xmlns:inkscape="http://www.inkscape.org/namespaces/inkscape"
   version="1.1"
   id="Layer_1"
   x="0px"
   y="0px"
   viewBox="0 0 180 200"
   xml:space="preserve"
   inkscape:version="1.0beta2 (2b71d25, 2019-12-03)"
   sodipodi:docname="Quit-leave-main-track.svg"
   width="180"
   height="200"><metadata
     id="metadata13"><rdf:RDF><cc:Work
         rdf:about=""><dc:format>image/svg+xml</dc:format><dc:type
           rdf:resource="http://purl.org/dc/dcmitype/StillImage" /><dc:title></dc:title></cc:Work></rdf:RDF></metadata><defs
     id="defs11" /><sodipodi:namedview
     pagecolor="#ffffff"
     bordercolor="#666666"
     borderopacity="1"
     objecttolerance="10"
     gridtolerance="10"
     guidetolerance="10"
     inkscape:pageopacity="0"
     inkscape:pageshadow="2"
     inkscape:window-width="1240"
     inkscape:window-height="780"
     id="namedview9"
     showgrid="false"
     inkscape:zoom="1.6868813"
     inkscape:cx="124.04743"
     inkscape:cy="128.494"
     inkscape:window-x="187"
     inkscape:window-y="31"
     inkscape:window-maximized="0"
     inkscape:current-layer="Layer_1"
     inkscape:document-rotation="0"><inkscape:grid
       type="xygrid"
       id="grid3383" /></sodipodi:namedview><style
     type="text/css"
     id="style3">
	.st0{font-family:&quot;Arial Black&quot;, &quot;Arial Bold&quot;, Gadget, sans-serif;}
	.st1{font-size:125px;}
</style><g
     transform="matrix(0.56182938,0,0,0.55565987,-0.62145896,49.005617)"
     style="font-size:145.696px;font-family:'Arial Black', 'Arial Bold', Gadget, sans-serif;fill:#ff0000"
     id="text5"><path
       d="m 105.84727,130.11585 q 6.04694,4.19729 7.89659,5.26439 2.77448,1.56509 7.46975,3.62817 l -8.9637,18.06967 q -6.75834,-3.27246 -13.374402,-7.82545 -6.61606,-4.48185 -9.248257,-6.75834 -10.671065,4.62413 -26.748804,4.62413 -23.760907,0 -37.491011,-12.37844 Q 9.1674156,120.08505 9.1674156,93.549666 q 0,-25.752839 14.1569474,-39.980927 14.228088,-14.299228 39.696364,-14.299228 25.96626,0 40.052063,13.943526 14.15695,13.943526 14.15695,39.909786 0,23.120647 -11.38247,36.993027 z M 81.161539,113.61127 q 3.841584,-6.90062 3.841584,-20.630728 0,-15.793177 -5.904656,-22.551519 -5.833516,-6.758341 -16.14888,-6.758341 -9.603959,0 -15.579756,6.900622 -5.975797,6.900623 -5.975797,21.555553 0,17.073703 5.833516,23.974323 5.833516,6.90063 16.006599,6.90063 3.27246,0 6.189218,-0.64027 -4.055005,-3.91272 -12.805279,-7.3986 l 5.050971,-11.59589 q 4.268426,0.78254 6.616061,1.92079 2.418775,1.13825 9.319397,5.97579 1.63623,1.13825 3.557022,2.34764 z"
       style="font-size:145.696px;font-family:'Arial Black', 'Arial Bold', Gadget, sans-serif;fill:#ff0000"
       id="path3348"
       inkscape:connector-curvature="0" /></g><g
     transform="matrix(0.55469438,0,0,0.57323704,-6.1154187,39.520658)"
     style="font-size:79.766px;font-family:'Arial Black', 'Arial Bold', Gadget, sans-serif;fill:#ff0000"
     id="text7"><path
       d="m 121.85342,38.065398 h 53.6317 V 52.164656 H 157.49104 V 95.163498 H 139.8475 V 52.164656 h -17.99408 z"
       style="font-size:79.766px;font-family:'Arial Black', 'Arial Bold', Gadget, sans-serif;fill:#ff0000"
       id="path3345"
       inkscape:connector-curvature="0" /></g><path
     inkscape:connector-curvature="0"
     id="path4918"
     style="font-size:131.80500000000000682px;font-family:'Arial Black', 'Arial Bold', Gadget, sans-serif;stroke-width:0.523119;fill:#ff0000"
     d="m 95.967671,72.98023 h 16.398769 l 6.32837,34.42009 6.30087,-34.42009 h 16.34374 v 56.56935 H 131.15898 V 86.408699 l -7.89672,43.140881 h -9.21742 L 106.17563,86.408699 V 129.54958 H 95.967671 Z" /><path
     inkscape:connector-curvature="0"
     id="path4920"
     style="font-size:131.80500000000000682px;font-family:'Arial Black', 'Arial Bold', Gadget, sans-serif;stroke-width:0.523119;fill:#ff0000"
     d="m 145.59063,73.57304 h 19.58809 q 6.39929,0 9.57293,4.514742 3.19965,4.514747 3.19965,12.849647 0,8.566441 -3.4858,13.389891 -3.45979,4.82344 -10.58745,4.82344 h -6.45132 v 20.99163 h -11.8361 z m 11.8361,24.11722 h 2.88749 q 3.40775,0 4.78646,-1.736441 1.37871,-1.77503 1.37871,-4.51474 0,-2.66255 -1.19661,-4.51475 -1.19663,-1.8522 -4.50032,-1.8522 h -3.35573 z" /></svg>
