<?xml version="1.0" encoding="UTF-8" standalone="no"?>
<svg
   xmlns:dc="http://purl.org/dc/elements/1.1/"
   xmlns:cc="http://creativecommons.org/ns#"
   xmlns:rdf="http://www.w3.org/1999/02/22-rdf-syntax-ns#"
   xmlns:svg="http://www.w3.org/2000/svg"
   xmlns="http://www.w3.org/2000/svg"
   xmlns:sodipodi="http://sodipodi.sourceforge.net/DTD/sodipodi-0.dtd"
   xmlns:inkscape="http://www.inkscape.org/namespaces/inkscape"
   height="200"
   width="250"
   sodipodi:docname="Right.svg"
   inkscape:version="1.0beta2 (2b71d25, 2019-12-03)"
   xml:space="preserve"
   viewBox="0 0 250 200"
   y="0px"
   x="0px"
   id="Layer_1"
   version="1.1"><metadata
     id="metadata11"><rdf:RDF><cc:Work
         rdf:about=""><dc:format>image/svg+xml</dc:format><dc:type
           rdf:resource="http://purl.org/dc/dcmitype/StillImage" /><dc:title></dc:title></cc:Work></rdf:RDF></metadata><defs
     id="defs9" /><sodipodi:namedview
     inkscape:document-rotation="0"
     inkscape:current-layer="text5"
     inkscape:window-maximized="0"
     inkscape:window-y="23"
     inkscape:window-x="0"
     inkscape:cy="147.39519"
     inkscape:cx="168.1021"
     inkscape:zoom="1.4633318"
     showgrid="false"
     id="namedview7"
     inkscape:window-height="797"
     inkscape:window-width="1440"
     inkscape:pageshadow="2"
     inkscape:pageopacity="0"
     guidetolerance="10"
     gridtolerance="10"
     objecttolerance="10"
     borderopacity="1"
     bordercolor="#666666"
     pagecolor="#ffffff" /><style
     id="style3"
     type="text/css">
	.st0{font-family:&quot;Arial Black&quot;, &quot;Arial Bold&quot;, Gadget, sans-serif;}
	.st1{font-size:75px;}
</style><g
     id="text5"
     style="font-size:142.2094574px;font-family:'Arial Black', 'Arial Bold', Gadget, sans-serif"
     transform="scale(0.87723608,1.139944)"><path
       inkscape:connector-curvature="0"
       id="path3343"
       style="font-size:142.209px;font-family:'Arial Black', 'Arial Bold', Gadget, sans-serif;stroke-width:1.22925"
       d="M 80.19863,144.01713 V 21.838441 h 63.45163 q 17.6488,0 26.97745,3.000296 9.32864,3.000294 15.04349,11.167765 5.71486,8.084128 5.71486,19.751944 0,10.167671 -4.37019,17.585066 -4.37018,7.334052 -12.01798,11.917835 -4.87443,2.916957 -13.36266,4.833813 6.80738,2.25022 9.91694,4.500439 2.10104,1.50015 6.05101,6.417291 4.03402,4.91715 5.37868,7.58409 l 18.40519,35.42015 h -43.02946 l -20.33814,-37.33701 q -3.86593,-7.250719 -6.89143,-9.417595 -4.11805,-2.833613 -9.32865,-2.833613 h -3.36168 v 49.588218 z m 38.23906,-72.673818 h 16.052 q 2.60531,0 10.08503,-1.666826 3.78188,-0.750081 6.13506,-3.833713 2.43722,-3.083638 2.43722,-7.084032 0,-5.917249 -3.78189,-9.084227 -3.78188,-3.166978 -14.20308,-3.166978 h -16.72434 z" /></g></svg>
