<?xml version="1.0" encoding="UTF-8" standalone="no"?>
<svg
   xmlns:dc="http://purl.org/dc/elements/1.1/"
   xmlns:cc="http://creativecommons.org/ns#"
   xmlns:rdf="http://www.w3.org/1999/02/22-rdf-syntax-ns#"
   xmlns:svg="http://www.w3.org/2000/svg"
   xmlns="http://www.w3.org/2000/svg"
   xmlns:sodipodi="http://sodipodi.sourceforge.net/DTD/sodipodi-0.dtd"
   xmlns:inkscape="http://www.inkscape.org/namespaces/inkscape"
   height="200"
   width="250"
   sodipodi:docname="rough.svg"
   inkscape:version="1.0beta2 (2b71d25, 2019-12-03)"
   xml:space="preserve"
   viewBox="0 0 250 200"
   y="0px"
   x="0px"
   id="Layer_1"
   version="1.1"><metadata
   id="metadata11"><rdf:RDF><cc:Work
       rdf:about=""><dc:format>image/svg+xml</dc:format><dc:type
         rdf:resource="http://purl.org/dc/dcmitype/StillImage" /><dc:title></dc:title></cc:Work></rdf:RDF></metadata><defs
   id="defs9" /><sodipodi:namedview
   inkscape:document-rotation="0"
   inkscape:current-layer="Layer_1"
   inkscape:window-maximized="0"
   inkscape:window-y="23"
   inkscape:window-x="597"
   inkscape:cy="130.52607"
   inkscape:cx="133.88596"
   inkscape:zoom="2.2024394"
   showgrid="false"
   id="namedview7"
   inkscape:window-height="797"
   inkscape:window-width="843"
   inkscape:pageshadow="2"
   inkscape:pageopacity="0"
   guidetolerance="10"
   gridtolerance="10"
   objecttolerance="10"
   borderopacity="1"
   bordercolor="#666666"
   pagecolor="#ffffff" /><style
   id="style3"
   type="text/css">
	.st0{font-family:&quot;Arial Black&quot;, &quot;Arial Bold&quot;, Gadget, sans-serif;}
	.st1{font-size:75px;}
</style><g
   id="text5"
   style="font-size:144.04867554000000496px;font-family:'Arial Black', 'Arial Bold', Gadget, sans-serif;fill:#ff0000"
   transform="scale(0.8592747,1.1637722)"><g
     style="fill:#ff0000"
     transform="translate(141.61159,11.314258)"
     id="g1295"><path
       d="M 49.429824,19.980207 H 81.613739 V 119.69235 H 49.429824 Z"
       style="font-size:142.20900000000000318px;font-family:'Arial Black', 'Arial Bold', Gadget, sans-serif;fill:#ff0000"
       id="path3345"
       inkscape:connector-curvature="0" /><path
       d="m 104.86337,19.980207 h 32.18388 v 99.712143 h -32.18388 z"
       style="font-size:142.20900000000000318px;font-family:'Arial Black', 'Arial Bold', Gadget, sans-serif;fill:#ff0000"
       id="path3345-7"
       inkscape:connector-curvature="0" /><path
       d="m 49.223081,83.159638 0.03798,-26.859682 84.342759,0.212975 -0.038,26.859663 z"
       style="font-size:142.20900000000000318px;font-family:'Arial Black', 'Arial Bold', Gadget, sans-serif;stroke-width:0.840198;fill:#ff0000"
       id="path3345-5"
       inkscape:connector-curvature="0" /></g><path
     inkscape:connector-curvature="0"
     id="path3343"
     style="font-size:142.20900000000000318px;font-family:'Arial Black', 'Arial Bold', Gadget, sans-serif;fill:#ff0000"
     d="M 5.2891755,132.95733 V 33.245198 H 56.742446 q 14.311507,0 21.876165,2.448593 7.564646,2.448592 12.198851,9.114205 4.634205,6.597597 4.634205,16.119907 0,8.29801 -3.543809,14.35147 -3.543799,5.98545 -9.745448,9.72636 -3.952701,2.38057 -10.835857,3.94495 5.520148,1.83645 8.041706,3.67289 1.703745,1.2243 4.906797,5.23727 3.271209,4.012957 4.361604,6.189487 l 14.92487,28.907 H 68.668702 L 52.176394,102.48595 q -3.134901,-5.917427 -5.588303,-7.685847 -3.33935,-2.31256 -7.564652,-2.31256 H 36.297438 V 132.95733 Z M 36.297438,73.646983 h 13.016655 q 2.112651,0 8.178004,-1.36033 3.06675,-0.61215 4.974953,-3.12876 1.97635,-2.51661 1.97635,-5.7814 0,-4.82917 -3.066751,-7.4138 -3.066752,-2.584622 -11.517356,-2.584622 H 36.297438 Z" /><path
     style="font-style:normal;font-variant:normal;font-weight:900;font-stretch:normal;font-size:134.04800000000000182px;line-height:125%;font-family:Arial;-inkscape-font-specification:'Arial, Heavy';text-align:center;letter-spacing:0px;word-spacing:0px;writing-mode:lr-tb;text-anchor:middle;fill:#ff0000;fill-opacity:1;stroke:none;stroke-width:1px;stroke-linecap:butt;stroke-linejoin:miter;stroke-opacity:1"
     d="M 144.30453,96.060311 V 75.315283 h 40.5389 v 42.510297 q -11.64046,9.31825 -20.61692,12.71908 -8.91857,3.3328 -21.19606,3.3328 -15.11521,0 -24.67082,-6.05346 -9.49766,-6.05347 -14.76773,-18.02437 -5.212143,-11.970895 -5.212143,-27.478647 0,-16.323951 5.733373,-28.362872 5.73335,-12.10693 16.79467,-18.364439 8.629,-4.829176 23.22298,-4.829176 14.0728,0 21.02232,2.992724 7.00744,2.992723 11.58255,9.31826 4.633,6.25751 6.94952,15.915852 l -25.30785,5.305284 q -1.56365,-5.645366 -5.32797,-8.638089 -3.70641,-2.992723 -9.49769,-2.992723 -8.629,0 -13.78321,7.073709 -5.09632,7.0057 -5.09632,22.241389 0,16.187914 5.15424,23.125598 5.21213,6.93767 14.47816,6.93767 4.40136,0 8.39733,-1.49635 3.996,-1.49636 9.15021,-5.10124 v -9.386269 z"
     id="path4784"
     inkscape:connector-curvature="0" /></g><text
   id="text3386"
   style="font-size:97.2459px;font-family:'Arial Black', 'Arial Bold', Gadget, sans-serif"
   y="96.020195"
   x="5.0010576"
   class="st0 st1"
   transform="scale(0.79983082,1.2502644)" />


</svg>
