<?xml version="1.0" encoding="UTF-8" standalone="no"?>
<svg
   xmlns:dc="http://purl.org/dc/elements/1.1/"
   xmlns:cc="http://creativecommons.org/ns#"
   xmlns:rdf="http://www.w3.org/1999/02/22-rdf-syntax-ns#"
   xmlns:svg="http://www.w3.org/2000/svg"
   xmlns="http://www.w3.org/2000/svg"
   xmlns:sodipodi="http://sodipodi.sourceforge.net/DTD/sodipodi-0.dtd"
   xmlns:inkscape="http://www.inkscape.org/namespaces/inkscape"
   height="200"
   width="250"
   sodipodi:docname="sand.svg"
   inkscape:version="1.0beta2 (2b71d25, 2019-12-03)"
   xml:space="preserve"
   viewBox="0 0 250 200"
   y="0px"
   x="0px"
   id="Layer_1"
   version="1.1"><metadata
   id="metadata11"><rdf:RDF><cc:Work
       rdf:about=""><dc:format>image/svg+xml</dc:format><dc:type
         rdf:resource="http://purl.org/dc/dcmitype/StillImage" /><dc:title></dc:title></cc:Work></rdf:RDF></metadata><defs
   id="defs9" /><sodipodi:namedview
   inkscape:document-rotation="0"
   inkscape:current-layer="Layer_1"
   inkscape:window-maximized="0"
   inkscape:window-y="23"
   inkscape:window-x="597"
   inkscape:cy="130.52607"
   inkscape:cx="133.88596"
   inkscape:zoom="2.2024394"
   showgrid="false"
   id="namedview7"
   inkscape:window-height="797"
   inkscape:window-width="843"
   inkscape:pageshadow="2"
   inkscape:pageopacity="0"
   guidetolerance="10"
   gridtolerance="10"
   objecttolerance="10"
   borderopacity="1"
   bordercolor="#666666"
   pagecolor="#ffffff" /><style
   id="style3"
   type="text/css">
	.st0{font-family:&quot;Arial Black&quot;, &quot;Arial Bold&quot;, Gadget, sans-serif;}
	.st1{font-size:75px;}
</style><text
   id="text3386"
   style="font-size:97.2459px;font-family:'Arial Black', 'Arial Bold', Gadget, sans-serif"
   y="96.020195"
   x="5.0010576"
   class="st0 st1"
   transform="scale(0.79983082,1.2502644)" />


<path
   inkscape:connector-curvature="0"
   id="path3365"
   style="font-size:129.111px;font-family:'Arial Black', 'Arial Bold', Gadget, sans-serif"
   d="m 43.339706,112.70922 20.76011,-2.1372 q 0.67434,8.31135 2.74555,12.66491 3.37171,7.04486 9.63346,7.04486 4.67223,0 7.17693,-3.56202 2.55287,-3.64115 2.55287,-8.39049 0,-4.51187 -2.40837,-8.07388 -2.40836,-3.56201 -11.17482,-6.72823 -14.35387,-5.303434 -20.47112,-14.089714 -6.16541,-8.786282 -6.16541,-22.401062 0,-8.94459 3.13088,-16.86016 3.17904,-7.99472 9.48896,-12.5066 6.35809,-4.59102 17.3884,-4.59102 13.53503,0 20.61561,8.31134 7.128774,8.2322 8.477454,26.27969 l -20.567444,1.97889 q -0.81884,-7.83641 -3.46804,-11.39842 -2.60104,-3.562 -7.2251,-3.562 -3.80523,0 -5.73193,2.69129 -1.92669,2.61214 -1.92669,6.41161 0,2.77045 1.58954,4.98681 1.54135,2.29551 7.32142,4.2744 14.3057,5.06597 20.47112,10.290242 6.213584,5.14512 9.007284,12.82322 2.84188,7.678104 2.84188,17.176784 0,11.16095 -3.75704,20.58048 -3.757072,9.41953 -10.500494,14.32716 -6.74342,4.82851 -17.00306,4.82851 -18.01459,0 -24.95068,-11.39841 -6.93609,-11.39842 -7.85127,-28.97099 z" /><path
   style="font-style:normal;font-variant:normal;font-weight:900;font-stretch:normal;font-size:134.048px;line-height:125%;font-family:Arial;-inkscape-font-specification:'Arial, Heavy';text-align:center;letter-spacing:0px;word-spacing:0px;writing-mode:lr-tb;text-anchor:middle;fill:#000000;fill-opacity:1;stroke:none;stroke-width:1px;stroke-linecap:butt;stroke-linejoin:miter;stroke-opacity:1"
   d="m 168.26537,132.85213 h -24.72483 l -3.40206,19.15568 H 117.95322 L 144.35511,35.965586 h 23.67067 l 26.40191,116.042224 h -22.71235 z m -4.55205,-25.09235 -7.76245,-41.715039 -7.71453,41.715039 z"
   id="path4782"
   inkscape:connector-curvature="0" /></svg>
