<?xml version="1.0" encoding="UTF-8" standalone="no"?>
<svg
   xmlns:dc="http://purl.org/dc/elements/1.1/"
   xmlns:cc="http://creativecommons.org/ns#"
   xmlns:rdf="http://www.w3.org/1999/02/22-rdf-syntax-ns#"
   xmlns:svg="http://www.w3.org/2000/svg"
   xmlns="http://www.w3.org/2000/svg"
   xmlns:sodipodi="http://sodipodi.sourceforge.net/DTD/sodipodi-0.dtd"
   xmlns:inkscape="http://www.inkscape.org/namespaces/inkscape"
   sodipodi:docname="speed-start.svg"
   inkscape:version="1.0beta2 (2b71d25, 2019-12-03)"
   xml:space="preserve"
   style="enable-background:new 0 0 250 250;"
   viewBox="0 0 250 250"
   y="0px"
   x="0px"
   id="Layer_1"
   version="1.1"><metadata
     id="metadata4205"><rdf:RDF><cc:Work
         rdf:about=""><dc:format>image/svg+xml</dc:format><dc:type
           rdf:resource="http://purl.org/dc/dcmitype/StillImage" /><dc:title /></cc:Work></rdf:RDF></metadata><defs
     id="defs4203" /><sodipodi:namedview
     inkscape:document-rotation="0"
     inkscape:window-maximized="1"
     inkscape:window-y="34"
     inkscape:window-x="191"
     inkscape:current-layer="text5478"
     inkscape:cy="125"
     inkscape:cx="125.00002"
     inkscape:zoom="4.8457143"
     showgrid="false"
     id="namedview4201"
     inkscape:window-height="786"
     inkscape:window-width="1249"
     inkscape:pageshadow="2"
     inkscape:pageopacity="0"
     guidetolerance="10"
     gridtolerance="10"
     objecttolerance="10"
     borderopacity="1"
     bordercolor="#666666"
     pagecolor="#ffffff" /><style
     id="style4196"
     type="text/css">
	.st0{fill-rule:evenodd;clip-rule:evenodd;}
</style><path
     id="XMLID_13_"
     class="st0"
     d="m 212.40034,120.59524 -0.29897,-4.40475 -0.49829,-4.40477 -0.69761,-4.28571 -0.99659,-4.28572 -1.1959,-4.16667 -1.39521,-4.047622 -1.59454,-3.928568 -1.79385,-3.809524 -1.99316,-3.809523 -2.09283,-3.690477 -2.29214,-3.571429 -2.3918,-3.45238 -2.59111,-3.333333 -2.79044,-3.214286 -2.89009,-3.095238 -3.0894,-2.857142 -3.18907,-2.738097 -3.28872,-2.619046 -3.48805,-2.380955 -3.48804,-2.261904 -3.68735,-2.142858 -3.78702,-1.904761 -3.88667,-1.785714 -3.98634,-1.54762 -4.08599,-1.309523 -4.18565,-1.190476 -4.18565,-0.952382 -4.2853,-0.833333 -4.28531,-0.595237 -4.48463,-0.357144 L 125,37.5 l -4.48462,0.119048 -4.48463,0.357144 -4.28531,0.595237 -4.2853,0.833333 -4.18565,0.952382 -4.18565,1.190476 -4.085991,1.309523 -3.986332,1.54762 -3.886674,1.785714 -3.787016,1.904761 -3.687358,2.142858 -3.488041,2.261904 -3.488041,2.380955 -3.288724,2.619046 -3.189066,2.738097 -3.089408,2.857142 -2.890091,3.095238 -2.790433,3.214286 -2.591116,3.333333 -2.3918,3.45238 -2.292141,3.571429 -2.092825,3.690477 -1.993166,3.809523 -1.79385,3.809524 -1.594533,3.928568 -1.395216,4.047622 -1.1959,4.16667 -0.996583,4.28572 -0.697608,4.28571 -0.498292,4.40477 -0.298975,4.40475 -0.09966,4.40477 0.09966,4.40476 0.298975,4.40476 0.498292,4.40476 0.697608,4.28572 0.996583,4.28571 1.1959,4.16667 1.395216,4.04762 1.594533,3.92856 1.79385,3.80953 1.993166,3.80951 2.092825,3.69048 2.292141,3.57144 2.3918,3.45237 2.591116,3.33334 2.790433,3.21429 2.890091,3.09524 3.089408,2.85715 3.189066,2.73809 3.288724,2.61905 3.488041,2.38095 3.488041,2.2619 3.687358,2.14286 3.787016,1.90476 3.886674,1.78571 3.986332,1.54762 4.085991,1.30952 4.18565,1.19049 4.18565,0.95237 4.2853,0.83333 4.28531,0.59524 4.48463,0.35715 L 125,212.5 l 4.48462,-0.11904 4.48463,-0.35715 4.28531,-0.59524 4.2853,-0.83333 4.18565,-0.95237 4.18565,-1.19049 4.08599,-1.30952 3.98634,-1.54762 3.88667,-1.78571 3.78702,-1.90476 3.68735,-2.14286 3.48804,-2.2619 3.48805,-2.38095 3.28872,-2.61905 3.18907,-2.73809 3.0894,-2.85715 2.89009,-3.09524 2.79044,-3.21429 2.59111,-3.33334 2.3918,-3.45237 2.29214,-3.57144 2.09283,-3.69048 1.99316,-3.80951 1.79385,-3.80953 1.59454,-3.92856 1.39521,-4.04762 1.1959,-4.16667 0.99659,-4.28571 0.69761,-4.28572 0.49829,-4.40476 0.29897,-4.40476 0.0997,-4.40476 -0.0997,-4.40477 z m -16.54328,8.09525 -0.29897,3.57142 -0.4983,3.57143 -0.59794,3.57144 -0.79727,3.45236 -0.99658,3.33334 -1.1959,3.33333 -1.29556,3.21429 -1.39522,3.09523 -1.59453,3.09524 -1.69419,2.97621 -1.79385,2.85713 -1.99317,2.73809 -2.09282,2.61906 -2.19249,2.61904 -2.3918,2.38096 -2.3918,2.38096 -2.59111,2.2619 -2.69078,2.14285 -2.79043,1.90476 -2.79043,1.90476 -2.98975,1.66668 -3.08941,1.54761 -3.08941,1.42856 -3.28872,1.30953 -3.28873,1.07144 -3.38838,1.07142 -3.48804,0.71428 -3.48804,0.71429 -3.5877,0.35714 -3.5877,0.2381 -3.5877,0.11904 -3.68736,-0.11904 -3.5877,-0.2381 -3.58769,-0.35714 -3.48805,-0.71429 -3.48804,-0.71428 -3.38838,-1.07142 -3.28872,-1.07144 -3.288726,-1.30953 -3.089408,-1.42856 -3.089408,-1.54761 -2.989749,-1.66668 -2.790433,-1.90476 -2.790433,-1.90476 -2.690774,-2.14285 -2.591116,-2.2619 -2.3918,-2.38096 -2.391799,-2.38096 -2.192483,-2.61904 -2.092825,-2.61906 -1.993166,-2.73809 -1.79385,-2.85713 -1.694191,-2.97621 -1.594533,-3.09524 -1.395217,-3.09523 -1.295558,-3.21429 -1.195899,-3.33333 -0.996584,-3.33334 -0.797266,-3.45236 -0.59795,-3.57144 -0.498292,-3.57143 -0.298974,-3.57142 -0.09966,-3.69048 0.09966,-3.69048 0.298974,-3.57143 0.498292,-3.57143 0.59795,-3.57142 0.797266,-3.4524 0.996584,-3.33332 1.195899,-3.33333 1.295558,-3.214291 1.395217,-3.095243 1.594533,-3.095236 1.694191,-2.976189 1.79385,-2.857144 1.993166,-2.738096 2.092825,-2.619047 2.192483,-2.619048 2.391799,-2.380952 2.3918,-2.380953 2.591116,-2.261905 2.690774,-2.142857 2.790433,-1.904761 2.790433,-1.904762 2.989749,-1.666667 3.089408,-1.547619 3.089408,-1.428572 3.288726,-1.309523 3.28872,-1.071429 3.38838,-1.071428 3.48804,-0.714286 3.48805,-0.714286 3.78701,-0.238095 3.5877,-0.238096 3.68736,-0.119047 3.5877,0.119047 3.5877,0.238096 3.5877,0.357144 3.48804,0.714285 3.48804,0.714285 3.38838,1.071428 3.28873,1.071429 3.28872,1.309524 3.08941,1.428571 3.08941,1.547619 2.98974,1.666667 2.79044,1.904762 2.79043,1.904762 2.69077,2.142857 2.59112,2.261905 2.3918,2.380952 2.3918,2.380954 2.19248,2.619046 2.09283,2.619048 1.99316,2.738095 1.79385,2.857145 1.69419,2.976194 1.59454,3.095237 1.39521,3.095236 1.29556,3.214284 1.1959,3.33332 0.99659,3.33336 0.79726,3.45236 0.59795,3.57145 0.49829,3.57141 0.29898,3.57143 0.0997,3.69048 -0.29898,3.57144 z"
     inkscape:connector-curvature="0"
     style="clip-rule:evenodd;fill-rule:evenodd" /><g
     id="text5478"
     style="font-style:normal;font-variant:normal;font-weight:900;font-stretch:normal;font-size:94.92460632px;line-height:125%;font-family:Arial;-inkscape-font-specification:'Arial, Heavy';text-align:start;letter-spacing:0px;word-spacing:0px;writing-mode:lr-tb;text-anchor:start;fill:#000000;fill-opacity:1;stroke:none;stroke-width:1px;stroke-linecap:butt;stroke-linejoin:miter;stroke-opacity:1"
     transform="scale(0.7849953,1.273893)"><path
       id="path3358"
       style=""
       d="m 93.832873,64.531919 31.193487,0 q 9.22363,0 14.87832,2.502895 5.70104,2.502895 9.40903,7.184236 3.70799,4.68134 5.37659,10.892227 1.66859,6.210888 1.66859,13.163374 0,10.892229 -2.50289,16.917719 -2.45654,5.97913 -6.85979,10.05793 -4.40324,4.03244 -9.45538,5.37658 -6.90613,1.854 -12.51447,1.854 l -31.193487,0 0,-67.948961 z m 20.996507,15.388169 0,37.126272 5.14484,0 q 6.58169,0 9.36268,-1.43684 2.78099,-1.4832 4.35689,-5.09849 1.5759,-3.66165 1.5759,-11.81923 0,-10.799528 -3.52259,-14.78562 -3.5226,-3.986092 -11.68018,-3.986092 l -5.23754,0 z" /><path
       id="path3360"
       style=""
       d="m 165.62887,64.531919 59.42058,0 0,13.580523 -38.09962,39.768218 39.49012,0 0,14.60022 -64.47272,0 0,-14.09037 37.68247,-39.35107 -34.02083,0 0,-14.507521 z" /><path
       transform="scale(1.273893,0.78499529)"
       inkscape:connector-curvature="0"
       id="path1609"
       d="m 122.27596,195.78527 c -5.33892,-0.32962 -7.7677,-0.61176 -11.35023,-1.31849 -8.94056,-1.76373 -18.100236,-5.58702 -25.58142,-10.67781 -3.877614,-2.63864 -5.412389,-3.87583 -9.204932,-7.42017 -7.677527,-7.17508 -13.472972,-15.86007 -17.53279,-26.27446 -2.809029,-7.20582 -4.198348,-13.7683 -4.615143,-21.79976 -0.301101,-5.80207 0.336416,-13.09849 1.656428,-18.95791 1.813609,-8.05044 6.503881,-18.502948 11.283193,-25.145159 9.359817,-13.00813 21.688037,-21.966448 36.978154,-26.870228 4.98248,-1.59796 9.78378,-2.478757 15.22556,-2.79312 4.95749,-0.286387 11.65357,-0.145708 15.21371,0.319627 12.43439,1.625265 25.05986,7.016773 34.97936,14.937393 4.1163,3.286825 9.65584,9.101388 13.07291,13.721966 4.90178,6.628187 9.57496,16.618691 11.565,24.724111 0.62706,2.55402 1.49474,7.74351 1.77262,10.60181 0.76625,7.88189 -0.62674,19.55778 -3.28041,27.49605 -4.56511,13.65623 -11.99303,24.55046 -22.99987,33.73297 -4.27184,3.56381 -10.94168,7.58081 -16.74287,10.08362 -6.29825,2.71726 -14.66289,4.8672 -20.73997,5.33074 -3.32421,0.25356 -8.12076,0.40628 -9.6993,0.30882 z m -20.92178,-27.23043 c 2.30049,-0.40038 5.67394,-1.51949 7.58841,-2.51739 1.85493,-0.96686 4.9795,-4.01567 6.50472,-6.347 3.4377,-5.25462 5.8462,-12.60596 6.72736,-20.53361 0.56454,-5.07907 0.80789,-13.36553 0.54768,-18.64924 -0.561,-11.39154 -2.10824,-18.96419 -5.20421,-25.470927 -1.52196,-3.198678 -2.76743,-5.0769 -4.73236,-7.136621 -2.58548,-2.710214 -4.88204,-4.110414 -8.37726,-5.107578 -1.61528,-0.460825 -1.80452,-0.467105 -16.234856,-0.53877 l -14.600531,-0.07251 v 43.346316 43.34631 H 86.54728 c 10.774876,0 13.28482,-0.0541 14.8069,-0.31898 z m 76.43475,-9.07076 v -9.38974 h -15.3916 c -8.46539,0 -15.36066,-0.0793 -15.32282,-0.17633 0.0378,-0.097 6.73189,-11.45857 14.87569,-25.24798 l 14.8069,-25.07167 v -8.699535 -8.699532 h -23.42276 -23.42276 v 9.285052 9.285045 l 13.27827,0.0531 13.27827,0.0531 -14.72285,24.94685 -14.72284,24.94684 v 9.05227 9.05227 h 25.38325 25.38325 z"
       style="fill:#ff7f2a;stroke:#ff7f2a" /><path
       transform="scale(1.273893,0.78499529)"
       inkscape:connector-curvature="0"
       id="path1611"
       d="m 90.288935,125.40164 v -23.66086 l 3.08815,0.13936 c 3.607734,0.1628 5.133227,0.55073 6.951635,1.7678 4.15242,2.77925 5.6713,8.78676 5.66456,22.40454 -0.005,10.18433 -0.64336,14.64929 -2.64662,18.513 -1.76127,3.39698 -4.386167,4.49702 -10.730672,4.49702 h -2.327053 z"
       style="fill:#ff7f2a;stroke:#ff7f2a;stroke-width:0.206368px" /></g></svg>
