<?xml version="1.0" encoding="UTF-8" standalone="no"?>
<svg
   xmlns:dc="http://purl.org/dc/elements/1.1/"
   xmlns:cc="http://creativecommons.org/ns#"
   xmlns:rdf="http://www.w3.org/1999/02/22-rdf-syntax-ns#"
   xmlns:svg="http://www.w3.org/2000/svg"
   xmlns="http://www.w3.org/2000/svg"
   xmlns:sodipodi="http://sodipodi.sourceforge.net/DTD/sodipodi-0.dtd"
   xmlns:inkscape="http://www.inkscape.org/namespaces/inkscape"
   sodipodi:docname="speed-110.svg"
   inkscape:version="1.0beta2 (2b71d25, 2019-12-03)"
   xml:space="preserve"
   style="enable-background:new 0 0 250 250;"
   viewBox="0 0 250 250"
   y="0px"
   x="0px"
   id="Layer_1"
   version="1.1"><metadata
     id="metadata4205"><rdf:RDF><cc:Work
         rdf:about=""><dc:format>image/svg+xml</dc:format><dc:type
           rdf:resource="http://purl.org/dc/dcmitype/StillImage" /><dc:title /></cc:Work></rdf:RDF></metadata><defs
     id="defs4203" /><sodipodi:namedview
     inkscape:document-rotation="0"
     inkscape:window-maximized="1"
     inkscape:window-y="34"
     inkscape:window-x="191"
     inkscape:current-layer="text3349"
     inkscape:cy="110.49049"
     inkscape:cx="77.432214"
     inkscape:zoom="4.8457143"
     showgrid="false"
     id="namedview4201"
     inkscape:window-height="786"
     inkscape:window-width="1249"
     inkscape:pageshadow="2"
     inkscape:pageopacity="0"
     guidetolerance="10"
     gridtolerance="10"
     objecttolerance="10"
     borderopacity="1"
     bordercolor="#666666"
     pagecolor="#ffffff" /><style
     id="style4196"
     type="text/css">
	.st0{fill-rule:evenodd;clip-rule:evenodd;}
</style><path
     id="XMLID_13_"
     class="st0"
     d="m 212.40034,120.59524 -0.29897,-4.40475 -0.49829,-4.40477 -0.69761,-4.28571 -0.99659,-4.28572 -1.1959,-4.16667 -1.39521,-4.047622 -1.59454,-3.928568 -1.79385,-3.809524 -1.99316,-3.809523 -2.09283,-3.690477 -2.29214,-3.571429 -2.3918,-3.45238 -2.59111,-3.333333 -2.79044,-3.214286 -2.89009,-3.095238 -3.0894,-2.857142 -3.18907,-2.738097 -3.28872,-2.619046 -3.48805,-2.380955 -3.48804,-2.261904 -3.68735,-2.142858 -3.78702,-1.904761 -3.88667,-1.785714 -3.98634,-1.54762 -4.08599,-1.309523 -4.18565,-1.190476 -4.18565,-0.952382 -4.2853,-0.833333 -4.28531,-0.595237 -4.48463,-0.357144 L 125,37.5 l -4.48462,0.119048 -4.48463,0.357144 -4.28531,0.595237 -4.2853,0.833333 -4.18565,0.952382 -4.18565,1.190476 -4.085991,1.309523 -3.986332,1.54762 -3.886674,1.785714 -3.787016,1.904761 -3.687358,2.142858 -3.488041,2.261904 -3.488041,2.380955 -3.288724,2.619046 -3.189066,2.738097 -3.089408,2.857142 -2.890091,3.095238 -2.790433,3.214286 -2.591116,3.333333 -2.3918,3.45238 -2.292141,3.571429 -2.092825,3.690477 -1.993166,3.809523 -1.79385,3.809524 -1.594533,3.928568 -1.395216,4.047622 -1.1959,4.16667 -0.996583,4.28572 -0.697608,4.28571 -0.498292,4.40477 -0.298975,4.40475 -0.09966,4.40477 0.09966,4.40476 0.298975,4.40476 0.498292,4.40476 0.697608,4.28572 0.996583,4.28571 1.1959,4.16667 1.395216,4.04762 1.594533,3.92856 1.79385,3.80953 1.993166,3.80951 2.092825,3.69048 2.292141,3.57144 2.3918,3.45237 2.591116,3.33334 2.790433,3.21429 2.890091,3.09524 3.089408,2.85715 3.189066,2.73809 3.288724,2.61905 3.488041,2.38095 3.488041,2.2619 3.687358,2.14286 3.787016,1.90476 3.886674,1.78571 3.986332,1.54762 4.085991,1.30952 4.18565,1.19049 4.18565,0.95237 4.2853,0.83333 4.28531,0.59524 4.48463,0.35715 L 125,212.5 l 4.48462,-0.11904 4.48463,-0.35715 4.28531,-0.59524 4.2853,-0.83333 4.18565,-0.95237 4.18565,-1.19049 4.08599,-1.30952 3.98634,-1.54762 3.88667,-1.78571 3.78702,-1.90476 3.68735,-2.14286 3.48804,-2.2619 3.48805,-2.38095 3.28872,-2.61905 3.18907,-2.73809 3.0894,-2.85715 2.89009,-3.09524 2.79044,-3.21429 2.59111,-3.33334 2.3918,-3.45237 2.29214,-3.57144 2.09283,-3.69048 1.99316,-3.80951 1.79385,-3.80953 1.59454,-3.92856 1.39521,-4.04762 1.1959,-4.16667 0.99659,-4.28571 0.69761,-4.28572 0.49829,-4.40476 0.29897,-4.40476 0.0997,-4.40476 -0.0997,-4.40477 z m -16.54328,8.09525 -0.29897,3.57142 -0.4983,3.57143 -0.59794,3.57144 -0.79727,3.45236 -0.99658,3.33334 -1.1959,3.33333 -1.29556,3.21429 -1.39522,3.09523 -1.59453,3.09524 -1.69419,2.97621 -1.79385,2.85713 -1.99317,2.73809 -2.09282,2.61906 -2.19249,2.61904 -2.3918,2.38096 -2.3918,2.38096 -2.59111,2.2619 -2.69078,2.14285 -2.79043,1.90476 -2.79043,1.90476 -2.98975,1.66668 -3.08941,1.54761 -3.08941,1.42856 -3.28872,1.30953 -3.28873,1.07144 -3.38838,1.07142 -3.48804,0.71428 -3.48804,0.71429 -3.5877,0.35714 -3.5877,0.2381 -3.5877,0.11904 -3.68736,-0.11904 -3.5877,-0.2381 -3.58769,-0.35714 -3.48805,-0.71429 -3.48804,-0.71428 -3.38838,-1.07142 -3.28872,-1.07144 -3.288726,-1.30953 -3.089408,-1.42856 -3.089408,-1.54761 -2.989749,-1.66668 -2.790433,-1.90476 -2.790433,-1.90476 -2.690774,-2.14285 -2.591116,-2.2619 -2.3918,-2.38096 -2.391799,-2.38096 -2.192483,-2.61904 -2.092825,-2.61906 -1.993166,-2.73809 -1.79385,-2.85713 -1.694191,-2.97621 -1.594533,-3.09524 -1.395217,-3.09523 -1.295558,-3.21429 -1.195899,-3.33333 -0.996584,-3.33334 -0.797266,-3.45236 -0.59795,-3.57144 -0.498292,-3.57143 -0.298974,-3.57142 -0.09966,-3.69048 0.09966,-3.69048 0.298974,-3.57143 0.498292,-3.57143 0.59795,-3.57142 0.797266,-3.4524 0.996584,-3.33332 1.195899,-3.33333 1.295558,-3.214291 1.395217,-3.095243 1.594533,-3.095236 1.694191,-2.976189 1.79385,-2.857144 1.993166,-2.738096 2.092825,-2.619047 2.192483,-2.619048 2.391799,-2.380952 2.3918,-2.380953 2.591116,-2.261905 2.690774,-2.142857 2.790433,-1.904761 2.790433,-1.904762 2.989749,-1.666667 3.089408,-1.547619 3.089408,-1.428572 3.288726,-1.309523 3.28872,-1.071429 3.38838,-1.071428 3.48804,-0.714286 3.48805,-0.714286 3.78701,-0.238095 3.5877,-0.238096 3.68736,-0.119047 3.5877,0.119047 3.5877,0.238096 3.5877,0.357144 3.48804,0.714285 3.48804,0.714285 3.38838,1.071428 3.28873,1.071429 3.28872,1.309524 3.08941,1.428571 3.08941,1.547619 2.98974,1.666667 2.79044,1.904762 2.79043,1.904762 2.69077,2.142857 2.59112,2.261905 2.3918,2.380952 2.3918,2.380954 2.19248,2.619046 2.09283,2.619048 1.99316,2.738095 1.79385,2.857145 1.69419,2.976194 1.59454,3.095237 1.39521,3.095236 1.29556,3.214284 1.1959,3.33332 0.99659,3.33336 0.79726,3.45236 0.59795,3.57145 0.49829,3.57141 0.29898,3.57143 0.0997,3.69048 -0.29898,3.57144 z"
     inkscape:connector-curvature="0"
     style="fill:#ff7f2a;stroke:#ff7f2a" /><g
     id="text5478"
     style="font-style:normal;font-variant:normal;font-weight:900;font-stretch:normal;font-size:83.45389557px;line-height:125%;font-family:Arial;-inkscape-font-specification:'Arial, Heavy';text-align:start;letter-spacing:0px;word-spacing:0px;writing-mode:lr-tb;text-anchor:start;fill:#000000;fill-opacity:1;stroke:none;stroke-width:1px;stroke-linecap:butt;stroke-linejoin:miter;stroke-opacity:1"
     transform="scale(0.80963279,1.2351278)"><g
       id="text3349"
       style="font-style:normal;font-weight:normal;font-size:77.30417633px;line-height:125%;font-family:sans-serif;letter-spacing:0px;word-spacing:0px;fill:#000000;fill-opacity:1;stroke:none;stroke-width:1px;stroke-linecap:butt;stroke-linejoin:miter;stroke-opacity:1"
       transform="scale(1.0587573,0.94450352)"><path
         id="path3362"
         style="font-style:normal;font-variant:normal;font-weight:900;font-stretch:normal;font-size:77.30417633px;line-height:125%;font-family:Arial;-inkscape-font-specification:'Arial, Heavy';text-align:start;writing-mode:lr-tb;text-anchor:start"
         d="m 103.95495,78.721636 0,56.279554 -15.551423,0 0,-36.878018 q -3.774618,2.868708 -7.322759,4.642778 -3.510395,1.77407 -8.832606,3.39716 l 0,-12.607225 q 7.851205,-2.528994 12.192016,-6.077135 4.34081,-3.548141 6.794312,-8.757114 l 12.72046,0 z" /><path
         id="path3364"
         style="font-style:normal;font-variant:normal;font-weight:900;font-stretch:normal;font-size:77.30417633px;line-height:125%;font-family:Arial;-inkscape-font-specification:'Arial, Heavy';text-align:start;writing-mode:lr-tb;text-anchor:start"
         d="m 155.59172,78.721636 0,56.279554 -15.55142,0 0,-36.878018 q -3.77462,2.868708 -7.32276,4.642778 -3.51039,1.77407 -8.83261,3.39716 l 0,-12.607225 q 7.85121,-2.528994 12.19202,-6.077135 4.34081,-3.548141 6.79431,-8.757114 l 12.72046,0 z" /><path
         id="path3366"
         style="font-style:normal;font-variant:normal;font-weight:900;font-stretch:normal;font-size:77.30417633px;line-height:125%;font-family:Arial;-inkscape-font-specification:'Arial, Heavy';text-align:start;writing-mode:lr-tb;text-anchor:start"
         d="m 172.38877,107.10676 q 0,-15.7779 5.66193,-22.081512 5.69967,-6.303612 17.3255,-6.303612 5.58643,0 9.17232,1.396609 3.58589,1.358862 5.85066,3.585887 2.26477,2.189278 3.54814,4.64278 1.32111,2.415755 2.11378,5.661927 1.5476,6.190371 1.5476,12.909191 0,15.06073 -5.09574,22.04377 -5.09573,6.98304 -17.55197,6.98304 -6.98304,0 -11.28611,-2.22702 -4.30306,-2.22702 -7.05853,-6.53009 -2.00055,-3.05744 -3.13294,-8.3419 -1.09464,-5.32222 -1.09464,-11.73907 z m 15.24946,0.0378 q 0,10.56893 1.84956,14.45679 1.88731,3.85011 5.43545,3.85011 2.34027,0 4.03884,-1.62309 1.73633,-1.66083 2.529,-5.20897 0.83041,-3.54814 0.83041,-11.05963 0,-11.021887 -1.88731,-14.796505 -1.84956,-3.812364 -5.58643,-3.812364 -3.81236,0 -5.51094,3.887856 -1.69858,3.850111 -1.69858,14.305803 z" /><path
         transform="scale(1.1665826,0.85720466)"
         inkscape:connector-curvature="0"
         id="path1570"
         d="m 101.53599,209.05305 c -0.28376,-0.0949 -1.869553,-0.59068 -3.523991,-1.10174 C 90.363395,205.58865 83.990892,202.49129 76.359101,197.4269 63.130382,188.64844 53.359967,177.29083 45.882959,161.99992 43.285428,156.68783 41.339969,151.32052 39.943534,145.6137 37.646382,136.22592 37.028092,124.34812 38.282802,113.70983 39.812595,100.73919 44.527973,88.400529 52.588315,76.276787 60.067558,65.027089 69.690206,56.120478 82.034219,49.022 c 5.045417,-2.901389 11.13209,-5.533347 16.715802,-7.228133 18.579149,-5.639203 34.748169,-5.552816 53.414459,0.285381 3.78311,1.183232 6.53925,2.289979 10.65759,4.279629 16.56186,8.001361 29.59203,20.281058 38.51061,36.29258 6.21211,11.152585 9.13748,20.278243 10.65085,33.225233 0.41123,3.51809 0.34419,15.30945 -0.10913,19.19222 -1.21766,10.42964 -3.6814,18.77478 -8.21606,27.82922 -7.416,14.80768 -16.98535,25.8714 -29.68721,34.32324 -4.54394,3.02354 -6.84739,4.35397 -11.07808,6.39848 -4.30409,2.07997 -7.35025,3.27365 -11.7866,4.61872 l -3.36291,1.01961 -22.84582,-0.0163 c -12.5652,-0.009 -23.07798,-0.0939 -23.36173,-0.18884 z m 31.98703,-13.50326 c 5.21662,-0.54579 12.06581,-2.28672 17.64445,-4.48489 6.00496,-2.36614 13.08318,-6.48709 18.16038,-10.57299 3.19975,-2.57501 8.16142,-7.55668 10.8287,-10.87235 4.74639,-5.9002 8.04156,-11.57239 10.90037,-18.7635 2.9061,-7.31007 4.13782,-12.94651 4.9251,-22.53775 0.4112,-5.00944 0.25914,-8.2464 -0.66685,-14.19574 -0.88189,-5.66598 -1.79025,-9.02599 -3.90534,-14.445759 -3.93775,-10.090197 -9.23076,-18.073375 -16.97859,-25.60795 -5.44398,-5.294138 -10.98973,-9.263687 -17.25809,-12.353032 -4.44961,-2.192977 -6.75067,-3.123314 -11.16487,-4.51404 -8.4824,-2.672438 -16.9382,-3.550609 -27.37833,-2.843356 -9.22799,0.625139 -16.58837,2.674471 -25.7156,7.159931 -9.848634,4.839982 -18.760321,12.402038 -25.616669,21.737148 -6.246771,8.505159 -10.862191,19.475068 -12.596119,29.938398 -1.359746,8.20534 -1.38424,14.56876 -0.08857,23.01002 1.477177,9.62381 5.190121,19.14155 10.908519,27.96286 3.390041,5.22953 9.735312,12.19959 14.861767,16.32512 5.077466,4.08611 12.157209,8.20788 18.160378,10.57282 5.855854,2.30691 13.320164,4.1388 18.573114,4.55822 1.58903,0.12688 3.30704,0.26584 3.8178,0.30881 1.79019,0.15062 9.82955,-0.0933 12.58845,-0.38197 z"
         style="fill:#ff7f2a;stroke:#ff7f2a;stroke-width:0.206368px" /></g></g></svg>
