<?xml version="1.0" encoding="UTF-8" standalone="no"?>
<svg
   xmlns:dc="http://purl.org/dc/elements/1.1/"
   xmlns:cc="http://creativecommons.org/ns#"
   xmlns:rdf="http://www.w3.org/1999/02/22-rdf-syntax-ns#"
   xmlns:svg="http://www.w3.org/2000/svg"
   xmlns="http://www.w3.org/2000/svg"
   xmlns:sodipodi="http://sodipodi.sourceforge.net/DTD/sodipodi-0.dtd"
   xmlns:inkscape="http://www.inkscape.org/namespaces/inkscape"
   sodipodi:docname="speed-45.svg"
   inkscape:version="1.0beta2 (2b71d25, 2019-12-03)"
   xml:space="preserve"
   style="enable-background:new 0 0 250 250;"
   viewBox="0 0 250 250"
   y="0px"
   x="0px"
   id="Layer_1"
   version="1.1"><metadata
     id="metadata4205"><rdf:RDF><cc:Work
         rdf:about=""><dc:format>image/svg+xml</dc:format><dc:type
           rdf:resource="http://purl.org/dc/dcmitype/StillImage" /><dc:title /></cc:Work></rdf:RDF></metadata><defs
     id="defs4203" /><sodipodi:namedview
     inkscape:document-rotation="0"
     inkscape:window-maximized="1"
     inkscape:window-y="34"
     inkscape:window-x="191"
     inkscape:current-layer="text3349"
     inkscape:cy="125"
     inkscape:cx="77.432214"
     inkscape:zoom="4.8457143"
     showgrid="false"
     id="namedview4201"
     inkscape:window-height="786"
     inkscape:window-width="1249"
     inkscape:pageshadow="2"
     inkscape:pageopacity="0"
     guidetolerance="10"
     gridtolerance="10"
     objecttolerance="10"
     borderopacity="1"
     bordercolor="#666666"
     pagecolor="#ffffff" /><style
     id="style4196"
     type="text/css">
	.st0{fill-rule:evenodd;clip-rule:evenodd;}
</style><path
     id="XMLID_13_"
     class="st0"
     d="m 212.40034,120.59524 -0.29897,-4.40475 -0.49829,-4.40477 -0.69761,-4.28571 -0.99659,-4.28572 -1.1959,-4.16667 -1.39521,-4.047622 -1.59454,-3.928568 -1.79385,-3.809524 -1.99316,-3.809523 -2.09283,-3.690477 -2.29214,-3.571429 -2.3918,-3.45238 -2.59111,-3.333333 -2.79044,-3.214286 -2.89009,-3.095238 -3.0894,-2.857142 -3.18907,-2.738097 -3.28872,-2.619046 -3.48805,-2.380955 -3.48804,-2.261904 -3.68735,-2.142858 -3.78702,-1.904761 -3.88667,-1.785714 -3.98634,-1.54762 -4.08599,-1.309523 -4.18565,-1.190476 -4.18565,-0.952382 -4.2853,-0.833333 -4.28531,-0.595237 -4.48463,-0.357144 L 125,37.5 l -4.48462,0.119048 -4.48463,0.357144 -4.28531,0.595237 -4.2853,0.833333 -4.18565,0.952382 -4.18565,1.190476 -4.085991,1.309523 -3.986332,1.54762 -3.886674,1.785714 -3.787016,1.904761 -3.687358,2.142858 -3.488041,2.261904 -3.488041,2.380955 -3.288724,2.619046 -3.189066,2.738097 -3.089408,2.857142 -2.890091,3.095238 -2.790433,3.214286 -2.591116,3.333333 -2.3918,3.45238 -2.292141,3.571429 -2.092825,3.690477 -1.993166,3.809523 -1.79385,3.809524 -1.594533,3.928568 -1.395216,4.047622 -1.1959,4.16667 -0.996583,4.28572 -0.697608,4.28571 -0.498292,4.40477 -0.298975,4.40475 -0.09966,4.40477 0.09966,4.40476 0.298975,4.40476 0.498292,4.40476 0.697608,4.28572 0.996583,4.28571 1.1959,4.16667 1.395216,4.04762 1.594533,3.92856 1.79385,3.80953 1.993166,3.80951 2.092825,3.69048 2.292141,3.57144 2.3918,3.45237 2.591116,3.33334 2.790433,3.21429 2.890091,3.09524 3.089408,2.85715 3.189066,2.73809 3.288724,2.61905 3.488041,2.38095 3.488041,2.2619 3.687358,2.14286 3.787016,1.90476 3.886674,1.78571 3.986332,1.54762 4.085991,1.30952 4.18565,1.19049 4.18565,0.95237 4.2853,0.83333 4.28531,0.59524 4.48463,0.35715 L 125,212.5 l 4.48462,-0.11904 4.48463,-0.35715 4.28531,-0.59524 4.2853,-0.83333 4.18565,-0.95237 4.18565,-1.19049 4.08599,-1.30952 3.98634,-1.54762 3.88667,-1.78571 3.78702,-1.90476 3.68735,-2.14286 3.48804,-2.2619 3.48805,-2.38095 3.28872,-2.61905 3.18907,-2.73809 3.0894,-2.85715 2.89009,-3.09524 2.79044,-3.21429 2.59111,-3.33334 2.3918,-3.45237 2.29214,-3.57144 2.09283,-3.69048 1.99316,-3.80951 1.79385,-3.80953 1.59454,-3.92856 1.39521,-4.04762 1.1959,-4.16667 0.99659,-4.28571 0.69761,-4.28572 0.49829,-4.40476 0.29897,-4.40476 0.0997,-4.40476 -0.0997,-4.40477 z m -16.54328,8.09525 -0.29897,3.57142 -0.4983,3.57143 -0.59794,3.57144 -0.79727,3.45236 -0.99658,3.33334 -1.1959,3.33333 -1.29556,3.21429 -1.39522,3.09523 -1.59453,3.09524 -1.69419,2.97621 -1.79385,2.85713 -1.99317,2.73809 -2.09282,2.61906 -2.19249,2.61904 -2.3918,2.38096 -2.3918,2.38096 -2.59111,2.2619 -2.69078,2.14285 -2.79043,1.90476 -2.79043,1.90476 -2.98975,1.66668 -3.08941,1.54761 -3.08941,1.42856 -3.28872,1.30953 -3.28873,1.07144 -3.38838,1.07142 -3.48804,0.71428 -3.48804,0.71429 -3.5877,0.35714 -3.5877,0.2381 -3.5877,0.11904 -3.68736,-0.11904 -3.5877,-0.2381 -3.58769,-0.35714 -3.48805,-0.71429 -3.48804,-0.71428 -3.38838,-1.07142 -3.28872,-1.07144 -3.288726,-1.30953 -3.089408,-1.42856 -3.089408,-1.54761 -2.989749,-1.66668 -2.790433,-1.90476 -2.790433,-1.90476 -2.690774,-2.14285 -2.591116,-2.2619 -2.3918,-2.38096 -2.391799,-2.38096 -2.192483,-2.61904 -2.092825,-2.61906 -1.993166,-2.73809 -1.79385,-2.85713 -1.694191,-2.97621 -1.594533,-3.09524 -1.395217,-3.09523 -1.295558,-3.21429 -1.195899,-3.33333 -0.996584,-3.33334 -0.797266,-3.45236 -0.59795,-3.57144 -0.498292,-3.57143 -0.298974,-3.57142 -0.09966,-3.69048 0.09966,-3.69048 0.298974,-3.57143 0.498292,-3.57143 0.59795,-3.57142 0.797266,-3.4524 0.996584,-3.33332 1.195899,-3.33333 1.295558,-3.214291 1.395217,-3.095243 1.594533,-3.095236 1.694191,-2.976189 1.79385,-2.857144 1.993166,-2.738096 2.092825,-2.619047 2.192483,-2.619048 2.391799,-2.380952 2.3918,-2.380953 2.591116,-2.261905 2.690774,-2.142857 2.790433,-1.904761 2.790433,-1.904762 2.989749,-1.666667 3.089408,-1.547619 3.089408,-1.428572 3.288726,-1.309523 3.28872,-1.071429 3.38838,-1.071428 3.48804,-0.714286 3.48805,-0.714286 3.78701,-0.238095 3.5877,-0.238096 3.68736,-0.119047 3.5877,0.119047 3.5877,0.238096 3.5877,0.357144 3.48804,0.714285 3.48804,0.714285 3.38838,1.071428 3.28873,1.071429 3.28872,1.309524 3.08941,1.428571 3.08941,1.547619 2.98974,1.666667 2.79044,1.904762 2.79043,1.904762 2.69077,2.142857 2.59112,2.261905 2.3918,2.380952 2.3918,2.380954 2.19248,2.619046 2.09283,2.619048 1.99316,2.738095 1.79385,2.857145 1.69419,2.976194 1.59454,3.095237 1.39521,3.095236 1.29556,3.214284 1.1959,3.33332 0.99659,3.33336 0.79726,3.45236 0.59795,3.57145 0.49829,3.57141 0.29898,3.57143 0.0997,3.69048 -0.29898,3.57144 z"
     inkscape:connector-curvature="0"
     style="clip-rule:evenodd;fill-rule:evenodd" /><g
     id="text5478"
     style="font-style:normal;font-variant:normal;font-weight:900;font-stretch:normal;font-size:83.45389557px;line-height:125%;font-family:Arial;-inkscape-font-specification:'Arial, Heavy';text-align:start;letter-spacing:0px;word-spacing:0px;writing-mode:lr-tb;text-anchor:start;fill:#000000;fill-opacity:1;stroke:none;stroke-width:1px;stroke-linecap:butt;stroke-linejoin:miter;stroke-opacity:1"
     transform="scale(0.80963279,1.2351278)"><g
       id="text3349"
       style="font-style:normal;font-weight:normal;font-size:87.15823364px;line-height:125%;font-family:sans-serif;letter-spacing:0px;word-spacing:0px;fill:#000000;fill-opacity:1;stroke:none;stroke-width:1px;stroke-linecap:butt;stroke-linejoin:miter;stroke-opacity:1"
       transform="scale(1.0229516,0.97756336)"><path
         id="path3464"
         style="font-style:normal;font-variant:normal;font-weight:900;font-stretch:normal;font-size:87.15823364px;line-height:125%;font-family:Arial;-inkscape-font-specification:'Arial, Heavy';text-align:start;writing-mode:lr-tb;text-anchor:start"
         d="m 126.2015,123.92103 -31.57784,0 0,-14.25684 31.57784,-37.535919 15.10799,0 0,38.344519 7.83062,0 0,13.44824 -7.83062,0 0,11.66082 -15.10799,0 0,-11.66082 z m 0,-13.44824 0,-19.619117 -16.68263,19.619117 16.68263,0 z" /><path
         id="path3466"
         style="font-style:normal;font-variant:normal;font-weight:900;font-stretch:normal;font-size:87.15823364px;line-height:125%;font-family:Arial;-inkscape-font-specification:'Arial, Heavy';text-align:start;writing-mode:lr-tb;text-anchor:start"
         d="m 161.65209,73.192214 41.15332,0 0,13.831263 -27.87531,0 -1.48952,9.362701 q 2.89392,-1.361848 5.70273,-2.042771 2.85137,-0.680924 5.61762,-0.680924 9.3627,0 15.19311,5.660178 5.83041,5.660179 5.83041,14.256839 0,6.0432 -3.0216,11.61826 -2.97904,5.57506 -8.51154,8.51155 -5.48995,2.93648 -14.08661,2.93648 -6.17087,0 -10.59688,-1.14906 -4.38344,-1.19161 -7.49016,-3.48973 -3.06415,-2.34068 -4.97925,-5.27716 -1.9151,-2.93648 -3.19183,-7.31993 l 17.53378,-1.9151 q 0.63837,4.21322 2.97904,6.42622 2.34068,2.17044 5.57507,2.17044 3.6174,0 5.95808,-2.72369 2.38323,-2.76625 2.38323,-8.21364 0,-5.57507 -2.38323,-8.17109 -2.38323,-2.59602 -6.3411,-2.59602 -2.51091,0 -4.85158,1.23418 -1.74487,0.89371 -3.8302,3.23438 l -14.76753,-2.12788 5.48995,-33.535496 z" /><path
         transform="scale(1.2074157,0.82821518)"
         inkscape:connector-curvature="0"
         id="path1332"
         d="m 119.38681,212.18736 c -8.26728,-0.57215 -18.44767,-2.87604 -26.506296,-5.99853 -2.845244,-1.10245 -8.651306,-3.90045 -11.259031,-5.42583 -15.761689,-9.21977 -26.960601,-21.23553 -35.278694,-37.85192 -4.390352,-8.77026 -6.953141,-17.26185 -8.072208,-26.74658 -1.214092,-10.29011 -0.604603,-22.52168 1.558859,-31.28407 2.073446,-8.397813 4.991611,-15.583059 9.536629,-23.481548 6.64879,-11.554499 15.81954,-21.397786 26.68348,-28.640315 9.757366,-6.504824 18.696445,-10.346482 30.129721,-12.948544 14.20367,-3.232569 27.97682,-2.855899 42.20224,1.154151 6.00467,1.692677 9.38444,2.947381 14.39162,5.342734 12.12051,5.798258 23.17123,14.696548 31.24756,25.161253 1.89024,2.449222 5.2304,7.496962 6.82783,10.318396 6.38035,11.26918 9.61063,20.973943 11.02485,33.122053 0.45566,3.91415 0.52055,15.42131 0.10823,19.19222 -1.16375,10.64308 -3.56492,19.12417 -7.94608,28.06603 -7.43063,15.16583 -17.28601,26.59038 -30.47713,35.32973 -4.19532,2.77947 -5.90755,3.76269 -10.40428,5.9745 -4.2952,2.11268 -7.7803,3.48822 -12.26325,4.84019 -11.09141,3.34496 -21.20279,4.58901 -31.50405,3.87608 z m 12.48526,-16.50796 c 6.0721,-0.43582 14.53767,-2.55616 20.61815,-5.16412 6.06825,-2.60273 11.97526,-6.13057 17.044,-10.17918 1.13502,-0.90659 3.55888,-3.13677 5.38634,-4.95596 8.23945,-8.20212 13.78117,-17.18398 17.6049,-28.53349 1.83035,-5.43279 2.82124,-10.72464 3.45587,-18.45612 0.30948,-3.77028 0.32254,-4.7829 0.0997,-7.73342 -0.7517,-9.95495 -2.92513,-18.02524 -7.22095,-26.812486 -3.67443,-7.51618 -7.85511,-13.257608 -14.20025,-19.501527 -5.58353,-5.49447 -10.41661,-9.015045 -16.89579,-12.307467 -4.48704,-2.280104 -7.19629,-3.402213 -11.54944,-4.783503 -6.09102,-1.932733 -11.4697,-2.817451 -18.5156,-3.045564 -13.38653,-0.433392 -23.32611,1.650672 -34.810799,7.298891 -3.845914,1.891436 -9.121692,5.267733 -12.599154,8.06298 -4.417743,3.551062 -10.125459,9.639601 -13.581971,14.48817 -4.780521,6.705804 -9.206068,16.478186 -11.11402,24.541706 -2.386687,10.08679 -2.508291,20.53573 -0.362362,31.13638 1.796644,8.87523 6.587563,19.60708 12.04098,26.97227 8.013652,10.82295 17.976726,18.71799 30.169329,23.90707 3.596167,1.5305 9.611147,3.34768 13.691057,4.1362 3.28718,0.6353 6.30146,0.96376 11.35023,1.2368 1.65157,0.0893 5.71335,-0.0438 9.38974,-0.30763 z"
         style="fill:#ff7f2a;stroke:#ff7f2a;stroke-width:0.206368px" /></g></g></svg>
