<?xml version="1.0" encoding="UTF-8" standalone="no"?>
<svg
   xmlns:dc="http://purl.org/dc/elements/1.1/"
   xmlns:cc="http://creativecommons.org/ns#"
   xmlns:rdf="http://www.w3.org/1999/02/22-rdf-syntax-ns#"
   xmlns:svg="http://www.w3.org/2000/svg"
   xmlns="http://www.w3.org/2000/svg"
   xmlns:sodipodi="http://sodipodi.sourceforge.net/DTD/sodipodi-0.dtd"
   xmlns:inkscape="http://www.inkscape.org/namespaces/inkscape"
   sodipodi:docname="speed-30.svg"
   inkscape:version="1.0beta2 (2b71d25, 2019-12-03)"
   xml:space="preserve"
   style="enable-background:new 0 0 250 250;"
   viewBox="0 0 250 250"
   y="0px"
   x="0px"
   id="Layer_1"
   version="1.1"><metadata
     id="metadata4205"><rdf:RDF><cc:Work
         rdf:about=""><dc:format>image/svg+xml</dc:format><dc:type
           rdf:resource="http://purl.org/dc/dcmitype/StillImage" /><dc:title /></cc:Work></rdf:RDF></metadata><defs
     id="defs4203" /><sodipodi:namedview
     inkscape:document-rotation="0"
     inkscape:window-maximized="0"
     inkscape:window-y="23"
     inkscape:window-x="0"
     inkscape:current-layer="text5478"
     inkscape:cy="125"
     inkscape:cx="125.00002"
     inkscape:zoom="4.8457143"
     showgrid="false"
     id="namedview4201"
     inkscape:window-height="797"
     inkscape:window-width="1440"
     inkscape:pageshadow="2"
     inkscape:pageopacity="0"
     guidetolerance="10"
     gridtolerance="10"
     objecttolerance="10"
     borderopacity="1"
     bordercolor="#666666"
     pagecolor="#ffffff" /><style
     id="style4196"
     type="text/css">
	.st0{fill-rule:evenodd;clip-rule:evenodd;}
</style><path
     id="XMLID_13_"
     class="st0"
     d="m 212.40034,120.59524 -0.29897,-4.40475 -0.49829,-4.40477 -0.69761,-4.28571 -0.99659,-4.28572 -1.1959,-4.16667 -1.39521,-4.047622 -1.59454,-3.928568 -1.79385,-3.809524 -1.99316,-3.809523 -2.09283,-3.690477 -2.29214,-3.571429 -2.3918,-3.45238 -2.59111,-3.333333 -2.79044,-3.214286 -2.89009,-3.095238 -3.0894,-2.857142 -3.18907,-2.738097 -3.28872,-2.619046 -3.48805,-2.380955 -3.48804,-2.261904 -3.68735,-2.142858 -3.78702,-1.904761 -3.88667,-1.785714 -3.98634,-1.54762 -4.08599,-1.309523 -4.18565,-1.190476 -4.18565,-0.952382 -4.2853,-0.833333 -4.28531,-0.595237 -4.48463,-0.357144 L 125,37.5 l -4.48462,0.119048 -4.48463,0.357144 -4.28531,0.595237 -4.2853,0.833333 -4.18565,0.952382 -4.18565,1.190476 -4.085991,1.309523 -3.986332,1.54762 -3.886674,1.785714 -3.787016,1.904761 -3.687358,2.142858 -3.488041,2.261904 -3.488041,2.380955 -3.288724,2.619046 -3.189066,2.738097 -3.089408,2.857142 -2.890091,3.095238 -2.790433,3.214286 -2.591116,3.333333 -2.3918,3.45238 -2.292141,3.571429 -2.092825,3.690477 -1.993166,3.809523 -1.79385,3.809524 -1.594533,3.928568 -1.395216,4.047622 -1.1959,4.16667 -0.996583,4.28572 -0.697608,4.28571 -0.498292,4.40477 -0.298975,4.40475 -0.09966,4.40477 0.09966,4.40476 0.298975,4.40476 0.498292,4.40476 0.697608,4.28572 0.996583,4.28571 1.1959,4.16667 1.395216,4.04762 1.594533,3.92856 1.79385,3.80953 1.993166,3.80951 2.092825,3.69048 2.292141,3.57144 2.3918,3.45237 2.591116,3.33334 2.790433,3.21429 2.890091,3.09524 3.089408,2.85715 3.189066,2.73809 3.288724,2.61905 3.488041,2.38095 3.488041,2.2619 3.687358,2.14286 3.787016,1.90476 3.886674,1.78571 3.986332,1.54762 4.085991,1.30952 4.18565,1.19049 4.18565,0.95237 4.2853,0.83333 4.28531,0.59524 4.48463,0.35715 L 125,212.5 l 4.48462,-0.11904 4.48463,-0.35715 4.28531,-0.59524 4.2853,-0.83333 4.18565,-0.95237 4.18565,-1.19049 4.08599,-1.30952 3.98634,-1.54762 3.88667,-1.78571 3.78702,-1.90476 3.68735,-2.14286 3.48804,-2.2619 3.48805,-2.38095 3.28872,-2.61905 3.18907,-2.73809 3.0894,-2.85715 2.89009,-3.09524 2.79044,-3.21429 2.59111,-3.33334 2.3918,-3.45237 2.29214,-3.57144 2.09283,-3.69048 1.99316,-3.80951 1.79385,-3.80953 1.59454,-3.92856 1.39521,-4.04762 1.1959,-4.16667 0.99659,-4.28571 0.69761,-4.28572 0.49829,-4.40476 0.29897,-4.40476 0.0997,-4.40476 -0.0997,-4.40477 z m -16.54328,8.09525 -0.29897,3.57142 -0.4983,3.57143 -0.59794,3.57144 -0.79727,3.45236 -0.99658,3.33334 -1.1959,3.33333 -1.29556,3.21429 -1.39522,3.09523 -1.59453,3.09524 -1.69419,2.97621 -1.79385,2.85713 -1.99317,2.73809 -2.09282,2.61906 -2.19249,2.61904 -2.3918,2.38096 -2.3918,2.38096 -2.59111,2.2619 -2.69078,2.14285 -2.79043,1.90476 -2.79043,1.90476 -2.98975,1.66668 -3.08941,1.54761 -3.08941,1.42856 -3.28872,1.30953 -3.28873,1.07144 -3.38838,1.07142 -3.48804,0.71428 -3.48804,0.71429 -3.5877,0.35714 -3.5877,0.2381 -3.5877,0.11904 -3.68736,-0.11904 -3.5877,-0.2381 -3.58769,-0.35714 -3.48805,-0.71429 -3.48804,-0.71428 -3.38838,-1.07142 -3.28872,-1.07144 -3.288726,-1.30953 -3.089408,-1.42856 -3.089408,-1.54761 -2.989749,-1.66668 -2.790433,-1.90476 -2.790433,-1.90476 -2.690774,-2.14285 -2.591116,-2.2619 -2.3918,-2.38096 -2.391799,-2.38096 -2.192483,-2.61904 -2.092825,-2.61906 -1.993166,-2.73809 -1.79385,-2.85713 -1.694191,-2.97621 -1.594533,-3.09524 -1.395217,-3.09523 -1.295558,-3.21429 -1.195899,-3.33333 -0.996584,-3.33334 -0.797266,-3.45236 -0.59795,-3.57144 -0.498292,-3.57143 -0.298974,-3.57142 -0.09966,-3.69048 0.09966,-3.69048 0.298974,-3.57143 0.498292,-3.57143 0.59795,-3.57142 0.797266,-3.4524 0.996584,-3.33332 1.195899,-3.33333 1.295558,-3.214291 1.395217,-3.095243 1.594533,-3.095236 1.694191,-2.976189 1.79385,-2.857144 1.993166,-2.738096 2.092825,-2.619047 2.192483,-2.619048 2.391799,-2.380952 2.3918,-2.380953 2.591116,-2.261905 2.690774,-2.142857 2.790433,-1.904761 2.790433,-1.904762 2.989749,-1.666667 3.089408,-1.547619 3.089408,-1.428572 3.288726,-1.309523 3.28872,-1.071429 3.38838,-1.071428 3.48804,-0.714286 3.48805,-0.714286 3.78701,-0.238095 3.5877,-0.238096 3.68736,-0.119047 3.5877,0.119047 3.5877,0.238096 3.5877,0.357144 3.48804,0.714285 3.48804,0.714285 3.38838,1.071428 3.28873,1.071429 3.28872,1.309524 3.08941,1.428571 3.08941,1.547619 2.98974,1.666667 2.79044,1.904762 2.79043,1.904762 2.69077,2.142857 2.59112,2.261905 2.3918,2.380952 2.3918,2.380954 2.19248,2.619046 2.09283,2.619048 1.99316,2.738095 1.79385,2.857145 1.69419,2.976194 1.59454,3.095237 1.39521,3.095236 1.29556,3.214284 1.1959,3.33332 0.99659,3.33336 0.79726,3.45236 0.59795,3.57145 0.49829,3.57141 0.29898,3.57143 0.0997,3.69048 -0.29898,3.57144 z"
     inkscape:connector-curvature="0"
     style="fill:#ff7f2a;stroke:#ff7f2a" /><g
     id="text5478"
     style="font-style:normal;font-variant:normal;font-weight:900;font-stretch:normal;font-size:83.45389557px;line-height:125%;font-family:Arial;-inkscape-font-specification:'Arial, Heavy';text-align:start;letter-spacing:0px;word-spacing:0px;writing-mode:lr-tb;text-anchor:start;fill:#000000;fill-opacity:1;stroke:none;stroke-width:1px;stroke-linecap:butt;stroke-linejoin:miter;stroke-opacity:1"
     transform="scale(0.80963279,1.2351278)"><path
       id="path5037"
       style=""
       d="m 118.69418,90.515111 -15.68835,-2.811679 q 1.95595,-7.497811 7.49781,-11.49121 5.58261,-3.9934 15.76985,-3.9934 11.69495,0 16.91082,4.36014 5.21587,4.36014 5.21587,10.961474 0,3.871152 -2.11895,7.008823 -2.11894,3.137671 -6.39758,5.501111 3.46366,0.85573 5.29736,1.9967 2.97468,1.8337 4.60464,4.84913 1.6707,2.97467 1.6707,7.13107 0,5.21587 -2.73018,10.02425 -2.73018,4.76762 -7.86455,7.37556 -5.13437,2.56718 -13.48791,2.56718 -8.14979,0 -12.87667,-1.9152 -4.68614,-1.9152 -7.74231,-5.58261 -3.01542,-3.70815 -4.64538,-9.29076 l 16.58483,-2.20045 q 0.97798,5.01213 3.01542,6.96808 2.0782,1.9152 5.25662,1.9152 3.34142,0 5.54186,-2.44494 2.2412,-2.44494 2.2412,-6.51983 0,-4.1564 -2.1597,-6.43834 -2.11895,-2.28194 -5.78635,-2.28194 -1.95595,0 -5.37887,0.97797 l 0.85573,-11.85795 q 1.38547,0.203744 2.1597,0.203744 3.25991,0 5.41961,-2.078197 2.20044,-2.078198 2.20044,-4.930626 0,-2.730181 -1.62996,-4.36014 -1.62995,-1.629959 -4.48238,-1.629959 -2.93393,0 -4.76763,1.792955 -1.83371,1.752206 -2.48569,6.193844 z" /><path
       id="path5039"
       style=""
       d="m 158.34293,102.86205 q 0,-17.033071 6.11235,-23.838149 6.15309,-6.805079 18.70378,-6.805079 6.03084,0 9.902,1.507712 3.87115,1.466963 6.31609,3.871153 2.44493,2.36344 3.8304,5.012123 1.42621,2.607934 2.28194,6.112346 1.67071,6.682832 1.67071,13.936144 0,16.25884 -5.50111,23.7974 -5.50111,7.53856 -18.94827,7.53856 -7.53856,0 -12.18395,-2.40418 -4.64538,-2.40419 -7.62005,-7.04958 -2.1597,-3.30066 -3.38217,-9.00552 -1.18172,-5.74561 -1.18172,-12.67293 z m 16.46259,0.0408 q 0,11.40971 1.9967,15.60685 2.03744,4.1564 5.86785,4.1564 2.52643,0 4.36014,-1.75221 1.87445,-1.79295 2.73018,-5.62335 0.89648,-3.83041 0.89648,-11.93945 0,-11.898703 -2.03745,-15.9736 -1.9967,-4.115646 -6.03085,-4.115646 -4.11565,0 -5.94935,4.197144 -1.8337,4.156395 -1.8337,15.443862 z" /><path
       transform="scale(1.2351278,0.80963282)"
       d="M 125.20703 37.671875 C 115.64813 37.667119 107.33233 39.04071 97.140625 42.308594 C 90.083775 44.571311 83.225957 47.972157 75.988281 52.798828 C 63.06537 61.416879 52.961699 73.279476 45.742188 88.3125 C 41.530351 97.082709 39.318312 104.83659 38.082031 115.15625 C 37.903442 116.647 37.810547 120.01238 37.810547 124.95898 C 37.810547 132.65361 37.909004 134.18237 38.771484 139.71484 C 40.551785 151.13476 45.26813 162.72862 52.621094 173.76562 C 59.964932 184.78893 69.372331 193.57954 81.330078 200.58984 C 83.909621 202.10211 90.637043 205.35348 93.248047 206.34961 C 101.48417 209.4918 112.00397 211.77935 120.25391 212.22461 C 124.86792 212.47359 124.73943 212.47395 129.02344 212.25195 C 134.92625 211.94607 139.24744 211.29465 145.5332 209.76367 C 149.27762 208.85166 153.79191 207.47844 156.74023 206.35352 C 159.35691 205.35514 166.08272 202.10547 168.66992 200.58984 C 180.61453 193.59245 190.03289 184.79219 197.37891 173.76562 C 204.73049 162.7307 209.47704 151.06669 211.23242 139.71484 C 212.09357 134.14607 212.19141 132.64304 212.19141 124.95898 C 212.19141 120.01238 212.09656 116.647 211.91797 115.15625 C 210.65966 104.65273 208.44965 96.990748 204.05859 87.916016 C 198.60786 76.651334 191.529 67.17845 182.99023 59.722656 C 173.85473 51.745818 163.33046 45.663683 152.85938 42.308594 C 142.82636 39.093867 134.37475 37.676475 125.20703 37.671875 z M 123.96875 54.294922 C 127.47592 54.287116 129.70973 54.315854 131.55078 54.386719 C 132.99391 54.487278 134.36474 54.621289 135.62891 54.791016 C 138.46813 55.172211 143.73326 56.434775 147.08203 57.539062 C 157.74765 61.05615 166.59995 66.412189 174.60547 74.189453 C 182.84469 82.19374 188.89145 91.860219 192.67773 103.08398 C 194.77964 109.31472 196.15776 117.39815 196.1875 123.57422 C 196.1837 124.06069 196.17846 124.55057 196.16406 125.05664 C 196.1596 125.20652 196.15828 125.34359 196.15234 125.49805 C 196.14143 125.81734 196.12042 126.15119 196.10547 126.47656 C 195.83523 131.46211 194.93067 138.18713 193.94336 142.08789 C 191.89271 150.18979 187.58653 159.55373 182.93555 166.02539 C 175.11033 176.9139 164.91023 185.14905 152.75586 190.39258 C 147.40741 192.69996 139.27641 194.92908 133.97656 195.54102 C 132.11343 195.75612 120.66704 195.9775 119.11914 195.82812 C 114.75634 195.40709 113.28626 195.19803 110.24414 194.56836 C 104.08325 193.29317 98.628962 191.34879 92.408203 188.21094 C 86.045752 185.00161 80.89009 181.29982 75.59375 176.13867 C 69.033415 169.74579 64.810673 163.96953 61.033203 156.22266 C 56.58387 147.09792 54.452882 138.98791 53.783203 128.63086 C 53.724586 127.72431 53.695342 126.77927 53.685547 125.81445 C 53.68464 125.62791 53.686827 125.44212 53.6875 125.25586 C 53.682286 118.15398 54.924541 109.82763 57.003906 103.59961 C 59.123799 97.250199 62.384138 90.506857 65.861328 85.28125 C 67.988447 82.084561 71.365017 78.054118 74.730469 74.695312 C 78.667672 70.765887 81.129571 68.746301 85.783203 65.626953 C 95.239932 59.288073 107.43754 55.033381 118.01758 54.384766 C 118.44464 54.358584 118.86472 54.355376 119.29102 54.333984 C 120.50374 54.313381 121.93289 54.299454 123.96875 54.294922 z "
       style="fill:#ff7f2a;stroke:#ff7f2a;stroke-width:0.20636800000000000px"
       id="path1269" /><path
       transform="scale(1.2351278,0.80963282)"
       inkscape:connector-curvature="0"
       id="path1274"
       d="m 117.67396,212.55283 c -6.55136,-0.61177 -13.28757,-2.0162 -20.164473,-4.20409 -11.573475,-3.6821 -22.51866,-10.13123 -32.401884,-19.09187 -8.60614,-7.80277 -16.446403,-19.14377 -21.602498,-31.2482 -5.596933,-13.13933 -7.583706,-28.73225 -5.683545,-44.60655 1.073346,-8.96693 3.57173,-17.373054 7.636161,-25.692804 7.548503,-15.451524 17.59433,-27.051879 31.045837,-35.849982 8.232115,-5.384303 14.691217,-8.393009 23.621272,-11.002998 17.37831,-5.079158 33.46467,-4.946548 51.1871,0.421967 11.35861,3.440777 22.12754,9.501517 31.87668,17.940163 12.90818,11.173048 23.24632,28.186453 27.34426,45.000284 3.12743,12.83178 3.12272,28.74005 -0.0123,41.54949 -3.92932,16.05491 -13.74949,32.71884 -25.62813,43.48863 -9.6849,8.78082 -20.48425,15.21438 -31.62001,18.83715 -12.33615,4.01329 -24.3094,5.51297 -35.59847,4.45881 z m 15.99351,-17.51875 c 10.51625,-1.2019 21.9151,-5.51421 30.89197,-11.68678 4.06964,-2.79832 5.59482,-4.06432 9.41937,-7.81876 3.60025,-3.53425 5.21457,-5.35783 7.802,-8.81337 5.11199,-6.82713 9.93955,-17.22834 11.90956,-25.65975 1.17895,-5.04574 2.21166,-14.78825 1.99063,-18.77948 -0.59917,-10.81951 -2.96964,-19.67171 -7.84545,-29.297822 -3.6049,-7.116986 -7.45538,-12.304365 -13.6481,-18.386754 -3.60332,-3.539119 -5.88416,-5.4231 -9.77116,-8.071015 -8.8001,-5.994844 -20.21463,-10.264936 -30.54245,-11.425713 -7.432,-0.835307 -17.08342,-0.498858 -23.47931,0.81849 -8.62654,1.776791 -17.96978,5.734976 -25.120335,10.642019 -4.206121,2.886437 -5.617249,4.060144 -9.66575,8.039506 -5.814402,5.715106 -9.519789,10.623451 -13.117228,17.375752 -3.045844,5.716971 -5.684777,12.936297 -6.815716,18.645757 -1.15267,5.81916 -1.349354,7.93559 -1.342472,14.44575 0.006,5.69162 0.05223,6.49069 0.572927,9.90566 0.721048,4.72899 1.357366,7.48245 2.601067,11.25525 2.370705,7.19158 6.198306,14.79906 10.112379,20.09868 7.718227,10.45041 17.02853,17.99241 28.686987,23.23849 6.006291,2.70271 14.819521,5.06118 20.748461,5.5524 1.47554,0.12224 3.05425,0.25902 3.50826,0.30395 1.66434,0.1647 10.59904,-0.0959 13.10436,-0.38226 z"
       style="fill:#ff7f2a;stroke:#ff7f2a;stroke-width:0.206368px" /></g></svg>
