<?xml version="1.0" encoding="UTF-8" standalone="no"?>
<svg
   xmlns:dc="http://purl.org/dc/elements/1.1/"
   xmlns:cc="http://creativecommons.org/ns#"
   xmlns:rdf="http://www.w3.org/1999/02/22-rdf-syntax-ns#"
   xmlns:svg="http://www.w3.org/2000/svg"
   xmlns="http://www.w3.org/2000/svg"
   xmlns:sodipodi="http://sodipodi.sourceforge.net/DTD/sodipodi-0.dtd"
   xmlns:inkscape="http://www.inkscape.org/namespaces/inkscape"
   sodipodi:docname="speed-60.svg"
   inkscape:version="1.0beta2 (2b71d25, 2019-12-03)"
   xml:space="preserve"
   style="enable-background:new 0 0 250 250;"
   viewBox="0 0 250 250"
   y="0px"
   x="0px"
   id="Layer_1"
   version="1.1"><metadata
     id="metadata4205"><rdf:RDF><cc:Work
         rdf:about=""><dc:format>image/svg+xml</dc:format><dc:type
           rdf:resource="http://purl.org/dc/dcmitype/StillImage" /><dc:title /></cc:Work></rdf:RDF></metadata><defs
     id="defs4203" /><sodipodi:namedview
     inkscape:document-rotation="0"
     inkscape:window-maximized="1"
     inkscape:window-y="34"
     inkscape:window-x="191"
     inkscape:current-layer="text5478"
     inkscape:cy="125"
     inkscape:cx="125.00002"
     inkscape:zoom="4.8457143"
     showgrid="false"
     id="namedview4201"
     inkscape:window-height="786"
     inkscape:window-width="1249"
     inkscape:pageshadow="2"
     inkscape:pageopacity="0"
     guidetolerance="10"
     gridtolerance="10"
     objecttolerance="10"
     borderopacity="1"
     bordercolor="#666666"
     pagecolor="#ffffff" /><style
     id="style4196"
     type="text/css">
	.st0{fill-rule:evenodd;clip-rule:evenodd;}
</style><path
     id="XMLID_13_"
     class="st0"
     d="m 212.40034,120.59524 -0.29897,-4.40475 -0.49829,-4.40477 -0.69761,-4.28571 -0.99659,-4.28572 -1.1959,-4.16667 -1.39521,-4.047622 -1.59454,-3.928568 -1.79385,-3.809524 -1.99316,-3.809523 -2.09283,-3.690477 -2.29214,-3.571429 -2.3918,-3.45238 -2.59111,-3.333333 -2.79044,-3.214286 -2.89009,-3.095238 -3.0894,-2.857142 -3.18907,-2.738097 -3.28872,-2.619046 -3.48805,-2.380955 -3.48804,-2.261904 -3.68735,-2.142858 -3.78702,-1.904761 -3.88667,-1.785714 -3.98634,-1.54762 -4.08599,-1.309523 -4.18565,-1.190476 -4.18565,-0.952382 -4.2853,-0.833333 -4.28531,-0.595237 -4.48463,-0.357144 L 125,37.5 l -4.48462,0.119048 -4.48463,0.357144 -4.28531,0.595237 -4.2853,0.833333 -4.18565,0.952382 -4.18565,1.190476 -4.085991,1.309523 -3.986332,1.54762 -3.886674,1.785714 -3.787016,1.904761 -3.687358,2.142858 -3.488041,2.261904 -3.488041,2.380955 -3.288724,2.619046 -3.189066,2.738097 -3.089408,2.857142 -2.890091,3.095238 -2.790433,3.214286 -2.591116,3.333333 -2.3918,3.45238 -2.292141,3.571429 -2.092825,3.690477 -1.993166,3.809523 -1.79385,3.809524 -1.594533,3.928568 -1.395216,4.047622 -1.1959,4.16667 -0.996583,4.28572 -0.697608,4.28571 -0.498292,4.40477 -0.298975,4.40475 -0.09966,4.40477 0.09966,4.40476 0.298975,4.40476 0.498292,4.40476 0.697608,4.28572 0.996583,4.28571 1.1959,4.16667 1.395216,4.04762 1.594533,3.92856 1.79385,3.80953 1.993166,3.80951 2.092825,3.69048 2.292141,3.57144 2.3918,3.45237 2.591116,3.33334 2.790433,3.21429 2.890091,3.09524 3.089408,2.85715 3.189066,2.73809 3.288724,2.61905 3.488041,2.38095 3.488041,2.2619 3.687358,2.14286 3.787016,1.90476 3.886674,1.78571 3.986332,1.54762 4.085991,1.30952 4.18565,1.19049 4.18565,0.95237 4.2853,0.83333 4.28531,0.59524 4.48463,0.35715 L 125,212.5 l 4.48462,-0.11904 4.48463,-0.35715 4.28531,-0.59524 4.2853,-0.83333 4.18565,-0.95237 4.18565,-1.19049 4.08599,-1.30952 3.98634,-1.54762 3.88667,-1.78571 3.78702,-1.90476 3.68735,-2.14286 3.48804,-2.2619 3.48805,-2.38095 3.28872,-2.61905 3.18907,-2.73809 3.0894,-2.85715 2.89009,-3.09524 2.79044,-3.21429 2.59111,-3.33334 2.3918,-3.45237 2.29214,-3.57144 2.09283,-3.69048 1.99316,-3.80951 1.79385,-3.80953 1.59454,-3.92856 1.39521,-4.04762 1.1959,-4.16667 0.99659,-4.28571 0.69761,-4.28572 0.49829,-4.40476 0.29897,-4.40476 0.0997,-4.40476 -0.0997,-4.40477 z m -16.54328,8.09525 -0.29897,3.57142 -0.4983,3.57143 -0.59794,3.57144 -0.79727,3.45236 -0.99658,3.33334 -1.1959,3.33333 -1.29556,3.21429 -1.39522,3.09523 -1.59453,3.09524 -1.69419,2.97621 -1.79385,2.85713 -1.99317,2.73809 -2.09282,2.61906 -2.19249,2.61904 -2.3918,2.38096 -2.3918,2.38096 -2.59111,2.2619 -2.69078,2.14285 -2.79043,1.90476 -2.79043,1.90476 -2.98975,1.66668 -3.08941,1.54761 -3.08941,1.42856 -3.28872,1.30953 -3.28873,1.07144 -3.38838,1.07142 -3.48804,0.71428 -3.48804,0.71429 -3.5877,0.35714 -3.5877,0.2381 -3.5877,0.11904 -3.68736,-0.11904 -3.5877,-0.2381 -3.58769,-0.35714 -3.48805,-0.71429 -3.48804,-0.71428 -3.38838,-1.07142 -3.28872,-1.07144 -3.288726,-1.30953 -3.089408,-1.42856 -3.089408,-1.54761 -2.989749,-1.66668 -2.790433,-1.90476 -2.790433,-1.90476 -2.690774,-2.14285 -2.591116,-2.2619 -2.3918,-2.38096 -2.391799,-2.38096 -2.192483,-2.61904 -2.092825,-2.61906 -1.993166,-2.73809 -1.79385,-2.85713 -1.694191,-2.97621 -1.594533,-3.09524 -1.395217,-3.09523 -1.295558,-3.21429 -1.195899,-3.33333 -0.996584,-3.33334 -0.797266,-3.45236 -0.59795,-3.57144 -0.498292,-3.57143 -0.298974,-3.57142 -0.09966,-3.69048 0.09966,-3.69048 0.298974,-3.57143 0.498292,-3.57143 0.59795,-3.57142 0.797266,-3.4524 0.996584,-3.33332 1.195899,-3.33333 1.295558,-3.214291 1.395217,-3.095243 1.594533,-3.095236 1.694191,-2.976189 1.79385,-2.857144 1.993166,-2.738096 2.092825,-2.619047 2.192483,-2.619048 2.391799,-2.380952 2.3918,-2.380953 2.591116,-2.261905 2.690774,-2.142857 2.790433,-1.904761 2.790433,-1.904762 2.989749,-1.666667 3.089408,-1.547619 3.089408,-1.428572 3.288726,-1.309523 3.28872,-1.071429 3.38838,-1.071428 3.48804,-0.714286 3.48805,-0.714286 3.78701,-0.238095 3.5877,-0.238096 3.68736,-0.119047 3.5877,0.119047 3.5877,0.238096 3.5877,0.357144 3.48804,0.714285 3.48804,0.714285 3.38838,1.071428 3.28873,1.071429 3.28872,1.309524 3.08941,1.428571 3.08941,1.547619 2.98974,1.666667 2.79044,1.904762 2.79043,1.904762 2.69077,2.142857 2.59112,2.261905 2.3918,2.380952 2.3918,2.380954 2.19248,2.619046 2.09283,2.619048 1.99316,2.738095 1.79385,2.857145 1.69419,2.976194 1.59454,3.095237 1.39521,3.095236 1.29556,3.214284 1.1959,3.33332 0.99659,3.33336 0.79726,3.45236 0.59795,3.57145 0.49829,3.57141 0.29898,3.57143 0.0997,3.69048 -0.29898,3.57144 z"
     inkscape:connector-curvature="0"
     style="fill:#ff7f2a;stroke:#ff7f2a" /><g
     id="text5478"
     style="font-style:normal;font-variant:normal;font-weight:900;font-stretch:normal;font-size:83.45389557px;line-height:125%;font-family:Arial;-inkscape-font-specification:'Arial, Heavy';text-align:start;letter-spacing:0px;word-spacing:0px;writing-mode:lr-tb;text-anchor:start;fill:#000000;fill-opacity:1;stroke:none;stroke-width:1px;stroke-linecap:butt;stroke-linejoin:miter;stroke-opacity:1"
     transform="scale(0.80963279,1.2351278)"><path
       id="path5076"
       style=""
       d="m 150.64137,86.684707 -16.50333,2.037449 q -0.65198,-3.463663 -2.20044,-4.889877 -1.50772,-1.426214 -3.74891,-1.426214 -4.03415,0 -6.27534,4.074898 -1.62996,2.933926 -2.40419,12.550683 2.97467,-3.015424 6.11235,-4.441638 3.13767,-1.466963 7.25331,-1.466963 7.9868,0 13.48791,5.704856 5.54186,5.704859 5.54186,14.465889 0,5.9086 -2.81168,10.79847 -2.77093,4.88988 -7.7423,7.41632 -4.93063,2.48568 -12.38769,2.48568 -8.96477,0 -14.38439,-3.05617 -5.41961,-3.05617 -8.67953,-9.739 -3.21917,-6.72358 -3.21917,-17.76655 0,-16.177347 6.80508,-23.675158 6.80508,-7.53856 18.86678,-7.53856 7.13107,0 11.24671,1.670708 4.1564,1.629959 6.88658,4.808379 2.73018,3.17842 4.15639,7.986798 z m -30.56172,26.609083 q 0,4.84912 2.44493,7.62005 2.44494,2.73019 5.9901,2.73019 3.25992,0 5.46037,-2.48569 2.20044,-2.48569 2.20044,-7.41631 0,-5.05288 -2.28194,-7.70156 -2.28195,-2.64868 -5.66411,-2.64868 -3.46366,0 -5.8271,2.56718 -2.32269,2.56719 -2.32269,7.33482 z" /><path
       id="path5078"
       style=""
       d="m 158.34293,102.86205 q 0,-17.033071 6.11235,-23.838149 6.15309,-6.805079 18.70378,-6.805079 6.03084,0 9.902,1.507712 3.87115,1.466963 6.31609,3.871153 2.44493,2.36344 3.8304,5.012123 1.42621,2.607934 2.28194,6.112346 1.67071,6.682832 1.67071,13.936144 0,16.25884 -5.50111,23.7974 -5.50111,7.53856 -18.94827,7.53856 -7.53856,0 -12.18395,-2.40418 -4.64538,-2.40419 -7.62005,-7.04958 -2.1597,-3.30066 -3.38217,-9.00552 -1.18172,-5.74561 -1.18172,-12.67293 z m 16.46259,0.0408 q 0,11.40971 1.9967,15.60685 2.03744,4.1564 5.86785,4.1564 2.52643,0 4.36014,-1.75221 1.87445,-1.79295 2.73018,-5.62335 0.89648,-3.83041 0.89648,-11.93945 0,-11.898703 -2.03745,-15.9736 -1.9967,-4.115646 -6.03085,-4.115646 -4.11565,0 -5.94935,4.197144 -1.8337,4.156395 -1.8337,15.443862 z" /><path
       transform="scale(1.2351278,0.80963282)"
       inkscape:connector-curvature="0"
       id="path1371"
       d="m 119.28363,212.18965 c -6.13024,-0.41859 -13.17203,-1.77603 -20.244014,-3.90243 -14.821961,-4.45665 -29.091042,-13.66374 -39.494245,-25.48356 -5.185919,-5.8921 -9.267864,-12.03965 -13.181087,-19.8512 -4.551648,-9.08596 -6.937065,-17.13075 -8.218443,-27.71661 -0.456427,-3.77068 -0.523316,-15.67833 -0.109548,-19.50177 1.351161,-12.48544 4.681029,-22.632927 11.173645,-34.050707 6.61463,-11.632351 15.917879,-21.660107 26.83961,-28.929792 10.120843,-6.7366 19.333096,-10.61898 31.237372,-13.164569 14.61531,-3.125313 27.6884,-2.553653 42.84871,1.873689 4.6933,1.370606 8.25744,2.756521 12.898,5.015381 14.57605,7.095108 26.24059,17.298746 34.81975,30.458829 7.71477,11.834135 12.20843,23.620879 13.76851,36.114389 1.39092,11.13885 0.74838,23.53209 -1.71861,33.14828 -1.52591,5.94788 -3.54295,11.35687 -6.24827,16.75561 -8.3059,16.57532 -19.5165,28.59723 -35.25582,37.80727 -4.51897,2.64432 -10.90071,5.46465 -16.10867,7.11902 -11.4491,3.63694 -22.22976,5.04406 -33.00689,4.30817 z m 13.5171,-16.59573 c 7.0057,-0.61417 15.38836,-2.97788 22.5402,-6.35579 3.52608,-1.66542 6.27459,-3.24982 9.62652,-5.54926 4.00046,-2.74433 5.52563,-4.01301 9.49294,-7.89654 8.51252,-8.33275 14.16131,-17.39355 18.0979,-29.02948 1.66281,-4.91501 2.71236,-10.26865 3.31168,-16.89257 1.27738,-14.11806 -2.25832,-28.68047 -10.14633,-41.789502 -3.94119,-6.549843 -10.133,-13.602097 -16.21641,-18.469929 -4.78195,-3.826422 -11.45729,-7.796632 -16.99837,-10.1099 -5.16536,-2.156418 -12.88169,-4.236118 -18.05719,-4.866761 -3.80118,-0.46318 -10.37406,-0.594723 -15.40423,-0.308284 -9.54903,0.543761 -18.35317,3.095521 -27.933033,8.096005 -2.944433,1.536931 -8.156203,4.968308 -10.708052,7.050075 -6.07625,4.956927 -12.273289,11.96136 -15.963213,18.043012 -3.008083,4.957855 -5.424389,10.147086 -7.260686,15.592964 -4.868249,14.43768 -4.573459,31.93632 0.774171,45.95454 3.418812,8.96204 7.162719,15.40155 12.838016,22.08137 1.83704,2.16219 7.283343,7.50615 9.408933,9.23211 2.086957,1.69461 7.038502,5.07689 9.394417,6.41712 6.105698,3.4734 13.534767,6.28088 20.507617,7.74994 7.07066,1.48966 14.01967,1.81143 22.69512,1.05088 z"
       style="fill:#ff7f2a;stroke:#ff7f2a;stroke-width:0.206368px" /></g></svg>
