<?xml version="1.0" encoding="UTF-8" standalone="no"?>
<svg
   xmlns:dc="http://purl.org/dc/elements/1.1/"
   xmlns:cc="http://creativecommons.org/ns#"
   xmlns:rdf="http://www.w3.org/1999/02/22-rdf-syntax-ns#"
   xmlns:svg="http://www.w3.org/2000/svg"
   xmlns="http://www.w3.org/2000/svg"
   xmlns:sodipodi="http://sodipodi.sourceforge.net/DTD/sodipodi-0.dtd"
   xmlns:inkscape="http://www.inkscape.org/namespaces/inkscape"
   sodipodi:docname="speed-20.svg"
   inkscape:version="1.0beta2 (2b71d25, 2019-12-03)"
   xml:space="preserve"
   style="enable-background:new 0 0 250 250;"
   viewBox="0 0 250 250"
   y="0px"
   x="0px"
   id="Layer_1"
   version="1.1"><metadata
     id="metadata4205"><rdf:RDF><cc:Work
         rdf:about=""><dc:format>image/svg+xml</dc:format><dc:type
           rdf:resource="http://purl.org/dc/dcmitype/StillImage" /><dc:title /></cc:Work></rdf:RDF></metadata><defs
     id="defs4203" /><sodipodi:namedview
     inkscape:document-rotation="0"
     inkscape:window-maximized="0"
     inkscape:window-y="23"
     inkscape:window-x="0"
     inkscape:current-layer="text5478"
     inkscape:cy="125"
     inkscape:cx="125.00002"
     inkscape:zoom="4.8457143"
     showgrid="false"
     id="namedview4201"
     inkscape:window-height="797"
     inkscape:window-width="1440"
     inkscape:pageshadow="2"
     inkscape:pageopacity="0"
     guidetolerance="10"
     gridtolerance="10"
     objecttolerance="10"
     borderopacity="1"
     bordercolor="#666666"
     pagecolor="#ffffff" /><style
     id="style4196"
     type="text/css">
	.st0{fill-rule:evenodd;clip-rule:evenodd;}
</style><path
     id="XMLID_13_"
     class="st0"
     d="m 212.40034,120.59524 -0.29897,-4.40475 -0.49829,-4.40477 -0.69761,-4.28571 -0.99659,-4.28572 -1.1959,-4.16667 -1.39521,-4.047622 -1.59454,-3.928568 -1.79385,-3.809524 -1.99316,-3.809523 -2.09283,-3.690477 -2.29214,-3.571429 -2.3918,-3.45238 -2.59111,-3.333333 -2.79044,-3.214286 -2.89009,-3.095238 -3.0894,-2.857142 -3.18907,-2.738097 -3.28872,-2.619046 -3.48805,-2.380955 -3.48804,-2.261904 -3.68735,-2.142858 -3.78702,-1.904761 -3.88667,-1.785714 -3.98634,-1.54762 -4.08599,-1.309523 -4.18565,-1.190476 -4.18565,-0.952382 -4.2853,-0.833333 -4.28531,-0.595237 -4.48463,-0.357144 L 125,37.5 l -4.48462,0.119048 -4.48463,0.357144 -4.28531,0.595237 -4.2853,0.833333 -4.18565,0.952382 -4.18565,1.190476 -4.085991,1.309523 -3.986332,1.54762 -3.886674,1.785714 -3.787016,1.904761 -3.687358,2.142858 -3.488041,2.261904 -3.488041,2.380955 -3.288724,2.619046 -3.189066,2.738097 -3.089408,2.857142 -2.890091,3.095238 -2.790433,3.214286 -2.591116,3.333333 -2.3918,3.45238 -2.292141,3.571429 -2.092825,3.690477 -1.993166,3.809523 -1.79385,3.809524 -1.594533,3.928568 -1.395216,4.047622 -1.1959,4.16667 -0.996583,4.28572 -0.697608,4.28571 -0.498292,4.40477 -0.298975,4.40475 -0.09966,4.40477 0.09966,4.40476 0.298975,4.40476 0.498292,4.40476 0.697608,4.28572 0.996583,4.28571 1.1959,4.16667 1.395216,4.04762 1.594533,3.92856 1.79385,3.80953 1.993166,3.80951 2.092825,3.69048 2.292141,3.57144 2.3918,3.45237 2.591116,3.33334 2.790433,3.21429 2.890091,3.09524 3.089408,2.85715 3.189066,2.73809 3.288724,2.61905 3.488041,2.38095 3.488041,2.2619 3.687358,2.14286 3.787016,1.90476 3.886674,1.78571 3.986332,1.54762 4.085991,1.30952 4.18565,1.19049 4.18565,0.95237 4.2853,0.83333 4.28531,0.59524 4.48463,0.35715 L 125,212.5 l 4.48462,-0.11904 4.48463,-0.35715 4.28531,-0.59524 4.2853,-0.83333 4.18565,-0.95237 4.18565,-1.19049 4.08599,-1.30952 3.98634,-1.54762 3.88667,-1.78571 3.78702,-1.90476 3.68735,-2.14286 3.48804,-2.2619 3.48805,-2.38095 3.28872,-2.61905 3.18907,-2.73809 3.0894,-2.85715 2.89009,-3.09524 2.79044,-3.21429 2.59111,-3.33334 2.3918,-3.45237 2.29214,-3.57144 2.09283,-3.69048 1.99316,-3.80951 1.79385,-3.80953 1.59454,-3.92856 1.39521,-4.04762 1.1959,-4.16667 0.99659,-4.28571 0.69761,-4.28572 0.49829,-4.40476 0.29897,-4.40476 0.0997,-4.40476 -0.0997,-4.40477 z m -16.54328,8.09525 -0.29897,3.57142 -0.4983,3.57143 -0.59794,3.57144 -0.79727,3.45236 -0.99658,3.33334 -1.1959,3.33333 -1.29556,3.21429 -1.39522,3.09523 -1.59453,3.09524 -1.69419,2.97621 -1.79385,2.85713 -1.99317,2.73809 -2.09282,2.61906 -2.19249,2.61904 -2.3918,2.38096 -2.3918,2.38096 -2.59111,2.2619 -2.69078,2.14285 -2.79043,1.90476 -2.79043,1.90476 -2.98975,1.66668 -3.08941,1.54761 -3.08941,1.42856 -3.28872,1.30953 -3.28873,1.07144 -3.38838,1.07142 -3.48804,0.71428 -3.48804,0.71429 -3.5877,0.35714 -3.5877,0.2381 -3.5877,0.11904 -3.68736,-0.11904 -3.5877,-0.2381 -3.58769,-0.35714 -3.48805,-0.71429 -3.48804,-0.71428 -3.38838,-1.07142 -3.28872,-1.07144 -3.288726,-1.30953 -3.089408,-1.42856 -3.089408,-1.54761 -2.989749,-1.66668 -2.790433,-1.90476 -2.790433,-1.90476 -2.690774,-2.14285 -2.591116,-2.2619 -2.3918,-2.38096 -2.391799,-2.38096 -2.192483,-2.61904 -2.092825,-2.61906 -1.993166,-2.73809 -1.79385,-2.85713 -1.694191,-2.97621 -1.594533,-3.09524 -1.395217,-3.09523 -1.295558,-3.21429 -1.195899,-3.33333 -0.996584,-3.33334 -0.797266,-3.45236 -0.59795,-3.57144 -0.498292,-3.57143 -0.298974,-3.57142 -0.09966,-3.69048 0.09966,-3.69048 0.298974,-3.57143 0.498292,-3.57143 0.59795,-3.57142 0.797266,-3.4524 0.996584,-3.33332 1.195899,-3.33333 1.295558,-3.214291 1.395217,-3.095243 1.594533,-3.095236 1.694191,-2.976189 1.79385,-2.857144 1.993166,-2.738096 2.092825,-2.619047 2.192483,-2.619048 2.391799,-2.380952 2.3918,-2.380953 2.591116,-2.261905 2.690774,-2.142857 2.790433,-1.904761 2.790433,-1.904762 2.989749,-1.666667 3.089408,-1.547619 3.089408,-1.428572 3.288726,-1.309523 3.28872,-1.071429 3.38838,-1.071428 3.48804,-0.714286 3.48805,-0.714286 3.78701,-0.238095 3.5877,-0.238096 3.68736,-0.119047 3.5877,0.119047 3.5877,0.238096 3.5877,0.357144 3.48804,0.714285 3.48804,0.714285 3.38838,1.071428 3.28873,1.071429 3.28872,1.309524 3.08941,1.428571 3.08941,1.547619 2.98974,1.666667 2.79044,1.904762 2.79043,1.904762 2.69077,2.142857 2.59112,2.261905 2.3918,2.380952 2.3918,2.380954 2.19248,2.619046 2.09283,2.619048 1.99316,2.738095 1.79385,2.857145 1.69419,2.976194 1.59454,3.095237 1.39521,3.095236 1.29556,3.214284 1.1959,3.33332 0.99659,3.33336 0.79726,3.45236 0.59795,3.57145 0.49829,3.57141 0.29898,3.57143 0.0997,3.69048 -0.29898,3.57144 z"
     inkscape:connector-curvature="0"
     style="clip-rule:evenodd;fill-rule:evenodd" /><g
     id="text5478"
     style="font-style:normal;font-variant:normal;font-weight:900;font-stretch:normal;font-size:83.45389557px;line-height:125%;font-family:Arial;-inkscape-font-specification:'Arial, Heavy';text-align:start;letter-spacing:0px;word-spacing:0px;writing-mode:lr-tb;text-anchor:start;fill:#000000;fill-opacity:1;stroke:none;stroke-width:1px;stroke-linecap:butt;stroke-linejoin:miter;stroke-opacity:1"
     transform="scale(0.80963279,1.2351278)"><path
       id="path5024"
       style=""
       d="m 151.17111,132.97554 -49.79524,0 q 0.85573,-7.37556 5.17512,-13.85465 4.36014,-6.51984 16.29959,-15.36236 7.29406,-5.419616 9.33151,-8.231296 2.03745,-2.811679 2.03745,-5.338115 0,-2.730181 -2.03745,-4.645383 -1.9967,-1.95595 -5.05287,-1.95595 -3.17842,0 -5.21587,1.996699 -1.9967,1.9967 -2.68943,7.049572 l -16.62558,-1.344716 q 0.97797,-7.008823 3.58591,-10.920724 2.60793,-3.952651 7.33481,-6.030848 4.76763,-2.118947 13.16192,-2.118947 8.76103,0 13.61016,1.9967 4.88987,1.9967 7.6608,6.153095 2.81168,4.115646 2.81168,9.250016 0,5.460363 -3.21917,10.431737 -3.17842,4.97138 -11.61345,10.92073 -5.01213,3.46366 -6.72358,4.84912 -1.67071,1.38547 -3.95265,3.62666 l 25.91634,0 0,13.52866 z" /><path
       id="path5026"
       style=""
       d="m 158.34293,102.86205 q 0,-17.033071 6.11235,-23.838149 6.15309,-6.805079 18.70378,-6.805079 6.03084,0 9.902,1.507712 3.87115,1.466963 6.31609,3.871153 2.44493,2.36344 3.8304,5.012123 1.42621,2.607934 2.28194,6.112346 1.67071,6.682832 1.67071,13.936144 0,16.25884 -5.50111,23.7974 -5.50111,7.53856 -18.94827,7.53856 -7.53856,0 -12.18395,-2.40418 -4.64538,-2.40419 -7.62005,-7.04958 -2.1597,-3.30066 -3.38217,-9.00552 -1.18172,-5.74561 -1.18172,-12.67293 z m 16.46259,0.0408 q 0,11.40971 1.9967,15.60685 2.03744,4.1564 5.86785,4.1564 2.52643,0 4.36014,-1.75221 1.87445,-1.79295 2.73018,-5.62335 0.89648,-3.83041 0.89648,-11.93945 0,-11.898703 -2.03745,-15.9736 -1.9967,-4.115646 -6.03085,-4.115646 -4.11565,0 -5.94935,4.197144 -1.8337,4.156395 -1.8337,15.443862 z" /><path
       transform="scale(1.2351278,0.80963282)"
       inkscape:connector-curvature="0"
       id="path1242"
       d="m 120.25356,212.22516 c -8.24994,-0.44526 -18.76894,-2.73424 -27.005059,-5.87643 -2.611004,-0.99613 -9.337967,-4.24703 -11.91751,-5.7593 -11.957748,-7.0103 -21.36697,-15.80139 -28.710808,-26.82469 -7.352964,-11.037 -12.068182,-22.63079 -13.848483,-34.05071 -0.86248,-5.53247 -0.962128,-7.06067 -0.962128,-14.7553 0,-4.9466 0.09336,-8.31173 0.271949,-9.80248 C 39.317802,104.83659 41.530623,97.083005 45.74246,88.312796 52.961972,73.279772 63.064726,61.417199 75.987638,52.799148 83.225314,47.972477 90.0835,44.57115 97.14035,42.308433 c 10.19171,-3.267884 18.50714,-4.641731 28.06604,-4.636975 9.16772,0.0046 17.62028,1.421757 27.6533,4.636484 10.47109,3.355089 20.99422,9.437094 30.12972,17.413932 8.53877,7.455794 15.61803,16.929128 21.06876,28.19381 4.39106,9.074732 6.60204,16.737046 7.86035,27.240566 0.17859,1.49075 0.27195,4.85588 0.27195,9.80248 0,7.68406 -0.0976,9.18653 -0.95875,14.7553 -1.75538,11.35185 -6.50028,23.01579 -13.85186,34.05071 -7.34602,11.02656 -16.7662,19.82819 -28.71081,26.82558 -2.5872,1.51563 -9.31149,4.76416 -11.92817,5.76254 -2.94832,1.12492 -7.46283,2.4989 -11.20725,3.41091 -6.28576,1.53098 -10.60663,2.18215 -16.50944,2.48803 -4.28401,0.222 -4.15662,0.22238 -8.77063,-0.0266 z m 13.72346,-16.68362 c 5.29985,-0.61194 13.43104,-2.84117 18.77949,-5.14855 12.15437,-5.24353 22.35346,-13.47854 30.17868,-24.36705 4.65098,-6.47166 8.95752,-15.83678 11.00817,-23.93868 1.17572,-4.64517 2.24575,-13.3273 2.25089,-18.26356 0.006,-6.20552 -1.38798,-14.42752 -3.51745,-20.73997 -3.78628,-11.223765 -9.8313,-20.889413 -18.07052,-28.8937 -8.00552,-7.777264 -16.85927,-13.132981 -27.52489,-16.650068 -3.34877,-1.104287 -8.6142,-2.368299 -11.45342,-2.749494 -4.85103,-0.651299 -11.21149,-0.797766 -17.6098,-0.405513 -10.58004,0.648615 -22.77741,4.902248 -32.234139,11.241128 -4.653632,3.119348 -7.116478,5.140109 -11.053681,9.069534 -3.365452,3.358805 -6.741543,7.388233 -8.868662,10.584922 -3.47719,5.225607 -6.738288,11.969701 -8.858181,18.319111 -2.419054,7.24544 -3.718188,17.34158 -3.220963,25.03152 0.669679,10.35705 2.800785,18.46756 7.250118,27.5923 3.77747,7.74687 8.000241,13.52265 14.560576,19.91553 5.29634,5.16115 10.453086,8.86345 16.815537,12.07278 6.220759,3.13785 11.675045,5.08185 17.835935,6.35704 3.04212,0.62967 4.51102,0.83809 8.87382,1.25912 1.5479,0.14937 12.99536,-0.0713 14.85849,-0.2864 z"
       style="fill:#ff7f2a;stroke:#0000ff;stroke-width:0.206368px" /></g></svg>
