<?xml version="1.0" encoding="UTF-8" standalone="no"?>
<svg
   xmlns:dc="http://purl.org/dc/elements/1.1/"
   xmlns:cc="http://creativecommons.org/ns#"
   xmlns:rdf="http://www.w3.org/1999/02/22-rdf-syntax-ns#"
   xmlns:svg="http://www.w3.org/2000/svg"
   xmlns="http://www.w3.org/2000/svg"
   xmlns:sodipodi="http://sodipodi.sourceforge.net/DTD/sodipodi-0.dtd"
   xmlns:inkscape="http://www.inkscape.org/namespaces/inkscape"
   sodipodi:docname="start.svg"
   inkscape:version="1.0beta2 (2b71d25, 2019-12-03)"
   xml:space="preserve"
   style="enable-background:new 0 0 250 250;"
   viewBox="0 0 250 250"
   y="0px"
   x="0px"
   id="Layer_1"
   version="1.1"><metadata
     id="metadata30"><rdf:RDF><cc:Work
         rdf:about=""><dc:format>image/svg+xml</dc:format><dc:type
           rdf:resource="http://purl.org/dc/dcmitype/StillImage" /></cc:Work></rdf:RDF></metadata><defs
     id="defs28" /><sodipodi:namedview
     inkscape:document-rotation="0"
     inkscape:window-maximized="0"
     inkscape:window-y="23"
     inkscape:window-x="20"
     inkscape:current-layer="text24"
     inkscape:cy="97.446878"
     inkscape:cx="113.47784"
     inkscape:zoom="1.9261084"
     showgrid="false"
     id="namedview26"
     inkscape:window-height="766"
     inkscape:window-width="1313"
     inkscape:pageshadow="2"
     inkscape:pageopacity="0"
     guidetolerance="10"
     gridtolerance="10"
     objecttolerance="10"
     borderopacity="1"
     bordercolor="#666666"
     pagecolor="#ffffff" /><style
     id="style3"
     type="text/css">
	.st0{fill:#FFFFFF;}
	.st1{font-family:&quot;Arial Black&quot;, &quot;Arial Bold&quot;, Gadget, sans-serif;}
	.st2{font-size:50px;}
</style><g
     id="XMLID_31_"><polygon
       points="124,181.7 128.5,181.6 132.9,181.3 137.2,180.8 141.6,180.2 145.8,179.3 149.9,178.3 153.9,177.1    157.9,175.7 161.7,174.2 165.5,172.5 169.1,170.7 172.7,168.7 176.1,166.6 179.4,164.3 182.6,162 185.6,159.5 188.5,156.9    191.2,154.1 193.8,151.2 196.3,148.3 198.5,145.2 200.6,142 202.5,138.7 204.4,135.4 205.8,131.9 207.3,128.4 208.5,124.8    209.4,121.2 210.2,117.4 210.7,113.6 211.1,109.8 211.2,105.9 211.1,102 210.7,98.1 210.2,94.4 209.4,90.7 208.5,87 207.3,83.4    205.8,79.9 204.4,76.5 202.5,73.1 200.6,69.8 198.5,66.6 196.3,63.5 193.8,60.6 191.2,57.7 188.5,55 185.6,52.3 182.6,49.8    179.4,47.4 176.1,45.1 172.7,43.1 169.1,41.1 165.5,39.2 161.7,37.6 157.9,36.1 153.9,34.7 149.9,33.5 145.8,32.4 141.6,31.6    137.2,30.9 132.9,30.4 128.5,30.2 124,30.1 119.6,30.2 115.1,30.4 110.8,30.9 106.4,31.6 102.3,32.4 98.2,33.5 94.1,34.7    90.1,36.1 86.3,37.6 82.5,39.2 78.9,41.1 75.3,43.1 71.9,45.1 68.6,47.4 65.5,49.8 62.4,52.3 59.6,55 56.8,57.7 54.2,60.6    51.7,63.5 49.5,66.6 47.4,69.8 45.5,73.1 43.7,76.5 42.2,79.9 40.8,83.4 39.6,87 38.6,90.7 37.8,94.4 37.3,98.1 37,102 36.8,105.9    37,109.8 37.3,113.6 37.8,117.4 38.6,121.2 39.6,124.8 40.8,128.4 42.2,131.9 43.7,135.4 45.5,138.7 47.4,142 49.5,145.2    51.7,148.3 54.2,151.2 56.8,154.1 59.6,156.9 62.4,159.5 65.5,162 68.6,164.3 71.9,166.6 75.3,168.7 78.9,170.7 82.5,172.5    86.3,174.2 90.1,175.7 94.1,177.1 98.2,178.3 102.3,179.3 106.4,180.2 110.8,180.8 115.1,181.3 119.6,181.6  "
       id="XMLID_29_" /><polygon
       points="151.1,162.6 154.4,161.4 157.5,159.9 160.6,158.4 163.6,156.8 166.5,155 169.2,153.1    171.8,151.1 174.3,149 176.6,146.8 178.8,144.6 180.9,142.2 182.9,139.8 184.6,137.3 186.3,134.7 187.8,132.1 189.2,129.4    190.5,126.6 191.5,123.8 192.4,121 193.1,118.1 193.8,115.2 194.2,112.2 194.5,109.3 194.6,106.3 194.6,103.3 194.3,100.3    193.9,97.3 193.4,94.3 192.6,91.3 191.6,88.3 190.5,85.3 189.3,82.4 187.8,79.5 186.2,76.7 184.4,74 182.5,71.4 180.4,69    178.3,66.6 176,64.4 173.6,62.2 171.1,60.2 168.5,58.3 165.8,56.4 163,54.8 160.1,53.2 157.1,51.7 154.1,50.4 151,49.2 147.8,48.2    144.7,47.2 141.3,46.4 138,45.8 134.7,45.2 131.3,44.9 127.9,44.6 124.5,44.5 121.1,44.5 117.6,44.7 114.1,45.1 110.6,45.6    107.2,46.2 103.8,47.1 100.4,48 97,49.2 93.7,50.4 90.5,51.9 87.4,53.4 84.4,55 81.6,56.8 78.8,58.7 76.2,60.7 73.8,62.8    71.4,64.9 69.2,67.2 67.1,69.6 65.2,72 63.4,74.5 61.8,77.1 60.2,79.7 58.8,82.4 57.6,85.2 56.6,88 55.6,90.8 54.9,93.7 54.3,96.6    53.8,99.5 53.6,102.5 53.4,105.5 53.5,108.5 53.7,111.5 54.1,114.5 54.7,117.5 55.4,120.5 56.4,123.5 57.5,126.4 58.8,129.4    60.3,132.3 61.8,135.1 63.7,137.8 65.6,140.3 67.6,142.8 69.7,145.2 72,147.4 74.4,149.6 76.9,151.6 79.5,153.6 82.2,155.3    85.1,157.1 87.9,158.6 90.9,160.1 93.9,161.4 97.1,162.6 100.2,163.7 103.4,164.6 106.7,165.4 110,166.1 113.3,166.6 116.7,166.9    120.1,167.2 123.6,167.3 127,167.2 130.5,167.1 133.9,166.7 137.4,166.2 140.8,165.6 144.3,164.8 147.7,163.8  "
       class="st0"
       id="XMLID_28_" /><polygon
       points="211.2,55.3 210.6,54.8 210,54.3 209.5,53.8 208.9,53.2 208.3,52.8 207.7,52.2    207.2,51.7 206.6,51.2 206.2,50.7 205.6,50.2 205.1,49.7 204.5,49.3 204,48.8 203.5,48.4 202.9,48 202.4,47.5 201.8,47.1    201.3,46.7 200.7,46.3 200.2,46 199.6,45.6 199.1,45.3 198.4,45 197.9,44.7 197.2,44.4 196.6,44.2 196,44 195.4,43.8 194.7,43.6    194,43.4 193.3,43.3 192.6,43.2 191.9,43.1 191.2,43.1 190.4,43 189.6,43 188.8,43 188,43 187.1,43.1 186.4,43.1 185.5,43.2    184.5,43.3 183.7,43.4 182.7,43.6 181.8,43.7 180.7,43.9 179.8,44.1 178.8,44.3 177.7,44.6 176.6,44.9 175.5,45.1 174.4,45.5    173.2,45.8 172,46.2 170.8,46.6 169.5,47 168.2,47.4 166.9,47.9 165.6,48.4 164.2,48.8 162.7,49.4 161.3,49.9 159.8,50.6    158.2,51.2 157.1,51.7 156,52.1 154.8,52.6 153.6,53 152.4,53.4 151.2,53.7 150,54.1 148.8,54.4 147.6,54.7 146.3,55 145.1,55.2    143.9,55.4 142.7,55.6 141.5,55.7 140.3,55.8 139.1,55.8 138,55.8 136.8,55.8 135.7,55.7 134.6,55.6 133.5,55.4 132.4,55.2    131.4,54.9 130.5,54.5 129.4,54.2 128.6,53.7 127.6,53.2 126.8,52.6 126,52 125.2,51.3 124.5,50.6 123.8,49.7 123.6,49.3    123.3,48.9 123,48.5 122.8,48.1 122.5,47.6 122.2,47.1 122,46.6 121.8,46.2 121.5,45.6 121.3,45.1 121,44.4 120.7,43.9 120.5,43.3    120.3,42.6 120,41.9 119.8,41.2 119.6,40.5 119.3,39.7 119.1,39 118.8,38.1 118.5,37.3 118.3,36.4 118.1,35.5 117.8,34.6    117.6,33.6 117.3,32.6 117,31.5 116.8,30.5 116.6,29.3 116.2,28.2 116,27.1 115.7,25.8 77.6,116.3 77.8,116.8 78,117.4 78.3,118.1    78.6,118.7 78.8,119.4 79.1,120.1 79.3,120.8 79.5,121.5 79.8,122.2 80,123 80.2,123.7 80.5,124.4 80.7,125.2 80.9,126 81.2,126.7    81.4,127.5 81.7,128.2 81.9,129 82.2,129.7 82.4,130.4 82.8,131.2 83,131.9 83.3,132.6 83.6,133.3 83.9,134 84.2,134.6 84.5,135.3    84.9,135.9 85.2,136.5 85.6,137.1 85.9,137.6 86.3,138.2 86.9,138.5 87.4,138.9 87.9,139.2 88.4,139.6 88.8,139.8 89.2,140.2    89.6,140.4 90,140.7 90.3,140.9 90.7,141.1 91.1,141.3 91.4,141.5 91.7,141.7 92,142 92.4,142.1 92.7,142.3 93,142.4 93.4,142.6    93.7,142.8 94.1,142.9 94.5,143.1 94.9,143.2 95.4,143.3 95.9,143.5 96.3,143.6 96.9,143.7 97.4,143.9 98,144.1 98.6,144.2    99.3,144.4 100,144.5 100.8,144.7 101.8,144.8 102.9,144.9 104.1,144.8 105.4,144.7 106.8,144.5 108.3,144.2 109.8,143.7    111.3,143.3 112.9,142.8 114.6,142.2 116.3,141.6 118,140.9 119.7,140.2 121.4,139.5 123.1,138.7 124.8,137.9 126.5,137.1    128.2,136.3 129.8,135.6 131.4,134.7 132.9,134 134.3,133.2 135.7,132.5 137.1,131.7 138.3,131 139.4,130.4 140.5,129.9    141.3,129.3 142.1,128.8 142.8,128.5 143.4,128.2 143.8,127.9 145.9,126.8 148,125.8 150,124.8 151.8,123.8 153.6,123 155.3,122.2    156.9,121.5 158.5,120.9 159.9,120.3 161.3,119.8 162.7,119.4 163.9,119 165.1,118.7 166.2,118.5 167.3,118.3 168.3,118.3    169.3,118.3 170.2,118.3 171.1,118.5 171.9,118.7 172.7,119.1 173.5,119.5 174.2,119.9 174.9,120.5 175.6,121.2 176.2,121.8    176.9,122.7 177.5,123.6 178.1,124.5 178.7,125.5 179.2,126.7 179.8,127.9  "
       class="st0"
       id="XMLID_27_" /><polygon
       points="192.4,44.3 193.1,44.4 193.7,44.5 194.3,44.7 195,44.8 195.5,45 196.1,45.2 196.7,45.4 197.2,45.7    197.8,46 198.4,46.2 198.9,46.6 199.4,46.9 199.9,47.3 200.5,47.6 201,48 201.5,48.4 202.1,48.8 202.5,49.2 203.1,49.7 203.6,50.1    204.1,50.6 204.7,51 205.2,51.5 205.7,52 206.2,52.5 206.8,53 207.4,53.5 207.9,54.1 208.5,54.5 209.1,55.1 209.7,55.6 210.3,56.1    212.2,54.5 211.5,54 211,53.5 210.4,53 209.8,52.5 209.2,51.9 208.7,51.5 208.1,51 207.6,50.4 207.1,49.9 206.6,49.5 206,49    205.5,48.5 204.9,48 204.4,47.5 203.8,47.1 203.2,46.6 202.7,46.2 202.1,45.8 201.5,45.4 201,45.1 200.3,44.7 199.8,44.3 199.1,44    198.5,43.7 197.8,43.4 197.2,43.1 196.5,42.9 195.7,42.7 195,42.5 194.3,42.3 193.5,42.2 192.8,42  "
       id="XMLID_26_" /><polygon
       points="158.9,52.2 160.4,51.6 161.9,51 163.3,50.4 164.7,49.9 166.1,49.4 167.4,48.9 168.7,48.4 170,48    171.2,47.6 172.5,47.3 173.6,46.9 174.7,46.5 175.8,46.2 177,46 178.1,45.7 179.1,45.4 180.1,45.2 181.1,45 182,44.8 183,44.7    183.8,44.5 184.8,44.4 185.6,44.3 186.4,44.2 187.3,44.2 188.1,44.2 188.8,44.1 189.6,44.1 190.3,44.2 191.1,44.2 191.7,44.2    192.4,44.3 192.8,42 192,42 191.2,41.9 190.5,41.9 189.6,41.8 188.8,41.8 187.9,41.8 187.1,41.9 186.2,42 185.3,42 184.4,42.2    183.4,42.3 182.5,42.5 181.5,42.6 180.5,42.8 179.5,43 178.5,43.2 177.4,43.5 176.2,43.8 175.1,44 174,44.4 172.8,44.7 171.6,45.1    170.3,45.5 169.1,45.9 167.7,46.4 166.5,46.8 165,47.3 163.7,47.8 162.2,48.4 160.8,48.9 159.3,49.5 157.7,50.2  "
       id="XMLID_25_" /><polygon
       points="122.7,50.3 123.4,51.2 124.2,52.1 125.1,52.8 126,53.5 126.9,54.1 127.8,54.7 128.9,55.2    129.9,55.6 131,56 132.1,56.3 133.2,56.5 134.4,56.7 135.5,56.9 136.7,56.9 138,56.9 139.1,56.9 140.4,56.9 141.6,56.8 142.8,56.7    144.1,56.5 145.4,56.3 146.6,56.1 147.9,55.8 149.2,55.5 150.3,55.2 151.6,54.8 152.9,54.4 154.1,54 155.3,53.6 156.5,53.2    157.7,52.7 158.9,52.2 157.7,50.2 156.6,50.6 155.5,51 154.3,51.5 153.1,51.9 151.9,52.3 150.8,52.6 149.6,53 148.4,53.3    147.2,53.6 146,53.9 144.8,54.1 143.6,54.3 142.5,54.4 141.3,54.5 140.2,54.6 139.1,54.7 138,54.7 136.8,54.7 135.8,54.6    134.8,54.5 133.8,54.3 132.8,54.1 131.9,53.9 130.9,53.5 130.1,53.2 129.2,52.8 128.4,52.3 127.6,51.7 126.9,51.2 126.2,50.6    125.6,49.9 124.9,49.1  "
       id="XMLID_24_" /><polygon
       points="117,26.3 114.4,26 114.7,27.3 115,28.5 115.2,29.6 115.5,30.7 115.8,31.8 116,32.8 116.3,33.8    116.6,34.8 116.8,35.7 117,36.7 117.3,37.6 117.5,38.4 117.8,39.2 118.1,40.1 118.3,40.8 118.5,41.6 118.8,42.3 119,42.9    119.2,43.6 119.6,44.2 119.8,44.9 120,45.5 120.3,46 120.5,46.6 120.8,47.1 121.1,47.6 121.3,48.1 121.6,48.6 121.8,49.1    122.2,49.5 122.5,49.9 122.7,50.3 124.9,49.1 124.7,48.7 124.5,48.4 124.2,48 124,47.5 123.7,47.1 123.4,46.6 123.2,46.2 123,45.7    122.7,45.2 122.5,44.7 122.2,44.1 122,43.5 121.8,42.9 121.5,42.3 121.3,41.6 121.1,40.9 120.8,40.2 120.6,39.4 120.3,38.7    120.1,37.9 119.9,37 119.6,36.1 119.3,35.2 119.1,34.3 118.8,33.3 118.6,32.4 118.3,31.3 118.1,30.2 117.8,29.1 117.5,28    117.3,26.8 117,25.6 114.5,25.4 117,25.6 116.1,21.7 114.5,25.4  "
       id="XMLID_23_" /><polygon
       points="78.7,115.9 78.7,116.6 117,26.3 114.5,25.4 76.3,115.9 76.3,116.7 76.3,115.9 76.1,116.3    76.3,116.7  "
       id="XMLID_22_" /><polygon
       points="87.1,137.3 87.4,137.6 87,137 86.7,136.5 86.4,136 86.1,135.4 85.8,134.8 85.4,134.2 85.1,133.5    84.8,132.9 84.5,132.2 84.3,131.5 84,130.8 83.7,130.1 83.5,129.4 83.2,128.6 82.9,127.9 82.7,127.1 82.4,126.4 82.2,125.7    82,124.9 81.7,124.2 81.5,123.4 81.3,122.7 81,121.9 80.8,121.2 80.6,120.5 80.3,119.8 80,119.1 79.8,118.4 79.5,117.7 79.3,117.1    79,116.5 78.7,115.9 76.3,116.7 76.5,117.2 76.8,117.9 77.1,118.5 77.3,119.1 77.6,119.8 77.8,120.5 78,121.2 78.3,121.8    78.5,122.5 78.7,123.3 79,124 79.2,124.8 79.4,125.5 79.7,126.3 79.9,127.1 80.2,127.8 80.4,128.6 80.6,129.3 80.9,130.1    81.2,130.8 81.5,131.5 81.7,132.3 82.1,133 82.4,133.7 82.7,134.4 83,135.1 83.3,135.7 83.7,136.4 84,137 84.4,137.6 84.8,138.2    85.2,138.8 85.5,139.1 85.2,138.8 85.4,138.9 85.5,139.1  "
       id="XMLID_21_" /><polygon
       points="101.1,143.6 100.3,143.4 99.7,143.3 99,143.1 98.4,143 97.8,142.8 97.2,142.6 96.7,142.5    96.3,142.4 95.9,142.3 95.4,142.2 95,142 94.7,141.9 94.3,141.7 94,141.6 93.7,141.5 93.3,141.3 93,141.1 92.7,141 92.4,140.8    92.1,140.7 91.8,140.4 91.4,140.2 91.1,140 90.7,139.8 90.4,139.5 90,139.2 89.6,138.9 89.2,138.7 88.7,138.3 88.2,138 87.7,137.6    87.1,137.3 85.5,139.1 86.1,139.4 86.6,139.8 87.1,140.1 87.5,140.4 88,140.7 88.4,141.1 88.8,141.3 89.2,141.5 89.6,141.8 90,142    90.3,142.3 90.7,142.5 91,142.7 91.4,142.9 91.7,143.1 92.1,143.3 92.4,143.5 92.8,143.6 93.2,143.8 93.6,143.9 94.1,144.1    94.4,144.3 94.9,144.4 95.4,144.6 96,144.7 96.5,144.8 97.1,145 97.7,145.2 98.3,145.3 99,145.5 99.7,145.6 100.5,145.8  "
       id="XMLID_20_" /><polygon
       points="143.1,126.9 143,127 142.6,127.2 142.1,127.5 141.4,127.9 140.6,128.4 139.7,128.9 138.7,129.5    137.6,130.1 136.4,130.8 135,131.5 133.7,132.2 132.2,133 130.7,133.8 129.1,134.5 127.5,135.4 125.9,136.1 124.2,136.9    122.6,137.7 120.8,138.5 119.2,139.2 117.4,139.9 115.8,140.6 114.1,141.1 112.4,141.7 110.9,142.2 109.4,142.7 108,143.1    106.5,143.3 105.2,143.6 104,143.7 102.9,143.7 102,143.7 101.1,143.6 100.5,145.8 101.6,146 102.9,146 104.2,146 105.7,145.8    107.1,145.6 108.6,145.2 110.2,144.8 111.7,144.4 113.4,143.9 115.1,143.3 116.8,142.6 118.5,142 120.3,141.3 122,140.5    123.7,139.8 125.5,138.9 127.1,138.1 128.8,137.4 130.5,136.5 132,135.7 133.5,135 135,134.2 136.5,133.4 137.7,132.7 139,132.1    140.1,131.4 141.2,130.8 142.1,130.3 142.9,129.8 143.6,129.4 144.1,129.1 144.5,128.8 144.4,128.9 143.1,126.9 143,126.9 143,127     "
       id="XMLID_19_" /><polygon
       points="178.6,127.5 181.1,127.5 180.4,126.2 179.9,125.1 179.2,124 178.6,123 178,122 177.3,121.2    176.6,120.4 175.8,119.7 175.1,119.1 174.2,118.5 173.3,118.1 172.4,117.7 171.4,117.4 170.4,117.2 169.4,117.1 168.3,117.1    167.2,117.2 166,117.4 164.8,117.6 163.5,117.9 162.2,118.3 160.8,118.7 159.4,119.2 157.9,119.8 156.3,120.5 154.7,121.2 153,122    151.2,122.9 149.3,123.8 147.3,124.7 145.2,125.8 143.1,126.9 144.4,128.9 146.6,127.7 148.6,126.7 150.6,125.8 152.5,124.9    154.2,124 155.9,123.2 157.5,122.5 159,121.9 160.5,121.3 161.8,120.8 163.1,120.4 164.2,120.1 165.4,119.8 166.5,119.6    167.5,119.4 168.3,119.4 169.2,119.4 170,119.5 170.7,119.6 171.4,119.8 172.1,120.1 172.8,120.4 173.4,120.8 174,121.3    174.6,121.9 175.2,122.5 175.8,123.3 176.3,124.1 177,125 177.5,126 178.1,127.1 178.6,128.3 181.1,128.3 178.6,128.3 179.9,131    181.1,128.3  "
       id="XMLID_18_" /><polygon
       points="210.3,56.1 210,55 178.6,127.5 181.1,128.3 212.4,55.7 212.2,54.5 212.4,55.7 212.7,55 212.2,54.5     "
       id="XMLID_17_" /><polygon
       points="110,20.6 110,20.8 110.1,20.9 110.2,21 110.3,21.2 110.5,21.4 110.6,21.6 110.8,21.8 111,22    111.3,22.2 111.5,22.4 111.7,22.6 112.1,22.9 112.3,23.1 112.6,23.3 112.8,23.5 113.2,23.8 113.4,24 113.7,24.2 114,24.5    114.3,24.7 114.5,24.9 114.7,25.1 115.1,25.3 115.2,25.5 115.5,25.7 115.7,25.9 115.8,26.1 116,26.3 116.1,26.5 116.2,26.6    116.3,26.7 116.3,26.9 114,32 111.7,37.1 109.4,42.3 107.1,47.4 104.8,52.6 102.4,57.7 100.1,62.8 97.8,67.9 95.5,73.1 93.2,78.2    90.9,83.3 88.6,88.5 86.2,93.6 84,98.8 81.7,103.9 79.3,109 77,114.1 74.7,119.3 72.4,124.4 70.1,129.5 67.8,134.7 65.5,139.8    63.1,145 60.8,150.1 58.5,155.2 56.2,160.4 53.9,165.5 51.6,170.7 49.3,175.7 47,180.9 44.6,186 42.3,191.2 42.3,191.1 42.3,190.8    42.2,190.7 42,190.5 41.9,190.4 41.8,190.2 41.6,190 41.4,189.7 41.2,189.5 41,189.3 40.8,189.1 40.5,188.8 40.3,188.6 40.1,188.4    39.8,188.1 39.6,187.9 39.3,187.6 39.1,187.4 38.9,187.1 38.6,186.9 38.4,186.7 38.2,186.5 37.9,186.2 37.8,186 37.5,185.8    37.4,185.6 37.2,185.4 37.1,185.2 37,185 36.9,184.8 36.9,184.7 36.8,184.5 39.1,179.4 41.4,174.3 43.8,169.1 46.1,164.1    48.3,158.9 50.6,153.8 52.9,148.7 55.1,143.5 57.4,138.5 59.7,133.3 62,128.2 64.3,123.1 66.6,117.9 68.9,112.8 71.1,107.7    73.4,102.5 75.7,97.5 77.9,92.3 80.2,87.2 82.5,82.1 84.7,76.9 87,71.8 89.3,66.7 91.6,61.6 93.9,56.5 96.2,51.3 98.5,46.2    100.8,41.1 103.1,36 105.3,30.9 107.6,25.7  "
       id="XMLID_16_" /><polygon
       points="116.1,26.7 116.1,26.8 116,26.7 116,26.6 115.8,26.5 115.8,26.3 115.6,26.2 115.5,26 115.3,25.8    115.1,25.6 114.9,25.4 114.7,25.2 114.3,25 114.1,24.8 113.9,24.6 113.6,24.3 113.3,24.1 113,23.9 112.7,23.6 112.4,23.4    112.1,23.2 111.9,23 111.6,22.8 111.3,22.5 111.1,22.3 110.9,22.1 110.6,21.9 110.5,21.7 110.2,21.5 110.1,21.3 109.9,21.1    109.8,20.9 109.8,20.8 109.7,20.6 110.2,20.7 110.3,20.8 110.3,20.9 110.4,21 110.6,21.2 110.6,21.3 110.8,21.5 111,21.7    111.2,21.9 111.4,22.1 111.7,22.3 111.9,22.5 112.2,22.8 112.4,23 112.7,23.2 113,23.4 113.3,23.6 113.6,23.9 113.9,24.1    114.1,24.3 114.4,24.5 114.7,24.7 114.9,24.9 115.2,25.2 115.5,25.4 115.6,25.6 115.8,25.8 116,26 116.2,26.2 116.3,26.4    116.5,26.6 116.6,26.7 116.6,26.9 116.6,27 116.6,26.9 116.6,27 116.6,27  "
       id="XMLID_15_" /><polygon
       points="42.7,191.3 42.1,191.1 44.4,185.9 46.7,180.8 49,175.6 51.3,170.5 53.6,165.4 55.9,160.2    58.2,155.1 60.6,149.9 62.9,144.8 65.2,139.7 67.5,134.5 69.8,129.4 72.1,124.2 74.4,119.2 76.8,114 79.1,108.9 81.3,103.7    83.7,98.6 86,93.5 88.3,88.3 90.6,83.2 93,78 95.2,72.9 97.5,67.8 99.9,62.6 102.2,57.5 104.5,52.4 106.8,47.3 109.1,42.1    111.4,37 113.7,31.8 116.1,26.7 116.6,27 114.3,32.2 112,37.3 109.7,42.5 107.3,47.5 105,52.7 102.7,57.8 100.4,63 98.1,68.1    95.8,73.2 93.5,78.4 91.1,83.5 88.8,88.7 86.6,93.8 84.2,98.9 81.9,104.1 79.6,109.2 77.2,114.3 75,119.4 72.7,124.6 70.4,129.7    68,134.9 65.7,140 63.4,145.1 61.1,150.3 58.8,155.4 56.5,160.5 54.2,165.6 51.8,170.8 49.5,175.9 47.2,181.1 44.9,186.2    42.7,191.3 42.1,191.1 42.7,191.3 42.3,192.1 42.1,191.1  "
       id="XMLID_14_" /><polygon
       points="37.1,184.7 37.1,184.6 37.1,184.7 37.2,184.9 37.3,185 37.4,185.1 37.4,185.4 37.6,185.5    37.8,185.7 37.9,185.9 38.2,186.1 38.3,186.4 38.6,186.6 38.8,186.8 39,187.1 39.3,187.3 39.5,187.5 39.7,187.8 40,188 40.3,188.2    40.5,188.4 40.8,188.7 41,188.9 41.2,189.2 41.4,189.4 41.6,189.6 41.8,189.9 42,190.1 42.2,190.3 42.3,190.5 42.4,190.7    42.5,190.9 42.6,191.1 42.7,191.3 42.1,191.1 42,191 42,190.8 41.9,190.7 41.8,190.6 41.7,190.4 41.6,190.2 41.4,190 41.2,189.8    41,189.6 40.8,189.4 40.6,189.1 40.4,188.9 40.1,188.6 39.9,188.4 39.7,188.2 39.4,188 39.2,187.8 38.9,187.5 38.6,187.3 38.4,187    38.2,186.8 38,186.5 37.8,186.3 37.5,186.1 37.4,185.8 37.2,185.6 37.1,185.4 36.9,185.2 36.7,185 36.7,184.8 36.6,184.7    36.6,184.5 36.6,184.4 36.6,184.5 36.6,184.4  "
       id="XMLID_13_" /><polygon
       points="109.7,20.6 110.2,20.8 108,25.9 105.7,31 103.4,36.1 101.1,41.3 98.7,46.4 96.4,51.5 94.1,56.6    91.9,61.8 89.6,66.9 87.3,72 85.1,77.1 82.8,82.2 80.5,87.4 78.2,92.4 75.9,97.6 73.7,102.7 71.4,107.8 69.1,113 66.8,118.1    64.5,123.2 62.2,128.4 60,133.4 57.7,138.6 55.4,143.7 53.2,148.8 50.9,154 48.6,159.1 46.3,164.2 44,169.3 41.7,174.4 39.4,179.6    37.1,184.7 36.6,184.4 38.9,179.2 41.2,174.1 43.4,169 45.7,163.9 48,158.8 50.3,153.6 52.6,148.5 54.9,143.4 57.2,138.2    59.5,133.2 61.8,128 64.1,122.9 66.3,117.8 68.6,112.6 70.8,107.6 73.1,102.4 75.4,97.3 77.7,92.2 79.9,87 82.2,81.9 84.5,76.8    86.8,71.7 89.1,66.6 91.4,61.4 93.7,56.3 96,51.2 98.2,46.1 100.5,40.9 102.8,35.8 105.1,30.7 107.4,25.6 109.7,20.5 110.2,20.7    109.7,20.5 110.1,19.7 110.2,20.7  "
       id="XMLID_12_" /></g><g
     id="text24"
     style="font-size:50px;font-family:'Arial Black', 'Arial Bold', Gadget, sans-serif"><path
       id="path4154"
       style="font-size:50px;font-family:'Arial Black', 'Arial Bold', Gadget, sans-serif"
       d="m 32.295788,223.26463 10.522461,-0.65918 q 0.341797,2.56348 1.391601,3.90625 1.708985,2.17286 4.882813,2.17286 2.368164,0 3.637695,-1.09864 1.293945,-1.12304 1.293945,-2.58789 0,-1.3916 -1.220703,-2.49023 -1.220703,-1.09864 -5.664062,-2.0752 -7.275391,-1.63574 -10.375977,-4.3457 -3.125,-2.70996 -3.125,-6.90918 0,-2.75879 1.586914,-5.2002 1.611328,-2.46582 4.809571,-3.85742 3.222656,-1.41601 8.813476,-1.41601 6.860352,0 10.449219,2.56347 3.613281,2.53907 4.296875,8.10547 l -10.424805,0.61035 q -0.415039,-2.41699 -1.757812,-3.51562 -1.31836,-1.09863 -3.66211,-1.09863 -1.928711,0 -2.905273,0.83007 -0.976563,0.80567 -0.976563,1.97754 0,0.85449 0.805664,1.53809 0.78125,0.70801 3.710938,1.31836 7.250977,1.5625 10.375977,3.17383 3.149414,1.58691 4.565429,3.95507 1.44043,2.36817 1.44043,5.29786 0,3.44238 -1.904297,6.34765 -1.904297,2.90528 -5.322266,4.41895 -3.417968,1.48926 -8.618164,1.48926 -9.130859,0 -12.646484,-3.51563 -3.515625,-3.51562 -3.979492,-8.93555 z" /><path
       id="path4156"
       style="font-size:50px;font-family:'Arial Black', 'Arial Bold', Gadget, sans-serif"
       d="m 67.842663,199.31444 33.618167,0 0,8.83789 -11.2793,0 0,26.95312 -11.05957,0 0,-26.95312 -11.279297,0 0,-8.83789 z" /><path
       id="path4158"
       style="font-size:50px;font-family:'Arial Black', 'Arial Bold', Gadget, sans-serif"
       d="m 125.09364,229.19725 -12.59766,0 -1.7334,5.9082 -11.303706,0 13.452146,-35.79101 12.06055,0 13.45215,35.79101 -11.57227,0 -1.75781,-5.9082 z m -2.31934,-7.73926 -3.95507,-12.86621 -3.93067,12.86621 7.88574,0 z" /><path
       id="path4160"
       style="font-size:50px;font-family:'Arial Black', 'Arial Bold', Gadget, sans-serif"
       d="m 142.08583,235.10545 0,-35.79101 18.43261,0 q 5.12696,0 7.83692,0.8789 2.70996,0.87891 4.37012,3.27149 1.66015,2.36816 1.66015,5.78613 0,2.97852 -1.26953,5.15137 -1.26953,2.14844 -3.49121,3.49121 -1.41602,0.85449 -3.88184,1.41602 1.97754,0.65917 2.88086,1.31835 0.61035,0.43946 1.75782,1.87989 1.17187,1.44043 1.5625,2.22168 l 5.34667,10.37597 -12.5,0 -5.9082,-10.9375 q -1.12305,-2.12402 -2.00195,-2.75879 -1.19629,-0.83007 -2.70996,-0.83007 l -0.97656,0 0,14.52636 -11.1084,0 z m 11.1084,-21.28906 4.66308,0 q 0.75684,0 2.92969,-0.48828 1.09863,-0.21973 1.78223,-1.12305 0.708,-0.90332 0.708,-2.07519 0,-1.7334 -1.09863,-2.66114 -1.09863,-0.92773 -4.12598,-0.92773 l -4.85839,0 0,7.27539 z" /><path
       id="path4162"
       style="font-size:50px;font-family:'Arial Black', 'Arial Bold', Gadget, sans-serif"
       d="m 177.90126,199.31444 33.61816,0 0,8.83789 -11.2793,0 0,26.95312 -11.05957,0 0,-26.95312 -11.27929,0 0,-8.83789 z" /><path
       inkscape:connector-curvature="0"
       id="path400"
       d="M 112.86563,166.25433 C 105.71016,165.32469 95.659392,162.1883 88.833209,158.75488 81.574933,155.10412 72.658082,148.28582 68.172387,142.9565 l -2.265298,-2.69133 4.534241,-9.96119 c 2.493833,-5.47866 4.770487,-10.6262 5.059233,-11.43898 0.696708,-1.96114 0.947946,-1.51016 3.535458,6.34628 2.416522,7.33725 4.286792,11.78069 5.570392,13.2343 1.959841,2.2194 7.863036,5.51397 11.82995,6.60228 5.761527,1.58065 10.708397,1.23918 17.896187,-1.2353 6.56783,-2.26106 17.32161,-7.29414 25.47549,-11.92325 16.60612,-9.42761 26.54571,-13.22934 31.05543,-11.87819 2.59274,0.7768 5.75265,4.29614 7.31613,8.14831 0.64009,1.57707 1.4033,2.78755 1.69603,2.68998 0.29272,-0.0976 3.4743,-6.99877 7.07016,-15.33599 3.59587,-8.33721 6.74783,-15.1587 7.00436,-15.15885 0.26821,-1.6e-4 0.33468,3.03356 0.15641,7.13847 -0.48926,11.26636 -3.07555,19.2348 -9.38424,28.91319 -9.68119,14.85227 -27.63851,26.09014 -46.97241,29.39584 -6.25043,1.06868 -18.43505,1.29014 -24.88428,0.45226 z"
       style="fill:#ff0000;stroke-width:0.519182" /><path
       inkscape:connector-curvature="0"
       id="path402"
       d="m 58.264422,127.26132 c -3.610556,-8.05768 -5.198138,-18.12723 -4.21124,-26.7106 1.977676,-17.200506 11.808709,-32.7394 27.279576,-43.118003 3.580404,-2.401908 14.129793,-7.767539 14.514808,-7.382523 0.118098,0.118097 -2.824947,6.987422 -6.540098,15.265166 -3.715152,8.277744 -11.663918,26.14795 -17.663924,39.71157 -6.000008,13.56362 -11.081395,24.97088 -11.291973,25.34948 -0.248301,0.44642 -0.981873,-0.64845 -2.087149,-3.11509 z"
       style="fill:#ff0000;stroke-width:0.519182" /><path
       inkscape:connector-curvature="0"
       id="path404"
       d="M 58.868808,127.73513 C 50.78127,110.52963 53.375233,89.019022 65.473768,72.963055 69.284935,67.905254 76.178607,61.297401 80.92551,58.151958 85.283457,55.26425 94.78442,50.439339 94.991658,51.008692 95.127745,51.382565 63.065447,124.01372 60.862162,128.32271 l -0.894684,1.74974 z"
       style="fill:#ff0000;stroke-width:0.519182" /><path
       inkscape:connector-curvature="0"
       id="path406"
       d="m 134.55661,54.135839 c -3.14459,-0.549615 -4.91516,-1.282393 -7.07015,-2.926086 -1.63245,-1.245127 -4.35184,-5.083797 -4.35184,-6.143014 0,-0.661853 10.2273,0.130497 15.91449,1.232959 6.03818,1.1705 15.47707,4.190076 14.87576,4.758874 -0.88277,0.835039 -7.73962,2.593911 -12.02783,3.085296 -2.46671,0.28266 -4.60174,0.488365 -4.74452,0.457122 -0.14277,-0.03124 -1.31093,-0.240561 -2.59591,-0.465151 z"
       style="fill:#000000;stroke-width:0.519182" /><path
       inkscape:connector-curvature="0"
       id="path408"
       d="m 100.03104,143.12469 c -7.111042,-1.80836 -12.202213,-4.92131 -14.066898,-8.60109 -1.202168,-2.37237 -6.50274,-17.20235 -6.553084,-18.33427 -0.04626,-1.04001 35.605732,-84.383548 35.929292,-83.991789 0.18331,0.221956 0.98807,2.739874 1.78835,5.595373 2.92197,10.425946 5.68806,14.591336 11.63267,17.51735 3.35437,1.651063 3.59693,1.69097 9.93837,1.635071 7.71683,-0.06802 10.66698,-0.76522 22.35569,-5.28322 9.88589,-3.821166 17.90543,-6.151258 23.93297,-6.95377 8.40986,-1.119697 12.92544,0.559458 20.43393,7.598517 l 3.90132,3.657407 -14.66932,33.865343 c -8.06813,18.625938 -14.79958,33.870408 -14.95877,33.876598 -0.15919,0.006 -1.00571,-1.00491 -1.88114,-2.2469 -2.98392,-4.23332 -7.95179,-5.45742 -14.88747,-3.66832 -3.85543,0.99453 -16.48266,6.81379 -22.91893,10.5622 -7.26746,4.23247 -20.73186,10.6511 -26.6624,12.71025 -5.15276,1.7891 -10.89131,2.67749 -13.31458,2.06125 z"
       style="fill:#ff0000;stroke-width:0.519182" /><path
       inkscape:connector-curvature="0"
       id="path410"
       d="m 132.64819,53.399775 c -3.25712,-1.018439 -5.48803,-2.587181 -7.33328,-5.156643 -0.91361,-1.272184 -1.66111,-2.450092 -1.66111,-2.617574 0,-0.568846 6.98846,-0.301479 12.04583,0.460854 4.90738,0.739723 12.99617,2.830337 16.21036,4.189698 l 1.59675,0.675307 -1.55754,0.612018 c -2.84292,1.117091 -10.85713,2.570467 -14.01791,2.542147 -1.7133,-0.01535 -4.09069,-0.332964 -5.2831,-0.705807 z"
       style="fill:#000000;stroke-width:0.519182" /><path
       inkscape:connector-curvature="0"
       id="path412"
       d="m 95.370584,141.26616 c -3.169302,-1.24098 -4.753538,-2.24165 -6.749961,-4.26352 -2.395506,-2.42605 -2.8548,-3.32557 -5.62027,-11.00721 -1.656368,-4.6009 -3.042977,-8.80627 -3.081353,-9.34527 -0.08993,-1.26315 1.577546,-5.30053 18.309448,-44.331671 17.407342,-40.606759 16.712482,-39.04279 17.132942,-38.56239 0.19378,0.221399 1.23201,3.16257 2.30719,6.535936 2.36486,7.419757 4.88981,11.486387 8.61674,13.877952 3.83055,2.458055 5.9359,3.044077 11.02734,3.069448 7.26046,0.03618 11.26834,-0.853814 23.72221,-5.267758 15.35575,-5.442441 19.88056,-6.649926 26.21867,-6.996687 4.52192,-0.247397 5.58076,-0.136693 8.20622,0.85797 2.89812,1.097963 8.83525,5.437606 11.99134,8.764857 l 1.50702,1.588749 -1.33597,3.003941 c -0.73478,1.652168 -6.02191,13.806347 -11.74919,27.009288 -5.72727,13.202939 -11.71846,26.902735 -13.31377,30.443985 l -2.90055,6.43863 -2.35122,-2.51365 c -2.93564,-3.13843 -4.84021,-3.78842 -10.23711,-3.49368 -5.87318,0.32074 -10.59749,2.33106 -33.55206,14.27726 -16.01425,8.33426 -24.79951,11.59796 -31.10415,11.55512 -1.98317,-0.0135 -4.213692,-0.53323 -7.043516,-1.6413 z"
       style="fill:#000000;stroke-width:0.519182" /><path
       inkscape:connector-curvature="0"
       id="path414"
       d=""
       style="fill:#000000;stroke-width:0.519182" /><path
       inkscape:connector-curvature="0"
       id="path416"
       d="m 83.798909,135.80912 c -1.781216,-3.34191 -6.943327,-18.30469 -6.540128,-18.95708 0.852101,-1.37873 1.822218,0.37517 4.299953,7.77399 1.506103,4.49741 3.276232,9.15749 3.933621,10.35572 0.970119,1.76826 1.077129,2.34016 0.568127,3.03626 -0.544319,0.7444 -0.842944,0.45273 -2.261573,-2.20889 z"
       style="fill:#ff0000;stroke-width:0.519182" /><path
       inkscape:connector-curvature="0"
       id="path418"
       d="m 132.64819,53.43535 c -3.30364,-1.087195 -5.50419,-2.645267 -7.33328,-5.192218 -0.91361,-1.272184 -1.66111,-2.485832 -1.66111,-2.696995 0,-0.573598 11.11529,0.190162 15.52883,1.067025 5.41626,1.07608 14.21391,3.957986 13.68802,4.483877 -0.24195,0.241945 -2.30049,0.924424 -4.57454,1.51662 -5.33727,1.389904 -12.74007,1.778634 -15.64792,0.821691 z"
       style="fill:#000000;stroke-width:0.519182" /><path
       inkscape:connector-curvature="0"
       id="path420"
       d=""
       style="fill:#000000;stroke-width:0.519182" /><path
       inkscape:connector-curvature="0"
       id="path422"
       d=""
       style="fill:#000000;stroke-width:0.519182" /><path
       inkscape:connector-curvature="0"
       id="path424"
       d="m 83.989029,135.36715 c -1.401808,-2.86286 -5.544952,-14.16967 -6.218782,-16.97129 -0.188866,-0.78527 -0.130677,-1.42775 0.129308,-1.42775 0.553235,0 1.476552,2.20926 4.33962,10.38363 1.150158,3.28382 2.547156,6.8745 3.104438,7.97929 0.605702,1.20077 0.823975,2.19797 0.542679,2.47926 -0.281296,0.2813 -1.044402,-0.70137 -1.897263,-2.44314 z"
       style="fill:#000000;stroke-width:0.519182" /><path
       inkscape:connector-curvature="0"
       id="path426"
       d="m 132.64819,53.43535 c -3.30364,-1.087195 -5.50419,-2.645267 -7.33328,-5.192218 -0.91361,-1.272184 -1.66111,-2.485832 -1.66111,-2.696995 0,-0.573529 11.10866,0.189743 15.57545,1.070183 5.44791,1.073829 14.18358,3.938539 13.64686,4.475253 -0.24495,0.244951 -2.30595,0.92989 -4.58,1.522086 -5.33727,1.389904 -12.74007,1.778634 -15.64792,0.821691 z"
       style="fill:#ff0000;stroke-width:0.519182" /></g></svg>
