<?xml version="1.0" encoding="UTF-8" standalone="no"?>
<svg
   xmlns:dc="http://purl.org/dc/elements/1.1/"
   xmlns:cc="http://creativecommons.org/ns#"
   xmlns:rdf="http://www.w3.org/1999/02/22-rdf-syntax-ns#"
   xmlns:svg="http://www.w3.org/2000/svg"
   xmlns="http://www.w3.org/2000/svg"
   xmlns:sodipodi="http://sodipodi.sourceforge.net/DTD/sodipodi-0.dtd"
   xmlns:inkscape="http://www.inkscape.org/namespaces/inkscape"
   sodipodi:docname="step-up.svg"
   inkscape:version="1.0beta2 (2b71d25, 2019-12-03)"
   xml:space="preserve"
   style="enable-background:new 0 0 250 250;"
   viewBox="0 0 250 250"
   y="0px"
   x="0px"
   id="Layer_1"
   version="1.1"><metadata
     id="metadata4243"><rdf:RDF><cc:Work
         rdf:about=""><dc:format>image/svg+xml</dc:format><dc:type
           rdf:resource="http://purl.org/dc/dcmitype/StillImage" /></cc:Work></rdf:RDF></metadata><defs
     id="defs4241" /><sodipodi:namedview
     inkscape:document-rotation="0"
     inkscape:current-layer="Layer_1"
     inkscape:window-maximized="0"
     inkscape:window-y="23"
     inkscape:window-x="0"
     inkscape:cy="139.51379"
     inkscape:cx="126.6328"
     inkscape:zoom="2.756"
     showgrid="false"
     id="namedview4239"
     inkscape:window-height="797"
     inkscape:window-width="1377"
     inkscape:pageshadow="2"
     inkscape:pageopacity="0"
     guidetolerance="10"
     gridtolerance="10"
     objecttolerance="10"
     borderopacity="1"
     bordercolor="#666666"
     pagecolor="#ffffff" /><path
     inkscape:connector-curvature="0"
     d="m 153.16456,200.59593 -76.2034,0 c -5.787605,0 -10.610615,-4.57373 -10.610615,-10.06221 0,-5.48846 4.82301,-10.06219 10.610615,-10.06219 l 55.17511,0 0,-54.88477 80.25473,0 c 5.78759,0 10.61061,4.57373 10.61061,10.06221 0,5.48848 -4.82302,10.06222 -10.61061,10.06222 l -59.22644,0 0,54.88474 z"
     id="XMLID_12_" /><g
     transform="matrix(1.9292,0,0,1.8294917,24.486906,-102.002)"
     id="XMLID_19_"><g
       id="XMLID_21_"><g
         id="XMLID_23_"><path
           inkscape:connector-curvature="0"
           d="m 50.6,97.3 c 0,0.4 -0.1,0.7 -0.4,1 l -9.2,9.2 c -0.5,0.5 -1.4,0.5 -2,0 -0.5,-0.5 -0.5,-1.4 0,-2 l 9.2,-9.2 c 0.5,-0.5 1.4,-0.5 2,0 0.3,0.3 0.4,0.7 0.4,1 z"
           id="XMLID_11_" /><g
           id="XMLID_24_"><polygon
             points="59.5,87.1 59.5,110.7 35.8,87.1 "
             id="XMLID_10_" /></g></g><rect
         height="7.9000001"
         width="35.200001"
         transform="matrix(0.707,-0.7072,0.7072,0.707,-66.6008,58.2871)"
         y="105.6"
         x="19.5"
         id="XMLID_7_" /></g><path
       inkscape:connector-curvature="0"
       d="m 37,132.8 c 0,0.4 -0.1,0.7 -0.4,1 -0.5,0.5 -1.4,0.5 -2,0 L 11.9,111 c -0.5,-0.5 -0.5,-1.4 0,-2 0.5,-0.5 1.4,-0.5 2,0 l 22.7,22.7 c 0.3,0.4 0.4,0.7 0.4,1.1 z"
       id="XMLID_2_" /></g><path
     inkscape:connector-curvature="0"
     id="path194"
     d="m 73.091836,199.6009 c -2.617445,-1.00485 -5.178803,-3.61785 -6.015433,-6.13671 -1.221204,-3.6767 -0.04224,-7.52827 3.137508,-10.25003 2.919771,-2.49921 1.663642,-2.40864 33.406599,-2.40864 h 28.6001 v -27.58369 -27.58369 l 41.27358,0.0982 41.27359,0.0982 1.67721,0.77552 c 2.29251,1.06002 4.46798,3.1083 5.44509,5.12674 0.98082,2.02609 1.0803,5.39733 0.21868,7.41038 -0.86354,2.01753 -3.31714,4.4617 -5.44437,5.42348 l -1.89661,0.8575 -30.93251,0.0986 -30.93251,0.0986 v 27.38687 27.38687 l -38.9151,-0.0189 c -38.612684,-0.0188 -38.930484,-0.0248 -40.895824,-0.77932 z"
     style="fill:#ff0000;stroke-width:0.362845" /></svg>
