<?xml version="1.0" encoding="UTF-8" standalone="no"?>
<svg
   xmlns:dc="http://purl.org/dc/elements/1.1/"
   xmlns:cc="http://creativecommons.org/ns#"
   xmlns:rdf="http://www.w3.org/1999/02/22-rdf-syntax-ns#"
   xmlns:svg="http://www.w3.org/2000/svg"
   xmlns="http://www.w3.org/2000/svg"
   xmlns:sodipodi="http://sodipodi.sourceforge.net/DTD/sodipodi-0.dtd"
   xmlns:inkscape="http://www.inkscape.org/namespaces/inkscape"
   sodipodi:docname="step-down.svg"
   inkscape:version="1.0beta2 (2b71d25, 2019-12-03)"
   xml:space="preserve"
   style="enable-background:new 0 0 250 250;"
   viewBox="0 0 250 250"
   y="0px"
   x="0px"
   id="Layer_1"
   version="1.1"><metadata
     id="metadata4470"><rdf:RDF><cc:Work
         rdf:about=""><dc:format>image/svg+xml</dc:format><dc:type
           rdf:resource="http://purl.org/dc/dcmitype/StillImage" /></cc:Work></rdf:RDF></metadata><defs
     id="defs4468" /><sodipodi:namedview
     inkscape:document-rotation="0"
     inkscape:current-layer="Layer_1"
     inkscape:window-maximized="0"
     inkscape:window-y="23"
     inkscape:window-x="20"
     inkscape:cy="125"
     inkscape:cx="129.76695"
     inkscape:zoom="0.944"
     showgrid="false"
     id="namedview4466"
     inkscape:window-height="766"
     inkscape:window-width="1313"
     inkscape:pageshadow="2"
     inkscape:pageopacity="0"
     guidetolerance="10"
     gridtolerance="10"
     objecttolerance="10"
     borderopacity="1"
     bordercolor="#666666"
     pagecolor="#ffffff" /><g
     transform="matrix(2.448088,0,0,2.4523234,-4.2307656,-194.66345)"
     id="XMLID_19_"><g
       id="XMLID_21_"><g
         id="XMLID_23_"><path
           inkscape:connector-curvature="0"
           d="m 75.8,125.7 c -0.4,0 -0.7,-0.1 -1,-0.4 l -9.2,-9.2 c -0.5,-0.5 -0.5,-1.4 0,-2 0.5,-0.5 1.4,-0.5 2,0 l 9.2,9.2 c 0.5,0.5 0.5,1.4 0,2 -0.3,0.3 -0.7,0.4 -1,0.4 z"
           id="XMLID_11_" /><g
           id="XMLID_24_"><polygon
             points="62.4,134.6 86,110.9 86,134.6 "
             id="XMLID_10_" /></g></g><rect
         height="7.9000001"
         width="35.200001"
         transform="matrix(0.7072,0.707,-0.707,0.7072,97.9159,-12.1125)"
         y="108.2"
         x="46"
         id="XMLID_7_" /></g><path
       inkscape:connector-curvature="0"
       d="m 40.3,112.1 c -0.4,0 -0.7,-0.1 -1,-0.4 -0.5,-0.5 -0.5,-1.4 0,-2 L 62.1,87 c 0.5,-0.5 1.4,-0.5 2,0 0.5,0.5 0.5,1.4 0,2 l -22.7,22.7 c -0.4,0.3 -0.7,0.4 -1.1,0.4 z"
       id="XMLID_2_" /></g><path
     inkscape:connector-curvature="0"
     d="m 209.73212,210.95085 -96.94428,0 0,-73.56971 -74.911492,0 c -7.344264,0 -13.464484,-6.1308 -13.464484,-13.48777 0,-7.35698 6.12022,-13.48778 13.464484,-13.48778 l 101.840452,0 0,73.5697 70.01532,0 c 7.34427,0 13.46449,6.13081 13.46449,13.48778 0,7.35697 -6.12022,13.48778 -13.46449,13.48778 z"
     id="XMLID_1_" /><path
     inkscape:connector-curvature="0"
     id="path196"
     d="m 113.45339,173.83475 v -36.54661 l -37.341101,-0.006 c -21.447549,-0.003 -38.952666,-0.45359 -41.127391,-1.05771 -10.158807,-2.82204 -12.902306,-14.3488 -5.177127,-21.7516 l 3.274839,-3.13817 52.897254,-0.29342 52.897256,-0.29341 v 37.10485 37.10486 h 37.17766 c 33.1408,0 37.50986,0.19624 40.23712,1.80727 3.27042,1.93188 6.27166,7.12521 6.27166,10.85246 0,3.6398 -3.00368,8.45142 -6.67219,10.68824 -3.23566,1.97289 -5.66521,2.06802 -52.91467,2.0718 l -49.52331,0.004 z"
     style="fill:#ff0000;stroke-width:1.05932" /></svg>
