<?xml version="1.0" encoding="UTF-8" standalone="no"?>
<svg
   xmlns:dc="http://purl.org/dc/elements/1.1/"
   xmlns:cc="http://creativecommons.org/ns#"
   xmlns:rdf="http://www.w3.org/1999/02/22-rdf-syntax-ns#"
   xmlns:svg="http://www.w3.org/2000/svg"
   xmlns="http://www.w3.org/2000/svg"
   xmlns:sodipodi="http://sodipodi.sourceforge.net/DTD/sodipodi-0.dtd"
   xmlns:inkscape="http://www.inkscape.org/namespaces/inkscape"
   height="200"
   width="180"
   sodipodi:docname="Stony-rocky-track.svg"
   inkscape:version="1.0beta2 (2b71d25, 2019-12-03)"
   xml:space="preserve"
   viewBox="0 0 180 200"
   y="0px"
   x="0px"
   id="Layer_1"
   version="1.1"><metadata
     id="metadata15"><rdf:RDF><cc:Work
         rdf:about=""><dc:format>image/svg+xml</dc:format><dc:type
           rdf:resource="http://purl.org/dc/dcmitype/StillImage" /><dc:title></dc:title></cc:Work></rdf:RDF></metadata><defs
     id="defs13" /><sodipodi:namedview
     inkscape:document-rotation="0"
     inkscape:current-layer="Layer_1"
     inkscape:window-maximized="0"
     inkscape:window-y="23"
     inkscape:window-x="423"
     inkscape:cy="97.536054"
     inkscape:cx="89.49415"
     inkscape:zoom="2.0744243"
     showgrid="false"
     id="namedview11"
     inkscape:window-height="797"
     inkscape:window-width="1017"
     inkscape:pageshadow="2"
     inkscape:pageopacity="0"
     guidetolerance="10"
     gridtolerance="10"
     objecttolerance="10"
     borderopacity="1"
     bordercolor="#666666"
     pagecolor="#ffffff" /><style
     id="style3"
     type="text/css">
	.st0{font-family:&quot;Arial Black&quot;, &quot;Arial Bold&quot;, Gadget, sans-serif;}
	.st1{font-size:118.4014px;}
	
		.st2{fill-rule:evenodd;clip-rule:evenodd;fill:none;stroke:#000000;stroke-width:18.9859;stroke-linecap:round;stroke-miterlimit:10;}
</style><path
     inkscape:connector-curvature="0"
     id="path3365"
     style="font-size:129.111px;font-family:'Arial Black', 'Arial Bold', Gadget, sans-serif"
     d="m 5.0874601,127.61237 20.7601079,-2.1372 q 0.674349,8.31135 2.745556,12.66491 3.371709,7.04486 9.633455,7.04486 4.67223,0 7.176932,-3.56202 2.552871,-3.64115 2.552871,-8.39049 0,-4.51188 -2.408373,-8.07388 -2.408355,-3.56201 -11.174812,-6.72824 Q 20.019325,113.12688 13.902078,104.3406 7.7366611,95.554324 7.7366611,81.939548 q 0,-8.944591 3.1308809,-16.860158 3.179043,-7.994723 9.488958,-12.506597 6.358093,-4.591029 17.388407,-4.591029 13.535024,0 20.615609,8.311346 7.128762,8.23219 8.477451,26.279684 l -20.567449,1.978891 q -0.818838,-7.83641 -3.468038,-11.398417 -2.601041,-3.562005 -7.225101,-3.562005 -3.805222,0 -5.731922,2.691293 -1.926691,2.612137 -1.926691,6.41161 0,2.770447 1.589534,4.986806 1.541348,2.295515 7.321421,4.274407 14.305703,5.065963 20.47112,10.290237 6.213586,5.145124 9.007285,12.823224 2.841876,7.67809 2.841876,17.17678 0,11.16095 -3.757044,20.58048 -3.757062,9.41953 -10.500481,14.32716 -6.743428,4.82851 -17.003063,4.82851 -18.014587,0 -24.950682,-11.3984 -6.9360859,-11.39843 -7.8512719,-28.971 z" /><path
     inkscape:connector-curvature="0"
     id="path3343"
     style="font-size:142.209px;font-family:'Arial Black', 'Arial Bold', Gadget, sans-serif;stroke-width:0.850634"
     d="M 73.473277,166.00287 V 47.550347 h 31.340243 q 8.71716,0 13.32479,2.908793 4.60764,2.908792 7.43034,10.827174 2.8227,7.837582 2.8227,19.149556 0,9.857577 -2.15854,17.048761 -2.15853,7.110379 -5.93596,11.554369 -2.4076,2.828 -6.60014,4.68638 3.36234,2.1816 4.89821,4.36319 1.03776,1.45441 2.98874,6.22159 1.99249,4.76719 2.65666,7.3528 l 9.09076,34.33991 h -21.25327 l -10.04548,-36.19832 q -1.90947,-7.02959 -3.403836,-9.13038 -2.034007,-2.7472 -4.607637,-2.7472 h -1.66041 v 48.0759 z m 18.88717,-70.457435 h 7.928453 q 1.28682,0 4.98123,-1.615996 1.86796,-0.727198 3.03025,-3.716792 1.20379,-2.989593 1.20379,-6.867984 0,-5.736786 -1.86796,-8.80718 -1.86796,-3.070392 -7.01523,-3.070392 h -8.260533 z" /><path
     inkscape:connector-curvature="0"
     id="path3347-7"
     style="font-size:131.791px;font-family:'Arial Black', 'Arial Bold', Gadget, sans-serif;stroke-width:0.488438"
     d="m 132.28419,17.611893 h 13.48048 l 7.0239,15.41309 6.80778,-15.41309 h 13.3454 l -12.31883,24.264512 13.48048,25.836576 h -13.75063 l -7.80734,-16.096595 -7.83435,16.096595 H 131.0415 l 13.66958,-26.109978 z" /></svg>
