<?xml version="1.0" encoding="UTF-8" standalone="no"?>
<svg
   xmlns:dc="http://purl.org/dc/elements/1.1/"
   xmlns:cc="http://creativecommons.org/ns#"
   xmlns:rdf="http://www.w3.org/1999/02/22-rdf-syntax-ns#"
   xmlns:svg="http://www.w3.org/2000/svg"
   xmlns="http://www.w3.org/2000/svg"
   xmlns:sodipodi="http://sodipodi.sourceforge.net/DTD/sodipodi-0.dtd"
   xmlns:inkscape="http://www.inkscape.org/namespaces/inkscape"
   version="1.1"
   id="Layer_1"
   x="0px"
   y="0px"
   viewBox="0 0 250 250"
   style="enable-background:new 0 0 250 250;"
   xml:space="preserve"
   inkscape:version="1.0beta2 (2b71d25, 2019-12-03)"
   sodipodi:docname="time-control.svg"><metadata
     id="metadata4205"><rdf:RDF><cc:Work
         rdf:about=""><dc:format>image/svg+xml</dc:format><dc:type
           rdf:resource="http://purl.org/dc/dcmitype/StillImage" /><dc:title></dc:title></cc:Work></rdf:RDF></metadata><defs
     id="defs4203" /><sodipodi:namedview
     pagecolor="#ffffff"
     bordercolor="#666666"
     borderopacity="1"
     objecttolerance="10"
     gridtolerance="10"
     guidetolerance="10"
     inkscape:pageopacity="0"
     inkscape:pageshadow="2"
     inkscape:window-width="1240"
     inkscape:window-height="780"
     id="namedview4201"
     showgrid="false"
     inkscape:zoom="2.7158796"
     inkscape:cx="133.56037"
     inkscape:cy="124.66683"
     inkscape:current-layer="Layer_1"
     inkscape:window-x="117"
     inkscape:window-y="23"
     inkscape:window-maximized="0"
     inkscape:document-rotation="0" /><style
     type="text/css"
     id="style4196">
	.st0{fill-rule:evenodd;clip-rule:evenodd;}
</style><path
     style="clip-rule:evenodd;fill-rule:evenodd"
     inkscape:connector-curvature="0"
     d="m 211.9,126.80806 -0.3,-3.98137 -0.5,-3.98138 -0.7,-3.87377 -1,-3.87376 -1.2,-3.76617 -1.4,-3.65856 -1.6,-3.55095 -1.8,-3.443349 -2,-3.443349 -2.1,-3.335745 -2.3,-3.22814 -2.4,-3.120535 -2.6,-3.012931 -2.8,-2.905326 -2.9,-2.797721 -3.1,-2.582512 -3.2,-2.474908 -3.3,-2.367302 -3.5,-2.152094 -3.5,-2.044489 -3.7,-1.936884 -3.8,-1.721674 -3.9,-1.61407 -4,-1.398861 -4.1,-1.183651 -4.2,-1.076047 -4.2,-0.860837 -4.3,-0.753233 -4.3,-0.538023 -4.5,-0.322814 -4.5,-0.107605 -4.5,0.107605 -4.5,0.322814 -4.3,0.538023 -4.3,0.753233 -4.2,0.860837 -4.2,1.076047 -4.1,1.183651 -4,1.398861 -3.9,1.61407 -3.8,1.721674 -3.7,1.936884 -3.5,2.044489 -3.5,2.152094 -3.3,2.367302 -3.2,2.474908 -3.1,2.582512 -2.9,2.797721 -2.8,2.905326 -2.6,3.012931 -2.4,3.120535 -2.3,3.22814 -2.1,3.335745 -2,3.443349 -1.8,3.443349 -1.6,3.55095 -1.4,3.65856 -1.2,3.76617 -1,3.87376 -0.7,3.87377 -0.5,3.98138 -0.3,3.98137 -0.1,3.98137 0.1,3.98137 0.3,3.98138 0.5,3.98137 0.7,3.87377 1,3.87377 1.2,3.76616 1.4,3.65856 1.6,3.55095 1.8,3.44335 2,3.44335 2.1,3.33574 2.3,3.22814 2.4,3.12054 2.6,3.01293 2.8,2.90533 2.9,2.79772 3.1,2.58251 3.2,2.47491 3.3,2.3673 3.5,2.15209 3.5,2.04449 3.7,1.93689 3.8,1.72167 3.9,1.61407 4,1.39886 4.1,1.18365 4.2,1.07605 4.2,0.86084 4.3,0.75323 4.3,0.53802 4.5,0.32282 4.5,0.1076 4.5,-0.1076 4.5,-0.32282 4.3,-0.53802 4.3,-0.75323 4.2,-0.86084 4.2,-1.07605 4.1,-1.18365 4,-1.39886 3.9,-1.61407 3.8,-1.72167 3.7,-1.93689 3.5,-2.04449 3.5,-2.15209 3.3,-2.3673 3.2,-2.47491 3.1,-2.58251 2.9,-2.79772 2.8,-2.90533 2.6,-3.01293 2.4,-3.12054 2.3,-3.22814 2.1,-3.33574 2,-3.44335 1.8,-3.44335 1.6,-3.55095 1.4,-3.65856 1.2,-3.76616 1,-3.87377 0.7,-3.87377 0.5,-3.98137 0.3,-3.98138 0.1,-3.98137 -0.1,-3.98137 z m -16.6,7.31712 -0.3,3.22814 -0.5,3.22814 -0.6,3.22814 -0.8,3.12053 -1,3.01293 -1.2,3.01293 -1.3,2.90533 -1.4,2.79772 -1.6,2.79772 -1.7,2.69012 -1.8,2.58251 -2,2.47491 -2.1,2.3673 -2.2,2.3673 -2.4,2.1521 -2.4,2.15209 -2.6,2.04449 -2.7,1.93688 -2.8,1.72168 -2.8,1.72167 -3,1.50647 -3.1,1.39886 -3.1,1.29125 -3.3,1.18365 -3.3,0.96845 -3.4,0.96844 -3.5,0.64563 -3.5,0.64562 -3.6,0.32282 -3.6,0.21521 -3.6,0.1076 -3.7,-0.1076 -3.6,-0.21521 -3.6,-0.32282 -3.5,-0.64562 -3.5,-0.64563 -3.4,-0.96844 -3.3,-0.96845 -3.3,-1.18365 -3.1,-1.29125 -3.1,-1.39886 -3,-1.50647 -2.8,-1.72167 -2.8,-1.72168 -2.7,-1.93688 -2.6,-2.04449 -2.4,-2.15209 -2.4,-2.1521 -2.2,-2.3673 -2.1,-2.3673 -2,-2.47491 -1.8,-2.58251 -1.7,-2.69012 -1.6,-2.79772 -1.4,-2.79772 -1.3,-2.90533 -1.2,-3.01293 -1,-3.01293 -0.8,-3.12053 -0.6,-3.22814 -0.5,-3.22814 -0.3,-3.22814 -0.1,-3.33575 0.1,-3.33574 0.3,-3.22814 0.5,-3.22814 0.6,-3.22814 0.8,-3.12054 1,-3.01293 1.2,-3.01293 1.3,-2.90533 1.4,-2.79772 1.6,-2.79772 1.7,-2.690116 1.8,-2.582512 2,-2.474908 2.1,-2.367302 2.2,-2.367303 2.4,-2.152093 2.4,-2.152094 2.6,-2.044488 2.7,-1.936884 2.8,-1.721675 2.8,-1.721675 3,-1.506465 3.1,-1.398861 3.1,-1.291256 3.3,-1.183651 3.3,-0.968442 3.4,-0.968442 3.5,-0.645628 3.5,-0.645628 3.8,-0.215209 3.6,-0.21521 3.7,-0.107604 3.6,0.107604 3.6,0.21521 3.6,0.322814 3.5,0.645628 3.5,0.645628 3.4,0.968442 3.3,0.968442 3.3,1.183651 3.1,1.291256 3.1,1.398861 3,1.506465 2.8,1.721675 2.8,1.721674 2.7,1.936884 2.6,2.044489 2.4,2.152093 2.4,2.152094 2.2,2.367302 2.1,2.367303 2,2.474907 1.8,2.582513 1.7,2.690121 1.6,2.79772 1.4,2.79772 1.3,2.90532 1.2,3.01293 1,3.01294 0.8,3.12053 0.6,3.22814 0.5,3.22814 0.3,3.22814 0.1,3.33575 -0.3,3.22814 z"
     class="st0"
     id="XMLID_13_" /><path
     d="M 126.46289 67.052734 C 120.45384 66.977487 113.22142 67.448473 109.12305 68.28125 C 91.395223 71.883491 76.326797 80.894505 66.003906 94.068359 C 60.154472 101.53328 55.823171 110.85442 54.017578 119.86328 C 50.824556 135.7946 54.921045 152.68404 65.400391 166.78906 C 68.030137 170.32866 74.371795 176.66298 78.208984 179.58398 C 88.804092 187.64935 102.82688 193.10846 116.25391 194.39258 C 121.59549 194.90343 131.94669 194.53915 137.07422 193.66016 C 145.90237 192.1468 156.26147 188.3542 163.35156 184.03906 C 172.10932 178.70894 180.29747 170.87264 185.41406 162.92383 C 187.66798 159.42229 191.09583 152.22912 192.44727 148.16797 C 195.30397 139.58341 196.00321 128.19012 194.19922 119.60352 C 193.02584 114.01845 191.93791 110.87041 189.32227 105.48242 C 179.08583 84.39628 157.09111 69.776204 131.9043 67.316406 C 130.33456 67.163102 128.46591 67.077817 126.46289 67.052734 z "
     style="fill:#ff0000;stroke:#ff0000;stroke-width:0.10862"
     id="path4228" /><g
     style="font-size:142.209px;font-family:'Arial Black', 'Arial Bold', Gadget, sans-serif"
     id="g4172"
     transform="matrix(0.58905451,0,0,0.59314353,50.453212,57.674389)"><circle
       style="fill:none;stroke:#000000;stroke-width:9.90579;stroke-miterlimit:4;stroke-dasharray:none;stroke-opacity:1"
       id="path3338"
       cx="125"
       cy="125"
       r="90.047104" /><circle
       style="fill:none;stroke:#000000;stroke-width:4.79763;stroke-miterlimit:4;stroke-dasharray:none;stroke-opacity:1"
       id="path4140"
       cx="125"
       cy="127"
       r="70.101181" /><rect
       style="fill:none;stroke:#000000;stroke-width:2.72525;stroke-miterlimit:4;stroke-dasharray:none;stroke-opacity:1"
       id="rect4145"
       width="17.274754"
       height="2.2747536"
       x="57.971638"
       y="126.68589" /><rect
       style="fill:none;stroke:#000000;stroke-width:2.72525;stroke-miterlimit:4;stroke-dasharray:none;stroke-opacity:1"
       id="rect4145-3"
       width="17.274754"
       height="2.2747536"
       x="174.60677"
       y="126.54404" /><rect
       style="fill:none;stroke:#000000;stroke-width:2.72525;stroke-miterlimit:4;stroke-dasharray:none;stroke-opacity:1"
       id="rect4145-8"
       width="17.274754"
       height="2.2747536"
       x="58.93544"
       y="-125.94878"
       transform="rotate(90)" /><rect
       style="fill:none;stroke:#000000;stroke-width:2.72525;stroke-miterlimit:4;stroke-dasharray:none;stroke-opacity:1"
       id="rect4145-3-3"
       width="17.274754"
       height="2.2747536"
       x="177.43375"
       y="-126.00594"
       transform="rotate(90)" /><rect
       style="fill:none;stroke:#000000;stroke-width:4.42067;stroke-miterlimit:4;stroke-dasharray:none;stroke-opacity:1"
       id="rect4145-8-4"
       width="6.0942311"
       height="16.966522"
       x="47.733376"
       y="-133.08099"
       transform="rotate(90)" /><rect
       style="fill:none;stroke:#000000;stroke-width:3.70225;stroke-miterlimit:4;stroke-dasharray:none;stroke-opacity:1"
       id="rect4145-8-4-3"
       width="5.1127992"
       height="14.184316"
       x="-52.623669"
       y="-184.72133"
       transform="matrix(-0.60474093,0.79642226,-0.78833083,-0.61525158,0,0)"
       inkscape:transform-center-x="10.988215"
       inkscape:transform-center-y="28.707006" /><rect
       style="fill:none;stroke:#000000;stroke-width:3.70225;stroke-miterlimit:4;stroke-dasharray:none;stroke-opacity:1"
       id="rect4145-8-4-3-4"
       width="5.1127992"
       height="14.184316"
       x="101.71954"
       y="-25.402578"
       transform="matrix(0.63658474,0.77120676,-0.77958266,0.62629935,0,0)"
       inkscape:transform-center-x="-25.423644"
       inkscape:transform-center-y="17.276322" /><path
       style="fill:none;fill-rule:evenodd;stroke:#000000;stroke-width:4;stroke-linecap:butt;stroke-linejoin:miter;stroke-miterlimit:4;stroke-dasharray:none;stroke-opacity:1"
       d="M 167.34417,93.971545 125.84688,127 97.560976,105.48916"
       id="path4231"
       inkscape:connector-curvature="0" /></g></svg>
