<?xml version="1.0" encoding="UTF-8" standalone="no"?>
<svg
   xmlns:dc="http://purl.org/dc/elements/1.1/"
   xmlns:cc="http://creativecommons.org/ns#"
   xmlns:rdf="http://www.w3.org/1999/02/22-rdf-syntax-ns#"
   xmlns:svg="http://www.w3.org/2000/svg"
   xmlns="http://www.w3.org/2000/svg"
   xmlns:sodipodi="http://sodipodi.sourceforge.net/DTD/sodipodi-0.dtd"
   xmlns:inkscape="http://www.inkscape.org/namespaces/inkscape"
   sodipodi:docname="water-crossing.svg"
   inkscape:version="1.0beta2 (2b71d25, 2019-12-03)"
   xml:space="preserve"
   style="enable-background:new 0 0 250 250;"
   viewBox="0 0 250 250"
   y="0px"
   x="0px"
   id="Layer_1"
   version="1.1"><metadata
     id="metadata4205"><rdf:RDF><cc:Work
         rdf:about=""><dc:format>image/svg+xml</dc:format><dc:type
           rdf:resource="http://purl.org/dc/dcmitype/StillImage" /><dc:title></dc:title></cc:Work></rdf:RDF></metadata><defs
     id="defs4203" /><sodipodi:namedview
     inkscape:document-rotation="0"
     inkscape:window-maximized="0"
     inkscape:window-y="23"
     inkscape:window-x="481"
     inkscape:current-layer="Layer_1"
     inkscape:cy="83.82779"
     inkscape:cx="165.37255"
     inkscape:zoom="1.8408638"
     showgrid="false"
     id="namedview4201"
     inkscape:window-height="797"
     inkscape:window-width="959"
     inkscape:pageshadow="2"
     inkscape:pageopacity="0"
     guidetolerance="10"
     gridtolerance="10"
     objecttolerance="10"
     borderopacity="1"
     bordercolor="#666666"
     pagecolor="#ffffff" /><style
     id="style4196"
     type="text/css">
	.st0{fill-rule:evenodd;clip-rule:evenodd;}
</style><path
     sodipodi:nodetypes="csssssc"
     inkscape:connector-curvature="0"
     id="path4237"
     d="m 238.45644,76.037923 c -8.66501,13.65004 -29.28403,13.444867 -37.81881,0 -8.14359,-12.828627 -30.5065,-11.519111 -37.81882,0 -8.3866,13.211456 -28.87764,14.085032 -37.8188,0 -7.99183,-12.589582 -29.908153,-12.461691 -37.818833,0 -8.357698,13.165928 -28.984629,13.916478 -37.818809,0 -8.005417,-12.610964 -29.463705,-13.161813 -37.818811,0"
     style="fill:none;fill-rule:evenodd;stroke:#0000ff;stroke-width:3.59432936;stroke-linecap:butt;stroke-linejoin:miter;stroke-miterlimit:4;stroke-dasharray:none;stroke-opacity:1" /><path
     sodipodi:nodetypes="csssssc"
     inkscape:connector-curvature="0"
     id="path4237-8"
     d="m 238.45644,154.04281 c -8.66501,13.65003 -29.28403,13.44486 -37.81881,0 -8.14359,-12.82863 -30.5065,-11.51912 -37.81882,0 -8.38661,13.21145 -28.87764,14.08502 -37.8188,0 -7.99184,-12.58958 -29.908148,-12.46169 -37.818829,0 -8.357699,13.16592 -28.984631,13.91647 -37.818812,0 -8.005416,-12.61096 -29.463705,-13.16182 -37.818812,0"
     style="fill:none;fill-rule:evenodd;stroke:#0000ff;stroke-width:3.59433;stroke-linecap:butt;stroke-linejoin:miter;stroke-miterlimit:4;stroke-dasharray:none;stroke-opacity:1" /><path
     style="fill:none;fill-rule:evenodd;stroke:#0000ff;stroke-width:3.59433;stroke-linecap:butt;stroke-linejoin:miter;stroke-miterlimit:4;stroke-dasharray:none;stroke-opacity:1"
     d="m 238.45644,95.835103 c -8.66501,13.650157 -29.28403,13.444987 -37.81881,0 -8.14359,-12.828627 -30.5065,-11.519111 -37.81882,0 -8.3866,13.211567 -28.87764,14.085167 -37.8188,0 -7.99183,-12.589582 -29.908153,-12.461691 -37.818833,0 -8.357698,13.166047 -28.984629,13.916607 -37.818809,0 -8.005417,-12.610964 -29.463705,-13.161813 -37.818811,0"
     id="path3760"
     inkscape:connector-curvature="0"
     sodipodi:nodetypes="csssssc" /><path
     sodipodi:nodetypes="csssssc"
     inkscape:connector-curvature="0"
     id="path3762"
     d="m 238.45644,114.87105 c -8.66501,13.65021 -29.28403,13.44504 -37.81881,0 -8.14359,-12.8288 -30.5065,-11.51927 -37.81882,0 -8.3866,13.21162 -28.87764,14.08522 -37.8188,0 -7.99183,-12.58975 -29.908153,-12.46186 -37.818833,0 -8.357698,13.1661 -28.984629,13.91666 -37.818809,0 -8.005417,-12.61114 -29.463705,-13.16199 -37.818811,0"
     style="fill:none;fill-rule:evenodd;stroke:#0000ff;stroke-width:3.59433;stroke-linecap:butt;stroke-linejoin:miter;stroke-miterlimit:4;stroke-dasharray:none;stroke-opacity:1" /><path
     style="fill:none;fill-rule:evenodd;stroke:#0000ff;stroke-width:3.59433;stroke-linecap:butt;stroke-linejoin:miter;stroke-miterlimit:4;stroke-dasharray:none;stroke-opacity:1"
     d="m 238.45644,133.90705 c -8.66501,13.65021 -29.28403,13.44504 -37.81881,0 -8.14359,-12.8288 -30.5065,-11.51927 -37.81882,0 -8.3866,13.21162 -28.87764,14.08522 -37.8188,0 -7.99183,-12.58975 -29.908153,-12.46186 -37.818833,0 -8.357698,13.1661 -28.984629,13.91666 -37.818809,0 -8.005417,-12.61114 -29.463705,-13.16199 -37.818811,0"
     id="path3764"
     inkscape:connector-curvature="0"
     sodipodi:nodetypes="csssssc" /><g
     style="font-size:142.209px;font-family:'Arial Black', 'Arial Bold', Gadget, sans-serif"
     id="g3337"
     transform="matrix(0.76093927,0,0,0.7304628,230.92603,42.852693)"><rect
       y="14.865988"
       x="-147.68002"
       height="165.87422"
       width="8.2872648"
       id="rect3331"
       style="fill:#000000;stroke:#000000;stroke-width:0.272791" /><path
       transform="rotate(-1.8295248,373.27131,-66.262876)"
       inkscape:transform-center-y="-5.9990755"
       inkscape:transform-center-x="-0.13766159"
       d="m -124.52677,7.1630453 -21.19121,-0.4383326 -21.1912,-0.4383327 10.97521,-18.132952 10.97521,-18.132953 10.21599,18.571285 z"
       inkscape:randomized="0"
       inkscape:rounded="0"
       inkscape:flatsided="false"
       sodipodi:arg2="1.591478"
       sodipodi:arg1="0.54428048"
       sodipodi:r2="12.237363"
       sodipodi:r1="24.474726"
       sodipodi:cy="-5.5100331"
       sodipodi:cx="-145.4649"
       sodipodi:sides="3"
       id="path3333"
       style="fill:#000000;stroke:#000000;stroke-width:0.295"
       sodipodi:type="star" /></g></svg>
