<?xml version="1.0" encoding="UTF-8" standalone="no"?>
<svg
   xmlns:dc="http://purl.org/dc/elements/1.1/"
   xmlns:cc="http://creativecommons.org/ns#"
   xmlns:rdf="http://www.w3.org/1999/02/22-rdf-syntax-ns#"
   xmlns:svg="http://www.w3.org/2000/svg"
   xmlns="http://www.w3.org/2000/svg"
   xmlns:sodipodi="http://sodipodi.sourceforge.net/DTD/sodipodi-0.dtd"
   xmlns:inkscape="http://www.inkscape.org/namespaces/inkscape"
   sodipodi:docname="waypoint-navigation.svg"
   inkscape:version="1.0beta2 (2b71d25, 2019-12-03)"
   xml:space="preserve"
   style="enable-background:new 0 0 250 250;"
   viewBox="0 0 250 250"
   y="0px"
   x="0px"
   id="Layer_1"
   version="1.1"><metadata
     id="metadata4205"><rdf:RDF><cc:Work
         rdf:about=""><dc:format>image/svg+xml</dc:format><dc:type
           rdf:resource="http://purl.org/dc/dcmitype/StillImage" /><dc:title></dc:title></cc:Work></rdf:RDF></metadata><defs
     id="defs4203" /><sodipodi:namedview
     inkscape:document-rotation="0"
     inkscape:window-maximized="0"
     inkscape:window-y="23"
     inkscape:window-x="250"
     inkscape:current-layer="Layer_1"
     inkscape:cy="125.07739"
     inkscape:cx="140.75117"
     inkscape:zoom="3.2991018"
     showgrid="false"
     id="namedview4201"
     inkscape:window-height="793"
     inkscape:window-width="1190"
     inkscape:pageshadow="2"
     inkscape:pageopacity="0"
     guidetolerance="10"
     gridtolerance="10"
     objecttolerance="10"
     borderopacity="1"
     bordercolor="#666666"
     pagecolor="#ffffff" /><style
     id="style4196"
     type="text/css">
	.st0{fill-rule:evenodd;clip-rule:evenodd;}
</style><path
     id="XMLID_13_"
     class="st0"
     d="m 211.9,126.80806 -0.3,-3.98137 -0.5,-3.98138 -0.7,-3.87377 -1,-3.87376 -1.2,-3.76617 -1.4,-3.65856 -1.6,-3.55095 -1.8,-3.443349 -2,-3.443349 -2.1,-3.335745 -2.3,-3.22814 -2.4,-3.120535 -2.6,-3.012931 -2.8,-2.905326 -2.9,-2.797721 -3.1,-2.582512 -3.2,-2.474908 -3.3,-2.367302 -3.5,-2.152094 -3.5,-2.044489 -3.7,-1.936884 -3.8,-1.721674 -3.9,-1.61407 -4,-1.398861 -4.1,-1.183651 -4.2,-1.076047 -4.2,-0.860837 -4.3,-0.753233 -4.3,-0.538023 -4.5,-0.322814 -4.5,-0.107605 -4.5,0.107605 -4.5,0.322814 -4.3,0.538023 -4.3,0.753233 -4.2,0.860837 -4.2,1.076047 -4.1,1.183651 -4,1.398861 -3.9,1.61407 -3.8,1.721674 -3.7,1.936884 -3.5,2.044489 -3.5,2.152094 -3.3,2.367302 -3.2,2.474908 -3.1,2.582512 -2.9,2.797721 -2.8,2.905326 -2.6,3.012931 -2.4,3.120535 -2.3,3.22814 -2.1,3.335745 -2,3.443349 -1.8,3.443349 -1.6,3.55095 -1.4,3.65856 -1.2,3.76617 -1,3.87376 -0.7,3.87377 -0.5,3.98138 -0.3,3.98137 -0.1,3.98137 0.1,3.98137 0.3,3.98138 0.5,3.98137 0.7,3.87377 1,3.87377 1.2,3.76616 1.4,3.65856 1.6,3.55095 1.8,3.44335 2,3.44335 2.1,3.33574 2.3,3.22814 2.4,3.12054 2.6,3.01293 2.8,2.90533 2.9,2.79772 3.1,2.58251 3.2,2.47491 3.3,2.3673 3.5,2.15209 3.5,2.04449 3.7,1.93689 3.8,1.72167 3.9,1.61407 4,1.39886 4.1,1.18365 4.2,1.07605 4.2,0.86084 4.3,0.75323 4.3,0.53802 4.5,0.32282 4.5,0.1076 4.5,-0.1076 4.5,-0.32282 4.3,-0.53802 4.3,-0.75323 4.2,-0.86084 4.2,-1.07605 4.1,-1.18365 4,-1.39886 3.9,-1.61407 3.8,-1.72167 3.7,-1.93689 3.5,-2.04449 3.5,-2.15209 3.3,-2.3673 3.2,-2.47491 3.1,-2.58251 2.9,-2.79772 2.8,-2.90533 2.6,-3.01293 2.4,-3.12054 2.3,-3.22814 2.1,-3.33574 2,-3.44335 1.8,-3.44335 1.6,-3.55095 1.4,-3.65856 1.2,-3.76616 1,-3.87377 0.7,-3.87377 0.5,-3.98137 0.3,-3.98138 0.1,-3.98137 -0.1,-3.98137 z m -16.6,7.31712 -0.3,3.22814 -0.5,3.22814 -0.6,3.22814 -0.8,3.12053 -1,3.01293 -1.2,3.01293 -1.3,2.90533 -1.4,2.79772 -1.6,2.79772 -1.7,2.69012 -1.8,2.58251 -2,2.47491 -2.1,2.3673 -2.2,2.3673 -2.4,2.1521 -2.4,2.15209 -2.6,2.04449 -2.7,1.93688 -2.8,1.72168 -2.8,1.72167 -3,1.50647 -3.1,1.39886 -3.1,1.29125 -3.3,1.18365 -3.3,0.96845 -3.4,0.96844 -3.5,0.64563 -3.5,0.64562 -3.6,0.32282 -3.6,0.21521 -3.6,0.1076 -3.7,-0.1076 -3.6,-0.21521 -3.6,-0.32282 -3.5,-0.64562 -3.5,-0.64563 -3.4,-0.96844 -3.3,-0.96845 -3.3,-1.18365 -3.1,-1.29125 -3.1,-1.39886 -3,-1.50647 -2.8,-1.72167 -2.8,-1.72168 -2.7,-1.93688 -2.6,-2.04449 -2.4,-2.15209 -2.4,-2.1521 -2.2,-2.3673 -2.1,-2.3673 -2,-2.47491 -1.8,-2.58251 -1.7,-2.69012 -1.6,-2.79772 -1.4,-2.79772 -1.3,-2.90533 -1.2,-3.01293 -1,-3.01293 -0.8,-3.12053 -0.6,-3.22814 -0.5,-3.22814 -0.3,-3.22814 -0.1,-3.33575 0.1,-3.33574 0.3,-3.22814 0.5,-3.22814 0.6,-3.22814 0.8,-3.12054 1,-3.01293 1.2,-3.01293 1.3,-2.90533 1.4,-2.79772 1.6,-2.79772 1.7,-2.690116 1.8,-2.582512 2,-2.474908 2.1,-2.367302 2.2,-2.367303 2.4,-2.152093 2.4,-2.152094 2.6,-2.044488 2.7,-1.936884 2.8,-1.721675 2.8,-1.721675 3,-1.506465 3.1,-1.398861 3.1,-1.291256 3.3,-1.183651 3.3,-0.968442 3.4,-0.968442 3.5,-0.645628 3.5,-0.645628 3.8,-0.215209 3.6,-0.21521 3.7,-0.107604 3.6,0.107604 3.6,0.21521 3.6,0.322814 3.5,0.645628 3.5,0.645628 3.4,0.968442 3.3,0.968442 3.3,1.183651 3.1,1.291256 3.1,1.398861 3,1.506465 2.8,1.721675 2.8,1.721674 2.7,1.936884 2.6,2.044489 2.4,2.152093 2.4,2.152094 2.2,2.367302 2.1,2.367303 2,2.474907 1.8,2.582513 1.7,2.690121 1.6,2.79772 1.4,2.79772 1.3,2.90532 1.2,3.01293 1,3.01294 0.8,3.12053 0.6,3.22814 0.5,3.22814 0.3,3.22814 0.1,3.33575 -0.3,3.22814 z"
     inkscape:connector-curvature="0"
     style="clip-rule:evenodd;fill-rule:evenodd;fill:#0000ff" /><path
     inkscape:connector-curvature="0"
     id="path3343-5"
     style="font-size:131.79099999999999682px;font-family:'Arial Black', 'Arial Bold', Gadget, sans-serif;stroke-width:0.82636;fill:#0000ff"
     d="m 95.633409,83.069244 h 16.826521 l 21.95799,52.970016 V 83.069244 h 16.98561 v 95.750976 h -16.98561 l -21.83866,-52.57813 v 52.57813 H 95.633409 Z" /><path
     inkscape:connector-curvature="0"
     id="path3733"
     d="M 116.80688,194.4482 C 105.77896,193.54417 93.583732,189.53723 84.220629,183.74147 71.84828,176.083 63.019396,165.95968 57.501065,153.10447 c -3.284627,-7.65169 -4.498634,-13.78763 -4.465724,-22.57105 0.01916,-5.11477 0.132453,-6.48215 0.841298,-10.15428 1.031308,-5.34265 2.418008,-9.506 4.842424,-14.53864 3.574253,-7.419478 6.963184,-12.156028 12.911639,-18.045989 8.805619,-8.719029 18.935858,-14.54858 31.534478,-18.146839 10.43959,-2.981624 24.48602,-3.535906 35.58417,-1.404176 24.31569,4.670554 43.76014,19.960182 52.42571,41.223584 4.30085,10.55331 5.18394,21.09915 2.76925,33.07007 -2.44876,12.1398 -9.72247,24.52652 -19.59299,33.36574 -15.45266,13.83813 -35.63236,20.3416 -57.54444,18.54531 z m -3.86802,-41.06461 0.0775,-25.64787 10.62304,25.5721 10.62305,25.57209 8.70039,0.0804 8.7004,0.0804 V 130.99274 82.944706 h -8.63703 -8.63703 l -0.0775,26.098314 -0.0775,26.09831 -10.78689,-26.02254 -10.78689,-26.022527 -8.53655,-0.0805 -8.53655,-0.0805 v 48.048107 48.0481 h 8.637 8.63701 z"
     style="fill:#aaeeff;stroke:#000000;stroke-width:0.0894183" /></svg>
