<?xml version="1.0" encoding="UTF-8" standalone="no"?>
<svg
   xmlns:dc="http://purl.org/dc/elements/1.1/"
   xmlns:cc="http://creativecommons.org/ns#"
   xmlns:rdf="http://www.w3.org/1999/02/22-rdf-syntax-ns#"
   xmlns:svg="http://www.w3.org/2000/svg"
   xmlns="http://www.w3.org/2000/svg"
   xmlns:sodipodi="http://sodipodi.sourceforge.net/DTD/sodipodi-0.dtd"
   xmlns:inkscape="http://www.inkscape.org/namespaces/inkscape"
   sodipodi:docname="waypoint-safety.svg"
   inkscape:version="1.0beta2 (2b71d25, 2019-12-03)"
   xml:space="preserve"
   style="enable-background:new 0 0 250 250;"
   viewBox="0 0 250 250"
   y="0px"
   x="0px"
   id="Layer_1"
   version="1.1"><metadata
     id="metadata4205"><rdf:RDF><cc:Work
         rdf:about=""><dc:format>image/svg+xml</dc:format><dc:type
           rdf:resource="http://purl.org/dc/dcmitype/StillImage" /><dc:title /></cc:Work></rdf:RDF></metadata><defs
     id="defs4203" /><sodipodi:namedview
     inkscape:document-rotation="0"
     inkscape:window-maximized="0"
     inkscape:window-y="39"
     inkscape:window-x="117"
     inkscape:current-layer="Layer_1"
     inkscape:cy="124.66683"
     inkscape:cx="133.56037"
     inkscape:zoom="2.7158796"
     showgrid="false"
     id="namedview4201"
     inkscape:window-height="780"
     inkscape:window-width="1240"
     inkscape:pageshadow="2"
     inkscape:pageopacity="0"
     guidetolerance="10"
     gridtolerance="10"
     objecttolerance="10"
     borderopacity="1"
     bordercolor="#666666"
     pagecolor="#ffffff" /><style
     id="style4196"
     type="text/css">
	.st0{fill-rule:evenodd;clip-rule:evenodd;}
</style><path
     id="XMLID_13_"
     class="st0"
     d="m 211.9,126.80806 -0.3,-3.98137 -0.5,-3.98138 -0.7,-3.87377 -1,-3.87376 -1.2,-3.76617 -1.4,-3.65856 -1.6,-3.55095 -1.8,-3.443349 -2,-3.443349 -2.1,-3.335745 -2.3,-3.22814 -2.4,-3.120535 -2.6,-3.012931 -2.8,-2.905326 -2.9,-2.797721 -3.1,-2.582512 -3.2,-2.474908 -3.3,-2.367302 -3.5,-2.152094 -3.5,-2.044489 -3.7,-1.936884 -3.8,-1.721674 -3.9,-1.61407 -4,-1.398861 -4.1,-1.183651 -4.2,-1.076047 -4.2,-0.860837 -4.3,-0.753233 -4.3,-0.538023 -4.5,-0.322814 -4.5,-0.107605 -4.5,0.107605 -4.5,0.322814 -4.3,0.538023 -4.3,0.753233 -4.2,0.860837 -4.2,1.076047 -4.1,1.183651 -4,1.398861 -3.9,1.61407 -3.8,1.721674 -3.7,1.936884 -3.5,2.044489 -3.5,2.152094 -3.3,2.367302 -3.2,2.474908 -3.1,2.582512 -2.9,2.797721 -2.8,2.905326 -2.6,3.012931 -2.4,3.120535 -2.3,3.22814 -2.1,3.335745 -2,3.443349 -1.8,3.443349 -1.6,3.55095 -1.4,3.65856 -1.2,3.76617 -1,3.87376 -0.7,3.87377 -0.5,3.98138 -0.3,3.98137 -0.1,3.98137 0.1,3.98137 0.3,3.98138 0.5,3.98137 0.7,3.87377 1,3.87377 1.2,3.76616 1.4,3.65856 1.6,3.55095 1.8,3.44335 2,3.44335 2.1,3.33574 2.3,3.22814 2.4,3.12054 2.6,3.01293 2.8,2.90533 2.9,2.79772 3.1,2.58251 3.2,2.47491 3.3,2.3673 3.5,2.15209 3.5,2.04449 3.7,1.93689 3.8,1.72167 3.9,1.61407 4,1.39886 4.1,1.18365 4.2,1.07605 4.2,0.86084 4.3,0.75323 4.3,0.53802 4.5,0.32282 4.5,0.1076 4.5,-0.1076 4.5,-0.32282 4.3,-0.53802 4.3,-0.75323 4.2,-0.86084 4.2,-1.07605 4.1,-1.18365 4,-1.39886 3.9,-1.61407 3.8,-1.72167 3.7,-1.93689 3.5,-2.04449 3.5,-2.15209 3.3,-2.3673 3.2,-2.47491 3.1,-2.58251 2.9,-2.79772 2.8,-2.90533 2.6,-3.01293 2.4,-3.12054 2.3,-3.22814 2.1,-3.33574 2,-3.44335 1.8,-3.44335 1.6,-3.55095 1.4,-3.65856 1.2,-3.76616 1,-3.87377 0.7,-3.87377 0.5,-3.98137 0.3,-3.98138 0.1,-3.98137 -0.1,-3.98137 z m -16.6,7.31712 -0.3,3.22814 -0.5,3.22814 -0.6,3.22814 -0.8,3.12053 -1,3.01293 -1.2,3.01293 -1.3,2.90533 -1.4,2.79772 -1.6,2.79772 -1.7,2.69012 -1.8,2.58251 -2,2.47491 -2.1,2.3673 -2.2,2.3673 -2.4,2.1521 -2.4,2.15209 -2.6,2.04449 -2.7,1.93688 -2.8,1.72168 -2.8,1.72167 -3,1.50647 -3.1,1.39886 -3.1,1.29125 -3.3,1.18365 -3.3,0.96845 -3.4,0.96844 -3.5,0.64563 -3.5,0.64562 -3.6,0.32282 -3.6,0.21521 -3.6,0.1076 -3.7,-0.1076 -3.6,-0.21521 -3.6,-0.32282 -3.5,-0.64562 -3.5,-0.64563 -3.4,-0.96844 -3.3,-0.96845 -3.3,-1.18365 -3.1,-1.29125 -3.1,-1.39886 -3,-1.50647 -2.8,-1.72167 -2.8,-1.72168 -2.7,-1.93688 -2.6,-2.04449 -2.4,-2.15209 -2.4,-2.1521 -2.2,-2.3673 -2.1,-2.3673 -2,-2.47491 -1.8,-2.58251 -1.7,-2.69012 -1.6,-2.79772 -1.4,-2.79772 -1.3,-2.90533 -1.2,-3.01293 -1,-3.01293 -0.8,-3.12053 -0.6,-3.22814 -0.5,-3.22814 -0.3,-3.22814 -0.1,-3.33575 0.1,-3.33574 0.3,-3.22814 0.5,-3.22814 0.6,-3.22814 0.8,-3.12054 1,-3.01293 1.2,-3.01293 1.3,-2.90533 1.4,-2.79772 1.6,-2.79772 1.7,-2.690116 1.8,-2.582512 2,-2.474908 2.1,-2.367302 2.2,-2.367303 2.4,-2.152093 2.4,-2.152094 2.6,-2.044488 2.7,-1.936884 2.8,-1.721675 2.8,-1.721675 3,-1.506465 3.1,-1.398861 3.1,-1.291256 3.3,-1.183651 3.3,-0.968442 3.4,-0.968442 3.5,-0.645628 3.5,-0.645628 3.8,-0.215209 3.6,-0.21521 3.7,-0.107604 3.6,0.107604 3.6,0.21521 3.6,0.322814 3.5,0.645628 3.5,0.645628 3.4,0.968442 3.3,0.968442 3.3,1.183651 3.1,1.291256 3.1,1.398861 3,1.506465 2.8,1.721675 2.8,1.721674 2.7,1.936884 2.6,2.044489 2.4,2.152093 2.4,2.152094 2.2,2.367302 2.1,2.367303 2,2.474907 1.8,2.582513 1.7,2.690121 1.6,2.79772 1.4,2.79772 1.3,2.90532 1.2,3.01293 1,3.01294 0.8,3.12053 0.6,3.22814 0.5,3.22814 0.3,3.22814 0.1,3.33575 -0.3,3.22814 z"
     inkscape:connector-curvature="0"
     style="clip-rule:evenodd;fill-rule:evenodd" /><g
     id="text5489"
     style="font-style:normal;font-weight:normal;font-size:60.27892684999999773px;line-height:125%;font-family:sans-serif;letter-spacing:0px;word-spacing:0px;fill:#000000;fill-opacity:1;stroke:none;stroke-width:1px;stroke-linecap:butt;stroke-linejoin:miter;stroke-opacity:1"
     transform="scale(0.76952856,1.2994969)"><path
       inkscape:connector-curvature="0"
       id="path3424"
       style="font-style:normal;font-variant:normal;font-weight:900;font-stretch:normal;font-family:'Arial Black';-inkscape-font-specification:'Arial Black, Heavy';stroke-width:1.89085999999999999px;fill:#000000"
       d="m 124.67221,114.96596 23.2295,-1.55164 q 0.75455,6.03418 3.07213,9.19494 3.77276,5.11469 10.77934,5.11469 5.22799,0 8.03063,-2.58606 2.85652,-2.64357 2.85652,-6.09167 0,-3.27569 -2.69483,-5.86177 -2.69485,-2.58609 -12.50406,-4.88482 -16.06123,-3.85039 -22.90612,-10.229394 -6.89878,-6.378996 -6.89878,-16.263567 0,-6.493934 3.50329,-12.240778 3.55718,-5.804311 10.61765,-9.080012 7.11438,-3.33317 19.45674,-3.33317 15.14498,0 23.06781,6.034188 7.97673,5.976716 9.48583,19.07952 l -23.01392,1.436711 q -0.91624,-5.689375 -3.88057,-8.275454 -2.91043,-2.586082 -8.08451,-2.586082 -4.25784,0 -6.41372,1.953928 -2.15587,1.896458 -2.15587,4.654942 0,2.011397 1.77859,3.620513 1.7247,1.666585 8.19232,3.103296 16.00733,3.677979 22.90611,7.470897 6.95269,3.735447 10.07871,9.309892 3.17991,5.57444 3.17991,12.47066 0,8.10304 -4.20395,14.94179 -4.20395,6.83874 -11.7495,10.40178 -7.54555,3.50558 -19.02555,3.50558 -20.15739,0 -27.91852,-8.27545 -7.76113,-8.27547 -8.78518,-21.03346 z" /></g><path
     inkscape:connector-curvature="0"
     id="path1062"
     d="m 116.25474,194.39204 c -13.42703,-1.28412 -27.451339,-6.74242 -38.046447,-14.80779 -3.83719,-2.921 -10.1776,-9.2552 -12.807346,-12.79479 -10.479346,-14.10503 -14.576307,-30.99389 -11.383285,-46.92521 1.805593,-9.00886 6.137083,-18.33032 11.986517,-25.795245 10.32289,-13.173853 25.391664,-22.185928 43.119491,-25.788169 5.46449,-1.110369 16.50081,-1.577585 22.77977,-0.964368 25.18681,2.459798 47.18303,17.080747 57.41946,38.166892 2.61565,5.38798 3.70244,8.53533 4.87582,14.12039 1.80399,8.5866 1.10546,19.98052 -1.75125,28.56508 -1.35144,4.06115 -4.77997,11.25294 -7.03389,14.75448 -5.11659,7.94881 -13.30428,15.78511 -22.06205,21.11524 -7.09008,4.31514 -17.44884,8.10802 -26.27699,9.62139 -5.12752,0.87899 -15.47822,1.24295 -20.8198,0.7321 z m 14.9123,-7.57779 c 3.90808,-1.00301 6.76605,-2.6605 9.75742,-5.65883 3.37102,-3.37887 5.55463,-7.11396 7.4196,-12.69135 1.79503,-5.36822 2.51986,-9.55249 2.77763,-16.0346 0.59927,-15.07024 -3.50793,-26.08711 -12.1326,-32.54362 -3.26342,-2.44303 -8.15522,-5.03232 -14.31384,-7.57648 -2.55792,-1.05669 -5.27181,-2.43319 -6.03088,-3.05887 -1.77679,-1.46459 -2.73951,-3.60647 -2.74975,-6.11776 -0.0112,-2.74269 0.63304,-4.627406 2.17566,-6.364991 1.09088,-1.228747 1.60749,-1.513303 3.04017,-1.674555 2.80149,-0.315316 4.24281,0.138554 5.99073,1.886472 1.82971,1.829703 2.91223,4.410824 3.66204,8.731604 0.2814,1.62155 0.57767,3.01431 0.65837,3.09501 0.0807,0.0807 3.9502,-0.26105 8.5989,-0.75945 4.64869,-0.49839 8.65148,-0.90626 8.89508,-0.90637 0.50245,-2.1e-4 0.40096,-1.5637 -0.50123,-7.721465 -2.03238,-13.871724 -7.79061,-21.96555 -17.47719,-24.566113 -3.5975,-0.965822 -11.04338,-0.861282 -14.85542,0.208571 -4.09482,1.149211 -6.22484,2.39539 -9.27848,5.428422 -2.16164,2.147055 -2.97594,3.313999 -4.49637,6.443585 -1.02118,2.101936 -2.308266,5.478624 -2.860205,7.50375 -0.94231,3.457432 -1.004942,4.164974 -1.026699,11.59845 -0.01889,6.45745 0.102424,8.45927 0.658317,10.86205 2.656567,11.48264 8.977837,18.36162 22.147207,24.10117 6.07459,2.64747 8.40255,4.38484 9.96124,7.43415 2.62052,5.12661 1.4193,12.73552 -2.51074,15.90384 -1.92249,1.54987 -4.99697,1.7993 -7.46308,0.60548 -3.65728,-1.77047 -6.18736,-7.27558 -6.97762,-15.18236 -0.15079,-1.50874 -0.41775,-2.48637 -0.67935,-2.48788 -0.51043,-0.003 -17.713706,1.91308 -17.786625,1.981 -0.252302,0.23501 0.822533,9.0997 1.528094,12.60298 3.297221,16.37148 9.932941,24.01135 22.201271,25.56089 3.21121,0.40559 8.88066,0.11273 11.66835,-0.60273 z"
     style="fill:#ff0000;stroke-width:0.368205" /></svg>
